<svg width="24" height="24" viewBox="0 0 24 24" fill="none" xmlns="http://www.w3.org/2000/svg">
<path d="M22.7041 12.1873L14.7065 4.19177C14.3146 3.79999 13.6788 3.79999 13.2869 4.19177C12.895 4.58355 12.895 5.2192 13.2869 5.61098L19.585 11.8975H3.9997C3.44787 11.8975 3 12.3452 3 12.8969C3 13.4486 3.44787 13.8964 3.9997 13.8964H19.585L13.2869 20.1829C13.098 20.3708 12.991 20.6256 12.991 20.8925C12.991 21.1593 13.098 21.4142 13.2869 21.6021C13.4749 21.791 13.7298 21.8979 13.9967 21.8979C14.2636 21.8979 14.5185 21.791 14.7065 21.6021L22.7041 13.6065C22.893 13.4186 23 13.1638 23 12.8969C23 12.6301 22.893 12.3752 22.7041 12.1873Z" fill="#111820"/>
</svg>
