<svg width="745" height="141" viewBox="0 0 745 141" fill="none" xmlns="http://www.w3.org/2000/svg">
<g clip-path="url(#clip0_11026_313853)">
<rect y="0.558594" width="364.5" height="140" rx="8" fill="#C2F2EF"/>
<rect y="0.558594" width="70" height="8" fill="#02A2AC"/>
<rect x="70" y="0.558594" width="70" height="8" fill="#1DCBCA"/>
<rect x="140" y="0.558594" width="224.5" height="8" fill="#71E3E2"/>
<path d="M25.2426 38.5586H26.5386V34.5506H30.0066V33.4106H26.5386V30.7586H30.6306V29.6186H25.2426V38.5586ZM34.6876 38.7146C36.1396 38.7146 37.3036 37.9706 37.7836 36.8426H36.4156C36.0796 37.4066 35.4916 37.6586 34.7356 37.6586C33.5956 37.6586 32.7676 36.8666 32.6356 35.7146H37.9276C37.9996 33.4346 36.7036 31.9466 34.6876 31.9466C32.7196 31.9466 31.3396 33.4106 31.3396 35.3306C31.3396 37.2626 32.7076 38.7146 34.6876 38.7146ZM34.6756 32.9546C35.6836 32.9546 36.4756 33.5786 36.6196 34.7906H32.6476C32.7916 33.7106 33.6196 32.9546 34.6756 32.9546ZM43.6062 38.5586H44.7462V34.3586C44.7462 32.4626 43.5462 31.9226 42.1182 31.9226C40.4862 31.9226 39.4182 32.7746 39.3342 34.0106H40.5102C40.5942 33.2666 41.1822 32.8826 42.1062 32.8706C42.9822 32.8586 43.4982 33.3026 43.4982 34.3226V34.5986C40.9542 34.3946 39.0342 35.0066 39.0342 36.7826C39.0342 37.7546 39.8742 38.7146 41.5062 38.7146C42.4422 38.7146 43.2342 38.3306 43.6062 37.7306V38.5586ZM43.5462 35.9426C43.5462 37.2266 42.7662 37.7546 41.7222 37.7546C40.9182 37.7546 40.3422 37.3586 40.3422 36.6866C40.3422 35.7386 41.4102 35.3306 43.5462 35.4986V35.9426ZM48.9611 38.6786C49.2011 38.6786 49.4891 38.6666 49.7411 38.6186V37.5866C49.5491 37.6106 49.3931 37.6226 49.2371 37.6226C48.4691 37.6226 48.2531 37.1306 48.2531 36.2666V33.0626H49.7531V32.1026H48.2531V29.9186L46.9931 30.7826V32.1026H45.9251V33.0626H46.9931V36.4106C46.9931 38.0426 47.7131 38.6786 48.9611 38.6786ZM53.8998 38.7146C54.7638 38.7146 55.4478 38.4986 55.9038 38.0906C56.4198 37.6466 56.6838 36.9746 56.6838 35.9066V32.1026H55.4358V35.8586C55.4358 36.5306 55.2918 36.9386 55.0518 37.2146C54.7758 37.5146 54.3918 37.6466 53.8998 37.6466C53.4078 37.6466 53.0118 37.5146 52.7478 37.2146C52.4958 36.9386 52.3638 36.5306 52.3638 35.8586V32.1026H51.1158V35.9066C51.1158 36.9746 51.3678 37.6466 51.8838 38.0906C52.3398 38.4986 53.0238 38.7146 53.8998 38.7146ZM58.6483 32.1026V38.5586H59.8843V35.1746C59.8843 33.8906 60.3763 33.3026 61.5163 33.3026C61.5643 33.3026 61.9603 33.3026 62.0203 33.3146V32.1026C61.9243 32.0906 61.8283 32.0906 61.7323 32.0906C60.9043 32.0906 60.2083 32.5106 59.8603 33.2906V32.1026H58.6483ZM66.047 38.7146C67.499 38.7146 68.663 37.9706 69.143 36.8426H67.775C67.439 37.4066 66.851 37.6586 66.095 37.6586C64.955 37.6586 64.127 36.8666 63.995 35.7146H69.287C69.359 33.4346 68.063 31.9466 66.047 31.9466C64.079 31.9466 62.699 33.4106 62.699 35.3306C62.699 37.2626 64.067 38.7146 66.047 38.7146ZM66.035 32.9546C67.043 32.9546 67.835 33.5786 67.979 34.7906H64.007C64.151 33.7106 64.979 32.9546 66.035 32.9546ZM73.5015 38.7146C74.3775 38.7146 75.2415 38.3306 75.6975 37.6106V38.5586H76.9455V29.6186H75.6975V33.0506C75.2415 32.3306 74.3775 31.9466 73.5015 31.9466C71.7735 31.9466 70.4055 33.3386 70.4055 35.3306C70.4055 37.3226 71.7735 38.7146 73.5015 38.7146ZM71.7015 35.3306C71.7015 33.9266 72.5415 32.9786 73.7295 32.9786C74.9295 32.9786 75.7695 33.9266 75.7695 35.3306C75.7695 36.7346 74.9295 37.6826 73.7295 37.6826C72.5415 37.6826 71.7015 36.7346 71.7015 35.3306Z" fill="#00364F"/>
<path d="M25.216 63.5586H30.192C32.704 63.5586 34.432 62.1666 34.432 60.1186C34.432 58.6626 33.616 57.7186 32.528 57.2226C33.2 56.7266 33.632 55.9746 33.632 54.9346C33.632 53.1426 32.16 51.6386 29.856 51.6386H25.216V63.5586ZM27.712 56.5346V53.6386H29.344C30.352 53.6386 31.04 54.2466 31.04 55.0786C31.04 55.9106 30.352 56.5346 29.328 56.5346H27.712ZM27.712 61.5586V58.4706H29.904C31.088 58.4706 31.84 59.0786 31.84 60.0066C31.84 60.9186 31.088 61.5586 29.936 61.5586H27.712ZM41.1451 58.1826C37.4651 57.9906 35.4651 59.1266 35.4651 61.0306C35.4651 62.8066 36.9371 63.7666 38.6171 63.7666C39.8171 63.7666 40.7931 63.4146 41.3371 62.5826V63.5586H43.5931V58.2946C43.5931 55.6706 42.2491 54.7106 39.7851 54.7106C37.3051 54.7106 35.8811 56.0226 35.7371 57.6226H37.9611C38.0571 56.7906 38.7451 56.4066 39.6091 56.4066C40.5531 56.4066 41.1451 56.7906 41.1451 57.8786V58.1826ZM41.2091 59.7346V59.9426C41.2091 61.5266 40.4091 62.0706 39.3211 62.0706C38.4731 62.0706 37.9291 61.6066 37.9291 60.9506C37.9291 60.0866 39.1291 59.5746 41.2091 59.7346ZM45.508 63.5586H47.924V58.4226C47.924 57.0786 48.596 56.5666 49.444 56.5666C50.26 56.5666 50.884 57.0786 50.884 58.4226V63.5586H53.3V58.3586C53.3 56.2306 52.356 54.7426 50.372 54.7426C49.236 54.7426 48.388 55.1106 47.924 55.8306V54.9506H45.508V63.5586ZM55.2424 63.5586H57.6584V58.4226C57.6584 57.0786 58.3304 56.5666 59.1784 56.5666C59.9944 56.5666 60.6184 57.0786 60.6184 58.4226V63.5586H63.0344V58.3586C63.0344 56.2306 62.0904 54.7426 60.1064 54.7426C58.9704 54.7426 58.1224 55.1106 57.6584 55.8306V54.9506H55.2424V63.5586ZM68.9608 63.7666C70.9288 63.7666 72.5768 62.7906 73.2488 61.1106H70.7368C70.4168 61.7026 69.7928 61.9426 68.9608 61.9426C67.7768 61.9426 67.0568 61.0946 66.8968 59.9426H73.4088C73.5208 56.8386 71.7128 54.7426 68.9608 54.7426C66.3368 54.7426 64.4808 56.6626 64.4808 59.2546C64.4808 61.8626 66.3528 63.7666 68.9608 63.7666ZM68.9128 56.5186C70.0488 56.5186 70.8968 57.1586 70.9928 58.3746H66.8808C66.9448 57.3026 67.8088 56.5186 68.9128 56.5186ZM74.9299 54.9506V63.5586H77.3459V59.0466C77.3459 57.4626 78.0819 57.2386 79.3139 57.2386H80.2099V54.9986C80.0339 54.9826 79.8579 54.9666 79.6979 54.9666C78.5939 54.9666 77.8259 55.4626 77.3139 56.5346V54.9506H74.9299ZM86.8176 63.5586H89.3136V53.7506H92.6576V51.6386H83.4896V53.7506H86.8176V63.5586ZM96.3358 63.7666C98.3038 63.7666 99.9518 62.7906 100.624 61.1106H98.1118C97.7918 61.7026 97.1678 61.9426 96.3358 61.9426C95.1518 61.9426 94.4318 61.0946 94.2718 59.9426H100.784C100.896 56.8386 99.0878 54.7426 96.3358 54.7426C93.7118 54.7426 91.8558 56.6626 91.8558 59.2546C91.8558 61.8626 93.7278 63.7666 96.3358 63.7666ZM96.2878 56.5186C97.4238 56.5186 98.2718 57.1586 98.3678 58.3746H94.2558C94.3198 57.3026 95.1838 56.5186 96.2878 56.5186ZM100.827 63.5586H103.259L105.147 60.9666L106.939 63.5586H109.643L106.523 59.0626L109.515 54.9506H107.067L105.339 57.3346L103.691 54.9506H101.003L103.963 59.2386L100.827 63.5586ZM114.249 63.7666C114.633 63.7666 115.129 63.7506 115.513 63.6706V61.7186C115.305 61.7506 115.129 61.7826 114.969 61.7826C113.753 61.7826 113.609 60.8386 113.609 59.6226V56.6946H115.529V54.9506H113.609V51.6706L111.193 53.0466V54.9506H109.833V56.6946H111.193V59.9266C111.193 62.6466 112.233 63.7666 114.249 63.7666ZM124.328 63.7666C124.712 63.7666 125.208 63.7506 125.592 63.6706V61.7186C125.384 61.7506 125.208 61.7826 125.048 61.7826C123.832 61.7826 123.688 60.8386 123.688 59.6226V56.6946H125.608V54.9506H123.688V51.6706L121.272 53.0466V54.9506H119.912V56.6946H121.272V59.9266C121.272 62.6466 122.312 63.7666 124.328 63.7666ZM135.618 59.2546C135.618 56.5826 133.682 54.7426 131.026 54.7426C128.37 54.7426 126.434 56.5826 126.434 59.2546C126.434 61.9266 128.37 63.7666 131.026 63.7666C133.682 63.7666 135.618 61.9266 135.618 59.2546ZM133.186 59.2546C133.186 60.9346 132.37 61.9426 131.026 61.9426C129.682 61.9426 128.866 60.9346 128.866 59.2546C128.866 57.5746 129.682 56.5666 131.026 56.5666C132.37 56.5666 133.186 57.5746 133.186 59.2546ZM141.573 63.5586H143.989V56.6946H145.829V54.9506H143.989V54.9026C143.989 53.5906 144.597 53.2546 145.893 53.3986V51.4626C143.397 51.2546 141.573 52.2626 141.573 54.9026V54.9506H140.213V56.6946H141.573V63.5586ZM150.805 63.7666C152.773 63.7666 154.421 62.7906 155.093 61.1106H152.581C152.261 61.7026 151.637 61.9426 150.805 61.9426C149.621 61.9426 148.901 61.0946 148.741 59.9426H155.253C155.365 56.8386 153.557 54.7426 150.805 54.7426C148.181 54.7426 146.325 56.6626 146.325 59.2546C146.325 61.8626 148.197 63.7666 150.805 63.7666ZM150.757 56.5186C151.893 56.5186 152.741 57.1586 152.837 58.3746H148.725C148.789 57.3026 149.653 56.5186 150.757 56.5186ZM161.958 58.1826C158.278 57.9906 156.278 59.1266 156.278 61.0306C156.278 62.8066 157.75 63.7666 159.43 63.7666C160.63 63.7666 161.606 63.4146 162.15 62.5826V63.5586H164.406V58.2946C164.406 55.6706 163.062 54.7106 160.598 54.7106C158.118 54.7106 156.694 56.0226 156.55 57.6226H158.774C158.87 56.7906 159.558 56.4066 160.422 56.4066C161.366 56.4066 161.958 56.7906 161.958 57.8786V58.1826ZM162.022 59.7346V59.9426C162.022 61.5266 161.222 62.0706 160.134 62.0706C159.286 62.0706 158.742 61.6066 158.742 60.9506C158.742 60.0866 159.942 59.5746 162.022 59.7346ZM169.874 63.7666C170.258 63.7666 170.754 63.7506 171.138 63.6706V61.7186C170.93 61.7506 170.754 61.7826 170.594 61.7826C169.378 61.7826 169.234 60.8386 169.234 59.6226V56.6946H171.154V54.9506H169.234V51.6706L166.818 53.0466V54.9506H165.458V56.6946H166.818V59.9266C166.818 62.6466 167.858 63.7666 169.874 63.7666ZM176.505 63.7666C179.033 63.7666 180.473 62.6946 180.473 60.0226V54.9506H178.057V60.0386C178.057 61.2546 177.561 61.9426 176.505 61.9426C175.449 61.9426 174.953 61.2546 174.953 60.0386V54.9506H172.537V60.0226C172.537 62.6946 173.977 63.7666 176.505 63.7666ZM182.399 54.9506V63.5586H184.815V59.0466C184.815 57.4626 185.551 57.2386 186.783 57.2386H187.679V54.9986C187.503 54.9826 187.327 54.9666 187.167 54.9666C186.063 54.9666 185.295 55.4626 184.783 56.5346V54.9506H182.399ZM192.742 63.7666C194.71 63.7666 196.358 62.7906 197.03 61.1106H194.518C194.198 61.7026 193.574 61.9426 192.742 61.9426C191.558 61.9426 190.838 61.0946 190.678 59.9426H197.19C197.302 56.8386 195.494 54.7426 192.742 54.7426C190.118 54.7426 188.262 56.6626 188.262 59.2546C188.262 61.8626 190.134 63.7666 192.742 63.7666ZM192.694 56.5186C193.83 56.5186 194.678 57.1586 194.774 58.3746H190.662C190.726 57.3026 191.59 56.5186 192.694 56.5186ZM205.775 63.7666C207.791 63.7666 209.471 62.7426 209.471 60.9346C209.471 59.1426 207.999 58.5666 206.223 58.2626L205.263 58.1026C204.367 57.9586 204.079 57.6066 204.079 57.1906C204.079 56.7586 204.527 56.3906 205.423 56.3906C206.175 56.3906 206.767 56.6146 206.991 57.2866H209.199C208.831 55.1426 207.039 54.6626 205.407 54.6626C203.551 54.6626 201.951 55.7346 201.951 57.2546C201.951 58.7746 203.183 59.6866 204.863 59.9746L205.903 60.1506C206.831 60.3106 207.279 60.5826 207.279 61.1426C207.279 61.7186 206.719 62.0386 205.823 62.0386C204.895 62.0386 204.335 61.6706 204.143 60.9346H201.855C202.223 62.9666 203.775 63.7666 205.775 63.7666ZM219.634 59.2546C219.634 56.5826 217.698 54.7426 215.042 54.7426C212.386 54.7426 210.45 56.5826 210.45 59.2546C210.45 61.9266 212.386 63.7666 215.042 63.7666C217.698 63.7666 219.634 61.9266 219.634 59.2546ZM217.202 59.2546C217.202 60.9346 216.386 61.9426 215.042 61.9426C213.698 61.9426 212.882 60.9346 212.882 59.2546C212.882 57.5746 213.698 56.5666 215.042 56.5666C216.386 56.5666 217.202 57.5746 217.202 59.2546ZM221.149 63.5586H223.565V58.4226C223.565 57.0786 224.173 56.5666 225.021 56.5666C225.837 56.5666 226.397 57.0786 226.397 58.4226V63.5586H228.813V58.4226C228.813 57.0786 229.421 56.5666 230.269 56.5666C231.085 56.5666 231.645 57.0786 231.645 58.4226V63.5586H234.061V58.3586C234.061 56.2306 233.181 54.7426 231.197 54.7426C230.157 54.7426 228.973 55.1106 228.333 56.1026C227.885 55.2546 227.101 54.7426 225.949 54.7426C224.813 54.7426 224.029 55.1106 223.565 55.8306V54.9506H221.149V63.5586ZM239.976 63.7666C241.944 63.7666 243.592 62.7906 244.264 61.1106H241.752C241.432 61.7026 240.808 61.9426 239.976 61.9426C238.792 61.9426 238.072 61.0946 237.912 59.9426H244.424C244.536 56.8386 242.728 54.7426 239.976 54.7426C237.352 54.7426 235.496 56.6626 235.496 59.2546C235.496 61.8626 237.368 63.7666 239.976 63.7666ZM239.928 56.5186C241.064 56.5186 241.912 57.1586 242.008 58.3746H237.896C237.96 57.3026 238.824 56.5186 239.928 56.5186ZM249.633 63.5586H252.049V60.1506L255.265 63.5586H258.385L254.337 59.0466L257.873 54.9506H254.977L252.049 58.4226V51.6386H249.633V63.5586ZM258.846 52.5666C258.846 53.3666 259.502 54.0226 260.286 54.0226C261.07 54.0226 261.726 53.3666 261.726 52.5666C261.726 51.7826 261.07 51.1266 260.286 51.1266C259.502 51.1266 258.846 51.7826 258.846 52.5666ZM259.086 63.5586H261.502V54.9506H259.086V63.5586ZM263.524 63.5586H265.94V58.4226C265.94 57.0786 266.612 56.5666 267.46 56.5666C268.276 56.5666 268.9 57.0786 268.9 58.4226V63.5586H271.316V58.3586C271.316 56.2306 270.372 54.7426 268.388 54.7426C267.252 54.7426 266.404 55.1106 265.94 55.8306V54.9506H263.524V63.5586ZM272.778 59.2546C272.778 62.0386 274.634 63.7666 276.858 63.7666C278.01 63.7666 278.986 63.2386 279.386 62.5826V63.5586H281.802V51.6386H279.386V55.9266C278.986 55.2706 278.01 54.7426 276.858 54.7426C274.634 54.7426 272.778 56.4706 272.778 59.2546ZM279.53 59.2546C279.53 61.0946 278.522 61.9426 277.37 61.9426C276.202 61.9426 275.242 61.0946 275.242 59.2546C275.242 57.4146 276.202 56.5666 277.37 56.5666C278.522 56.5666 279.53 57.4146 279.53 59.2546ZM33.696 83.2546C33.696 80.5826 31.76 78.7426 29.104 78.7426C26.448 78.7426 24.512 80.5826 24.512 83.2546C24.512 85.9266 26.448 87.7666 29.104 87.7666C31.76 87.7666 33.696 85.9266 33.696 83.2546ZM31.264 83.2546C31.264 84.9346 30.448 85.9426 29.104 85.9426C27.76 85.9426 26.944 84.9346 26.944 83.2546C26.944 81.5746 27.76 80.5666 29.104 80.5666C30.448 80.5666 31.264 81.5746 31.264 83.2546ZM35.7288 87.5586H38.1448V80.6946H39.9848V78.9506H38.1448V78.9026C38.1448 77.5906 38.7528 77.2546 40.0488 77.3986V75.4626C37.5528 75.2546 35.7288 76.2626 35.7288 78.9026V78.9506H34.3688V80.6946H35.7288V87.5586ZM49.7389 82.1826C46.0589 81.9906 44.0589 83.1266 44.0589 85.0306C44.0589 86.8066 45.5309 87.7666 47.2109 87.7666C48.4109 87.7666 49.3869 87.4146 49.9309 86.5826V87.5586H52.1869V82.2946C52.1869 79.6706 50.8429 78.7106 48.3789 78.7106C45.8989 78.7106 44.4749 80.0226 44.3309 81.6226H46.5549C46.6509 80.7906 47.3389 80.4066 48.2029 80.4066C49.1469 80.4066 49.7389 80.7906 49.7389 81.8786V82.1826ZM49.8029 83.7346V83.9426C49.8029 85.5266 49.0029 86.0706 47.9149 86.0706C47.0669 86.0706 46.5229 85.6066 46.5229 84.9506C46.5229 84.0866 47.7229 83.5746 49.8029 83.7346ZM54.1018 78.9506V87.5586H56.5178V83.0466C56.5178 81.4626 57.2538 81.2386 58.4858 81.2386H59.3818V78.9986C59.2058 78.9826 59.0298 78.9666 58.8698 78.9666C57.7658 78.9666 56.9978 79.4626 56.4858 80.5346V78.9506H54.1018ZM64.265 87.7666C64.649 87.7666 65.145 87.7506 65.529 87.6706V85.7186C65.321 85.7506 65.145 85.7826 64.985 85.7826C63.769 85.7826 63.625 84.8386 63.625 83.6226V80.6946H65.545V78.9506H63.625V75.6706L61.209 77.0466V78.9506H59.849V80.6946H61.209V83.9266C61.209 86.6466 62.249 87.7666 64.265 87.7666ZM66.7836 76.5666C66.7836 77.3666 67.4396 78.0226 68.2236 78.0226C69.0076 78.0226 69.6636 77.3666 69.6636 76.5666C69.6636 75.7826 69.0076 75.1266 68.2236 75.1266C67.4396 75.1266 66.7836 75.7826 66.7836 76.5666ZM67.0236 87.5586H69.4396V78.9506H67.0236V87.5586ZM73.3811 83.2546C73.3811 81.6706 74.1011 80.5666 75.4451 80.5666C76.3731 80.5666 76.9811 80.9506 77.2691 81.8946H79.7331C79.2371 79.8946 77.5891 78.7426 75.4611 78.7426C72.8211 78.7426 70.9651 80.6466 70.9651 83.2546C70.9651 85.8626 72.8211 87.7666 75.4611 87.7666C77.5891 87.7666 79.2371 86.6146 79.7331 84.6146H77.2691C76.9811 85.5586 76.3731 85.9426 75.4451 85.9426C74.1011 85.9426 73.3811 84.8386 73.3811 83.2546ZM81.0861 87.5586H83.5021V75.6386H81.0861V87.5586ZM89.5076 87.7666C91.4756 87.7666 93.1236 86.7906 93.7956 85.1106H91.2836C90.9636 85.7026 90.3396 85.9426 89.5076 85.9426C88.3236 85.9426 87.6036 85.0946 87.4436 83.9426H93.9556C94.0676 80.8386 92.2596 78.7426 89.5076 78.7426C86.8836 78.7426 85.0276 80.6626 85.0276 83.2546C85.0276 85.8626 86.8996 87.7666 89.5076 87.7666ZM89.4596 80.5186C90.5956 80.5186 91.4436 81.1586 91.5396 82.3746H87.4276C87.4916 81.3026 88.3556 80.5186 89.4596 80.5186ZM101.084 83.2546C101.084 81.6706 101.804 80.5666 103.148 80.5666C104.076 80.5666 104.684 80.9506 104.972 81.8946H107.436C106.94 79.8946 105.292 78.7426 103.164 78.7426C100.524 78.7426 98.6683 80.6466 98.6683 83.2546C98.6683 85.8626 100.524 87.7666 103.164 87.7666C105.292 87.7666 106.94 86.6146 107.436 84.6146H104.972C104.684 85.5586 104.076 85.9426 103.148 85.9426C101.804 85.9426 101.084 84.8386 101.084 83.2546ZM113.973 82.1826C110.293 81.9906 108.293 83.1266 108.293 85.0306C108.293 86.8066 109.765 87.7666 111.445 87.7666C112.645 87.7666 113.621 87.4146 114.165 86.5826V87.5586H116.421V82.2946C116.421 79.6706 115.077 78.7106 112.613 78.7106C110.133 78.7106 108.709 80.0226 108.565 81.6226H110.789C110.885 80.7906 111.573 80.4066 112.437 80.4066C113.381 80.4066 113.973 80.7906 113.973 81.8786V82.1826ZM114.037 83.7346V83.9426C114.037 85.5266 113.237 86.0706 112.149 86.0706C111.301 86.0706 110.757 85.6066 110.757 84.9506C110.757 84.0866 111.957 83.5746 114.037 83.7346ZM118.336 87.5586H120.752V82.4226C120.752 81.0786 121.424 80.5666 122.272 80.5666C123.088 80.5666 123.712 81.0786 123.712 82.4226V87.5586H126.128V82.3586C126.128 80.2306 125.184 78.7426 123.2 78.7426C122.064 78.7426 121.216 79.1106 120.752 79.8306V78.9506H118.336V87.5586ZM135.662 90.8866C138.35 90.8866 140.318 89.7666 140.318 86.6146V78.9506H137.902V79.8786C137.374 79.0306 136.19 78.7426 135.39 78.7426C133.262 78.7426 131.278 80.3586 131.278 83.1586C131.278 85.9586 133.262 87.5746 135.39 87.5746C136.19 87.5746 137.374 87.2866 137.902 86.4386V87.0466C137.902 88.6146 136.862 88.9986 135.774 88.9986C134.926 88.9986 134.286 88.7266 134.03 88.1506H131.726C132.126 90.0546 133.87 90.8866 135.662 90.8866ZM135.87 85.6706C134.702 85.6706 133.742 84.8706 133.742 83.1586C133.742 81.4466 134.702 80.6466 135.87 80.6466C137.038 80.6466 138.046 81.4466 138.046 83.1586C138.046 84.8706 137.038 85.6706 135.87 85.6706ZM151.024 83.2546C151.024 80.5826 149.088 78.7426 146.432 78.7426C143.776 78.7426 141.84 80.5826 141.84 83.2546C141.84 85.9266 143.776 87.7666 146.432 87.7666C149.088 87.7666 151.024 85.9266 151.024 83.2546ZM148.592 83.2546C148.592 84.9346 147.776 85.9426 146.432 85.9426C145.088 85.9426 144.272 84.9346 144.272 83.2546C144.272 81.5746 145.088 80.5666 146.432 80.5666C147.776 80.5666 148.592 81.5746 148.592 83.2546ZM164.915 83.2546C164.915 80.5826 162.979 78.7426 160.323 78.7426C157.667 78.7426 155.731 80.5826 155.731 83.2546C155.731 85.9266 157.667 87.7666 160.323 87.7666C162.979 87.7666 164.915 85.9266 164.915 83.2546ZM162.483 83.2546C162.483 84.9346 161.667 85.9426 160.323 85.9426C158.979 85.9426 158.163 84.9346 158.163 83.2546C158.163 81.5746 158.979 80.5666 160.323 80.5666C161.667 80.5666 162.483 81.5746 162.483 83.2546ZM168.388 87.5586H170.948L174.052 78.9506H171.668L169.716 84.8546L167.764 78.9506H165.236L168.388 87.5586ZM178.898 87.7666C180.866 87.7666 182.514 86.7906 183.186 85.1106H180.674C180.354 85.7026 179.73 85.9426 178.898 85.9426C177.714 85.9426 176.994 85.0946 176.834 83.9426H183.346C183.458 80.8386 181.65 78.7426 178.898 78.7426C176.274 78.7426 174.418 80.6626 174.418 83.2546C174.418 85.8626 176.29 87.7666 178.898 87.7666ZM178.85 80.5186C179.986 80.5186 180.834 81.1586 180.93 82.3746H176.818C176.882 81.3026 177.746 80.5186 178.85 80.5186ZM184.867 78.9506V87.5586H187.283V83.0466C187.283 81.4626 188.019 81.2386 189.251 81.2386H190.147V78.9986C189.971 78.9826 189.795 78.9666 189.635 78.9666C188.531 78.9666 187.763 79.4626 187.251 80.5346V78.9506H184.867ZM194.711 87.5586H197.127V82.4226C197.127 81.0786 197.799 80.5666 198.647 80.5666C199.463 80.5666 200.087 81.0786 200.087 82.4226V87.5586H202.503V82.3586C202.503 80.2306 201.559 78.7426 199.575 78.7426C198.439 78.7426 197.591 79.1106 197.127 79.8306V75.6386H194.711V87.5586ZM208.43 87.7666C210.398 87.7666 212.046 86.7906 212.718 85.1106H210.206C209.886 85.7026 209.262 85.9426 208.43 85.9426C207.246 85.9426 206.526 85.0946 206.366 83.9426H212.878C212.99 80.8386 211.182 78.7426 208.43 78.7426C205.806 78.7426 203.95 80.6626 203.95 83.2546C203.95 85.8626 205.822 87.7666 208.43 87.7666ZM208.382 80.5186C209.518 80.5186 210.366 81.1586 210.462 82.3746H206.35C206.414 81.3026 207.278 80.5186 208.382 80.5186ZM214.399 78.9506V87.5586H216.815V83.0466C216.815 81.4626 217.551 81.2386 218.783 81.2386H219.679V78.9986C219.503 78.9826 219.327 78.9666 219.167 78.9666C218.063 78.9666 217.295 79.4626 216.783 80.5346V78.9506H214.399ZM224.742 87.7666C226.71 87.7666 228.358 86.7906 229.03 85.1106H226.518C226.198 85.7026 225.574 85.9426 224.742 85.9426C223.558 85.9426 222.838 85.0946 222.678 83.9426H229.19C229.302 80.8386 227.494 78.7426 224.742 78.7426C222.118 78.7426 220.262 80.6626 220.262 83.2546C220.262 85.8626 222.134 87.7666 224.742 87.7666ZM224.694 80.5186C225.83 80.5186 226.678 81.1586 226.774 82.3746H222.662C222.726 81.3026 223.59 80.5186 224.694 80.5186ZM231.895 87.7666C232.807 87.7666 233.527 87.0466 233.527 86.1506C233.527 85.2386 232.807 84.5186 231.895 84.5186C230.999 84.5186 230.279 85.2386 230.279 86.1506C230.279 87.0466 230.999 87.7666 231.895 87.7666ZM240.849 87.5586H243.345V77.7506H246.689V75.6386H237.521V77.7506H240.849V87.5586ZM247.914 87.5586H250.33V82.4226C250.33 81.0786 251.002 80.5666 251.85 80.5666C252.666 80.5666 253.29 81.0786 253.29 82.4226V87.5586H255.706V82.3586C255.706 80.2306 254.762 78.7426 252.778 78.7426C251.642 78.7426 250.794 79.1106 250.33 79.8306V75.6386H247.914V87.5586ZM257.409 76.5666C257.409 77.3666 258.065 78.0226 258.849 78.0226C259.633 78.0226 260.289 77.3666 260.289 76.5666C260.289 75.7826 259.633 75.1266 258.849 75.1266C258.065 75.1266 257.409 75.7826 257.409 76.5666ZM257.649 87.5586H260.065V78.9506H257.649V87.5586ZM265.462 87.7666C267.478 87.7666 269.158 86.7426 269.158 84.9346C269.158 83.1426 267.686 82.5666 265.91 82.2626L264.95 82.1026C264.054 81.9586 263.766 81.6066 263.766 81.1906C263.766 80.7586 264.214 80.3906 265.11 80.3906C265.862 80.3906 266.454 80.6146 266.678 81.2866H268.886C268.518 79.1426 266.726 78.6626 265.094 78.6626C263.238 78.6626 261.638 79.7346 261.638 81.2546C261.638 82.7746 262.87 83.6866 264.55 83.9746L265.59 84.1506C266.518 84.3106 266.966 84.5826 266.966 85.1426C266.966 85.7186 266.406 86.0386 265.51 86.0386C264.582 86.0386 264.022 85.6706 263.83 84.9346H261.542C261.91 86.9666 263.462 87.7666 265.462 87.7666ZM274.081 76.5666C274.081 77.3666 274.737 78.0226 275.521 78.0226C276.305 78.0226 276.961 77.3666 276.961 76.5666C276.961 75.7826 276.305 75.1266 275.521 75.1266C274.737 75.1266 274.081 75.7826 274.081 76.5666ZM274.321 87.5586H276.737V78.9506H274.321V87.5586ZM282.134 87.7666C284.15 87.7666 285.83 86.7426 285.83 84.9346C285.83 83.1426 284.358 82.5666 282.582 82.2626L281.622 82.1026C280.726 81.9586 280.438 81.6066 280.438 81.1906C280.438 80.7586 280.886 80.3906 281.782 80.3906C282.534 80.3906 283.126 80.6146 283.35 81.2866H285.558C285.19 79.1426 283.398 78.6626 281.766 78.6626C279.91 78.6626 278.31 79.7346 278.31 81.2546C278.31 82.7746 279.542 83.6866 281.222 83.9746L282.262 84.1506C283.19 84.3106 283.638 84.5826 283.638 85.1426C283.638 85.7186 283.078 86.0386 282.182 86.0386C281.254 86.0386 280.694 85.6706 280.502 84.9346H278.214C278.582 86.9666 280.134 87.7666 282.134 87.7666ZM30.192 106.183C26.512 105.991 24.512 107.127 24.512 109.031C24.512 110.807 25.984 111.767 27.664 111.767C28.864 111.767 29.84 111.415 30.384 110.583V111.559H32.64V106.295C32.64 103.671 31.296 102.711 28.832 102.711C26.352 102.711 24.928 104.023 24.784 105.623H27.008C27.104 104.791 27.792 104.407 28.656 104.407C29.6 104.407 30.192 104.791 30.192 105.879V106.183ZM30.256 107.735V107.943C30.256 109.527 29.456 110.071 28.368 110.071C27.52 110.071 26.976 109.607 26.976 108.951C26.976 108.087 28.176 107.575 30.256 107.735ZM41.8744 111.767C42.2584 111.767 42.7544 111.751 43.1384 111.671V109.719C42.9304 109.751 42.7544 109.783 42.5944 109.783C41.3784 109.783 41.2344 108.839 41.2344 107.623V104.695H43.1544V102.951H41.2344V99.6706L38.8184 101.047V102.951H37.4584V104.695H38.8184V107.927C38.8184 110.647 39.8584 111.767 41.8744 111.767ZM45.849 111.559H48.361L49.817 105.143L51.241 111.559H53.737L55.673 102.951H53.305L52.281 108.695L51.097 102.951H48.505L47.321 108.711L46.313 102.951H43.929L45.849 111.559ZM65.5554 107.255C65.5554 104.583 63.6194 102.743 60.9634 102.743C58.3074 102.743 56.3714 104.583 56.3714 107.255C56.3714 109.927 58.3074 111.767 60.9634 111.767C63.6194 111.767 65.5554 109.927 65.5554 107.255ZM63.1234 107.255C63.1234 108.935 62.3074 109.943 60.9634 109.943C59.6194 109.943 58.8034 108.935 58.8034 107.255C58.8034 105.575 59.6194 104.567 60.9634 104.567C62.3074 104.567 63.1234 105.575 63.1234 107.255ZM72.678 107.255C72.678 105.671 73.398 104.567 74.742 104.567C75.67 104.567 76.278 104.951 76.566 105.895H79.03C78.534 103.895 76.886 102.743 74.758 102.743C72.118 102.743 70.262 104.647 70.262 107.255C70.262 109.863 72.118 111.767 74.758 111.767C76.886 111.767 78.534 110.615 79.03 108.615H76.566C76.278 109.559 75.67 109.943 74.742 109.943C73.398 109.943 72.678 108.839 72.678 107.255ZM89.071 107.255C89.071 104.583 87.135 102.743 84.479 102.743C81.823 102.743 79.887 104.583 79.887 107.255C79.887 109.927 81.823 111.767 84.479 111.767C87.135 111.767 89.071 109.927 89.071 107.255ZM86.639 107.255C86.639 108.935 85.823 109.943 84.479 109.943C83.135 109.943 82.319 108.935 82.319 107.255C82.319 105.575 83.135 104.567 84.479 104.567C85.823 104.567 86.639 105.575 86.639 107.255ZM90.5861 111.559H93.0021V99.6386H90.5861V111.559ZM98.8956 111.767C101.424 111.767 102.864 110.695 102.864 108.023V102.951H100.448V108.039C100.448 109.255 99.9516 109.943 98.8956 109.943C97.8396 109.943 97.3436 109.255 97.3436 108.039V102.951H94.9276V108.023C94.9276 110.695 96.3676 111.767 98.8956 111.767ZM104.789 111.559H107.205V106.423C107.205 105.079 107.813 104.567 108.661 104.567C109.477 104.567 110.037 105.079 110.037 106.423V111.559H112.453V106.423C112.453 105.079 113.061 104.567 113.909 104.567C114.725 104.567 115.285 105.079 115.285 106.423V111.559H117.701V106.359C117.701 104.231 116.821 102.743 114.837 102.743C113.797 102.743 112.613 103.111 111.973 104.103C111.525 103.255 110.741 102.743 109.589 102.743C108.453 102.743 107.669 103.111 107.205 103.831V102.951H104.789V111.559ZM119.633 111.559H122.049V106.423C122.049 105.079 122.721 104.567 123.569 104.567C124.385 104.567 125.009 105.079 125.009 106.423V111.559H127.425V106.359C127.425 104.231 126.481 102.743 124.497 102.743C123.361 102.743 122.513 103.111 122.049 103.831V102.951H119.633V111.559ZM133.055 111.559H135.471V99.6386H133.055V111.559ZM142.676 106.183C138.996 105.991 136.996 107.127 136.996 109.031C136.996 110.807 138.468 111.767 140.148 111.767C141.348 111.767 142.324 111.415 142.868 110.583V111.559H145.124V106.295C145.124 103.671 143.78 102.711 141.316 102.711C138.836 102.711 137.412 104.023 137.268 105.623H139.492C139.588 104.791 140.276 104.407 141.14 104.407C142.084 104.407 142.676 104.791 142.676 105.879V106.183ZM142.74 107.735V107.943C142.74 109.527 141.94 110.071 140.852 110.071C140.004 110.071 139.46 109.607 139.46 108.951C139.46 108.087 140.66 107.575 142.74 107.735ZM147.781 114.679H150.229L154.933 102.951H152.485L150.421 108.535L148.549 102.951H145.909L149.109 111.351L147.781 114.679ZM164.368 107.255C164.368 104.583 162.432 102.743 159.776 102.743C157.12 102.743 155.184 104.583 155.184 107.255C155.184 109.927 157.12 111.767 159.776 111.767C162.432 111.767 164.368 109.927 164.368 107.255ZM161.936 107.255C161.936 108.935 161.12 109.943 159.776 109.943C158.432 109.943 157.616 108.935 157.616 107.255C157.616 105.575 158.432 104.567 159.776 104.567C161.12 104.567 161.936 105.575 161.936 107.255ZM169.755 111.767C172.283 111.767 173.723 110.695 173.723 108.023V102.951H171.307V108.039C171.307 109.255 170.811 109.943 169.755 109.943C168.699 109.943 168.203 109.255 168.203 108.039V102.951H165.787V108.023C165.787 110.695 167.227 111.767 169.755 111.767ZM179.281 111.767C179.665 111.767 180.161 111.751 180.545 111.671V109.719C180.337 109.751 180.161 109.783 180.001 109.783C178.785 109.783 178.641 108.839 178.641 107.623V104.695H180.561V102.951H178.641V99.6706L176.225 101.047V102.951H174.865V104.695H176.225V107.927C176.225 110.647 177.265 111.767 179.281 111.767ZM183.223 111.767C184.135 111.767 184.855 111.047 184.855 110.151C184.855 109.239 184.135 108.519 183.223 108.519C182.327 108.519 181.607 109.239 181.607 110.151C181.607 111.047 182.327 111.767 183.223 111.767Z" fill="#00364F"/>
<path d="M338.21 107.849L330.21 99.8487C329.818 99.4567 329.182 99.4567 328.79 99.8487C328.398 100.241 328.398 100.877 328.79 101.269L335.09 107.559H319.5C318.948 107.559 318.5 108.007 318.5 108.559C318.5 109.111 318.948 109.559 319.5 109.559H335.09L328.79 115.849C328.601 116.037 328.494 116.292 328.494 116.559C328.494 116.826 328.601 117.081 328.79 117.269C328.978 117.458 329.233 117.565 329.5 117.565C329.767 117.565 330.022 117.458 330.21 117.269L338.21 109.269C338.399 109.081 338.506 108.826 338.506 108.559C338.506 108.292 338.399 108.037 338.21 107.849Z" fill="#00364F"/>
</g>
<g clip-path="url(#clip1_11026_313853)">
<rect x="380.5" y="0.558594" width="364.5" height="140" rx="8" fill="#CCFDCE"/>
<rect x="380.5" y="0.558594" width="70" height="8" fill="#3AC952"/>
<rect x="450.5" y="0.558594" width="70" height="8" fill="#5EE471"/>
<rect x="520.5" y="0.558594" width="224.5" height="8" fill="#9EF4A6"/>
<path d="M405.743 38.5586H407.039V34.5506H410.507V33.4106H407.039V30.7586H411.131V29.6186H405.743V38.5586ZM415.188 38.7146C416.64 38.7146 417.804 37.9706 418.284 36.8426H416.916C416.58 37.4066 415.992 37.6586 415.236 37.6586C414.096 37.6586 413.268 36.8666 413.136 35.7146H418.428C418.5 33.4346 417.204 31.9466 415.188 31.9466C413.22 31.9466 411.84 33.4106 411.84 35.3306C411.84 37.2626 413.208 38.7146 415.188 38.7146ZM415.176 32.9546C416.184 32.9546 416.976 33.5786 417.12 34.7906H413.148C413.292 33.7106 414.12 32.9546 415.176 32.9546ZM424.106 38.5586H425.246V34.3586C425.246 32.4626 424.046 31.9226 422.618 31.9226C420.986 31.9226 419.918 32.7746 419.834 34.0106H421.01C421.094 33.2666 421.682 32.8826 422.606 32.8706C423.482 32.8586 423.998 33.3026 423.998 34.3226V34.5986C421.454 34.3946 419.534 35.0066 419.534 36.7826C419.534 37.7546 420.374 38.7146 422.006 38.7146C422.942 38.7146 423.734 38.3306 424.106 37.7306V38.5586ZM424.046 35.9426C424.046 37.2266 423.266 37.7546 422.222 37.7546C421.418 37.7546 420.842 37.3586 420.842 36.6866C420.842 35.7386 421.91 35.3306 424.046 35.4986V35.9426ZM429.461 38.6786C429.701 38.6786 429.989 38.6666 430.241 38.6186V37.5866C430.049 37.6106 429.893 37.6226 429.737 37.6226C428.969 37.6226 428.753 37.1306 428.753 36.2666V33.0626H430.253V32.1026H428.753V29.9186L427.493 30.7826V32.1026H426.425V33.0626H427.493V36.4106C427.493 38.0426 428.213 38.6786 429.461 38.6786ZM434.4 38.7146C435.264 38.7146 435.948 38.4986 436.404 38.0906C436.92 37.6466 437.184 36.9746 437.184 35.9066V32.1026H435.936V35.8586C435.936 36.5306 435.792 36.9386 435.552 37.2146C435.276 37.5146 434.892 37.6466 434.4 37.6466C433.908 37.6466 433.512 37.5146 433.248 37.2146C432.996 36.9386 432.864 36.5306 432.864 35.8586V32.1026H431.616V35.9066C431.616 36.9746 431.868 37.6466 432.384 38.0906C432.84 38.4986 433.524 38.7146 434.4 38.7146ZM439.148 32.1026V38.5586H440.384V35.1746C440.384 33.8906 440.876 33.3026 442.016 33.3026C442.064 33.3026 442.46 33.3026 442.52 33.3146V32.1026C442.424 32.0906 442.328 32.0906 442.232 32.0906C441.404 32.0906 440.708 32.5106 440.36 33.2906V32.1026H439.148ZM446.547 38.7146C447.999 38.7146 449.163 37.9706 449.643 36.8426H448.275C447.939 37.4066 447.351 37.6586 446.595 37.6586C445.455 37.6586 444.627 36.8666 444.495 35.7146H449.787C449.859 33.4346 448.563 31.9466 446.547 31.9466C444.579 31.9466 443.199 33.4106 443.199 35.3306C443.199 37.2626 444.567 38.7146 446.547 38.7146ZM446.535 32.9546C447.543 32.9546 448.335 33.5786 448.479 34.7906H444.507C444.651 33.7106 445.479 32.9546 446.535 32.9546ZM454.002 38.7146C454.878 38.7146 455.742 38.3306 456.198 37.6106V38.5586H457.446V29.6186H456.198V33.0506C455.742 32.3306 454.878 31.9466 454.002 31.9466C452.274 31.9466 450.906 33.3386 450.906 35.3306C450.906 37.3226 452.274 38.7146 454.002 38.7146ZM452.202 35.3306C452.202 33.9266 453.042 32.9786 454.23 32.9786C455.43 32.9786 456.27 33.9266 456.27 35.3306C456.27 36.7346 455.43 37.6826 454.23 37.6826C453.042 37.6826 452.202 36.7346 452.202 35.3306Z" fill="#064D2F"/>
<path d="M405.716 63.5586H410.692C413.204 63.5586 414.932 62.1666 414.932 60.1186C414.932 58.6626 414.116 57.7186 413.028 57.2226C413.7 56.7266 414.132 55.9746 414.132 54.9346C414.132 53.1426 412.66 51.6386 410.356 51.6386H405.716V63.5586ZM408.212 56.5346V53.6386H409.844C410.852 53.6386 411.54 54.2466 411.54 55.0786C411.54 55.9106 410.852 56.5346 409.828 56.5346H408.212ZM408.212 61.5586V58.4706H410.404C411.588 58.4706 412.34 59.0786 412.34 60.0066C412.34 60.9186 411.588 61.5586 410.436 61.5586H408.212ZM421.645 58.1826C417.965 57.9906 415.965 59.1266 415.965 61.0306C415.965 62.8066 417.437 63.7666 419.117 63.7666C420.317 63.7666 421.293 63.4146 421.837 62.5826V63.5586H424.093V58.2946C424.093 55.6706 422.749 54.7106 420.285 54.7106C417.805 54.7106 416.381 56.0226 416.237 57.6226H418.461C418.557 56.7906 419.245 56.4066 420.109 56.4066C421.053 56.4066 421.645 56.7906 421.645 57.8786V58.1826ZM421.709 59.7346V59.9426C421.709 61.5266 420.909 62.0706 419.821 62.0706C418.973 62.0706 418.429 61.6066 418.429 60.9506C418.429 60.0866 419.629 59.5746 421.709 59.7346ZM426.008 63.5586H428.424V58.4226C428.424 57.0786 429.096 56.5666 429.944 56.5666C430.76 56.5666 431.384 57.0786 431.384 58.4226V63.5586H433.8V58.3586C433.8 56.2306 432.856 54.7426 430.872 54.7426C429.736 54.7426 428.888 55.1106 428.424 55.8306V54.9506H426.008V63.5586ZM435.742 63.5586H438.158V58.4226C438.158 57.0786 438.83 56.5666 439.678 56.5666C440.494 56.5666 441.118 57.0786 441.118 58.4226V63.5586H443.534V58.3586C443.534 56.2306 442.59 54.7426 440.606 54.7426C439.47 54.7426 438.622 55.1106 438.158 55.8306V54.9506H435.742V63.5586ZM449.461 63.7666C451.429 63.7666 453.077 62.7906 453.749 61.1106H451.237C450.917 61.7026 450.293 61.9426 449.461 61.9426C448.277 61.9426 447.557 61.0946 447.397 59.9426H453.909C454.021 56.8386 452.213 54.7426 449.461 54.7426C446.837 54.7426 444.981 56.6626 444.981 59.2546C444.981 61.8626 446.853 63.7666 449.461 63.7666ZM449.413 56.5186C450.549 56.5186 451.397 57.1586 451.493 58.3746H447.381C447.445 57.3026 448.309 56.5186 449.413 56.5186ZM455.43 54.9506V63.5586H457.846V59.0466C457.846 57.4626 458.582 57.2386 459.814 57.2386H460.71V54.9986C460.534 54.9826 460.358 54.9666 460.198 54.9666C459.094 54.9666 458.326 55.4626 457.814 56.5346V54.9506H455.43ZM467.318 63.5586H469.814V53.7506H473.158V51.6386H463.99V53.7506H467.318V63.5586ZM476.836 63.7666C478.804 63.7666 480.452 62.7906 481.124 61.1106H478.612C478.292 61.7026 477.668 61.9426 476.836 61.9426C475.652 61.9426 474.932 61.0946 474.772 59.9426H481.284C481.396 56.8386 479.588 54.7426 476.836 54.7426C474.212 54.7426 472.356 56.6626 472.356 59.2546C472.356 61.8626 474.228 63.7666 476.836 63.7666ZM476.788 56.5186C477.924 56.5186 478.772 57.1586 478.868 58.3746H474.756C474.82 57.3026 475.684 56.5186 476.788 56.5186ZM481.327 63.5586H483.759L485.647 60.9666L487.439 63.5586H490.143L487.023 59.0626L490.015 54.9506H487.567L485.839 57.3346L484.191 54.9506H481.503L484.463 59.2386L481.327 63.5586ZM494.749 63.7666C495.133 63.7666 495.629 63.7506 496.013 63.6706V61.7186C495.805 61.7506 495.629 61.7826 495.469 61.7826C494.253 61.7826 494.109 60.8386 494.109 59.6226V56.6946H496.029V54.9506H494.109V51.6706L491.693 53.0466V54.9506H490.333V56.6946H491.693V59.9266C491.693 62.6466 492.733 63.7666 494.749 63.7666ZM504.828 63.7666C505.212 63.7666 505.708 63.7506 506.092 63.6706V61.7186C505.884 61.7506 505.708 61.7826 505.548 61.7826C504.332 61.7826 504.188 60.8386 504.188 59.6226V56.6946H506.108V54.9506H504.188V51.6706L501.772 53.0466V54.9506H500.412V56.6946H501.772V59.9266C501.772 62.6466 502.812 63.7666 504.828 63.7666ZM516.118 59.2546C516.118 56.5826 514.182 54.7426 511.526 54.7426C508.87 54.7426 506.934 56.5826 506.934 59.2546C506.934 61.9266 508.87 63.7666 511.526 63.7666C514.182 63.7666 516.118 61.9266 516.118 59.2546ZM513.686 59.2546C513.686 60.9346 512.87 61.9426 511.526 61.9426C510.182 61.9426 509.366 60.9346 509.366 59.2546C509.366 57.5746 510.182 56.5666 511.526 56.5666C512.87 56.5666 513.686 57.5746 513.686 59.2546ZM522.073 63.5586H524.489V56.6946H526.329V54.9506H524.489V54.9026C524.489 53.5906 525.097 53.2546 526.393 53.3986V51.4626C523.897 51.2546 522.073 52.2626 522.073 54.9026V54.9506H520.713V56.6946H522.073V63.5586ZM531.305 63.7666C533.273 63.7666 534.921 62.7906 535.593 61.1106H533.081C532.761 61.7026 532.137 61.9426 531.305 61.9426C530.121 61.9426 529.401 61.0946 529.241 59.9426H535.753C535.865 56.8386 534.057 54.7426 531.305 54.7426C528.681 54.7426 526.825 56.6626 526.825 59.2546C526.825 61.8626 528.697 63.7666 531.305 63.7666ZM531.257 56.5186C532.393 56.5186 533.241 57.1586 533.337 58.3746H529.225C529.289 57.3026 530.153 56.5186 531.257 56.5186ZM542.458 58.1826C538.778 57.9906 536.778 59.1266 536.778 61.0306C536.778 62.8066 538.25 63.7666 539.93 63.7666C541.13 63.7666 542.106 63.4146 542.65 62.5826V63.5586H544.906V58.2946C544.906 55.6706 543.562 54.7106 541.098 54.7106C538.618 54.7106 537.194 56.0226 537.05 57.6226H539.274C539.37 56.7906 540.058 56.4066 540.922 56.4066C541.866 56.4066 542.458 56.7906 542.458 57.8786V58.1826ZM542.522 59.7346V59.9426C542.522 61.5266 541.722 62.0706 540.634 62.0706C539.786 62.0706 539.242 61.6066 539.242 60.9506C539.242 60.0866 540.442 59.5746 542.522 59.7346ZM550.374 63.7666C550.758 63.7666 551.254 63.7506 551.638 63.6706V61.7186C551.43 61.7506 551.254 61.7826 551.094 61.7826C549.878 61.7826 549.734 60.8386 549.734 59.6226V56.6946H551.654V54.9506H549.734V51.6706L547.318 53.0466V54.9506H545.958V56.6946H547.318V59.9266C547.318 62.6466 548.358 63.7666 550.374 63.7666ZM557.005 63.7666C559.533 63.7666 560.973 62.6946 560.973 60.0226V54.9506H558.557V60.0386C558.557 61.2546 558.061 61.9426 557.005 61.9426C555.949 61.9426 555.453 61.2546 555.453 60.0386V54.9506H553.037V60.0226C553.037 62.6946 554.477 63.7666 557.005 63.7666ZM562.899 54.9506V63.5586H565.315V59.0466C565.315 57.4626 566.051 57.2386 567.283 57.2386H568.179V54.9986C568.003 54.9826 567.827 54.9666 567.667 54.9666C566.563 54.9666 565.795 55.4626 565.283 56.5346V54.9506H562.899ZM573.242 63.7666C575.21 63.7666 576.858 62.7906 577.53 61.1106H575.018C574.698 61.7026 574.074 61.9426 573.242 61.9426C572.058 61.9426 571.338 61.0946 571.178 59.9426H577.69C577.802 56.8386 575.994 54.7426 573.242 54.7426C570.618 54.7426 568.762 56.6626 568.762 59.2546C568.762 61.8626 570.634 63.7666 573.242 63.7666ZM573.194 56.5186C574.33 56.5186 575.178 57.1586 575.274 58.3746H571.162C571.226 57.3026 572.09 56.5186 573.194 56.5186ZM586.275 63.7666C588.291 63.7666 589.971 62.7426 589.971 60.9346C589.971 59.1426 588.499 58.5666 586.723 58.2626L585.763 58.1026C584.867 57.9586 584.579 57.6066 584.579 57.1906C584.579 56.7586 585.027 56.3906 585.923 56.3906C586.675 56.3906 587.267 56.6146 587.491 57.2866H589.699C589.331 55.1426 587.539 54.6626 585.907 54.6626C584.051 54.6626 582.451 55.7346 582.451 57.2546C582.451 58.7746 583.683 59.6866 585.363 59.9746L586.403 60.1506C587.331 60.3106 587.779 60.5826 587.779 61.1426C587.779 61.7186 587.219 62.0386 586.323 62.0386C585.395 62.0386 584.835 61.6706 584.643 60.9346H582.355C582.723 62.9666 584.275 63.7666 586.275 63.7666ZM600.134 59.2546C600.134 56.5826 598.198 54.7426 595.542 54.7426C592.886 54.7426 590.95 56.5826 590.95 59.2546C590.95 61.9266 592.886 63.7666 595.542 63.7666C598.198 63.7666 600.134 61.9266 600.134 59.2546ZM597.702 59.2546C597.702 60.9346 596.886 61.9426 595.542 61.9426C594.198 61.9426 593.382 60.9346 593.382 59.2546C593.382 57.5746 594.198 56.5666 595.542 56.5666C596.886 56.5666 597.702 57.5746 597.702 59.2546ZM601.649 63.5586H604.065V58.4226C604.065 57.0786 604.673 56.5666 605.521 56.5666C606.337 56.5666 606.897 57.0786 606.897 58.4226V63.5586H609.313V58.4226C609.313 57.0786 609.921 56.5666 610.769 56.5666C611.585 56.5666 612.145 57.0786 612.145 58.4226V63.5586H614.561V58.3586C614.561 56.2306 613.681 54.7426 611.697 54.7426C610.657 54.7426 609.473 55.1106 608.833 56.1026C608.385 55.2546 607.601 54.7426 606.449 54.7426C605.313 54.7426 604.529 55.1106 604.065 55.8306V54.9506H601.649V63.5586ZM620.476 63.7666C622.444 63.7666 624.092 62.7906 624.764 61.1106H622.252C621.932 61.7026 621.308 61.9426 620.476 61.9426C619.292 61.9426 618.572 61.0946 618.412 59.9426H624.924C625.036 56.8386 623.228 54.7426 620.476 54.7426C617.852 54.7426 615.996 56.6626 615.996 59.2546C615.996 61.8626 617.868 63.7666 620.476 63.7666ZM620.428 56.5186C621.564 56.5186 622.412 57.1586 622.508 58.3746H618.396C618.46 57.3026 619.324 56.5186 620.428 56.5186ZM630.133 63.5586H632.549V60.1506L635.765 63.5586H638.885L634.837 59.0466L638.373 54.9506H635.477L632.549 58.4226V51.6386H630.133V63.5586ZM639.346 52.5666C639.346 53.3666 640.002 54.0226 640.786 54.0226C641.57 54.0226 642.226 53.3666 642.226 52.5666C642.226 51.7826 641.57 51.1266 640.786 51.1266C640.002 51.1266 639.346 51.7826 639.346 52.5666ZM639.586 63.5586H642.002V54.9506H639.586V63.5586ZM644.024 63.5586H646.44V58.4226C646.44 57.0786 647.112 56.5666 647.96 56.5666C648.776 56.5666 649.4 57.0786 649.4 58.4226V63.5586H651.816V58.3586C651.816 56.2306 650.872 54.7426 648.888 54.7426C647.752 54.7426 646.904 55.1106 646.44 55.8306V54.9506H644.024V63.5586ZM653.278 59.2546C653.278 62.0386 655.134 63.7666 657.358 63.7666C658.51 63.7666 659.486 63.2386 659.886 62.5826V63.5586H662.302V51.6386H659.886V55.9266C659.486 55.2706 658.51 54.7426 657.358 54.7426C655.134 54.7426 653.278 56.4706 653.278 59.2546ZM660.03 59.2546C660.03 61.0946 659.022 61.9426 657.87 61.9426C656.702 61.9426 655.742 61.0946 655.742 59.2546C655.742 57.4146 656.702 56.5666 657.87 56.5666C659.022 56.5666 660.03 57.4146 660.03 59.2546ZM414.196 83.2546C414.196 80.5826 412.26 78.7426 409.604 78.7426C406.948 78.7426 405.012 80.5826 405.012 83.2546C405.012 85.9266 406.948 87.7666 409.604 87.7666C412.26 87.7666 414.196 85.9266 414.196 83.2546ZM411.764 83.2546C411.764 84.9346 410.948 85.9426 409.604 85.9426C408.26 85.9426 407.444 84.9346 407.444 83.2546C407.444 81.5746 408.26 80.5666 409.604 80.5666C410.948 80.5666 411.764 81.5746 411.764 83.2546ZM416.229 87.5586H418.645V80.6946H420.485V78.9506H418.645V78.9026C418.645 77.5906 419.253 77.2546 420.549 77.3986V75.4626C418.053 75.2546 416.229 76.2626 416.229 78.9026V78.9506H414.869V80.6946H416.229V87.5586ZM430.239 82.1826C426.559 81.9906 424.559 83.1266 424.559 85.0306C424.559 86.8066 426.031 87.7666 427.711 87.7666C428.911 87.7666 429.887 87.4146 430.431 86.5826V87.5586H432.687V82.2946C432.687 79.6706 431.343 78.7106 428.879 78.7106C426.399 78.7106 424.975 80.0226 424.831 81.6226H427.055C427.151 80.7906 427.839 80.4066 428.703 80.4066C429.647 80.4066 430.239 80.7906 430.239 81.8786V82.1826ZM430.303 83.7346V83.9426C430.303 85.5266 429.503 86.0706 428.415 86.0706C427.567 86.0706 427.023 85.6066 427.023 84.9506C427.023 84.0866 428.223 83.5746 430.303 83.7346ZM434.602 78.9506V87.5586H437.018V83.0466C437.018 81.4626 437.754 81.2386 438.986 81.2386H439.882V78.9986C439.706 78.9826 439.53 78.9666 439.37 78.9666C438.266 78.9666 437.498 79.4626 436.986 80.5346V78.9506H434.602ZM444.765 87.7666C445.149 87.7666 445.645 87.7506 446.029 87.6706V85.7186C445.821 85.7506 445.645 85.7826 445.485 85.7826C444.269 85.7826 444.125 84.8386 444.125 83.6226V80.6946H446.045V78.9506H444.125V75.6706L441.709 77.0466V78.9506H440.349V80.6946H441.709V83.9266C441.709 86.6466 442.749 87.7666 444.765 87.7666ZM447.284 76.5666C447.284 77.3666 447.94 78.0226 448.724 78.0226C449.508 78.0226 450.164 77.3666 450.164 76.5666C450.164 75.7826 449.508 75.1266 448.724 75.1266C447.94 75.1266 447.284 75.7826 447.284 76.5666ZM447.524 87.5586H449.94V78.9506H447.524V87.5586ZM453.881 83.2546C453.881 81.6706 454.601 80.5666 455.945 80.5666C456.873 80.5666 457.481 80.9506 457.769 81.8946H460.233C459.737 79.8946 458.089 78.7426 455.961 78.7426C453.321 78.7426 451.465 80.6466 451.465 83.2546C451.465 85.8626 453.321 87.7666 455.961 87.7666C458.089 87.7666 459.737 86.6146 460.233 84.6146H457.769C457.481 85.5586 456.873 85.9426 455.945 85.9426C454.601 85.9426 453.881 84.8386 453.881 83.2546ZM461.586 87.5586H464.002V75.6386H461.586V87.5586ZM470.008 87.7666C471.976 87.7666 473.624 86.7906 474.296 85.1106H471.784C471.464 85.7026 470.84 85.9426 470.008 85.9426C468.824 85.9426 468.104 85.0946 467.944 83.9426H474.456C474.568 80.8386 472.76 78.7426 470.008 78.7426C467.384 78.7426 465.528 80.6626 465.528 83.2546C465.528 85.8626 467.4 87.7666 470.008 87.7666ZM469.96 80.5186C471.096 80.5186 471.944 81.1586 472.04 82.3746H467.928C467.992 81.3026 468.856 80.5186 469.96 80.5186ZM481.584 83.2546C481.584 81.6706 482.304 80.5666 483.648 80.5666C484.576 80.5666 485.184 80.9506 485.472 81.8946H487.936C487.44 79.8946 485.792 78.7426 483.664 78.7426C481.024 78.7426 479.168 80.6466 479.168 83.2546C479.168 85.8626 481.024 87.7666 483.664 87.7666C485.792 87.7666 487.44 86.6146 487.936 84.6146H485.472C485.184 85.5586 484.576 85.9426 483.648 85.9426C482.304 85.9426 481.584 84.8386 481.584 83.2546ZM494.473 82.1826C490.793 81.9906 488.793 83.1266 488.793 85.0306C488.793 86.8066 490.265 87.7666 491.945 87.7666C493.145 87.7666 494.121 87.4146 494.665 86.5826V87.5586H496.921V82.2946C496.921 79.6706 495.577 78.7106 493.113 78.7106C490.633 78.7106 489.209 80.0226 489.065 81.6226H491.289C491.385 80.7906 492.073 80.4066 492.937 80.4066C493.881 80.4066 494.473 80.7906 494.473 81.8786V82.1826ZM494.537 83.7346V83.9426C494.537 85.5266 493.737 86.0706 492.649 86.0706C491.801 86.0706 491.257 85.6066 491.257 84.9506C491.257 84.0866 492.457 83.5746 494.537 83.7346ZM498.836 87.5586H501.252V82.4226C501.252 81.0786 501.924 80.5666 502.772 80.5666C503.588 80.5666 504.212 81.0786 504.212 82.4226V87.5586H506.628V82.3586C506.628 80.2306 505.684 78.7426 503.7 78.7426C502.564 78.7426 501.716 79.1106 501.252 79.8306V78.9506H498.836V87.5586ZM516.162 90.8866C518.85 90.8866 520.818 89.7666 520.818 86.6146V78.9506H518.402V79.8786C517.874 79.0306 516.69 78.7426 515.89 78.7426C513.762 78.7426 511.778 80.3586 511.778 83.1586C511.778 85.9586 513.762 87.5746 515.89 87.5746C516.69 87.5746 517.874 87.2866 518.402 86.4386V87.0466C518.402 88.6146 517.362 88.9986 516.274 88.9986C515.426 88.9986 514.786 88.7266 514.53 88.1506H512.226C512.626 90.0546 514.37 90.8866 516.162 90.8866ZM516.37 85.6706C515.202 85.6706 514.242 84.8706 514.242 83.1586C514.242 81.4466 515.202 80.6466 516.37 80.6466C517.538 80.6466 518.546 81.4466 518.546 83.1586C518.546 84.8706 517.538 85.6706 516.37 85.6706ZM531.524 83.2546C531.524 80.5826 529.588 78.7426 526.932 78.7426C524.276 78.7426 522.34 80.5826 522.34 83.2546C522.34 85.9266 524.276 87.7666 526.932 87.7666C529.588 87.7666 531.524 85.9266 531.524 83.2546ZM529.092 83.2546C529.092 84.9346 528.276 85.9426 526.932 85.9426C525.588 85.9426 524.772 84.9346 524.772 83.2546C524.772 81.5746 525.588 80.5666 526.932 80.5666C528.276 80.5666 529.092 81.5746 529.092 83.2546ZM545.415 83.2546C545.415 80.5826 543.479 78.7426 540.823 78.7426C538.167 78.7426 536.231 80.5826 536.231 83.2546C536.231 85.9266 538.167 87.7666 540.823 87.7666C543.479 87.7666 545.415 85.9266 545.415 83.2546ZM542.983 83.2546C542.983 84.9346 542.167 85.9426 540.823 85.9426C539.479 85.9426 538.663 84.9346 538.663 83.2546C538.663 81.5746 539.479 80.5666 540.823 80.5666C542.167 80.5666 542.983 81.5746 542.983 83.2546ZM548.888 87.5586H551.448L554.552 78.9506H552.168L550.216 84.8546L548.264 78.9506H545.736L548.888 87.5586ZM559.398 87.7666C561.366 87.7666 563.014 86.7906 563.686 85.1106H561.174C560.854 85.7026 560.23 85.9426 559.398 85.9426C558.214 85.9426 557.494 85.0946 557.334 83.9426H563.846C563.958 80.8386 562.15 78.7426 559.398 78.7426C556.774 78.7426 554.918 80.6626 554.918 83.2546C554.918 85.8626 556.79 87.7666 559.398 87.7666ZM559.35 80.5186C560.486 80.5186 561.334 81.1586 561.43 82.3746H557.318C557.382 81.3026 558.246 80.5186 559.35 80.5186ZM565.367 78.9506V87.5586H567.783V83.0466C567.783 81.4626 568.519 81.2386 569.751 81.2386H570.647V78.9986C570.471 78.9826 570.295 78.9666 570.135 78.9666C569.031 78.9666 568.263 79.4626 567.751 80.5346V78.9506H565.367ZM575.211 87.5586H577.627V82.4226C577.627 81.0786 578.299 80.5666 579.147 80.5666C579.963 80.5666 580.587 81.0786 580.587 82.4226V87.5586H583.003V82.3586C583.003 80.2306 582.059 78.7426 580.075 78.7426C578.939 78.7426 578.091 79.1106 577.627 79.8306V75.6386H575.211V87.5586ZM588.93 87.7666C590.898 87.7666 592.546 86.7906 593.218 85.1106H590.706C590.386 85.7026 589.762 85.9426 588.93 85.9426C587.746 85.9426 587.026 85.0946 586.866 83.9426H593.378C593.49 80.8386 591.682 78.7426 588.93 78.7426C586.306 78.7426 584.45 80.6626 584.45 83.2546C584.45 85.8626 586.322 87.7666 588.93 87.7666ZM588.882 80.5186C590.018 80.5186 590.866 81.1586 590.962 82.3746H586.85C586.914 81.3026 587.778 80.5186 588.882 80.5186ZM594.899 78.9506V87.5586H597.315V83.0466C597.315 81.4626 598.051 81.2386 599.283 81.2386H600.179V78.9986C600.003 78.9826 599.827 78.9666 599.667 78.9666C598.563 78.9666 597.795 79.4626 597.283 80.5346V78.9506H594.899ZM605.242 87.7666C607.21 87.7666 608.858 86.7906 609.53 85.1106H607.018C606.698 85.7026 606.074 85.9426 605.242 85.9426C604.058 85.9426 603.338 85.0946 603.178 83.9426H609.69C609.802 80.8386 607.994 78.7426 605.242 78.7426C602.618 78.7426 600.762 80.6626 600.762 83.2546C600.762 85.8626 602.634 87.7666 605.242 87.7666ZM605.194 80.5186C606.33 80.5186 607.178 81.1586 607.274 82.3746H603.162C603.226 81.3026 604.09 80.5186 605.194 80.5186ZM612.395 87.7666C613.307 87.7666 614.027 87.0466 614.027 86.1506C614.027 85.2386 613.307 84.5186 612.395 84.5186C611.499 84.5186 610.779 85.2386 610.779 86.1506C610.779 87.0466 611.499 87.7666 612.395 87.7666ZM621.349 87.5586H623.845V77.7506H627.189V75.6386H618.021V77.7506H621.349V87.5586ZM628.414 87.5586H630.83V82.4226C630.83 81.0786 631.502 80.5666 632.35 80.5666C633.166 80.5666 633.79 81.0786 633.79 82.4226V87.5586H636.206V82.3586C636.206 80.2306 635.262 78.7426 633.278 78.7426C632.142 78.7426 631.294 79.1106 630.83 79.8306V75.6386H628.414V87.5586ZM637.909 76.5666C637.909 77.3666 638.565 78.0226 639.349 78.0226C640.133 78.0226 640.789 77.3666 640.789 76.5666C640.789 75.7826 640.133 75.1266 639.349 75.1266C638.565 75.1266 637.909 75.7826 637.909 76.5666ZM638.149 87.5586H640.565V78.9506H638.149V87.5586ZM645.962 87.7666C647.978 87.7666 649.658 86.7426 649.658 84.9346C649.658 83.1426 648.186 82.5666 646.41 82.2626L645.45 82.1026C644.554 81.9586 644.266 81.6066 644.266 81.1906C644.266 80.7586 644.714 80.3906 645.61 80.3906C646.362 80.3906 646.954 80.6146 647.178 81.2866H649.386C649.018 79.1426 647.226 78.6626 645.594 78.6626C643.738 78.6626 642.138 79.7346 642.138 81.2546C642.138 82.7746 643.37 83.6866 645.05 83.9746L646.09 84.1506C647.018 84.3106 647.466 84.5826 647.466 85.1426C647.466 85.7186 646.906 86.0386 646.01 86.0386C645.082 86.0386 644.522 85.6706 644.33 84.9346H642.042C642.41 86.9666 643.962 87.7666 645.962 87.7666ZM654.581 76.5666C654.581 77.3666 655.237 78.0226 656.021 78.0226C656.805 78.0226 657.461 77.3666 657.461 76.5666C657.461 75.7826 656.805 75.1266 656.021 75.1266C655.237 75.1266 654.581 75.7826 654.581 76.5666ZM654.821 87.5586H657.237V78.9506H654.821V87.5586ZM662.634 87.7666C664.65 87.7666 666.33 86.7426 666.33 84.9346C666.33 83.1426 664.858 82.5666 663.082 82.2626L662.122 82.1026C661.226 81.9586 660.938 81.6066 660.938 81.1906C660.938 80.7586 661.386 80.3906 662.282 80.3906C663.034 80.3906 663.626 80.6146 663.85 81.2866H666.058C665.69 79.1426 663.898 78.6626 662.266 78.6626C660.41 78.6626 658.81 79.7346 658.81 81.2546C658.81 82.7746 660.042 83.6866 661.722 83.9746L662.762 84.1506C663.69 84.3106 664.138 84.5826 664.138 85.1426C664.138 85.7186 663.578 86.0386 662.682 86.0386C661.754 86.0386 661.194 85.6706 661.002 84.9346H658.714C659.082 86.9666 660.634 87.7666 662.634 87.7666ZM410.692 106.183C407.012 105.991 405.012 107.127 405.012 109.031C405.012 110.807 406.484 111.767 408.164 111.767C409.364 111.767 410.34 111.415 410.884 110.583V111.559H413.14V106.295C413.14 103.671 411.796 102.711 409.332 102.711C406.852 102.711 405.428 104.023 405.284 105.623H407.508C407.604 104.791 408.292 104.407 409.156 104.407C410.1 104.407 410.692 104.791 410.692 105.879V106.183ZM410.756 107.735V107.943C410.756 109.527 409.956 110.071 408.868 110.071C408.02 110.071 407.476 109.607 407.476 108.951C407.476 108.087 408.676 107.575 410.756 107.735ZM422.374 111.767C422.758 111.767 423.254 111.751 423.638 111.671V109.719C423.43 109.751 423.254 109.783 423.094 109.783C421.878 109.783 421.734 108.839 421.734 107.623V104.695H423.654V102.951H421.734V99.6706L419.318 101.047V102.951H417.958V104.695H419.318V107.927C419.318 110.647 420.358 111.767 422.374 111.767ZM426.349 111.559H428.861L430.317 105.143L431.741 111.559H434.237L436.173 102.951H433.805L432.781 108.695L431.597 102.951H429.005L427.821 108.711L426.813 102.951H424.429L426.349 111.559ZM446.055 107.255C446.055 104.583 444.119 102.743 441.463 102.743C438.807 102.743 436.871 104.583 436.871 107.255C436.871 109.927 438.807 111.767 441.463 111.767C444.119 111.767 446.055 109.927 446.055 107.255ZM443.623 107.255C443.623 108.935 442.807 109.943 441.463 109.943C440.119 109.943 439.303 108.935 439.303 107.255C439.303 105.575 440.119 104.567 441.463 104.567C442.807 104.567 443.623 105.575 443.623 107.255ZM453.178 107.255C453.178 105.671 453.898 104.567 455.242 104.567C456.17 104.567 456.778 104.951 457.066 105.895H459.53C459.034 103.895 457.386 102.743 455.258 102.743C452.618 102.743 450.762 104.647 450.762 107.255C450.762 109.863 452.618 111.767 455.258 111.767C457.386 111.767 459.034 110.615 459.53 108.615H457.066C456.778 109.559 456.17 109.943 455.242 109.943C453.898 109.943 453.178 108.839 453.178 107.255ZM469.571 107.255C469.571 104.583 467.635 102.743 464.979 102.743C462.323 102.743 460.387 104.583 460.387 107.255C460.387 109.927 462.323 111.767 464.979 111.767C467.635 111.767 469.571 109.927 469.571 107.255ZM467.139 107.255C467.139 108.935 466.323 109.943 464.979 109.943C463.635 109.943 462.819 108.935 462.819 107.255C462.819 105.575 463.635 104.567 464.979 104.567C466.323 104.567 467.139 105.575 467.139 107.255ZM471.086 111.559H473.502V99.6386H471.086V111.559ZM479.396 111.767C481.924 111.767 483.364 110.695 483.364 108.023V102.951H480.948V108.039C480.948 109.255 480.452 109.943 479.396 109.943C478.34 109.943 477.844 109.255 477.844 108.039V102.951H475.428V108.023C475.428 110.695 476.868 111.767 479.396 111.767ZM485.289 111.559H487.705V106.423C487.705 105.079 488.313 104.567 489.161 104.567C489.977 104.567 490.537 105.079 490.537 106.423V111.559H492.953V106.423C492.953 105.079 493.561 104.567 494.409 104.567C495.225 104.567 495.785 105.079 495.785 106.423V111.559H498.201V106.359C498.201 104.231 497.321 102.743 495.337 102.743C494.297 102.743 493.113 103.111 492.473 104.103C492.025 103.255 491.241 102.743 490.089 102.743C488.953 102.743 488.169 103.111 487.705 103.831V102.951H485.289V111.559ZM500.133 111.559H502.549V106.423C502.549 105.079 503.221 104.567 504.069 104.567C504.885 104.567 505.509 105.079 505.509 106.423V111.559H507.925V106.359C507.925 104.231 506.981 102.743 504.997 102.743C503.861 102.743 503.013 103.111 502.549 103.831V102.951H500.133V111.559ZM513.555 111.559H515.971V99.6386H513.555V111.559ZM523.176 106.183C519.496 105.991 517.496 107.127 517.496 109.031C517.496 110.807 518.968 111.767 520.648 111.767C521.848 111.767 522.824 111.415 523.368 110.583V111.559H525.624V106.295C525.624 103.671 524.28 102.711 521.816 102.711C519.336 102.711 517.912 104.023 517.768 105.623H519.992C520.088 104.791 520.776 104.407 521.64 104.407C522.584 104.407 523.176 104.791 523.176 105.879V106.183ZM523.24 107.735V107.943C523.24 109.527 522.44 110.071 521.352 110.071C520.504 110.071 519.96 109.607 519.96 108.951C519.96 108.087 521.16 107.575 523.24 107.735ZM528.281 114.679H530.729L535.433 102.951H532.985L530.921 108.535L529.049 102.951H526.409L529.609 111.351L528.281 114.679ZM544.868 107.255C544.868 104.583 542.932 102.743 540.276 102.743C537.62 102.743 535.684 104.583 535.684 107.255C535.684 109.927 537.62 111.767 540.276 111.767C542.932 111.767 544.868 109.927 544.868 107.255ZM542.436 107.255C542.436 108.935 541.62 109.943 540.276 109.943C538.932 109.943 538.116 108.935 538.116 107.255C538.116 105.575 538.932 104.567 540.276 104.567C541.62 104.567 542.436 105.575 542.436 107.255ZM550.255 111.767C552.783 111.767 554.223 110.695 554.223 108.023V102.951H551.807V108.039C551.807 109.255 551.311 109.943 550.255 109.943C549.199 109.943 548.703 109.255 548.703 108.039V102.951H546.287V108.023C546.287 110.695 547.727 111.767 550.255 111.767ZM559.781 111.767C560.165 111.767 560.661 111.751 561.045 111.671V109.719C560.837 109.751 560.661 109.783 560.501 109.783C559.285 109.783 559.141 108.839 559.141 107.623V104.695H561.061V102.951H559.141V99.6706L556.725 101.047V102.951H555.365V104.695H556.725V107.927C556.725 110.647 557.765 111.767 559.781 111.767ZM563.723 111.767C564.635 111.767 565.355 111.047 565.355 110.151C565.355 109.239 564.635 108.519 563.723 108.519C562.827 108.519 562.107 109.239 562.107 110.151C562.107 111.047 562.827 111.767 563.723 111.767Z" fill="#064D2F"/>
<path d="M718.71 107.849L710.71 99.8487C710.318 99.4567 709.682 99.4567 709.29 99.8487C708.898 100.241 708.898 100.877 709.29 101.269L715.59 107.559H700C699.448 107.559 699 108.007 699 108.559C699 109.111 699.448 109.559 700 109.559H715.59L709.29 115.849C709.101 116.037 708.994 116.292 708.994 116.559C708.994 116.826 709.101 117.081 709.29 117.269C709.478 117.458 709.733 117.565 710 117.565C710.267 117.565 710.522 117.458 710.71 117.269L718.71 109.269C718.899 109.081 719.006 108.826 719.006 108.559C719.006 108.292 718.899 108.037 718.71 107.849Z" fill="#064D2F"/>
</g>
<defs>
<clipPath id="clip0_11026_313853">
<rect y="0.558594" width="364.5" height="140" rx="8" fill="white"/>
</clipPath>
<clipPath id="clip1_11026_313853">
<rect x="380.5" y="0.558594" width="364.5" height="140" rx="8" fill="white"/>
</clipPath>
</defs>
</svg>
