<svg width="777" height="124" viewBox="0 0 777 124" fill="none" xmlns="http://www.w3.org/2000/svg">
<path d="M0 8C0 3.58172 3.58172 0 8 0H769C773.418 0 777 3.58172 777 8V116C777 120.418 773.418 124 769 124H7.99998C3.5817 124 0 120.418 0 116V8Z" fill="#C5E5FB"/>
<rect width="100" height="8" fill="#3665F3"/>
<rect x="100" width="100" height="8" fill="#659EFF"/>
<rect x="200" width="577" height="8" fill="#93C9FF"/>
<path d="M25.2426 38H26.5386V33.992H30.0066V32.852H26.5386V30.2H30.6306V29.06H25.2426V38ZM34.6876 38.156C36.1396 38.156 37.3036 37.412 37.7836 36.284H36.4156C36.0796 36.848 35.4916 37.1 34.7356 37.1C33.5956 37.1 32.7676 36.308 32.6356 35.156H37.9276C37.9996 32.876 36.7036 31.388 34.6876 31.388C32.7196 31.388 31.3396 32.852 31.3396 34.772C31.3396 36.704 32.7076 38.156 34.6876 38.156ZM34.6756 32.396C35.6836 32.396 36.4756 33.02 36.6196 34.232H32.6476C32.7916 33.152 33.6196 32.396 34.6756 32.396ZM43.6062 38H44.7462V33.8C44.7462 31.904 43.5462 31.364 42.1182 31.364C40.4862 31.364 39.4182 32.216 39.3342 33.452H40.5102C40.5942 32.708 41.1822 32.324 42.1062 32.312C42.9822 32.3 43.4982 32.744 43.4982 33.764V34.04C40.9542 33.836 39.0342 34.448 39.0342 36.224C39.0342 37.196 39.8742 38.156 41.5062 38.156C42.4422 38.156 43.2342 37.772 43.6062 37.172V38ZM43.5462 35.384C43.5462 36.668 42.7662 37.196 41.7222 37.196C40.9182 37.196 40.3422 36.8 40.3422 36.128C40.3422 35.18 41.4102 34.772 43.5462 34.94V35.384ZM48.9611 38.12C49.2011 38.12 49.4891 38.108 49.7411 38.06V37.028C49.5491 37.052 49.3931 37.064 49.2371 37.064C48.4691 37.064 48.2531 36.572 48.2531 35.708V32.504H49.7531V31.544H48.2531V29.36L46.9931 30.224V31.544H45.9251V32.504H46.9931V35.852C46.9931 37.484 47.7131 38.12 48.9611 38.12ZM53.8998 38.156C54.7638 38.156 55.4478 37.94 55.9038 37.532C56.4198 37.088 56.6838 36.416 56.6838 35.348V31.544H55.4358V35.3C55.4358 35.972 55.2918 36.38 55.0518 36.656C54.7758 36.956 54.3918 37.088 53.8998 37.088C53.4078 37.088 53.0118 36.956 52.7478 36.656C52.4958 36.38 52.3638 35.972 52.3638 35.3V31.544H51.1158V35.348C51.1158 36.416 51.3678 37.088 51.8838 37.532C52.3398 37.94 53.0238 38.156 53.8998 38.156ZM58.6483 31.544V38H59.8843V34.616C59.8843 33.332 60.3763 32.744 61.5163 32.744C61.5643 32.744 61.9603 32.744 62.0203 32.756V31.544C61.9243 31.532 61.8283 31.532 61.7323 31.532C60.9043 31.532 60.2083 31.952 59.8603 32.732V31.544H58.6483ZM66.047 38.156C67.499 38.156 68.663 37.412 69.143 36.284H67.775C67.439 36.848 66.851 37.1 66.095 37.1C64.955 37.1 64.127 36.308 63.995 35.156H69.287C69.359 32.876 68.063 31.388 66.047 31.388C64.079 31.388 62.699 32.852 62.699 34.772C62.699 36.704 64.067 38.156 66.047 38.156ZM66.035 32.396C67.043 32.396 67.835 33.02 67.979 34.232H64.007C64.151 33.152 64.979 32.396 66.035 32.396ZM73.5015 38.156C74.3775 38.156 75.2415 37.772 75.6975 37.052V38H76.9455V29.06H75.6975V32.492C75.2415 31.772 74.3775 31.388 73.5015 31.388C71.7735 31.388 70.4055 32.78 70.4055 34.772C70.4055 36.764 71.7735 38.156 73.5015 38.156ZM71.7015 34.772C71.7015 33.368 72.5415 32.42 73.7295 32.42C74.9295 32.42 75.7695 33.368 75.7695 34.772C75.7695 36.176 74.9295 37.124 73.7295 37.124C72.5415 37.124 71.7015 36.176 71.7015 34.772Z" fill="#121258"/>
<path d="M25.368 65H30.966C33.792 65 35.736 63.434 35.736 61.13C35.736 59.492 34.818 58.43 33.594 57.872C34.35 57.314 34.836 56.468 34.836 55.298C34.836 53.282 33.18 51.59 30.588 51.59H25.368V65ZM28.176 57.098V53.84H30.012C31.146 53.84 31.92 54.524 31.92 55.46C31.92 56.396 31.146 57.098 29.994 57.098H28.176ZM28.176 62.75V59.276H30.642C31.974 59.276 32.82 59.96 32.82 61.004C32.82 62.03 31.974 62.75 30.678 62.75H28.176ZM43.2883 58.952C39.1483 58.736 36.8983 60.014 36.8983 62.156C36.8983 64.154 38.5543 65.234 40.4443 65.234C41.7943 65.234 42.8923 64.838 43.5043 63.902V65H46.0423V59.078C46.0423 56.126 44.5303 55.046 41.7583 55.046C38.9683 55.046 37.3663 56.522 37.2043 58.322H39.7063C39.8143 57.386 40.5883 56.954 41.5603 56.954C42.6223 56.954 43.2883 57.386 43.2883 58.61V58.952ZM43.3603 60.698V60.932C43.3603 62.714 42.4603 63.326 41.2363 63.326C40.2823 63.326 39.6703 62.804 39.6703 62.066C39.6703 61.094 41.0203 60.518 43.3603 60.698ZM48.1965 65H50.9145V59.222C50.9145 57.71 51.6705 57.134 52.6245 57.134C53.5425 57.134 54.2445 57.71 54.2445 59.222V65H56.9625V59.15C56.9625 56.756 55.9005 55.082 53.6685 55.082C52.3905 55.082 51.4365 55.496 50.9145 56.306V55.316H48.1965V65ZM59.1477 65H61.8657V59.222C61.8657 57.71 62.6217 57.134 63.5757 57.134C64.4937 57.134 65.1957 57.71 65.1957 59.222V65H67.9137V59.15C67.9137 56.756 66.8517 55.082 64.6197 55.082C63.3417 55.082 62.3877 55.496 61.8657 56.306V55.316H59.1477V65ZM74.5808 65.234C76.7948 65.234 78.6488 64.136 79.4048 62.246H76.5788C76.2188 62.912 75.5168 63.182 74.5808 63.182C73.2488 63.182 72.4388 62.228 72.2588 60.932H79.5848C79.7108 57.44 77.6768 55.082 74.5808 55.082C71.6288 55.082 69.5408 57.242 69.5408 60.158C69.5408 63.092 71.6468 65.234 74.5808 65.234ZM74.5268 57.08C75.8048 57.08 76.7588 57.8 76.8668 59.168H72.2408C72.3128 57.962 73.2848 57.08 74.5268 57.08ZM81.2961 55.316V65H84.0141V59.924C84.0141 58.142 84.8421 57.89 86.2281 57.89H87.2361V55.37C87.0381 55.352 86.8401 55.334 86.6601 55.334C85.4181 55.334 84.5541 55.892 83.9781 57.098V55.316H81.2961ZM94.6698 65H97.4778V53.966H101.24V51.59H90.9258V53.966H94.6698V65ZM105.378 65.234C107.592 65.234 109.446 64.136 110.202 62.246H107.376C107.016 62.912 106.314 63.182 105.378 63.182C104.046 63.182 103.236 62.228 103.056 60.932H110.382C110.508 57.44 108.474 55.082 105.378 55.082C102.426 55.082 100.338 57.242 100.338 60.158C100.338 63.092 102.444 65.234 105.378 65.234ZM105.324 57.08C106.602 57.08 107.556 57.8 107.664 59.168H103.038C103.11 57.962 104.082 57.08 105.324 57.08ZM110.43 65H113.166L115.29 62.084L117.306 65H120.348L116.838 59.942L120.204 55.316H117.45L115.506 57.998L113.652 55.316H110.628L113.958 60.14L110.43 65ZM125.531 65.234C125.963 65.234 126.521 65.216 126.953 65.126V62.93C126.719 62.966 126.521 63.002 126.341 63.002C124.973 63.002 124.811 61.94 124.811 60.572V57.278H126.971V55.316H124.811V51.626L122.093 53.174V55.316H120.563V57.278H122.093V60.914C122.093 63.974 123.263 65.234 125.531 65.234ZM136.868 65.234C137.3 65.234 137.858 65.216 138.29 65.126V62.93C138.056 62.966 137.858 63.002 137.678 63.002C136.31 63.002 136.148 61.94 136.148 60.572V57.278H138.308V55.316H136.148V51.626L133.43 53.174V55.316H131.9V57.278H133.43V60.914C133.43 63.974 134.6 65.234 136.868 65.234ZM149.57 60.158C149.57 57.152 147.392 55.082 144.404 55.082C141.416 55.082 139.238 57.152 139.238 60.158C139.238 63.164 141.416 65.234 144.404 65.234C147.392 65.234 149.57 63.164 149.57 60.158ZM146.834 60.158C146.834 62.048 145.916 63.182 144.404 63.182C142.892 63.182 141.974 62.048 141.974 60.158C141.974 58.268 142.892 57.134 144.404 57.134C145.916 57.134 146.834 58.268 146.834 60.158ZM156.269 65H158.987V57.278H161.057V55.316H158.987V55.262C158.987 53.786 159.671 53.408 161.129 53.57V51.392C158.321 51.158 156.269 52.292 156.269 55.262V55.316H154.739V57.278H156.269V65ZM166.655 65.234C168.869 65.234 170.723 64.136 171.479 62.246H168.653C168.293 62.912 167.591 63.182 166.655 63.182C165.323 63.182 164.513 62.228 164.333 60.932H171.659C171.785 57.44 169.751 55.082 166.655 55.082C163.703 55.082 161.615 57.242 161.615 60.158C161.615 63.092 163.721 65.234 166.655 65.234ZM166.601 57.08C167.879 57.08 168.833 57.8 168.941 59.168H164.315C164.387 57.962 165.359 57.08 166.601 57.08ZM179.202 58.952C175.062 58.736 172.812 60.014 172.812 62.156C172.812 64.154 174.468 65.234 176.358 65.234C177.708 65.234 178.806 64.838 179.418 63.902V65H181.956V59.078C181.956 56.126 180.444 55.046 177.672 55.046C174.882 55.046 173.28 56.522 173.118 58.322H175.62C175.728 57.386 176.502 56.954 177.474 56.954C178.536 56.954 179.202 57.386 179.202 58.61V58.952ZM179.274 60.698V60.932C179.274 62.714 178.374 63.326 177.15 63.326C176.196 63.326 175.584 62.804 175.584 62.066C175.584 61.094 176.934 60.518 179.274 60.698ZM188.109 65.234C188.541 65.234 189.099 65.216 189.531 65.126V62.93C189.297 62.966 189.099 63.002 188.919 63.002C187.551 63.002 187.389 61.94 187.389 60.572V57.278H189.549V55.316H187.389V51.626L184.671 53.174V55.316H183.141V57.278H184.671V60.914C184.671 63.974 185.841 65.234 188.109 65.234ZM195.568 65.234C198.412 65.234 200.032 64.028 200.032 61.022V55.316H197.314V61.04C197.314 62.408 196.756 63.182 195.568 63.182C194.38 63.182 193.822 62.408 193.822 61.04V55.316H191.104V61.022C191.104 64.028 192.724 65.234 195.568 65.234ZM202.198 55.316V65H204.916V59.924C204.916 58.142 205.744 57.89 207.13 57.89H208.138V55.37C207.94 55.352 207.742 55.334 207.562 55.334C206.32 55.334 205.456 55.892 204.88 57.098V55.316H202.198ZM213.835 65.234C216.049 65.234 217.903 64.136 218.659 62.246H215.833C215.473 62.912 214.771 63.182 213.835 63.182C212.503 63.182 211.693 62.228 211.513 60.932H218.839C218.965 57.44 216.931 55.082 213.835 55.082C210.883 55.082 208.795 57.242 208.795 60.158C208.795 63.092 210.901 65.234 213.835 65.234ZM213.781 57.08C215.059 57.08 216.013 57.8 216.121 59.168H211.495C211.567 57.962 212.539 57.08 213.781 57.08ZM228.496 65.234C230.764 65.234 232.654 64.082 232.654 62.048C232.654 60.032 230.998 59.384 229 59.042L227.92 58.862C226.912 58.7 226.588 58.304 226.588 57.836C226.588 57.35 227.092 56.936 228.1 56.936C228.946 56.936 229.612 57.188 229.864 57.944H232.348C231.934 55.532 229.918 54.992 228.082 54.992C225.994 54.992 224.194 56.198 224.194 57.908C224.194 59.618 225.58 60.644 227.47 60.968L228.64 61.166C229.684 61.346 230.188 61.652 230.188 62.282C230.188 62.93 229.558 63.29 228.55 63.29C227.506 63.29 226.876 62.876 226.66 62.048H224.086C224.5 64.334 226.246 65.234 228.496 65.234ZM244.088 60.158C244.088 57.152 241.91 55.082 238.922 55.082C235.934 55.082 233.756 57.152 233.756 60.158C233.756 63.164 235.934 65.234 238.922 65.234C241.91 65.234 244.088 63.164 244.088 60.158ZM241.352 60.158C241.352 62.048 240.434 63.182 238.922 63.182C237.41 63.182 236.492 62.048 236.492 60.158C236.492 58.268 237.41 57.134 238.922 57.134C240.434 57.134 241.352 58.268 241.352 60.158ZM245.792 65H248.51V59.222C248.51 57.71 249.194 57.134 250.148 57.134C251.066 57.134 251.696 57.71 251.696 59.222V65H254.414V59.222C254.414 57.71 255.098 57.134 256.052 57.134C256.97 57.134 257.6 57.71 257.6 59.222V65H260.318V59.15C260.318 56.756 259.328 55.082 257.096 55.082C255.926 55.082 254.594 55.496 253.874 56.612C253.37 55.658 252.488 55.082 251.192 55.082C249.914 55.082 249.032 55.496 248.51 56.306V55.316H245.792V65ZM266.973 65.234C269.187 65.234 271.041 64.136 271.797 62.246H268.971C268.611 62.912 267.909 63.182 266.973 63.182C265.641 63.182 264.831 62.228 264.651 60.932H271.977C272.103 57.44 270.069 55.082 266.973 55.082C264.021 55.082 261.933 57.242 261.933 60.158C261.933 63.092 264.039 65.234 266.973 65.234ZM266.919 57.08C268.197 57.08 269.151 57.8 269.259 59.168H264.633C264.705 57.962 265.677 57.08 266.919 57.08ZM277.837 65H280.555V61.166L284.173 65H287.683L283.129 59.924L287.107 55.316H283.849L280.555 59.222V51.59H277.837V65ZM288.202 52.634C288.202 53.534 288.94 54.272 289.822 54.272C290.704 54.272 291.442 53.534 291.442 52.634C291.442 51.752 290.704 51.014 289.822 51.014C288.94 51.014 288.202 51.752 288.202 52.634ZM288.472 65H291.19V55.316H288.472V65ZM293.464 65H296.182V59.222C296.182 57.71 296.938 57.134 297.892 57.134C298.81 57.134 299.512 57.71 299.512 59.222V65H302.23V59.15C302.23 56.756 301.168 55.082 298.936 55.082C297.658 55.082 296.704 55.496 296.182 56.306V55.316H293.464V65ZM303.875 60.158C303.875 63.29 305.963 65.234 308.465 65.234C309.761 65.234 310.859 64.64 311.309 63.902V65H314.027V51.59H311.309V56.414C310.859 55.676 309.761 55.082 308.465 55.082C305.963 55.082 303.875 57.026 303.875 60.158ZM311.471 60.158C311.471 62.228 310.337 63.182 309.041 63.182C307.727 63.182 306.647 62.228 306.647 60.158C306.647 58.088 307.727 57.134 309.041 57.134C310.337 57.134 311.471 58.088 311.471 60.158ZM330.221 60.158C330.221 57.152 328.043 55.082 325.055 55.082C322.067 55.082 319.889 57.152 319.889 60.158C319.889 63.164 322.067 65.234 325.055 65.234C328.043 65.234 330.221 63.164 330.221 60.158ZM327.485 60.158C327.485 62.048 326.567 63.182 325.055 63.182C323.543 63.182 322.625 62.048 322.625 60.158C322.625 58.268 323.543 57.134 325.055 57.134C326.567 57.134 327.485 58.268 327.485 60.158ZM332.507 65H335.225V57.278H337.295V55.316H335.225V55.262C335.225 53.786 335.909 53.408 337.367 53.57V51.392C334.559 51.158 332.507 52.292 332.507 55.262V55.316H330.977V57.278H332.507V65ZM348.269 58.952C344.129 58.736 341.879 60.014 341.879 62.156C341.879 64.154 343.535 65.234 345.425 65.234C346.775 65.234 347.873 64.838 348.485 63.902V65H351.023V59.078C351.023 56.126 349.511 55.046 346.739 55.046C343.949 55.046 342.347 56.522 342.185 58.322H344.687C344.795 57.386 345.569 56.954 346.541 56.954C347.603 56.954 348.269 57.386 348.269 58.61V58.952ZM348.341 60.698V60.932C348.341 62.714 347.441 63.326 346.217 63.326C345.263 63.326 344.651 62.804 344.651 62.066C344.651 61.094 346.001 60.518 348.341 60.698ZM353.177 55.316V65H355.895V59.924C355.895 58.142 356.723 57.89 358.109 57.89H359.117V55.37C358.919 55.352 358.721 55.334 358.541 55.334C357.299 55.334 356.435 55.892 355.859 57.098V55.316H353.177ZM364.611 65.234C365.043 65.234 365.601 65.216 366.033 65.126V62.93C365.799 62.966 365.601 63.002 365.421 63.002C364.053 63.002 363.891 61.94 363.891 60.572V57.278H366.051V55.316H363.891V51.626L361.173 53.174V55.316H359.643V57.278H361.173V60.914C361.173 63.974 362.343 65.234 364.611 65.234ZM367.444 52.634C367.444 53.534 368.182 54.272 369.064 54.272C369.946 54.272 370.684 53.534 370.684 52.634C370.684 51.752 369.946 51.014 369.064 51.014C368.182 51.014 367.444 51.752 367.444 52.634ZM367.714 65H370.432V55.316H367.714V65ZM374.866 60.158C374.866 58.376 375.676 57.134 377.188 57.134C378.232 57.134 378.916 57.566 379.24 58.628H382.012C381.454 56.378 379.6 55.082 377.206 55.082C374.236 55.082 372.148 57.224 372.148 60.158C372.148 63.092 374.236 65.234 377.206 65.234C379.6 65.234 381.454 63.938 382.012 61.688H379.24C378.916 62.75 378.232 63.182 377.188 63.182C375.676 63.182 374.866 61.94 374.866 60.158ZM383.534 65H386.252V51.59H383.534V65ZM393.009 65.234C395.223 65.234 397.077 64.136 397.833 62.246H395.007C394.647 62.912 393.945 63.182 393.009 63.182C391.677 63.182 390.867 62.228 390.687 60.932H398.013C398.139 57.44 396.105 55.082 393.009 55.082C390.057 55.082 387.969 57.242 387.969 60.158C387.969 63.092 390.075 65.234 393.009 65.234ZM392.955 57.08C394.233 57.08 395.187 57.8 395.295 59.168H390.669C390.741 57.962 391.713 57.08 392.955 57.08ZM406.032 60.158C406.032 58.376 406.842 57.134 408.354 57.134C409.398 57.134 410.082 57.566 410.406 58.628H413.178C412.62 56.378 410.766 55.082 408.372 55.082C405.402 55.082 403.314 57.224 403.314 60.158C403.314 63.092 405.402 65.234 408.372 65.234C410.766 65.234 412.62 63.938 413.178 61.688H410.406C410.082 62.75 409.398 63.182 408.354 63.182C406.842 63.182 406.032 61.94 406.032 60.158ZM420.532 58.952C416.392 58.736 414.142 60.014 414.142 62.156C414.142 64.154 415.798 65.234 417.688 65.234C419.038 65.234 420.136 64.838 420.748 63.902V65H423.286V59.078C423.286 56.126 421.774 55.046 419.002 55.046C416.212 55.046 414.61 56.522 414.448 58.322H416.95C417.058 57.386 417.832 56.954 418.804 56.954C419.866 56.954 420.532 57.386 420.532 58.61V58.952ZM420.604 60.698V60.932C420.604 62.714 419.704 63.326 418.48 63.326C417.526 63.326 416.914 62.804 416.914 62.066C416.914 61.094 418.264 60.518 420.604 60.698ZM425.441 65H428.159V59.222C428.159 57.71 428.915 57.134 429.869 57.134C430.787 57.134 431.489 57.71 431.489 59.222V65H434.207V59.15C434.207 56.756 433.145 55.082 430.913 55.082C429.635 55.082 428.681 55.496 428.159 56.306V55.316H425.441V65ZM444.932 68.744C447.956 68.744 450.17 67.484 450.17 63.938V55.316H447.452V56.36C446.858 55.406 445.526 55.082 444.626 55.082C442.232 55.082 440 56.9 440 60.05C440 63.2 442.232 65.018 444.626 65.018C445.526 65.018 446.858 64.694 447.452 63.74V64.424C447.452 66.188 446.282 66.62 445.058 66.62C444.104 66.62 443.384 66.314 443.096 65.666H440.504C440.954 67.808 442.916 68.744 444.932 68.744ZM445.166 62.876C443.852 62.876 442.772 61.976 442.772 60.05C442.772 58.124 443.852 57.224 445.166 57.224C446.48 57.224 447.614 58.124 447.614 60.05C447.614 61.976 446.48 62.876 445.166 62.876ZM462.215 60.158C462.215 57.152 460.037 55.082 457.049 55.082C454.061 55.082 451.883 57.152 451.883 60.158C451.883 63.164 454.061 65.234 457.049 65.234C460.037 65.234 462.215 63.164 462.215 60.158ZM459.479 60.158C459.479 62.048 458.561 63.182 457.049 63.182C455.537 63.182 454.619 62.048 454.619 60.158C454.619 58.268 455.537 57.134 457.049 57.134C458.561 57.134 459.479 58.268 459.479 60.158ZM477.842 60.158C477.842 57.152 475.664 55.082 472.676 55.082C469.688 55.082 467.51 57.152 467.51 60.158C467.51 63.164 469.688 65.234 472.676 65.234C475.664 65.234 477.842 63.164 477.842 60.158ZM475.106 60.158C475.106 62.048 474.188 63.182 472.676 63.182C471.164 63.182 470.246 62.048 470.246 60.158C470.246 58.268 471.164 57.134 472.676 57.134C474.188 57.134 475.106 58.268 475.106 60.158ZM481.749 65H484.629L488.121 55.316H485.439L483.243 61.958L481.047 55.316H478.203L481.749 65ZM493.573 65.234C495.787 65.234 497.641 64.136 498.397 62.246H495.571C495.211 62.912 494.509 63.182 493.573 63.182C492.241 63.182 491.431 62.228 491.251 60.932H498.577C498.703 57.44 496.669 55.082 493.573 55.082C490.621 55.082 488.533 57.242 488.533 60.158C488.533 63.092 490.639 65.234 493.573 65.234ZM493.519 57.08C494.797 57.08 495.751 57.8 495.859 59.168H491.233C491.305 57.962 492.277 57.08 493.519 57.08ZM500.288 55.316V65H503.006V59.924C503.006 58.142 503.834 57.89 505.22 57.89H506.228V55.37C506.03 55.352 505.832 55.334 505.652 55.334C504.41 55.334 503.546 55.892 502.97 57.098V55.316H500.288ZM511.363 65H514.081V59.222C514.081 57.71 514.837 57.134 515.791 57.134C516.709 57.134 517.411 57.71 517.411 59.222V65H520.129V59.15C520.129 56.756 519.067 55.082 516.835 55.082C515.557 55.082 514.603 55.496 514.081 56.306V51.59H511.363V65ZM526.796 65.234C529.01 65.234 530.864 64.136 531.62 62.246H528.794C528.434 62.912 527.732 63.182 526.796 63.182C525.464 63.182 524.654 62.228 524.474 60.932H531.8C531.926 57.44 529.892 55.082 526.796 55.082C523.844 55.082 521.756 57.242 521.756 60.158C521.756 63.092 523.862 65.234 526.796 65.234ZM526.742 57.08C528.02 57.08 528.974 57.8 529.082 59.168H524.456C524.528 57.962 525.5 57.08 526.742 57.08ZM533.511 55.316V65H536.229V59.924C536.229 58.142 537.057 57.89 538.443 57.89H539.451V55.37C539.253 55.352 539.055 55.334 538.875 55.334C537.633 55.334 536.769 55.892 536.193 57.098V55.316H533.511ZM545.147 65.234C547.361 65.234 549.215 64.136 549.971 62.246H547.145C546.785 62.912 546.083 63.182 545.147 63.182C543.815 63.182 543.005 62.228 542.825 60.932H550.151C550.277 57.44 548.243 55.082 545.147 55.082C542.195 55.082 540.107 57.242 540.107 60.158C540.107 63.092 542.213 65.234 545.147 65.234ZM545.093 57.08C546.371 57.08 547.325 57.8 547.433 59.168H542.807C542.879 57.962 543.851 57.08 545.093 57.08ZM553.195 65.234C554.221 65.234 555.031 64.424 555.031 63.416C555.031 62.39 554.221 61.58 553.195 61.58C552.187 61.58 551.377 62.39 551.377 63.416C551.377 64.424 552.187 65.234 553.195 65.234ZM563.267 65H566.075V53.966H569.837V51.59H559.523V53.966H563.267V65ZM571.216 65H573.934V59.222C573.934 57.71 574.69 57.134 575.644 57.134C576.562 57.134 577.264 57.71 577.264 59.222V65H579.982V59.15C579.982 56.756 578.92 55.082 576.688 55.082C575.41 55.082 574.456 55.496 573.934 56.306V51.59H571.216V65ZM581.897 52.634C581.897 53.534 582.635 54.272 583.517 54.272C584.399 54.272 585.137 53.534 585.137 52.634C585.137 51.752 584.399 51.014 583.517 51.014C582.635 51.014 581.897 51.752 581.897 52.634ZM582.167 65H584.885V55.316H582.167V65ZM590.957 65.234C593.225 65.234 595.115 64.082 595.115 62.048C595.115 60.032 593.459 59.384 591.461 59.042L590.381 58.862C589.373 58.7 589.049 58.304 589.049 57.836C589.049 57.35 589.553 56.936 590.561 56.936C591.407 56.936 592.073 57.188 592.325 57.944H594.809C594.395 55.532 592.379 54.992 590.543 54.992C588.455 54.992 586.655 56.198 586.655 57.908C586.655 59.618 588.041 60.644 589.931 60.968L591.101 61.166C592.145 61.346 592.649 61.652 592.649 62.282C592.649 62.93 592.019 63.29 591.011 63.29C589.967 63.29 589.337 62.876 589.121 62.048H586.547C586.961 64.334 588.707 65.234 590.957 65.234ZM26.502 93H29.328L30.966 85.782L32.568 93H35.376L37.554 83.316H34.89L33.738 89.778L32.406 83.316H29.49L28.158 89.796L27.024 83.316H24.342L26.502 93ZM38.7507 80.634C38.7507 81.534 39.4887 82.272 40.3707 82.272C41.2527 82.272 41.9907 81.534 41.9907 80.634C41.9907 79.752 41.2527 79.014 40.3707 79.014C39.4887 79.014 38.7507 79.752 38.7507 80.634ZM39.0207 93H41.7387V83.316H39.0207V93ZM43.4729 88.158C43.4729 91.29 45.5609 93.234 48.0629 93.234C49.3589 93.234 50.4569 92.64 50.9069 91.902V93H53.6249V79.59H50.9069V84.414C50.4569 83.676 49.3589 83.082 48.0629 83.082C45.5609 83.082 43.4729 85.026 43.4729 88.158ZM51.0689 88.158C51.0689 90.228 49.9349 91.182 48.6389 91.182C47.3249 91.182 46.2449 90.228 46.2449 88.158C46.2449 86.088 47.3249 85.134 48.6389 85.134C49.9349 85.134 51.0689 86.088 51.0689 88.158ZM60.2877 96.744C63.3117 96.744 65.5257 95.484 65.5257 91.938V83.316H62.8077V84.36C62.2137 83.406 60.8817 83.082 59.9817 83.082C57.5877 83.082 55.3557 84.9 55.3557 88.05C55.3557 91.2 57.5877 93.018 59.9817 93.018C60.8817 93.018 62.2137 92.694 62.8077 91.74V92.424C62.8077 94.188 61.6377 94.62 60.4137 94.62C59.4597 94.62 58.7397 94.314 58.4517 93.666H55.8597C56.3097 95.808 58.2717 96.744 60.2877 96.744ZM60.5217 90.876C59.2077 90.876 58.1277 89.976 58.1277 88.05C58.1277 86.124 59.2077 85.224 60.5217 85.224C61.8357 85.224 62.9697 86.124 62.9697 88.05C62.9697 89.976 61.8357 90.876 60.5217 90.876ZM72.2781 93.234C74.4921 93.234 76.3461 92.136 77.1021 90.246H74.2761C73.9161 90.912 73.2141 91.182 72.2781 91.182C70.9461 91.182 70.1361 90.228 69.9561 88.932H77.2821C77.4081 85.44 75.3741 83.082 72.2781 83.082C69.3261 83.082 67.2381 85.242 67.2381 88.158C67.2381 91.092 69.3441 93.234 72.2781 93.234ZM72.2241 85.08C73.5021 85.08 74.4561 85.8 74.5641 87.168H69.9381C70.0101 85.962 70.9821 85.08 72.2241 85.08ZM82.9036 93.234C83.3356 93.234 83.8936 93.216 84.3256 93.126V90.93C84.0916 90.966 83.8936 91.002 83.7136 91.002C82.3456 91.002 82.1836 89.94 82.1836 88.572V85.278H84.3436V83.316H82.1836V79.626L79.4656 81.174V83.316H77.9356V85.278H79.4656V88.914C79.4656 91.974 80.6356 93.234 82.9036 93.234ZM99.9295 88.158C99.9295 85.152 97.7515 83.082 94.7635 83.082C91.7755 83.082 89.5975 85.152 89.5975 88.158C89.5975 91.164 91.7755 93.234 94.7635 93.234C97.7515 93.234 99.9295 91.164 99.9295 88.158ZM97.1935 88.158C97.1935 90.048 96.2755 91.182 94.7635 91.182C93.2515 91.182 92.3335 90.048 92.3335 88.158C92.3335 86.268 93.2515 85.134 94.7635 85.134C96.2755 85.134 97.1935 86.268 97.1935 88.158ZM101.634 93H104.352V87.222C104.352 85.71 105.108 85.134 106.062 85.134C106.98 85.134 107.682 85.71 107.682 87.222V93H110.4V87.15C110.4 84.756 109.338 83.082 107.106 83.082C105.828 83.082 104.874 83.496 104.352 84.306V83.316H101.634V93ZM112.585 93H115.303V79.59H112.585V93ZM118.657 96.51H121.411L126.703 83.316H123.949L121.627 89.598L119.521 83.316H116.551L120.151 92.766L118.657 96.51ZM137.437 86.952C133.297 86.736 131.047 88.014 131.047 90.156C131.047 92.154 132.703 93.234 134.593 93.234C135.943 93.234 137.041 92.838 137.653 91.902V93H140.191V87.078C140.191 84.126 138.679 83.046 135.907 83.046C133.117 83.046 131.515 84.522 131.353 86.322H133.855C133.963 85.386 134.737 84.954 135.709 84.954C136.771 84.954 137.437 85.386 137.437 86.61V86.952ZM137.509 88.698V88.932C137.509 90.714 136.609 91.326 135.385 91.326C134.431 91.326 133.819 90.804 133.819 90.066C133.819 89.094 135.169 88.518 137.509 88.698ZM152.497 88.158C152.497 85.026 150.409 83.082 147.907 83.082C146.611 83.082 145.513 83.676 145.063 84.414V83.316H142.345V96.51H145.063V91.902C145.513 92.64 146.611 93.234 147.907 93.234C150.409 93.234 152.497 91.29 152.497 88.158ZM144.901 88.158C144.901 86.088 146.035 85.134 147.331 85.134C148.645 85.134 149.725 86.088 149.725 88.158C149.725 90.228 148.645 91.182 147.331 91.182C146.035 91.182 144.901 90.228 144.901 88.158ZM164.38 88.158C164.38 85.026 162.292 83.082 159.79 83.082C158.494 83.082 157.396 83.676 156.946 84.414V83.316H154.228V96.51H156.946V91.902C157.396 92.64 158.494 93.234 159.79 93.234C162.292 93.234 164.38 91.29 164.38 88.158ZM156.784 88.158C156.784 86.088 157.918 85.134 159.214 85.134C160.528 85.134 161.608 86.088 161.608 88.158C161.608 90.228 160.528 91.182 159.214 91.182C157.918 91.182 156.784 90.228 156.784 88.158ZM170.593 93.234C172.807 93.234 174.661 92.136 175.417 90.246H172.591C172.231 90.912 171.529 91.182 170.593 91.182C169.261 91.182 168.451 90.228 168.271 88.932H175.597C175.723 85.44 173.689 83.082 170.593 83.082C167.641 83.082 165.553 85.242 165.553 88.158C165.553 91.092 167.659 93.234 170.593 93.234ZM170.539 85.08C171.817 85.08 172.771 85.8 172.879 87.168H168.253C168.325 85.962 169.297 85.08 170.539 85.08ZM183.14 86.952C179 86.736 176.75 88.014 176.75 90.156C176.75 92.154 178.406 93.234 180.296 93.234C181.646 93.234 182.744 92.838 183.356 91.902V93H185.894V87.078C185.894 84.126 184.382 83.046 181.61 83.046C178.82 83.046 177.218 84.522 177.056 86.322H179.558C179.666 85.386 180.44 84.954 181.412 84.954C182.474 84.954 183.14 85.386 183.14 86.61V86.952ZM183.212 88.698V88.932C183.212 90.714 182.312 91.326 181.088 91.326C180.134 91.326 179.522 90.804 179.522 90.066C179.522 89.094 180.872 88.518 183.212 88.698ZM188.048 83.316V93H190.766V87.924C190.766 86.142 191.594 85.89 192.98 85.89H193.988V83.37C193.79 83.352 193.592 83.334 193.412 83.334C192.17 83.334 191.306 83.892 190.73 85.098V83.316H188.048ZM199.194 93.234C201.462 93.234 203.352 92.082 203.352 90.048C203.352 88.032 201.696 87.384 199.698 87.042L198.618 86.862C197.61 86.7 197.286 86.304 197.286 85.836C197.286 85.35 197.79 84.936 198.798 84.936C199.644 84.936 200.31 85.188 200.562 85.944H203.046C202.632 83.532 200.616 82.992 198.78 82.992C196.692 82.992 194.892 84.198 194.892 85.908C194.892 87.618 196.278 88.644 198.168 88.968L199.338 89.166C200.382 89.346 200.886 89.652 200.886 90.282C200.886 90.93 200.256 91.29 199.248 91.29C198.204 91.29 197.574 90.876 197.358 90.048H194.784C195.198 92.334 196.944 93.234 199.194 93.234ZM208.889 80.634C208.889 81.534 209.627 82.272 210.509 82.272C211.391 82.272 212.129 81.534 212.129 80.634C212.129 79.752 211.391 79.014 210.509 79.014C209.627 79.014 208.889 79.752 208.889 80.634ZM209.159 93H211.877V83.316H209.159V93ZM214.998 93H217.716V85.278H219.786V83.316H217.716V83.262C217.716 81.786 218.4 81.408 219.858 81.57V79.392C217.05 79.158 214.998 80.292 214.998 83.262V83.316H213.468V85.278H214.998V93ZM229.013 93.234C229.445 93.234 230.003 93.216 230.435 93.126V90.93C230.201 90.966 230.003 91.002 229.823 91.002C228.455 91.002 228.293 89.94 228.293 88.572V85.278H230.453V83.316H228.293V79.626L225.575 81.174V83.316H224.045V85.278H225.575V88.914C225.575 91.974 226.745 93.234 229.013 93.234ZM232.116 93H234.834V87.222C234.834 85.71 235.59 85.134 236.544 85.134C237.462 85.134 238.164 85.71 238.164 87.222V93H240.882V87.15C240.882 84.756 239.82 83.082 237.588 83.082C236.31 83.082 235.356 83.496 234.834 84.306V79.59H232.116V93ZM247.55 93.234C249.764 93.234 251.618 92.136 252.374 90.246H249.548C249.188 90.912 248.486 91.182 247.55 91.182C246.218 91.182 245.408 90.228 245.228 88.932H252.554C252.68 85.44 250.646 83.082 247.55 83.082C244.598 83.082 242.51 85.242 242.51 88.158C242.51 91.092 244.616 93.234 247.55 93.234ZM247.496 85.08C248.774 85.08 249.728 85.8 249.836 87.168H245.21C245.282 85.962 246.254 85.08 247.496 85.08ZM254.265 83.316V93H256.983V87.924C256.983 86.142 257.811 85.89 259.197 85.89H260.205V83.37C260.007 83.352 259.809 83.334 259.629 83.334C258.387 83.334 257.523 83.892 256.947 85.098V83.316H254.265ZM265.901 93.234C268.115 93.234 269.969 92.136 270.725 90.246H267.899C267.539 90.912 266.837 91.182 265.901 91.182C264.569 91.182 263.759 90.228 263.579 88.932H270.905C271.031 85.44 268.997 83.082 265.901 83.082C262.949 83.082 260.861 85.242 260.861 88.158C260.861 91.092 262.967 93.234 265.901 93.234ZM265.847 85.08C267.125 85.08 268.079 85.8 268.187 87.168H263.561C263.633 85.962 264.605 85.08 265.847 85.08ZM276.495 80.634C276.495 81.534 277.233 82.272 278.115 82.272C278.997 82.272 279.735 81.534 279.735 80.634C279.735 79.752 278.997 79.014 278.115 79.014C277.233 79.014 276.495 79.752 276.495 80.634ZM276.765 93H279.483V83.316H276.765V93ZM285.555 93.234C287.823 93.234 289.713 92.082 289.713 90.048C289.713 88.032 288.057 87.384 286.059 87.042L284.979 86.862C283.971 86.7 283.647 86.304 283.647 85.836C283.647 85.35 284.151 84.936 285.159 84.936C286.005 84.936 286.671 85.188 286.923 85.944H289.407C288.993 83.532 286.977 82.992 285.141 82.992C283.053 82.992 281.253 84.198 281.253 85.908C281.253 87.618 282.639 88.644 284.529 88.968L285.699 89.166C286.743 89.346 287.247 89.652 287.247 90.282C287.247 90.93 286.617 91.29 285.609 91.29C284.565 91.29 283.935 90.876 283.719 90.048H281.145C281.559 92.334 283.305 93.234 285.555 93.234ZM297.681 88.158C297.681 86.376 298.491 85.134 300.003 85.134C301.047 85.134 301.731 85.566 302.055 86.628H304.827C304.269 84.378 302.415 83.082 300.021 83.082C297.051 83.082 294.963 85.224 294.963 88.158C294.963 91.092 297.051 93.234 300.021 93.234C302.415 93.234 304.269 91.938 304.827 89.688H302.055C301.731 90.75 301.047 91.182 300.003 91.182C298.491 91.182 297.681 89.94 297.681 88.158ZM316.123 88.158C316.123 85.152 313.945 83.082 310.957 83.082C307.969 83.082 305.791 85.152 305.791 88.158C305.791 91.164 307.969 93.234 310.957 93.234C313.945 93.234 316.123 91.164 316.123 88.158ZM313.387 88.158C313.387 90.048 312.469 91.182 310.957 91.182C309.445 91.182 308.527 90.048 308.527 88.158C308.527 86.268 309.445 85.134 310.957 85.134C312.469 85.134 313.387 86.268 313.387 88.158ZM317.827 93H320.545V87.222C320.545 85.71 321.301 85.134 322.255 85.134C323.173 85.134 323.875 85.71 323.875 87.222V93H326.593V87.15C326.593 84.756 325.531 83.082 323.299 83.082C322.021 83.082 321.067 83.496 320.545 84.306V83.316H317.827V93ZM332.777 93.234C333.209 93.234 333.767 93.216 334.199 93.126V90.93C333.965 90.966 333.767 91.002 333.587 91.002C332.219 91.002 332.057 89.94 332.057 88.572V85.278H334.217V83.316H332.057V79.626L329.339 81.174V83.316H327.809V85.278H329.339V88.914C329.339 91.974 330.509 93.234 332.777 93.234ZM340.186 93.234C342.4 93.234 344.254 92.136 345.01 90.246H342.184C341.824 90.912 341.122 91.182 340.186 91.182C338.854 91.182 338.044 90.228 337.864 88.932H345.19C345.316 85.44 343.282 83.082 340.186 83.082C337.234 83.082 335.146 85.242 335.146 88.158C335.146 91.092 337.252 93.234 340.186 93.234ZM340.132 85.08C341.41 85.08 342.364 85.8 342.472 87.168H337.846C337.918 85.962 338.89 85.08 340.132 85.08ZM346.902 93H349.62V87.222C349.62 85.71 350.376 85.134 351.33 85.134C352.248 85.134 352.95 85.71 352.95 87.222V93H355.668V87.15C355.668 84.756 354.606 83.082 352.374 83.082C351.096 83.082 350.142 83.496 349.62 84.306V83.316H346.902V93ZM361.851 93.234C362.283 93.234 362.841 93.216 363.273 93.126V90.93C363.039 90.966 362.841 91.002 362.661 91.002C361.293 91.002 361.131 89.94 361.131 88.572V85.278H363.291V83.316H361.131V79.626L358.413 81.174V83.316H356.883V85.278H358.413V88.914C358.413 91.974 359.583 93.234 361.851 93.234ZM369.949 93H372.667V85.278H374.737V83.316H372.667V83.262C372.667 81.786 373.351 81.408 374.809 81.57V79.392C372.001 79.158 369.949 80.292 369.949 83.262V83.316H368.419V85.278H369.949V93ZM385.627 88.158C385.627 85.152 383.449 83.082 380.461 83.082C377.473 83.082 375.295 85.152 375.295 88.158C375.295 91.164 377.473 93.234 380.461 93.234C383.449 93.234 385.627 91.164 385.627 88.158ZM382.891 88.158C382.891 90.048 381.973 91.182 380.461 91.182C378.949 91.182 378.031 90.048 378.031 88.158C378.031 86.268 378.949 85.134 380.461 85.134C381.973 85.134 382.891 86.268 382.891 88.158ZM387.331 83.316V93H390.049V87.924C390.049 86.142 390.877 85.89 392.263 85.89H393.271V83.37C393.073 83.352 392.875 83.334 392.695 83.334C391.453 83.334 390.589 83.892 390.013 85.098V83.316H387.331ZM398.135 80.634C398.135 81.534 398.873 82.272 399.755 82.272C400.637 82.272 401.375 81.534 401.375 80.634C401.375 79.752 400.637 79.014 399.755 79.014C398.873 79.014 398.135 79.752 398.135 80.634ZM398.405 93H401.123V83.316H398.405V93ZM407.484 93.234C407.916 93.234 408.474 93.216 408.906 93.126V90.93C408.672 90.966 408.474 91.002 408.294 91.002C406.926 91.002 406.764 89.94 406.764 88.572V85.278H408.924V83.316H406.764V79.626L404.046 81.174V83.316H402.516V85.278H404.046V88.914C404.046 91.974 405.216 93.234 407.484 93.234ZM411.919 93.234C412.945 93.234 413.755 92.424 413.755 91.416C413.755 90.39 412.945 89.58 411.919 89.58C410.911 89.58 410.101 90.39 410.101 91.416C410.101 92.424 410.911 93.234 411.919 93.234Z" fill="#121258"/>
<path d="M750.71 91.2901L742.71 83.2901C742.318 82.8981 741.682 82.8981 741.29 83.2901C740.898 83.6821 740.898 84.3181 741.29 84.7101L747.59 91.0001H732C731.448 91.0001 731 91.4481 731 92.0001C731 92.5521 731.448 93.0001 732 93.0001H747.59L741.29 99.2901C741.101 99.4781 740.994 99.7331 740.994 100C740.994 100.267 741.101 100.522 741.29 100.71C741.478 100.899 741.733 101.006 742 101.006C742.267 101.006 742.522 100.899 742.71 100.71L750.71 92.7101C750.899 92.5221 751.006 92.2671 751.006 92.0001C751.006 91.7331 750.899 91.4781 750.71 91.2901Z" fill="#121258"/>
</svg>
