<svg width="777" height="133" viewBox="0 0 777 133" fill="none" xmlns="http://www.w3.org/2000/svg">
<g clip-path="url(#clip0_11456_331185)">
<rect y="0.673828" width="248.333" height="132" rx="8" fill="#CCFDCE"/>
<rect y="0.673828" width="50" height="8" fill="#3AC952"/>
<rect x="50" y="0.673828" width="50" height="8" fill="#5EE471"/>
<rect x="100" y="0.673828" width="148.333" height="8" fill="#9EF4A6"/>
<path d="M17.2426 34.6738H18.5386V30.6658H22.0066V29.5258H18.5386V26.8738H22.6306V25.7338H17.2426V34.6738ZM26.6876 34.8298C28.1396 34.8298 29.3036 34.0858 29.7836 32.9578H28.4156C28.0796 33.5218 27.4916 33.7738 26.7356 33.7738C25.5956 33.7738 24.7676 32.9818 24.6356 31.8298H29.9276C29.9996 29.5498 28.7036 28.0618 26.6876 28.0618C24.7196 28.0618 23.3396 29.5258 23.3396 31.4458C23.3396 33.3778 24.7076 34.8298 26.6876 34.8298ZM26.6756 29.0698C27.6836 29.0698 28.4756 29.6938 28.6196 30.9058H24.6476C24.7916 29.8258 25.6196 29.0698 26.6756 29.0698ZM35.6062 34.6738H36.7462V30.4738C36.7462 28.5778 35.5462 28.0378 34.1182 28.0378C32.4862 28.0378 31.4182 28.8898 31.3342 30.1258H32.5102C32.5942 29.3818 33.1822 28.9978 34.1062 28.9858C34.9822 28.9738 35.4982 29.4178 35.4982 30.4378V30.7138C32.9542 30.5098 31.0342 31.1218 31.0342 32.8978C31.0342 33.8698 31.8742 34.8298 33.5062 34.8298C34.4422 34.8298 35.2342 34.4458 35.6062 33.8458V34.6738ZM35.5462 32.0578C35.5462 33.3418 34.7662 33.8698 33.7222 33.8698C32.9182 33.8698 32.3422 33.4738 32.3422 32.8018C32.3422 31.8538 33.4102 31.4458 35.5462 31.6138V32.0578ZM40.9611 34.7938C41.2011 34.7938 41.4891 34.7818 41.7411 34.7338V33.7018C41.5491 33.7258 41.3931 33.7378 41.2371 33.7378C40.4691 33.7378 40.2531 33.2458 40.2531 32.3818V29.1778H41.7531V28.2178H40.2531V26.0338L38.9931 26.8978V28.2178H37.9251V29.1778H38.9931V32.5258C38.9931 34.1578 39.7131 34.7938 40.9611 34.7938ZM45.8998 34.8298C46.7638 34.8298 47.4478 34.6138 47.9038 34.2058C48.4198 33.7618 48.6838 33.0898 48.6838 32.0218V28.2178H47.4358V31.9738C47.4358 32.6458 47.2918 33.0538 47.0518 33.3298C46.7758 33.6298 46.3918 33.7618 45.8998 33.7618C45.4078 33.7618 45.0118 33.6298 44.7478 33.3298C44.4958 33.0538 44.3638 32.6458 44.3638 31.9738V28.2178H43.1158V32.0218C43.1158 33.0898 43.3678 33.7618 43.8838 34.2058C44.3398 34.6138 45.0238 34.8298 45.8998 34.8298ZM50.6483 28.2178V34.6738H51.8843V31.2898C51.8843 30.0058 52.3763 29.4178 53.5163 29.4178C53.5643 29.4178 53.9603 29.4178 54.0203 29.4298V28.2178C53.9243 28.2058 53.8283 28.2058 53.7323 28.2058C52.9043 28.2058 52.2083 28.6258 51.8603 29.4058V28.2178H50.6483ZM58.047 34.8298C59.499 34.8298 60.663 34.0858 61.143 32.9578H59.775C59.439 33.5218 58.851 33.7738 58.095 33.7738C56.955 33.7738 56.127 32.9818 55.995 31.8298H61.287C61.359 29.5498 60.063 28.0618 58.047 28.0618C56.079 28.0618 54.699 29.5258 54.699 31.4458C54.699 33.3778 56.067 34.8298 58.047 34.8298ZM58.035 29.0698C59.043 29.0698 59.835 29.6938 59.979 30.9058H56.007C56.151 29.8258 56.979 29.0698 58.035 29.0698ZM65.5015 34.8298C66.3775 34.8298 67.2415 34.4458 67.6975 33.7258V34.6738H68.9455V25.7338H67.6975V29.1658C67.2415 28.4458 66.3775 28.0618 65.5015 28.0618C63.7735 28.0618 62.4055 29.4538 62.4055 31.4458C62.4055 33.4378 63.7735 34.8298 65.5015 34.8298ZM63.7015 31.4458C63.7015 30.0418 64.5415 29.0938 65.7295 29.0938C66.9295 29.0938 67.7695 30.0418 67.7695 31.4458C67.7695 32.8498 66.9295 33.7978 65.7295 33.7978C64.5415 33.7978 63.7015 32.8498 63.7015 31.4458Z" fill="#064D2F"/>
<path d="M17.216 59.6738H22.192C24.704 59.6738 26.432 58.2818 26.432 56.2338C26.432 54.7778 25.616 53.8338 24.528 53.3378C25.2 52.8418 25.632 52.0898 25.632 51.0498C25.632 49.2578 24.16 47.7538 21.856 47.7538H17.216V59.6738ZM19.712 52.6498V49.7538H21.344C22.352 49.7538 23.04 50.3618 23.04 51.1938C23.04 52.0258 22.352 52.6498 21.328 52.6498H19.712ZM19.712 57.6738V54.5858H21.904C23.088 54.5858 23.84 55.1938 23.84 56.1218C23.84 57.0338 23.088 57.6738 21.936 57.6738H19.712ZM33.1451 54.2978C29.4651 54.1058 27.4651 55.2418 27.4651 57.1458C27.4651 58.9218 28.9371 59.8818 30.6171 59.8818C31.8171 59.8818 32.7931 59.5298 33.3371 58.6978V59.6738H35.5931V54.4098C35.5931 51.7858 34.2491 50.8258 31.7851 50.8258C29.3051 50.8258 27.8811 52.1378 27.7371 53.7378H29.9611C30.0571 52.9058 30.7451 52.5218 31.6091 52.5218C32.5531 52.5218 33.1451 52.9058 33.1451 53.9938V54.2978ZM33.2091 55.8498V56.0578C33.2091 57.6418 32.4091 58.1858 31.3211 58.1858C30.4731 58.1858 29.9291 57.7218 29.9291 57.0658C29.9291 56.2018 31.1291 55.6898 33.2091 55.8498ZM37.508 59.6738H39.924V54.5378C39.924 53.1938 40.596 52.6818 41.444 52.6818C42.26 52.6818 42.884 53.1938 42.884 54.5378V59.6738H45.3V54.4738C45.3 52.3458 44.356 50.8578 42.372 50.8578C41.236 50.8578 40.388 51.2258 39.924 51.9458V51.0658H37.508V59.6738ZM47.2424 59.6738H49.6584V54.5378C49.6584 53.1938 50.3304 52.6818 51.1784 52.6818C51.9944 52.6818 52.6184 53.1938 52.6184 54.5378V59.6738H55.0344V54.4738C55.0344 52.3458 54.0904 50.8578 52.1064 50.8578C50.9704 50.8578 50.1224 51.2258 49.6584 51.9458V51.0658H47.2424V59.6738ZM60.9608 59.8818C62.9288 59.8818 64.5768 58.9058 65.2488 57.2258H62.7368C62.4168 57.8178 61.7928 58.0578 60.9608 58.0578C59.7768 58.0578 59.0568 57.2098 58.8968 56.0578H65.4088C65.5208 52.9538 63.7128 50.8578 60.9608 50.8578C58.3368 50.8578 56.4808 52.7778 56.4808 55.3698C56.4808 57.9778 58.3528 59.8818 60.9608 59.8818ZM60.9128 52.6338C62.0488 52.6338 62.8968 53.2738 62.9928 54.4898H58.8808C58.9448 53.4178 59.8088 52.6338 60.9128 52.6338ZM66.9299 51.0658V59.6738H69.3459V55.1618C69.3459 53.5778 70.0819 53.3538 71.3139 53.3538H72.2099V51.1138C72.0339 51.0978 71.8579 51.0818 71.6979 51.0818C70.5939 51.0818 69.8259 51.5778 69.3139 52.6498V51.0658H66.9299ZM78.8176 59.6738H81.3136V49.8658H84.6576V47.7538H75.4896V49.8658H78.8176V59.6738ZM88.3358 59.8818C90.3038 59.8818 91.9518 58.9058 92.6238 57.2258H90.1118C89.7918 57.8178 89.1678 58.0578 88.3358 58.0578C87.1518 58.0578 86.4318 57.2098 86.2718 56.0578H92.7838C92.8958 52.9538 91.0878 50.8578 88.3358 50.8578C85.7118 50.8578 83.8558 52.7778 83.8558 55.3698C83.8558 57.9778 85.7278 59.8818 88.3358 59.8818ZM88.2878 52.6338C89.4238 52.6338 90.2718 53.2738 90.3678 54.4898H86.2558C86.3198 53.4178 87.1838 52.6338 88.2878 52.6338ZM92.8266 59.6738H95.2586L97.1466 57.0818L98.9386 59.6738H101.643L98.5226 55.1778L101.515 51.0658H99.0666L97.3386 53.4498L95.6906 51.0658H93.0026L95.9626 55.3538L92.8266 59.6738ZM106.249 59.8818C106.633 59.8818 107.129 59.8658 107.513 59.7858V57.8338C107.305 57.8658 107.129 57.8978 106.969 57.8978C105.753 57.8978 105.609 56.9538 105.609 55.7378V52.8098H107.529V51.0658H105.609V47.7858L103.193 49.1618V51.0658H101.833V52.8098H103.193V56.0418C103.193 58.7618 104.233 59.8818 106.249 59.8818ZM116.328 59.8818C116.712 59.8818 117.208 59.8658 117.592 59.7858V57.8338C117.384 57.8658 117.208 57.8978 117.048 57.8978C115.832 57.8978 115.688 56.9538 115.688 55.7378V52.8098H117.608V51.0658H115.688V47.7858L113.272 49.1618V51.0658H111.912V52.8098H113.272V56.0418C113.272 58.7618 114.312 59.8818 116.328 59.8818ZM127.618 55.3698C127.618 52.6978 125.682 50.8578 123.026 50.8578C120.37 50.8578 118.434 52.6978 118.434 55.3698C118.434 58.0418 120.37 59.8818 123.026 59.8818C125.682 59.8818 127.618 58.0418 127.618 55.3698ZM125.186 55.3698C125.186 57.0498 124.37 58.0578 123.026 58.0578C121.682 58.0578 120.866 57.0498 120.866 55.3698C120.866 53.6898 121.682 52.6818 123.026 52.6818C124.37 52.6818 125.186 53.6898 125.186 55.3698ZM133.573 59.6738H135.989V52.8098H137.829V51.0658H135.989V51.0178C135.989 49.7058 136.597 49.3698 137.893 49.5138V47.5778C135.397 47.3698 133.573 48.3778 133.573 51.0178V51.0658H132.213V52.8098H133.573V59.6738ZM142.805 59.8818C144.773 59.8818 146.421 58.9058 147.093 57.2258H144.581C144.261 57.8178 143.637 58.0578 142.805 58.0578C141.621 58.0578 140.901 57.2098 140.741 56.0578H147.253C147.365 52.9538 145.557 50.8578 142.805 50.8578C140.181 50.8578 138.325 52.7778 138.325 55.3698C138.325 57.9778 140.197 59.8818 142.805 59.8818ZM142.757 52.6338C143.893 52.6338 144.741 53.2738 144.837 54.4898H140.725C140.789 53.4178 141.653 52.6338 142.757 52.6338ZM153.958 54.2978C150.278 54.1058 148.278 55.2418 148.278 57.1458C148.278 58.9218 149.75 59.8818 151.43 59.8818C152.63 59.8818 153.606 59.5298 154.15 58.6978V59.6738H156.406V54.4098C156.406 51.7858 155.062 50.8258 152.598 50.8258C150.118 50.8258 148.694 52.1378 148.55 53.7378H150.774C150.87 52.9058 151.558 52.5218 152.422 52.5218C153.366 52.5218 153.958 52.9058 153.958 53.9938V54.2978ZM154.022 55.8498V56.0578C154.022 57.6418 153.222 58.1858 152.134 58.1858C151.286 58.1858 150.742 57.7218 150.742 57.0658C150.742 56.2018 151.942 55.6898 154.022 55.8498ZM161.874 59.8818C162.258 59.8818 162.754 59.8658 163.138 59.7858V57.8338C162.93 57.8658 162.754 57.8978 162.594 57.8978C161.378 57.8978 161.234 56.9538 161.234 55.7378V52.8098H163.154V51.0658H161.234V47.7858L158.818 49.1618V51.0658H157.458V52.8098H158.818V56.0418C158.818 58.7618 159.858 59.8818 161.874 59.8818ZM168.505 59.8818C171.033 59.8818 172.473 58.8098 172.473 56.1378V51.0658H170.057V56.1538C170.057 57.3698 169.561 58.0578 168.505 58.0578C167.449 58.0578 166.953 57.3698 166.953 56.1538V51.0658H164.537V56.1378C164.537 58.8098 165.977 59.8818 168.505 59.8818ZM174.399 51.0658V59.6738H176.815V55.1618C176.815 53.5778 177.551 53.3538 178.783 53.3538H179.679V51.1138C179.503 51.0978 179.327 51.0818 179.167 51.0818C178.063 51.0818 177.295 51.5778 176.783 52.6498V51.0658H174.399ZM184.742 59.8818C186.71 59.8818 188.358 58.9058 189.03 57.2258H186.518C186.198 57.8178 185.574 58.0578 184.742 58.0578C183.558 58.0578 182.838 57.2098 182.678 56.0578H189.19C189.302 52.9538 187.494 50.8578 184.742 50.8578C182.118 50.8578 180.262 52.7778 180.262 55.3698C180.262 57.9778 182.134 59.8818 184.742 59.8818ZM184.694 52.6338C185.83 52.6338 186.678 53.2738 186.774 54.4898H182.662C182.726 53.4178 183.59 52.6338 184.694 52.6338ZM20.384 83.8818C22.4 83.8818 24.08 82.8578 24.08 81.0498C24.08 79.2578 22.608 78.6818 20.832 78.3778L19.872 78.2178C18.976 78.0738 18.688 77.7218 18.688 77.3058C18.688 76.8738 19.136 76.5058 20.032 76.5058C20.784 76.5058 21.376 76.7298 21.6 77.4018H23.808C23.44 75.2578 21.648 74.7778 20.016 74.7778C18.16 74.7778 16.56 75.8498 16.56 77.3698C16.56 78.8898 17.792 79.8018 19.472 80.0898L20.512 80.2658C21.44 80.4258 21.888 80.6978 21.888 81.2578C21.888 81.8338 21.328 82.1538 20.432 82.1538C19.504 82.1538 18.944 81.7858 18.752 81.0498H16.464C16.832 83.0818 18.384 83.8818 20.384 83.8818ZM34.2429 79.3698C34.2429 76.6978 32.3069 74.8578 29.6509 74.8578C26.9949 74.8578 25.0589 76.6978 25.0589 79.3698C25.0589 82.0418 26.9949 83.8818 29.6509 83.8818C32.3069 83.8818 34.2429 82.0418 34.2429 79.3698ZM31.8109 79.3698C31.8109 81.0498 30.9949 82.0578 29.6509 82.0578C28.3069 82.0578 27.4909 81.0498 27.4909 79.3698C27.4909 77.6898 28.3069 76.6818 29.6509 76.6818C30.9949 76.6818 31.8109 77.6898 31.8109 79.3698ZM35.758 83.6738H38.174V78.5378C38.174 77.1938 38.782 76.6818 39.63 76.6818C40.446 76.6818 41.006 77.1938 41.006 78.5378V83.6738H43.422V78.5378C43.422 77.1938 44.03 76.6818 44.878 76.6818C45.694 76.6818 46.254 77.1938 46.254 78.5378V83.6738H48.67V78.4738C48.67 76.3458 47.79 74.8578 45.806 74.8578C44.766 74.8578 43.582 75.2258 42.942 76.2178C42.494 75.3698 41.71 74.8578 40.558 74.8578C39.422 74.8578 38.638 75.2258 38.174 75.9458V75.0658H35.758V83.6738ZM54.5858 83.8818C56.5538 83.8818 58.2018 82.9058 58.8738 81.2258H56.3618C56.0418 81.8178 55.4178 82.0578 54.5858 82.0578C53.4018 82.0578 52.6818 81.2098 52.5218 80.0578H59.0338C59.1458 76.9538 57.3378 74.8578 54.5858 74.8578C51.9618 74.8578 50.1058 76.7778 50.1058 79.3698C50.1058 81.9778 51.9778 83.8818 54.5858 83.8818ZM54.5378 76.6338C55.6738 76.6338 56.5218 77.2738 56.6178 78.4898H52.5058C52.5698 77.4178 53.4338 76.6338 54.5378 76.6338ZM67.8744 83.8818C68.2584 83.8818 68.7544 83.8658 69.1384 83.7858V81.8338C68.9304 81.8658 68.7544 81.8978 68.5944 81.8978C67.3784 81.8978 67.2344 80.9538 67.2344 79.7378V76.8098H69.1544V75.0658H67.2344V71.7858L64.8184 73.1618V75.0658H63.4584V76.8098H64.8184V80.0418C64.8184 82.7618 65.8584 83.8818 67.8744 83.8818ZM70.633 83.6738H73.049V78.5378C73.049 77.1938 73.721 76.6818 74.569 76.6818C75.385 76.6818 76.009 77.1938 76.009 78.5378V83.6738H78.425V78.4738C78.425 76.3458 77.481 74.8578 75.497 74.8578C74.361 74.8578 73.513 75.2258 73.049 75.9458V71.7538H70.633V83.6738ZM80.3674 75.0658V83.6738H82.7834V79.1618C82.7834 77.5778 83.5194 77.3538 84.7514 77.3538H85.6474V75.1138C85.4714 75.0978 85.2954 75.0818 85.1354 75.0818C84.0314 75.0818 83.2634 75.5778 82.7514 76.6498V75.0658H80.3674ZM90.7108 83.8818C92.6788 83.8818 94.3268 82.9058 94.9988 81.2258H92.4868C92.1668 81.8178 91.5428 82.0578 90.7108 82.0578C89.5268 82.0578 88.8068 81.2098 88.6468 80.0578H95.1588C95.2708 76.9538 93.4628 74.8578 90.7108 74.8578C88.0868 74.8578 86.2308 76.7778 86.2308 79.3698C86.2308 81.9778 88.1028 83.8818 90.7108 83.8818ZM90.6628 76.6338C91.7988 76.6338 92.6468 77.2738 92.7428 78.4898H88.6308C88.6948 77.4178 89.5588 76.6338 90.6628 76.6338ZM100.664 83.8818C102.632 83.8818 104.28 82.9058 104.952 81.2258H102.44C102.12 81.8178 101.496 82.0578 100.664 82.0578C99.4799 82.0578 98.7599 81.2098 98.5999 80.0578H105.112C105.224 76.9538 103.416 74.8578 100.664 74.8578C98.0399 74.8578 96.1839 76.7778 96.1839 79.3698C96.1839 81.9778 98.0559 83.8818 100.664 83.8818ZM100.616 76.6338C101.752 76.6338 102.6 77.2738 102.696 78.4898H98.5839C98.6479 77.4178 99.5119 76.6338 100.616 76.6338ZM109.84 79.3698C109.84 82.1538 111.697 83.8818 113.921 83.8818C115.073 83.8818 116.049 83.3538 116.449 82.6978V83.6738H118.865V71.7538H116.449V76.0418C116.049 75.3858 115.073 74.8578 113.921 74.8578C111.697 74.8578 109.84 76.5858 109.84 79.3698ZM116.593 79.3698C116.593 81.2098 115.585 82.0578 114.433 82.0578C113.265 82.0578 112.305 81.2098 112.305 79.3698C112.305 77.5298 113.265 76.6818 114.433 76.6818C115.585 76.6818 116.593 77.5298 116.593 79.3698ZM120.643 72.6818C120.643 73.4818 121.299 74.1378 122.083 74.1378C122.867 74.1378 123.523 73.4818 123.523 72.6818C123.523 71.8978 122.867 71.2418 122.083 71.2418C121.299 71.2418 120.643 71.8978 120.643 72.6818ZM120.883 83.6738H123.299V75.0658H120.883V83.6738ZM126.073 83.6738H128.489V76.8098H130.329V75.0658H128.489V75.0178C128.489 73.7058 129.097 73.3698 130.393 73.5138V71.5778C127.897 71.3698 126.073 72.3778 126.073 75.0178V75.0658H124.713V76.8098H126.073V83.6738ZM132.26 83.6738H134.676V76.8098H136.516V75.0658H134.676V75.0178C134.676 73.7058 135.284 73.3698 136.58 73.5138V71.5778C134.084 71.3698 132.26 72.3778 132.26 75.0178V75.0658H130.9V76.8098H132.26V83.6738ZM141.492 83.8818C143.46 83.8818 145.108 82.9058 145.78 81.2258H143.268C142.948 81.8178 142.324 82.0578 141.492 82.0578C140.308 82.0578 139.588 81.2098 139.428 80.0578H145.94C146.052 76.9538 144.244 74.8578 141.492 74.8578C138.868 74.8578 137.012 76.7778 137.012 79.3698C137.012 81.9778 138.884 83.8818 141.492 83.8818ZM141.444 76.6338C142.58 76.6338 143.428 77.2738 143.524 78.4898H139.412C139.476 77.4178 140.34 76.6338 141.444 76.6338ZM147.461 75.0658V83.6738H149.877V79.1618C149.877 77.5778 150.613 77.3538 151.845 77.3538H152.741V75.1138C152.565 75.0978 152.389 75.0818 152.229 75.0818C151.125 75.0818 150.357 75.5778 149.845 76.6498V75.0658H147.461ZM157.805 83.8818C159.773 83.8818 161.421 82.9058 162.093 81.2258H159.581C159.261 81.8178 158.637 82.0578 157.805 82.0578C156.621 82.0578 155.901 81.2098 155.741 80.0578H162.253C162.365 76.9538 160.557 74.8578 157.805 74.8578C155.181 74.8578 153.325 76.7778 153.325 79.3698C153.325 81.9778 155.197 83.8818 157.805 83.8818ZM157.757 76.6338C158.893 76.6338 159.741 77.2738 159.837 78.4898H155.725C155.789 77.4178 156.653 76.6338 157.757 76.6338ZM163.774 83.6738H166.19V78.5378C166.19 77.1938 166.862 76.6818 167.71 76.6818C168.526 76.6818 169.15 77.1938 169.15 78.5378V83.6738H171.566V78.4738C171.566 76.3458 170.622 74.8578 168.638 74.8578C167.502 74.8578 166.654 75.2258 166.19 75.9458V75.0658H163.774V83.6738ZM177.062 83.8818C177.446 83.8818 177.942 83.8658 178.326 83.7858V81.8338C178.118 81.8658 177.942 81.8978 177.782 81.8978C176.566 81.8978 176.422 80.9538 176.422 79.7378V76.8098H178.342V75.0658H176.422V71.7858L174.006 73.1618V75.0658H172.646V76.8098H174.006V80.0418C174.006 82.7618 175.046 83.8818 177.062 83.8818ZM22.192 102.298C18.512 102.106 16.512 103.242 16.512 105.146C16.512 106.922 17.984 107.882 19.664 107.882C20.864 107.882 21.84 107.53 22.384 106.698V107.674H24.64V102.41C24.64 99.7858 23.296 98.8258 20.832 98.8258C18.352 98.8258 16.928 100.138 16.784 101.738H19.008C19.104 100.906 19.792 100.522 20.656 100.522C21.6 100.522 22.192 100.906 22.192 101.994V102.298ZM22.256 103.85V104.058C22.256 105.642 21.456 106.186 20.368 106.186C19.52 106.186 18.976 105.722 18.976 105.066C18.976 104.202 20.176 103.69 22.256 103.85ZM26.5549 99.0658V107.674H28.9709V103.162C28.9709 101.578 29.7069 101.354 30.9389 101.354H31.8349V99.1138C31.6589 99.0978 31.4829 99.0818 31.3229 99.0818C30.2189 99.0818 29.4509 99.5778 28.9389 100.65V99.0658H26.5549ZM36.7181 107.882C37.1021 107.882 37.5981 107.866 37.9821 107.786V105.834C37.7741 105.866 37.5981 105.898 37.4381 105.898C36.2221 105.898 36.0781 104.954 36.0781 103.738V100.81H37.9981V99.0658H36.0781V95.7858L33.6621 97.1618V99.0658H32.3021V100.81H33.6621V104.042C33.6621 106.762 34.7021 107.882 36.7181 107.882ZM39.2368 96.6818C39.2368 97.4818 39.8928 98.1378 40.6768 98.1378C41.4608 98.1378 42.1168 97.4818 42.1168 96.6818C42.1168 95.8978 41.4608 95.2418 40.6768 95.2418C39.8928 95.2418 39.2368 95.8978 39.2368 96.6818ZM39.4768 107.674H41.8928V99.0658H39.4768V107.674ZM45.8343 103.37C45.8343 101.786 46.5543 100.682 47.8983 100.682C48.8263 100.682 49.4343 101.066 49.7223 102.01H52.1863C51.6903 100.01 50.0423 98.8578 47.9143 98.8578C45.2743 98.8578 43.4183 100.762 43.4183 103.37C43.4183 105.978 45.2743 107.882 47.9143 107.882C50.0423 107.882 51.6903 106.73 52.1863 104.73H49.7223C49.4343 105.674 48.8263 106.058 47.8983 106.058C46.5543 106.058 45.8343 104.954 45.8343 103.37ZM53.5393 107.674H55.9553V95.7538H53.5393V107.674ZM61.9608 107.882C63.9288 107.882 65.5768 106.906 66.2488 105.226H63.7368C63.4168 105.818 62.7928 106.058 61.9608 106.058C60.7768 106.058 60.0568 105.21 59.8968 104.058H66.4088C66.5208 100.954 64.7128 98.8578 61.9608 98.8578C59.3368 98.8578 57.4808 100.778 57.4808 103.37C57.4808 105.978 59.3528 107.882 61.9608 107.882ZM61.9128 100.634C63.0488 100.634 63.8968 101.274 63.9928 102.49H59.8808C59.9448 101.418 60.8088 100.634 61.9128 100.634ZM71.3059 107.882C73.3219 107.882 75.0019 106.858 75.0019 105.05C75.0019 103.258 73.5299 102.682 71.7539 102.378L70.7939 102.218C69.8979 102.074 69.6099 101.722 69.6099 101.306C69.6099 100.874 70.0579 100.506 70.9539 100.506C71.7059 100.506 72.2979 100.73 72.5219 101.402H74.7299C74.3619 99.2578 72.5699 98.7778 70.9379 98.7778C69.0819 98.7778 67.4819 99.8498 67.4819 101.37C67.4819 102.89 68.7139 103.802 70.3939 104.09L71.4339 104.266C72.3619 104.426 72.8099 104.698 72.8099 105.258C72.8099 105.834 72.2499 106.154 71.3539 106.154C70.4259 106.154 69.8659 105.786 69.6739 105.05H67.3859C67.7539 107.082 69.3059 107.882 71.3059 107.882ZM77.6608 107.882C78.5728 107.882 79.2928 107.162 79.2928 106.266C79.2928 105.354 78.5728 104.634 77.6608 104.634C76.7648 104.634 76.0448 105.354 76.0448 106.266C76.0448 107.162 76.7648 107.882 77.6608 107.882Z" fill="#064D2F"/>
<path d="M230.042 103.964L222.042 95.9639C221.65 95.5719 221.014 95.5719 220.622 95.9639C220.23 96.3559 220.23 96.9919 220.622 97.3839L226.922 103.674H211.332C210.78 103.674 210.332 104.122 210.332 104.674C210.332 105.226 210.78 105.674 211.332 105.674H226.922L220.622 111.964C220.433 112.152 220.326 112.407 220.326 112.674C220.326 112.941 220.433 113.196 220.622 113.384C220.81 113.573 221.065 113.68 221.332 113.68C221.599 113.68 221.854 113.573 222.042 113.384L230.042 105.384C230.231 105.196 230.338 104.941 230.338 104.674C230.338 104.407 230.231 104.152 230.042 103.964Z" fill="#064D2F"/>
</g>
<g clip-path="url(#clip1_11456_331185)">
<rect x="264.332" y="0.673828" width="248.333" height="132" rx="8" fill="#F4FABE"/>
<rect x="264.332" y="0.673828" width="50" height="8" fill="#ACCF02"/>
<rect x="314.332" y="0.673828" width="50" height="8" fill="#C9E43B"/>
<rect x="364.332" y="0.673828" width="148.333" height="8" fill="#E9F577"/>
<path d="M281.575 34.6738H282.871V30.6658H286.339V29.5258H282.871V26.8738H286.963V25.7338H281.575V34.6738ZM291.02 34.8298C292.472 34.8298 293.636 34.0858 294.116 32.9578H292.748C292.412 33.5218 291.824 33.7738 291.068 33.7738C289.928 33.7738 289.1 32.9818 288.968 31.8298H294.26C294.332 29.5498 293.036 28.0618 291.02 28.0618C289.052 28.0618 287.672 29.5258 287.672 31.4458C287.672 33.3778 289.04 34.8298 291.02 34.8298ZM291.008 29.0698C292.016 29.0698 292.808 29.6938 292.952 30.9058H288.98C289.124 29.8258 289.952 29.0698 291.008 29.0698ZM299.938 34.6738H301.078V30.4738C301.078 28.5778 299.878 28.0378 298.45 28.0378C296.818 28.0378 295.75 28.8898 295.666 30.1258H296.842C296.926 29.3818 297.514 28.9978 298.438 28.9858C299.314 28.9738 299.83 29.4178 299.83 30.4378V30.7138C297.286 30.5098 295.366 31.1218 295.366 32.8978C295.366 33.8698 296.206 34.8298 297.838 34.8298C298.774 34.8298 299.566 34.4458 299.938 33.8458V34.6738ZM299.878 32.0578C299.878 33.3418 299.098 33.8698 298.054 33.8698C297.25 33.8698 296.674 33.4738 296.674 32.8018C296.674 31.8538 297.742 31.4458 299.878 31.6138V32.0578ZM305.293 34.7938C305.533 34.7938 305.821 34.7818 306.073 34.7338V33.7018C305.881 33.7258 305.725 33.7378 305.569 33.7378C304.801 33.7378 304.585 33.2458 304.585 32.3818V29.1778H306.085V28.2178H304.585V26.0338L303.325 26.8978V28.2178H302.257V29.1778H303.325V32.5258C303.325 34.1578 304.045 34.7938 305.293 34.7938ZM310.232 34.8298C311.096 34.8298 311.78 34.6138 312.236 34.2058C312.752 33.7618 313.016 33.0898 313.016 32.0218V28.2178H311.768V31.9738C311.768 32.6458 311.624 33.0538 311.384 33.3298C311.108 33.6298 310.724 33.7618 310.232 33.7618C309.74 33.7618 309.344 33.6298 309.08 33.3298C308.828 33.0538 308.696 32.6458 308.696 31.9738V28.2178H307.448V32.0218C307.448 33.0898 307.7 33.7618 308.216 34.2058C308.672 34.6138 309.356 34.8298 310.232 34.8298ZM314.98 28.2178V34.6738H316.216V31.2898C316.216 30.0058 316.708 29.4178 317.848 29.4178C317.896 29.4178 318.292 29.4178 318.352 29.4298V28.2178C318.256 28.2058 318.16 28.2058 318.064 28.2058C317.236 28.2058 316.54 28.6258 316.192 29.4058V28.2178H314.98ZM322.379 34.8298C323.831 34.8298 324.995 34.0858 325.475 32.9578H324.107C323.771 33.5218 323.183 33.7738 322.427 33.7738C321.287 33.7738 320.459 32.9818 320.327 31.8298H325.619C325.691 29.5498 324.395 28.0618 322.379 28.0618C320.411 28.0618 319.031 29.5258 319.031 31.4458C319.031 33.3778 320.399 34.8298 322.379 34.8298ZM322.367 29.0698C323.375 29.0698 324.167 29.6938 324.311 30.9058H320.339C320.483 29.8258 321.311 29.0698 322.367 29.0698ZM329.834 34.8298C330.71 34.8298 331.574 34.4458 332.03 33.7258V34.6738H333.278V25.7338H332.03V29.1658C331.574 28.4458 330.71 28.0618 329.834 28.0618C328.106 28.0618 326.738 29.4538 326.738 31.4458C326.738 33.4378 328.106 34.8298 329.834 34.8298ZM328.034 31.4458C328.034 30.0418 328.874 29.0938 330.062 29.0938C331.262 29.0938 332.102 30.0418 332.102 31.4458C332.102 32.8498 331.262 33.7978 330.062 33.7978C328.874 33.7978 328.034 32.8498 328.034 31.4458Z" fill="#364F03"/>
<path d="M281.548 59.6738H286.524C289.036 59.6738 290.764 58.2818 290.764 56.2338C290.764 54.7778 289.948 53.8338 288.86 53.3378C289.532 52.8418 289.964 52.0898 289.964 51.0498C289.964 49.2578 288.492 47.7538 286.188 47.7538H281.548V59.6738ZM284.044 52.6498V49.7538H285.676C286.684 49.7538 287.372 50.3618 287.372 51.1938C287.372 52.0258 286.684 52.6498 285.66 52.6498H284.044ZM284.044 57.6738V54.5858H286.236C287.42 54.5858 288.172 55.1938 288.172 56.1218C288.172 57.0338 287.42 57.6738 286.268 57.6738H284.044ZM297.477 54.2978C293.797 54.1058 291.797 55.2418 291.797 57.1458C291.797 58.9218 293.269 59.8818 294.949 59.8818C296.149 59.8818 297.125 59.5298 297.669 58.6978V59.6738H299.925V54.4098C299.925 51.7858 298.581 50.8258 296.117 50.8258C293.637 50.8258 292.213 52.1378 292.069 53.7378H294.293C294.389 52.9058 295.077 52.5218 295.941 52.5218C296.885 52.5218 297.477 52.9058 297.477 53.9938V54.2978ZM297.541 55.8498V56.0578C297.541 57.6418 296.741 58.1858 295.653 58.1858C294.805 58.1858 294.261 57.7218 294.261 57.0658C294.261 56.2018 295.461 55.6898 297.541 55.8498ZM301.84 59.6738H304.256V54.5378C304.256 53.1938 304.928 52.6818 305.776 52.6818C306.592 52.6818 307.216 53.1938 307.216 54.5378V59.6738H309.632V54.4738C309.632 52.3458 308.688 50.8578 306.704 50.8578C305.568 50.8578 304.72 51.2258 304.256 51.9458V51.0658H301.84V59.6738ZM311.574 59.6738H313.99V54.5378C313.99 53.1938 314.662 52.6818 315.51 52.6818C316.326 52.6818 316.95 53.1938 316.95 54.5378V59.6738H319.366V54.4738C319.366 52.3458 318.422 50.8578 316.438 50.8578C315.302 50.8578 314.454 51.2258 313.99 51.9458V51.0658H311.574V59.6738ZM325.293 59.8818C327.261 59.8818 328.909 58.9058 329.581 57.2258H327.069C326.749 57.8178 326.125 58.0578 325.293 58.0578C324.109 58.0578 323.389 57.2098 323.229 56.0578H329.741C329.853 52.9538 328.045 50.8578 325.293 50.8578C322.669 50.8578 320.813 52.7778 320.813 55.3698C320.813 57.9778 322.685 59.8818 325.293 59.8818ZM325.245 52.6338C326.381 52.6338 327.229 53.2738 327.325 54.4898H323.213C323.277 53.4178 324.141 52.6338 325.245 52.6338ZM331.262 51.0658V59.6738H333.678V55.1618C333.678 53.5778 334.414 53.3538 335.646 53.3538H336.542V51.1138C336.366 51.0978 336.19 51.0818 336.03 51.0818C334.926 51.0818 334.158 51.5778 333.646 52.6498V51.0658H331.262ZM343.15 59.6738H345.646V49.8658H348.99V47.7538H339.822V49.8658H343.15V59.6738ZM352.668 59.8818C354.636 59.8818 356.284 58.9058 356.956 57.2258H354.444C354.124 57.8178 353.5 58.0578 352.668 58.0578C351.484 58.0578 350.764 57.2098 350.604 56.0578H357.116C357.228 52.9538 355.42 50.8578 352.668 50.8578C350.044 50.8578 348.188 52.7778 348.188 55.3698C348.188 57.9778 350.06 59.8818 352.668 59.8818ZM352.62 52.6338C353.756 52.6338 354.604 53.2738 354.7 54.4898H350.588C350.652 53.4178 351.516 52.6338 352.62 52.6338ZM357.159 59.6738H359.591L361.479 57.0818L363.271 59.6738H365.975L362.855 55.1778L365.847 51.0658H363.399L361.671 53.4498L360.023 51.0658H357.335L360.295 55.3538L357.159 59.6738ZM370.581 59.8818C370.965 59.8818 371.461 59.8658 371.845 59.7858V57.8338C371.637 57.8658 371.461 57.8978 371.301 57.8978C370.085 57.8978 369.941 56.9538 369.941 55.7378V52.8098H371.861V51.0658H369.941V47.7858L367.525 49.1618V51.0658H366.165V52.8098H367.525V56.0418C367.525 58.7618 368.565 59.8818 370.581 59.8818ZM380.66 59.8818C381.044 59.8818 381.54 59.8658 381.924 59.7858V57.8338C381.716 57.8658 381.54 57.8978 381.38 57.8978C380.164 57.8978 380.02 56.9538 380.02 55.7378V52.8098H381.94V51.0658H380.02V47.7858L377.604 49.1618V51.0658H376.244V52.8098H377.604V56.0418C377.604 58.7618 378.644 59.8818 380.66 59.8818ZM391.95 55.3698C391.95 52.6978 390.014 50.8578 387.358 50.8578C384.702 50.8578 382.766 52.6978 382.766 55.3698C382.766 58.0418 384.702 59.8818 387.358 59.8818C390.014 59.8818 391.95 58.0418 391.95 55.3698ZM389.518 55.3698C389.518 57.0498 388.702 58.0578 387.358 58.0578C386.014 58.0578 385.198 57.0498 385.198 55.3698C385.198 53.6898 386.014 52.6818 387.358 52.6818C388.702 52.6818 389.518 53.6898 389.518 55.3698ZM397.905 59.6738H400.321V52.8098H402.161V51.0658H400.321V51.0178C400.321 49.7058 400.929 49.3698 402.225 49.5138V47.5778C399.729 47.3698 397.905 48.3778 397.905 51.0178V51.0658H396.545V52.8098H397.905V59.6738ZM407.137 59.8818C409.105 59.8818 410.753 58.9058 411.425 57.2258H408.913C408.593 57.8178 407.969 58.0578 407.137 58.0578C405.953 58.0578 405.233 57.2098 405.073 56.0578H411.585C411.697 52.9538 409.889 50.8578 407.137 50.8578C404.513 50.8578 402.657 52.7778 402.657 55.3698C402.657 57.9778 404.529 59.8818 407.137 59.8818ZM407.089 52.6338C408.225 52.6338 409.073 53.2738 409.169 54.4898H405.057C405.121 53.4178 405.985 52.6338 407.089 52.6338ZM418.29 54.2978C414.61 54.1058 412.61 55.2418 412.61 57.1458C412.61 58.9218 414.082 59.8818 415.762 59.8818C416.962 59.8818 417.938 59.5298 418.482 58.6978V59.6738H420.738V54.4098C420.738 51.7858 419.394 50.8258 416.93 50.8258C414.45 50.8258 413.026 52.1378 412.882 53.7378H415.106C415.202 52.9058 415.89 52.5218 416.754 52.5218C417.698 52.5218 418.29 52.9058 418.29 53.9938V54.2978ZM418.354 55.8498V56.0578C418.354 57.6418 417.554 58.1858 416.466 58.1858C415.618 58.1858 415.074 57.7218 415.074 57.0658C415.074 56.2018 416.274 55.6898 418.354 55.8498ZM426.206 59.8818C426.59 59.8818 427.086 59.8658 427.47 59.7858V57.8338C427.262 57.8658 427.086 57.8978 426.926 57.8978C425.71 57.8978 425.566 56.9538 425.566 55.7378V52.8098H427.486V51.0658H425.566V47.7858L423.15 49.1618V51.0658H421.79V52.8098H423.15V56.0418C423.15 58.7618 424.19 59.8818 426.206 59.8818ZM432.837 59.8818C435.365 59.8818 436.805 58.8098 436.805 56.1378V51.0658H434.389V56.1538C434.389 57.3698 433.893 58.0578 432.837 58.0578C431.781 58.0578 431.285 57.3698 431.285 56.1538V51.0658H428.869V56.1378C428.869 58.8098 430.309 59.8818 432.837 59.8818ZM438.731 51.0658V59.6738H441.147V55.1618C441.147 53.5778 441.883 53.3538 443.115 53.3538H444.011V51.1138C443.835 51.0978 443.659 51.0818 443.499 51.0818C442.395 51.0818 441.627 51.5778 441.115 52.6498V51.0658H438.731ZM449.074 59.8818C451.042 59.8818 452.69 58.9058 453.362 57.2258H450.85C450.53 57.8178 449.906 58.0578 449.074 58.0578C447.89 58.0578 447.17 57.2098 447.01 56.0578H453.522C453.634 52.9538 451.826 50.8578 449.074 50.8578C446.45 50.8578 444.594 52.7778 444.594 55.3698C444.594 57.9778 446.466 59.8818 449.074 59.8818ZM449.026 52.6338C450.162 52.6338 451.01 53.2738 451.106 54.4898H446.994C447.058 53.4178 447.922 52.6338 449.026 52.6338ZM284.716 83.8818C286.732 83.8818 288.412 82.8578 288.412 81.0498C288.412 79.2578 286.94 78.6818 285.164 78.3778L284.204 78.2178C283.308 78.0738 283.02 77.7218 283.02 77.3058C283.02 76.8738 283.468 76.5058 284.364 76.5058C285.116 76.5058 285.708 76.7298 285.932 77.4018H288.14C287.772 75.2578 285.98 74.7778 284.348 74.7778C282.492 74.7778 280.892 75.8498 280.892 77.3698C280.892 78.8898 282.124 79.8018 283.804 80.0898L284.844 80.2658C285.772 80.4258 286.22 80.6978 286.22 81.2578C286.22 81.8338 285.66 82.1538 284.764 82.1538C283.836 82.1538 283.276 81.7858 283.084 81.0498H280.796C281.164 83.0818 282.716 83.8818 284.716 83.8818ZM298.575 79.3698C298.575 76.6978 296.639 74.8578 293.983 74.8578C291.327 74.8578 289.391 76.6978 289.391 79.3698C289.391 82.0418 291.327 83.8818 293.983 83.8818C296.639 83.8818 298.575 82.0418 298.575 79.3698ZM296.143 79.3698C296.143 81.0498 295.327 82.0578 293.983 82.0578C292.639 82.0578 291.823 81.0498 291.823 79.3698C291.823 77.6898 292.639 76.6818 293.983 76.6818C295.327 76.6818 296.143 77.6898 296.143 79.3698ZM300.09 83.6738H302.506V78.5378C302.506 77.1938 303.114 76.6818 303.962 76.6818C304.778 76.6818 305.338 77.1938 305.338 78.5378V83.6738H307.754V78.5378C307.754 77.1938 308.362 76.6818 309.21 76.6818C310.026 76.6818 310.586 77.1938 310.586 78.5378V83.6738H313.002V78.4738C313.002 76.3458 312.122 74.8578 310.138 74.8578C309.098 74.8578 307.914 75.2258 307.274 76.2178C306.826 75.3698 306.042 74.8578 304.89 74.8578C303.754 74.8578 302.97 75.2258 302.506 75.9458V75.0658H300.09V83.6738ZM318.918 83.8818C320.886 83.8818 322.534 82.9058 323.206 81.2258H320.694C320.374 81.8178 319.75 82.0578 318.918 82.0578C317.734 82.0578 317.014 81.2098 316.854 80.0578H323.366C323.478 76.9538 321.67 74.8578 318.918 74.8578C316.294 74.8578 314.438 76.7778 314.438 79.3698C314.438 81.9778 316.31 83.8818 318.918 83.8818ZM318.87 76.6338C320.006 76.6338 320.854 77.2738 320.95 78.4898H316.838C316.902 77.4178 317.766 76.6338 318.87 76.6338ZM332.206 83.8818C332.59 83.8818 333.086 83.8658 333.47 83.7858V81.8338C333.262 81.8658 333.086 81.8978 332.926 81.8978C331.71 81.8978 331.566 80.9538 331.566 79.7378V76.8098H333.486V75.0658H331.566V71.7858L329.15 73.1618V75.0658H327.79V76.8098H329.15V80.0418C329.15 82.7618 330.19 83.8818 332.206 83.8818ZM334.965 83.6738H337.381V78.5378C337.381 77.1938 338.053 76.6818 338.901 76.6818C339.717 76.6818 340.341 77.1938 340.341 78.5378V83.6738H342.757V78.4738C342.757 76.3458 341.813 74.8578 339.829 74.8578C338.693 74.8578 337.845 75.2258 337.381 75.9458V71.7538H334.965V83.6738ZM344.699 75.0658V83.6738H347.115V79.1618C347.115 77.5778 347.851 77.3538 349.083 77.3538H349.979V75.1138C349.803 75.0978 349.627 75.0818 349.467 75.0818C348.363 75.0818 347.595 75.5778 347.083 76.6498V75.0658H344.699ZM355.043 83.8818C357.011 83.8818 358.659 82.9058 359.331 81.2258H356.819C356.499 81.8178 355.875 82.0578 355.043 82.0578C353.859 82.0578 353.139 81.2098 352.979 80.0578H359.491C359.603 76.9538 357.795 74.8578 355.043 74.8578C352.419 74.8578 350.563 76.7778 350.563 79.3698C350.563 81.9778 352.435 83.8818 355.043 83.8818ZM354.995 76.6338C356.131 76.6338 356.979 77.2738 357.075 78.4898H352.963C353.027 77.4178 353.891 76.6338 354.995 76.6338ZM364.996 83.8818C366.964 83.8818 368.612 82.9058 369.284 81.2258H366.772C366.452 81.8178 365.828 82.0578 364.996 82.0578C363.812 82.0578 363.092 81.2098 362.932 80.0578H369.444C369.556 76.9538 367.748 74.8578 364.996 74.8578C362.372 74.8578 360.516 76.7778 360.516 79.3698C360.516 81.9778 362.388 83.8818 364.996 83.8818ZM364.948 76.6338C366.084 76.6338 366.932 77.2738 367.028 78.4898H362.916C362.98 77.4178 363.844 76.6338 364.948 76.6338ZM374.173 79.3698C374.173 82.1538 376.029 83.8818 378.253 83.8818C379.405 83.8818 380.381 83.3538 380.781 82.6978V83.6738H383.197V71.7538H380.781V76.0418C380.381 75.3858 379.405 74.8578 378.253 74.8578C376.029 74.8578 374.173 76.5858 374.173 79.3698ZM380.925 79.3698C380.925 81.2098 379.917 82.0578 378.765 82.0578C377.597 82.0578 376.637 81.2098 376.637 79.3698C376.637 77.5298 377.597 76.6818 378.765 76.6818C379.917 76.6818 380.925 77.5298 380.925 79.3698ZM384.975 72.6818C384.975 73.4818 385.631 74.1378 386.415 74.1378C387.199 74.1378 387.855 73.4818 387.855 72.6818C387.855 71.8978 387.199 71.2418 386.415 71.2418C385.631 71.2418 384.975 71.8978 384.975 72.6818ZM385.215 83.6738H387.631V75.0658H385.215V83.6738ZM390.405 83.6738H392.821V76.8098H394.661V75.0658H392.821V75.0178C392.821 73.7058 393.429 73.3698 394.725 73.5138V71.5778C392.229 71.3698 390.405 72.3778 390.405 75.0178V75.0658H389.045V76.8098H390.405V83.6738ZM396.592 83.6738H399.008V76.8098H400.848V75.0658H399.008V75.0178C399.008 73.7058 399.616 73.3698 400.912 73.5138V71.5778C398.416 71.3698 396.592 72.3778 396.592 75.0178V75.0658H395.232V76.8098H396.592V83.6738ZM405.824 83.8818C407.792 83.8818 409.44 82.9058 410.112 81.2258H407.6C407.28 81.8178 406.656 82.0578 405.824 82.0578C404.64 82.0578 403.92 81.2098 403.76 80.0578H410.272C410.384 76.9538 408.576 74.8578 405.824 74.8578C403.2 74.8578 401.344 76.7778 401.344 79.3698C401.344 81.9778 403.216 83.8818 405.824 83.8818ZM405.776 76.6338C406.912 76.6338 407.76 77.2738 407.856 78.4898H403.744C403.808 77.4178 404.672 76.6338 405.776 76.6338ZM411.793 75.0658V83.6738H414.209V79.1618C414.209 77.5778 414.945 77.3538 416.177 77.3538H417.073V75.1138C416.897 75.0978 416.721 75.0818 416.561 75.0818C415.457 75.0818 414.689 75.5778 414.177 76.6498V75.0658H411.793ZM422.137 83.8818C424.105 83.8818 425.753 82.9058 426.425 81.2258H423.913C423.593 81.8178 422.969 82.0578 422.137 82.0578C420.953 82.0578 420.233 81.2098 420.073 80.0578H426.585C426.697 76.9538 424.889 74.8578 422.137 74.8578C419.513 74.8578 417.657 76.7778 417.657 79.3698C417.657 81.9778 419.529 83.8818 422.137 83.8818ZM422.089 76.6338C423.225 76.6338 424.073 77.2738 424.169 78.4898H420.057C420.121 77.4178 420.985 76.6338 422.089 76.6338ZM428.106 83.6738H430.522V78.5378C430.522 77.1938 431.194 76.6818 432.042 76.6818C432.858 76.6818 433.482 77.1938 433.482 78.5378V83.6738H435.898V78.4738C435.898 76.3458 434.954 74.8578 432.97 74.8578C431.834 74.8578 430.986 75.2258 430.522 75.9458V75.0658H428.106V83.6738ZM441.394 83.8818C441.778 83.8818 442.274 83.8658 442.658 83.7858V81.8338C442.45 81.8658 442.274 81.8978 442.114 81.8978C440.898 81.8978 440.754 80.9538 440.754 79.7378V76.8098H442.674V75.0658H440.754V71.7858L438.338 73.1618V75.0658H436.978V76.8098H438.338V80.0418C438.338 82.7618 439.378 83.8818 441.394 83.8818ZM286.524 102.298C282.844 102.106 280.844 103.242 280.844 105.146C280.844 106.922 282.316 107.882 283.996 107.882C285.196 107.882 286.172 107.53 286.716 106.698V107.674H288.972V102.41C288.972 99.7858 287.628 98.8258 285.164 98.8258C282.684 98.8258 281.26 100.138 281.116 101.738H283.34C283.436 100.906 284.124 100.522 284.988 100.522C285.932 100.522 286.524 100.906 286.524 101.994V102.298ZM286.588 103.85V104.058C286.588 105.642 285.788 106.186 284.7 106.186C283.852 106.186 283.308 105.722 283.308 105.066C283.308 104.202 284.508 103.69 286.588 103.85ZM290.887 99.0658V107.674H293.303V103.162C293.303 101.578 294.039 101.354 295.271 101.354H296.167V99.1138C295.991 99.0978 295.815 99.0818 295.655 99.0818C294.551 99.0818 293.783 99.5778 293.271 100.65V99.0658H290.887ZM301.05 107.882C301.434 107.882 301.93 107.866 302.314 107.786V105.834C302.106 105.866 301.93 105.898 301.77 105.898C300.554 105.898 300.41 104.954 300.41 103.738V100.81H302.33V99.0658H300.41V95.7858L297.994 97.1618V99.0658H296.634V100.81H297.994V104.042C297.994 106.762 299.034 107.882 301.05 107.882ZM303.569 96.6818C303.569 97.4818 304.225 98.1378 305.009 98.1378C305.793 98.1378 306.449 97.4818 306.449 96.6818C306.449 95.8978 305.793 95.2418 305.009 95.2418C304.225 95.2418 303.569 95.8978 303.569 96.6818ZM303.809 107.674H306.225V99.0658H303.809V107.674ZM310.166 103.37C310.166 101.786 310.886 100.682 312.23 100.682C313.158 100.682 313.766 101.066 314.054 102.01H316.518C316.022 100.01 314.374 98.8578 312.246 98.8578C309.606 98.8578 307.75 100.762 307.75 103.37C307.75 105.978 309.606 107.882 312.246 107.882C314.374 107.882 316.022 106.73 316.518 104.73H314.054C313.766 105.674 313.158 106.058 312.23 106.058C310.886 106.058 310.166 104.954 310.166 103.37ZM317.871 107.674H320.287V95.7538H317.871V107.674ZM326.293 107.882C328.261 107.882 329.909 106.906 330.581 105.226H328.069C327.749 105.818 327.125 106.058 326.293 106.058C325.109 106.058 324.389 105.21 324.229 104.058H330.741C330.853 100.954 329.045 98.8578 326.293 98.8578C323.669 98.8578 321.813 100.778 321.813 103.37C321.813 105.978 323.685 107.882 326.293 107.882ZM326.245 100.634C327.381 100.634 328.229 101.274 328.325 102.49H324.213C324.277 101.418 325.141 100.634 326.245 100.634ZM335.638 107.882C337.654 107.882 339.334 106.858 339.334 105.05C339.334 103.258 337.862 102.682 336.086 102.378L335.126 102.218C334.23 102.074 333.942 101.722 333.942 101.306C333.942 100.874 334.39 100.506 335.286 100.506C336.038 100.506 336.63 100.73 336.854 101.402H339.062C338.694 99.2578 336.902 98.7778 335.27 98.7778C333.414 98.7778 331.814 99.8498 331.814 101.37C331.814 102.89 333.046 103.802 334.726 104.09L335.766 104.266C336.694 104.426 337.142 104.698 337.142 105.258C337.142 105.834 336.582 106.154 335.686 106.154C334.758 106.154 334.198 105.786 334.006 105.05H331.718C332.086 107.082 333.638 107.882 335.638 107.882ZM341.993 107.882C342.905 107.882 343.625 107.162 343.625 106.266C343.625 105.354 342.905 104.634 341.993 104.634C341.097 104.634 340.377 105.354 340.377 106.266C340.377 107.162 341.097 107.882 341.993 107.882Z" fill="#364F03"/>
<path d="M494.374 103.964L486.374 95.9639C485.982 95.5719 485.346 95.5719 484.954 95.9639C484.562 96.3559 484.562 96.9919 484.954 97.3839L491.254 103.674H475.664C475.112 103.674 474.664 104.122 474.664 104.674C474.664 105.226 475.112 105.674 475.664 105.674H491.254L484.954 111.964C484.765 112.152 484.658 112.407 484.658 112.674C484.658 112.941 484.765 113.196 484.954 113.384C485.142 113.573 485.397 113.68 485.664 113.68C485.931 113.68 486.186 113.573 486.374 113.384L494.374 105.384C494.563 105.196 494.67 104.941 494.67 104.674C494.67 104.407 494.563 104.152 494.374 103.964Z" fill="#364F03"/>
</g>
<g clip-path="url(#clip2_11456_331185)">
<rect x="528.668" y="0.673828" width="248.333" height="132" rx="8" fill="#FFDEC7"/>
<rect x="528.668" y="0.673828" width="50" height="8" fill="#FF6932"/>
<rect x="578.668" y="0.673828" width="50" height="8" fill="#FF8559"/>
<rect x="628.668" y="0.673828" width="148.333" height="8" fill="#FEB786"/>
<path d="M545.911 34.6738H547.207V30.6658H550.675V29.5258H547.207V26.8738H551.299V25.7338H545.911V34.6738ZM555.356 34.8298C556.808 34.8298 557.972 34.0858 558.452 32.9578H557.084C556.748 33.5218 556.16 33.7738 555.404 33.7738C554.264 33.7738 553.436 32.9818 553.304 31.8298H558.596C558.668 29.5498 557.372 28.0618 555.356 28.0618C553.388 28.0618 552.008 29.5258 552.008 31.4458C552.008 33.3778 553.376 34.8298 555.356 34.8298ZM555.344 29.0698C556.352 29.0698 557.144 29.6938 557.288 30.9058H553.316C553.46 29.8258 554.288 29.0698 555.344 29.0698ZM564.274 34.6738H565.414V30.4738C565.414 28.5778 564.214 28.0378 562.786 28.0378C561.154 28.0378 560.086 28.8898 560.002 30.1258H561.178C561.262 29.3818 561.85 28.9978 562.774 28.9858C563.65 28.9738 564.166 29.4178 564.166 30.4378V30.7138C561.622 30.5098 559.702 31.1218 559.702 32.8978C559.702 33.8698 560.542 34.8298 562.174 34.8298C563.11 34.8298 563.902 34.4458 564.274 33.8458V34.6738ZM564.214 32.0578C564.214 33.3418 563.434 33.8698 562.39 33.8698C561.586 33.8698 561.01 33.4738 561.01 32.8018C561.01 31.8538 562.078 31.4458 564.214 31.6138V32.0578ZM569.629 34.7938C569.869 34.7938 570.157 34.7818 570.409 34.7338V33.7018C570.217 33.7258 570.061 33.7378 569.905 33.7378C569.137 33.7378 568.921 33.2458 568.921 32.3818V29.1778H570.421V28.2178H568.921V26.0338L567.661 26.8978V28.2178H566.593V29.1778H567.661V32.5258C567.661 34.1578 568.381 34.7938 569.629 34.7938ZM574.568 34.8298C575.432 34.8298 576.116 34.6138 576.572 34.2058C577.088 33.7618 577.352 33.0898 577.352 32.0218V28.2178H576.104V31.9738C576.104 32.6458 575.96 33.0538 575.72 33.3298C575.444 33.6298 575.06 33.7618 574.568 33.7618C574.076 33.7618 573.68 33.6298 573.416 33.3298C573.164 33.0538 573.032 32.6458 573.032 31.9738V28.2178H571.784V32.0218C571.784 33.0898 572.036 33.7618 572.552 34.2058C573.008 34.6138 573.692 34.8298 574.568 34.8298ZM579.316 28.2178V34.6738H580.552V31.2898C580.552 30.0058 581.044 29.4178 582.184 29.4178C582.232 29.4178 582.628 29.4178 582.688 29.4298V28.2178C582.592 28.2058 582.496 28.2058 582.4 28.2058C581.572 28.2058 580.876 28.6258 580.528 29.4058V28.2178H579.316ZM586.715 34.8298C588.167 34.8298 589.331 34.0858 589.811 32.9578H588.443C588.107 33.5218 587.519 33.7738 586.763 33.7738C585.623 33.7738 584.795 32.9818 584.663 31.8298H589.955C590.027 29.5498 588.731 28.0618 586.715 28.0618C584.747 28.0618 583.367 29.5258 583.367 31.4458C583.367 33.3778 584.735 34.8298 586.715 34.8298ZM586.703 29.0698C587.711 29.0698 588.503 29.6938 588.647 30.9058H584.675C584.819 29.8258 585.647 29.0698 586.703 29.0698ZM594.17 34.8298C595.046 34.8298 595.91 34.4458 596.366 33.7258V34.6738H597.614V25.7338H596.366V29.1658C595.91 28.4458 595.046 28.0618 594.17 28.0618C592.442 28.0618 591.074 29.4538 591.074 31.4458C591.074 33.4378 592.442 34.8298 594.17 34.8298ZM592.37 31.4458C592.37 30.0418 593.21 29.0938 594.398 29.0938C595.598 29.0938 596.438 30.0418 596.438 31.4458C596.438 32.8498 595.598 33.7978 594.398 33.7978C593.21 33.7978 592.37 32.8498 592.37 31.4458Z" fill="#5C1B05"/>
<path d="M545.884 59.6738H550.86C553.372 59.6738 555.1 58.2818 555.1 56.2338C555.1 54.7778 554.284 53.8338 553.196 53.3378C553.868 52.8418 554.3 52.0898 554.3 51.0498C554.3 49.2578 552.828 47.7538 550.524 47.7538H545.884V59.6738ZM548.38 52.6498V49.7538H550.012C551.02 49.7538 551.708 50.3618 551.708 51.1938C551.708 52.0258 551.02 52.6498 549.996 52.6498H548.38ZM548.38 57.6738V54.5858H550.572C551.756 54.5858 552.508 55.1938 552.508 56.1218C552.508 57.0338 551.756 57.6738 550.604 57.6738H548.38ZM561.813 54.2978C558.133 54.1058 556.133 55.2418 556.133 57.1458C556.133 58.9218 557.605 59.8818 559.285 59.8818C560.485 59.8818 561.461 59.5298 562.005 58.6978V59.6738H564.261V54.4098C564.261 51.7858 562.917 50.8258 560.453 50.8258C557.973 50.8258 556.549 52.1378 556.405 53.7378H558.629C558.725 52.9058 559.413 52.5218 560.277 52.5218C561.221 52.5218 561.813 52.9058 561.813 53.9938V54.2978ZM561.877 55.8498V56.0578C561.877 57.6418 561.077 58.1858 559.989 58.1858C559.141 58.1858 558.597 57.7218 558.597 57.0658C558.597 56.2018 559.797 55.6898 561.877 55.8498ZM566.176 59.6738H568.592V54.5378C568.592 53.1938 569.264 52.6818 570.112 52.6818C570.928 52.6818 571.552 53.1938 571.552 54.5378V59.6738H573.968V54.4738C573.968 52.3458 573.024 50.8578 571.04 50.8578C569.904 50.8578 569.056 51.2258 568.592 51.9458V51.0658H566.176V59.6738ZM575.91 59.6738H578.326V54.5378C578.326 53.1938 578.998 52.6818 579.846 52.6818C580.662 52.6818 581.286 53.1938 581.286 54.5378V59.6738H583.702V54.4738C583.702 52.3458 582.758 50.8578 580.774 50.8578C579.638 50.8578 578.79 51.2258 578.326 51.9458V51.0658H575.91V59.6738ZM589.629 59.8818C591.597 59.8818 593.245 58.9058 593.917 57.2258H591.405C591.085 57.8178 590.461 58.0578 589.629 58.0578C588.445 58.0578 587.725 57.2098 587.565 56.0578H594.077C594.189 52.9538 592.381 50.8578 589.629 50.8578C587.005 50.8578 585.149 52.7778 585.149 55.3698C585.149 57.9778 587.021 59.8818 589.629 59.8818ZM589.581 52.6338C590.717 52.6338 591.565 53.2738 591.661 54.4898H587.549C587.613 53.4178 588.477 52.6338 589.581 52.6338ZM595.598 51.0658V59.6738H598.014V55.1618C598.014 53.5778 598.75 53.3538 599.982 53.3538H600.878V51.1138C600.702 51.0978 600.526 51.0818 600.366 51.0818C599.262 51.0818 598.494 51.5778 597.982 52.6498V51.0658H595.598ZM607.486 59.6738H609.982V49.8658H613.326V47.7538H604.158V49.8658H607.486V59.6738ZM617.004 59.8818C618.972 59.8818 620.62 58.9058 621.292 57.2258H618.78C618.46 57.8178 617.836 58.0578 617.004 58.0578C615.82 58.0578 615.1 57.2098 614.94 56.0578H621.452C621.564 52.9538 619.756 50.8578 617.004 50.8578C614.38 50.8578 612.524 52.7778 612.524 55.3698C612.524 57.9778 614.396 59.8818 617.004 59.8818ZM616.956 52.6338C618.092 52.6338 618.94 53.2738 619.036 54.4898H614.924C614.988 53.4178 615.852 52.6338 616.956 52.6338ZM621.495 59.6738H623.927L625.815 57.0818L627.607 59.6738H630.311L627.191 55.1778L630.183 51.0658H627.735L626.007 53.4498L624.359 51.0658H621.671L624.631 55.3538L621.495 59.6738ZM634.917 59.8818C635.301 59.8818 635.797 59.8658 636.181 59.7858V57.8338C635.973 57.8658 635.797 57.8978 635.637 57.8978C634.421 57.8978 634.277 56.9538 634.277 55.7378V52.8098H636.197V51.0658H634.277V47.7858L631.861 49.1618V51.0658H630.501V52.8098H631.861V56.0418C631.861 58.7618 632.901 59.8818 634.917 59.8818ZM644.995 59.8818C645.379 59.8818 645.875 59.8658 646.259 59.7858V57.8338C646.051 57.8658 645.875 57.8978 645.715 57.8978C644.499 57.8978 644.355 56.9538 644.355 55.7378V52.8098H646.275V51.0658H644.355V47.7858L641.939 49.1618V51.0658H640.579V52.8098H641.939V56.0418C641.939 58.7618 642.979 59.8818 644.995 59.8818ZM656.286 55.3698C656.286 52.6978 654.35 50.8578 651.694 50.8578C649.038 50.8578 647.102 52.6978 647.102 55.3698C647.102 58.0418 649.038 59.8818 651.694 59.8818C654.35 59.8818 656.286 58.0418 656.286 55.3698ZM653.854 55.3698C653.854 57.0498 653.038 58.0578 651.694 58.0578C650.35 58.0578 649.534 57.0498 649.534 55.3698C649.534 53.6898 650.35 52.6818 651.694 52.6818C653.038 52.6818 653.854 53.6898 653.854 55.3698ZM662.24 59.6738H664.656V52.8098H666.496V51.0658H664.656V51.0178C664.656 49.7058 665.264 49.3698 666.56 49.5138V47.5778C664.064 47.3698 662.24 48.3778 662.24 51.0178V51.0658H660.88V52.8098H662.24V59.6738ZM671.472 59.8818C673.44 59.8818 675.088 58.9058 675.76 57.2258H673.248C672.928 57.8178 672.304 58.0578 671.472 58.0578C670.288 58.0578 669.568 57.2098 669.408 56.0578H675.92C676.032 52.9538 674.224 50.8578 671.472 50.8578C668.848 50.8578 666.992 52.7778 666.992 55.3698C666.992 57.9778 668.864 59.8818 671.472 59.8818ZM671.424 52.6338C672.56 52.6338 673.408 53.2738 673.504 54.4898H669.392C669.456 53.4178 670.32 52.6338 671.424 52.6338ZM682.626 54.2978C678.946 54.1058 676.946 55.2418 676.946 57.1458C676.946 58.9218 678.418 59.8818 680.098 59.8818C681.298 59.8818 682.274 59.5298 682.818 58.6978V59.6738H685.074V54.4098C685.074 51.7858 683.73 50.8258 681.266 50.8258C678.786 50.8258 677.362 52.1378 677.218 53.7378H679.442C679.538 52.9058 680.226 52.5218 681.09 52.5218C682.034 52.5218 682.626 52.9058 682.626 53.9938V54.2978ZM682.69 55.8498V56.0578C682.69 57.6418 681.89 58.1858 680.802 58.1858C679.954 58.1858 679.41 57.7218 679.41 57.0658C679.41 56.2018 680.61 55.6898 682.69 55.8498ZM690.542 59.8818C690.926 59.8818 691.422 59.8658 691.806 59.7858V57.8338C691.598 57.8658 691.422 57.8978 691.262 57.8978C690.046 57.8978 689.902 56.9538 689.902 55.7378V52.8098H691.822V51.0658H689.902V47.7858L687.486 49.1618V51.0658H686.126V52.8098H687.486V56.0418C687.486 58.7618 688.526 59.8818 690.542 59.8818ZM697.173 59.8818C699.701 59.8818 701.141 58.8098 701.141 56.1378V51.0658H698.725V56.1538C698.725 57.3698 698.229 58.0578 697.173 58.0578C696.117 58.0578 695.621 57.3698 695.621 56.1538V51.0658H693.205V56.1378C693.205 58.8098 694.645 59.8818 697.173 59.8818ZM703.067 51.0658V59.6738H705.483V55.1618C705.483 53.5778 706.219 53.3538 707.451 53.3538H708.347V51.1138C708.171 51.0978 707.995 51.0818 707.835 51.0818C706.731 51.0818 705.963 51.5778 705.451 52.6498V51.0658H703.067ZM713.41 59.8818C715.378 59.8818 717.026 58.9058 717.698 57.2258H715.186C714.866 57.8178 714.242 58.0578 713.41 58.0578C712.226 58.0578 711.506 57.2098 711.346 56.0578H717.858C717.97 52.9538 716.162 50.8578 713.41 50.8578C710.786 50.8578 708.93 52.7778 708.93 55.3698C708.93 57.9778 710.802 59.8818 713.41 59.8818ZM713.362 52.6338C714.498 52.6338 715.346 53.2738 715.442 54.4898H711.33C711.394 53.4178 712.258 52.6338 713.362 52.6338ZM549.052 83.8818C551.068 83.8818 552.748 82.8578 552.748 81.0498C552.748 79.2578 551.276 78.6818 549.5 78.3778L548.54 78.2178C547.644 78.0738 547.356 77.7218 547.356 77.3058C547.356 76.8738 547.804 76.5058 548.7 76.5058C549.452 76.5058 550.044 76.7298 550.268 77.4018H552.476C552.108 75.2578 550.316 74.7778 548.684 74.7778C546.828 74.7778 545.228 75.8498 545.228 77.3698C545.228 78.8898 546.46 79.8018 548.14 80.0898L549.18 80.2658C550.108 80.4258 550.556 80.6978 550.556 81.2578C550.556 81.8338 549.996 82.1538 549.1 82.1538C548.172 82.1538 547.612 81.7858 547.42 81.0498H545.132C545.5 83.0818 547.052 83.8818 549.052 83.8818ZM562.911 79.3698C562.911 76.6978 560.975 74.8578 558.319 74.8578C555.663 74.8578 553.727 76.6978 553.727 79.3698C553.727 82.0418 555.663 83.8818 558.319 83.8818C560.975 83.8818 562.911 82.0418 562.911 79.3698ZM560.479 79.3698C560.479 81.0498 559.663 82.0578 558.319 82.0578C556.975 82.0578 556.159 81.0498 556.159 79.3698C556.159 77.6898 556.975 76.6818 558.319 76.6818C559.663 76.6818 560.479 77.6898 560.479 79.3698ZM564.426 83.6738H566.842V78.5378C566.842 77.1938 567.45 76.6818 568.298 76.6818C569.114 76.6818 569.674 77.1938 569.674 78.5378V83.6738H572.09V78.5378C572.09 77.1938 572.698 76.6818 573.546 76.6818C574.362 76.6818 574.922 77.1938 574.922 78.5378V83.6738H577.338V78.4738C577.338 76.3458 576.458 74.8578 574.474 74.8578C573.434 74.8578 572.25 75.2258 571.61 76.2178C571.162 75.3698 570.378 74.8578 569.226 74.8578C568.09 74.8578 567.306 75.2258 566.842 75.9458V75.0658H564.426V83.6738ZM583.254 83.8818C585.222 83.8818 586.87 82.9058 587.542 81.2258H585.03C584.71 81.8178 584.086 82.0578 583.254 82.0578C582.07 82.0578 581.35 81.2098 581.19 80.0578H587.702C587.814 76.9538 586.006 74.8578 583.254 74.8578C580.63 74.8578 578.774 76.7778 578.774 79.3698C578.774 81.9778 580.646 83.8818 583.254 83.8818ZM583.206 76.6338C584.342 76.6338 585.19 77.2738 585.286 78.4898H581.174C581.238 77.4178 582.102 76.6338 583.206 76.6338ZM596.542 83.8818C596.926 83.8818 597.422 83.8658 597.806 83.7858V81.8338C597.598 81.8658 597.422 81.8978 597.262 81.8978C596.046 81.8978 595.902 80.9538 595.902 79.7378V76.8098H597.822V75.0658H595.902V71.7858L593.486 73.1618V75.0658H592.126V76.8098H593.486V80.0418C593.486 82.7618 594.526 83.8818 596.542 83.8818ZM599.301 83.6738H601.717V78.5378C601.717 77.1938 602.389 76.6818 603.237 76.6818C604.053 76.6818 604.677 77.1938 604.677 78.5378V83.6738H607.093V78.4738C607.093 76.3458 606.149 74.8578 604.165 74.8578C603.029 74.8578 602.181 75.2258 601.717 75.9458V71.7538H599.301V83.6738ZM609.035 75.0658V83.6738H611.451V79.1618C611.451 77.5778 612.187 77.3538 613.419 77.3538H614.315V75.1138C614.139 75.0978 613.963 75.0818 613.803 75.0818C612.699 75.0818 611.931 75.5778 611.419 76.6498V75.0658H609.035ZM619.379 83.8818C621.347 83.8818 622.995 82.9058 623.667 81.2258H621.155C620.835 81.8178 620.211 82.0578 619.379 82.0578C618.195 82.0578 617.475 81.2098 617.315 80.0578H623.827C623.939 76.9538 622.131 74.8578 619.379 74.8578C616.755 74.8578 614.899 76.7778 614.899 79.3698C614.899 81.9778 616.771 83.8818 619.379 83.8818ZM619.331 76.6338C620.467 76.6338 621.315 77.2738 621.411 78.4898H617.299C617.363 77.4178 618.227 76.6338 619.331 76.6338ZM629.332 83.8818C631.3 83.8818 632.948 82.9058 633.62 81.2258H631.108C630.788 81.8178 630.164 82.0578 629.332 82.0578C628.148 82.0578 627.428 81.2098 627.268 80.0578H633.78C633.892 76.9538 632.084 74.8578 629.332 74.8578C626.708 74.8578 624.852 76.7778 624.852 79.3698C624.852 81.9778 626.724 83.8818 629.332 83.8818ZM629.284 76.6338C630.42 76.6338 631.268 77.2738 631.364 78.4898H627.252C627.316 77.4178 628.18 76.6338 629.284 76.6338ZM638.508 79.3698C638.508 82.1538 640.364 83.8818 642.588 83.8818C643.74 83.8818 644.716 83.3538 645.116 82.6978V83.6738H647.532V71.7538H645.116V76.0418C644.716 75.3858 643.74 74.8578 642.588 74.8578C640.364 74.8578 638.508 76.5858 638.508 79.3698ZM645.26 79.3698C645.26 81.2098 644.252 82.0578 643.1 82.0578C641.932 82.0578 640.972 81.2098 640.972 79.3698C640.972 77.5298 641.932 76.6818 643.1 76.6818C644.252 76.6818 645.26 77.5298 645.26 79.3698ZM649.311 72.6818C649.311 73.4818 649.967 74.1378 650.751 74.1378C651.535 74.1378 652.191 73.4818 652.191 72.6818C652.191 71.8978 651.535 71.2418 650.751 71.2418C649.967 71.2418 649.311 71.8978 649.311 72.6818ZM649.551 83.6738H651.967V75.0658H649.551V83.6738ZM654.74 83.6738H657.156V76.8098H658.996V75.0658H657.156V75.0178C657.156 73.7058 657.764 73.3698 659.06 73.5138V71.5778C656.564 71.3698 654.74 72.3778 654.74 75.0178V75.0658H653.38V76.8098H654.74V83.6738ZM660.928 83.6738H663.344V76.8098H665.184V75.0658H663.344V75.0178C663.344 73.7058 663.952 73.3698 665.248 73.5138V71.5778C662.752 71.3698 660.928 72.3778 660.928 75.0178V75.0658H659.568V76.8098H660.928V83.6738ZM670.16 83.8818C672.128 83.8818 673.776 82.9058 674.448 81.2258H671.936C671.616 81.8178 670.992 82.0578 670.16 82.0578C668.976 82.0578 668.256 81.2098 668.096 80.0578H674.608C674.72 76.9538 672.912 74.8578 670.16 74.8578C667.536 74.8578 665.68 76.7778 665.68 79.3698C665.68 81.9778 667.552 83.8818 670.16 83.8818ZM670.112 76.6338C671.248 76.6338 672.096 77.2738 672.192 78.4898H668.08C668.144 77.4178 669.008 76.6338 670.112 76.6338ZM676.129 75.0658V83.6738H678.545V79.1618C678.545 77.5778 679.281 77.3538 680.513 77.3538H681.409V75.1138C681.233 75.0978 681.057 75.0818 680.897 75.0818C679.793 75.0818 679.025 75.5778 678.513 76.6498V75.0658H676.129ZM686.472 83.8818C688.44 83.8818 690.088 82.9058 690.76 81.2258H688.248C687.928 81.8178 687.304 82.0578 686.472 82.0578C685.288 82.0578 684.568 81.2098 684.408 80.0578H690.92C691.032 76.9538 689.224 74.8578 686.472 74.8578C683.848 74.8578 681.992 76.7778 681.992 79.3698C681.992 81.9778 683.864 83.8818 686.472 83.8818ZM686.424 76.6338C687.56 76.6338 688.408 77.2738 688.504 78.4898H684.392C684.456 77.4178 685.32 76.6338 686.424 76.6338ZM692.442 83.6738H694.858V78.5378C694.858 77.1938 695.53 76.6818 696.378 76.6818C697.194 76.6818 697.818 77.1938 697.818 78.5378V83.6738H700.234V78.4738C700.234 76.3458 699.29 74.8578 697.306 74.8578C696.17 74.8578 695.322 75.2258 694.858 75.9458V75.0658H692.442V83.6738ZM705.73 83.8818C706.114 83.8818 706.61 83.8658 706.994 83.7858V81.8338C706.786 81.8658 706.61 81.8978 706.45 81.8978C705.234 81.8978 705.09 80.9538 705.09 79.7378V76.8098H707.01V75.0658H705.09V71.7858L702.674 73.1618V75.0658H701.314V76.8098H702.674V80.0418C702.674 82.7618 703.714 83.8818 705.73 83.8818ZM550.86 102.298C547.18 102.106 545.18 103.242 545.18 105.146C545.18 106.922 546.652 107.882 548.332 107.882C549.532 107.882 550.508 107.53 551.052 106.698V107.674H553.308V102.41C553.308 99.7858 551.964 98.8258 549.5 98.8258C547.02 98.8258 545.596 100.138 545.452 101.738H547.676C547.772 100.906 548.46 100.522 549.324 100.522C550.268 100.522 550.86 100.906 550.86 101.994V102.298ZM550.924 103.85V104.058C550.924 105.642 550.124 106.186 549.036 106.186C548.188 106.186 547.644 105.722 547.644 105.066C547.644 104.202 548.844 103.69 550.924 103.85ZM555.223 99.0658V107.674H557.639V103.162C557.639 101.578 558.375 101.354 559.607 101.354H560.503V99.1138C560.327 99.0978 560.151 99.0818 559.991 99.0818C558.887 99.0818 558.119 99.5778 557.607 100.65V99.0658H555.223ZM565.386 107.882C565.77 107.882 566.266 107.866 566.65 107.786V105.834C566.442 105.866 566.266 105.898 566.106 105.898C564.89 105.898 564.746 104.954 564.746 103.738V100.81H566.666V99.0658H564.746V95.7858L562.33 97.1618V99.0658H560.97V100.81H562.33V104.042C562.33 106.762 563.37 107.882 565.386 107.882ZM567.905 96.6818C567.905 97.4818 568.561 98.1378 569.345 98.1378C570.129 98.1378 570.785 97.4818 570.785 96.6818C570.785 95.8978 570.129 95.2418 569.345 95.2418C568.561 95.2418 567.905 95.8978 567.905 96.6818ZM568.145 107.674H570.561V99.0658H568.145V107.674ZM574.502 103.37C574.502 101.786 575.222 100.682 576.566 100.682C577.494 100.682 578.102 101.066 578.39 102.01H580.854C580.358 100.01 578.71 98.8578 576.582 98.8578C573.942 98.8578 572.086 100.762 572.086 103.37C572.086 105.978 573.942 107.882 576.582 107.882C578.71 107.882 580.358 106.73 580.854 104.73H578.39C578.102 105.674 577.494 106.058 576.566 106.058C575.222 106.058 574.502 104.954 574.502 103.37ZM582.207 107.674H584.623V95.7538H582.207V107.674ZM590.629 107.882C592.597 107.882 594.245 106.906 594.917 105.226H592.405C592.085 105.818 591.461 106.058 590.629 106.058C589.445 106.058 588.725 105.21 588.565 104.058H595.077C595.189 100.954 593.381 98.8578 590.629 98.8578C588.005 98.8578 586.149 100.778 586.149 103.37C586.149 105.978 588.021 107.882 590.629 107.882ZM590.581 100.634C591.717 100.634 592.565 101.274 592.661 102.49H588.549C588.613 101.418 589.477 100.634 590.581 100.634ZM599.974 107.882C601.99 107.882 603.67 106.858 603.67 105.05C603.67 103.258 602.198 102.682 600.422 102.378L599.462 102.218C598.566 102.074 598.278 101.722 598.278 101.306C598.278 100.874 598.726 100.506 599.622 100.506C600.374 100.506 600.966 100.73 601.19 101.402H603.398C603.03 99.2578 601.238 98.7778 599.606 98.7778C597.75 98.7778 596.15 99.8498 596.15 101.37C596.15 102.89 597.382 103.802 599.062 104.09L600.102 104.266C601.03 104.426 601.478 104.698 601.478 105.258C601.478 105.834 600.918 106.154 600.022 106.154C599.094 106.154 598.534 105.786 598.342 105.05H596.054C596.422 107.082 597.974 107.882 599.974 107.882ZM606.329 107.882C607.241 107.882 607.961 107.162 607.961 106.266C607.961 105.354 607.241 104.634 606.329 104.634C605.433 104.634 604.713 105.354 604.713 106.266C604.713 107.162 605.433 107.882 606.329 107.882Z" fill="#5C1B05"/>
<path d="M758.71 103.964L750.71 95.9639C750.318 95.5719 749.682 95.5719 749.29 95.9639C748.898 96.3559 748.898 96.9919 749.29 97.3839L755.59 103.674H740C739.448 103.674 739 104.122 739 104.674C739 105.226 739.448 105.674 740 105.674H755.59L749.29 111.964C749.101 112.152 748.994 112.407 748.994 112.674C748.994 112.941 749.101 113.196 749.29 113.384C749.478 113.573 749.733 113.68 750 113.68C750.267 113.68 750.522 113.573 750.71 113.384L758.71 105.384C758.899 105.196 759.006 104.941 759.006 104.674C759.006 104.407 758.899 104.152 758.71 103.964Z" fill="#5C1B05"/>
</g>
<defs>
<clipPath id="clip0_11456_331185">
<rect y="0.673828" width="248.333" height="132" rx="8" fill="white"/>
</clipPath>
<clipPath id="clip1_11456_331185">
<rect x="264.332" y="0.673828" width="248.333" height="132" rx="8" fill="white"/>
</clipPath>
<clipPath id="clip2_11456_331185">
<rect x="528.668" y="0.673828" width="248.333" height="132" rx="8" fill="white"/>
</clipPath>
</defs>
</svg>
