<svg width="16" height="16" viewBox="0 0 16 16" fill="none" xmlns="http://www.w3.org/2000/svg">
<path d="M10.2941 2.63585C11.1417 1.78805 12.5162 1.78805 13.3639 2.63585C14.212 3.48364 14.212 4.85818 13.3639 5.70598L5.80499 13.2651C5.72917 13.3408 5.63262 13.3924 5.52735 13.4135L2.64954 13.9891C2.26936 14.0651 1.935 13.7302 2.01082 13.3505L2.58627 10.4723C2.60754 10.3672 2.65882 10.2707 2.73463 10.1949L10.2941 2.63585ZM11.0615 6.47349L9.52661 4.93842L3.3859 11.0787L3.00245 12.9975L4.92135 12.6137L11.0615 6.47349ZM12.5964 3.40341C12.1726 2.97948 11.4853 2.97948 11.0615 3.40341L10.2941 4.17091L11.829 5.70598L12.5964 4.93842C13.0202 4.51455 13.0202 3.82728 12.5964 3.40341Z" fill="#3665F3"/>
</svg>
