<svg width="24" height="25" viewBox="0 0 24 25" fill="none" xmlns="http://www.w3.org/2000/svg">
<path d="M8 7.45508C8 6.90279 8.44771 6.45508 9 6.45508C9.55229 6.45508 10 6.90279 10 7.45508V17.4551C10 18.0074 9.55229 18.4551 9 18.4551C8.44771 18.4551 8 18.0074 8 17.4551V7.45508Z" fill="#111820"/>
<path d="M15 6.45508C14.4477 6.45508 14 6.90279 14 7.45508V17.4551C14 18.0074 14.4477 18.4551 15 18.4551C15.5523 18.4551 16 18.0074 16 17.4551V7.45508C16 6.90279 15.5523 6.45508 15 6.45508Z" fill="#111820"/>
<path d="M0 12.4551C0 5.82766 5.37258 0.455078 12 0.455078C18.6274 0.455078 24 5.82766 24 12.4551C24 19.0825 18.6274 24.4551 12 24.4551C5.37258 24.4551 0 19.0825 0 12.4551ZM22 12.4551C22 6.93223 17.5228 2.45508 12 2.45508C6.47715 2.45508 2 6.93223 2 12.4551C2 17.9779 6.47715 22.4551 12 22.4551C17.5228 22.4551 22 17.9779 22 12.4551Z" fill="#111820"/>
</svg>
