<svg width="20" height="20" viewBox="0 0 20 20" fill="none" xmlns="http://www.w3.org/2000/svg">
<path d="M19.1673 9.99967C19.1673 15.0622 15.0632 19.1663 10.0007 19.1663C4.93815 19.1663 0.833984 15.0622 0.833984 9.99967C0.833984 4.93717 4.93815 0.833008 10.0007 0.833008C15.0632 0.833008 19.1673 4.93717 19.1673 9.99967ZM17.5007 9.99967C17.5007 5.85717 14.1432 2.49967 10.0007 2.49967C5.85815 2.49967 2.50065 5.85717 2.50065 9.99967C2.50065 14.1422 5.85815 17.4997 10.0007 17.4997C14.1432 17.4997 17.5007 14.1422 17.5007 9.99967ZM9.16732 4.99967C9.16732 4.53967 9.54065 4.16634 10.0007 4.16634C10.4607 4.16634 10.834 4.53967 10.834 4.99967V9.65801L13.084 11.9163C13.3673 12.2472 13.3482 12.7397 13.0407 13.048C12.7323 13.3555 12.2398 13.3747 11.909 13.0913L9.40898 10.5913C9.25315 10.4338 9.16565 10.2213 9.16732 9.99967V4.99967Z" fill="#41413F"/>
</svg>
