<svg width="20" height="21" viewBox="0 0 20 21" fill="none" xmlns="http://www.w3.org/2000/svg">
<path d="M10.001 18.0078C13.8608 18.0078 17.0566 14.812 17.0566 10.9521C17.0566 7.0992 13.8539 3.89648 9.99406 3.89648C6.14111 3.89648 2.94531 7.0992 2.94531 10.9521C2.94531 14.812 6.14803 18.0078 10.001 18.0078ZM10.001 16.8319C6.736 16.8319 4.12817 14.2171 4.12817 10.9521C4.12817 7.69409 6.72909 5.07243 9.99406 5.07243C13.259 5.07243 15.8738 7.69409 15.8807 10.9521C15.8876 14.2171 13.266 16.8319 10.001 16.8319ZM6.38322 11.6992H9.99406C10.2638 11.6992 10.4783 11.4917 10.4783 11.215V6.55273C10.4783 6.28296 10.2638 6.07544 9.99406 6.07544C9.72428 6.07544 9.51676 6.28296 9.51676 6.55273V10.7377H6.38322C6.10653 10.7377 5.89901 10.9452 5.89901 11.215C5.89901 11.4917 6.10653 11.6992 6.38322 11.6992Z" fill="#767676"/>
</svg>
