<svg width="18" height="18" viewBox="0 0 18 18" fill="none" xmlns="http://www.w3.org/2000/svg">
<path d="M3.9675 9.525C3.6765 9.2325 3.6765 8.76 3.9675 8.4675L9.225 3.225C9.52275 2.97016 9.966 2.9873 10.2435 3.26433C10.5203 3.54136 10.5375 3.98493 10.2825 4.2825L6.3075 8.25L16.5 8.25C16.9142 8.25 17.25 8.58577 17.25 9C17.25 9.41422 16.9142 9.75 16.5 9.75L6.3075 9.75L10.275 13.7175C10.53 14.0151 10.5128 14.4586 10.236 14.7357C9.9585 15.0127 9.51525 15.0298 9.2175 14.775L3.9675 9.525ZM1.5 0.75C1.914 0.75 2.25 1.08579 2.25 1.5L2.25 16.5C2.25 16.9142 1.914 17.25 1.5 17.25C1.086 17.25 0.75 16.9142 0.75 16.5L0.75 1.5C0.75 1.08579 1.086 0.75 1.5 0.75Z" fill="#382AEF"/>
</svg>
