<svg width="15" height="14" viewBox="0 0 15 14" fill="none" xmlns="http://www.w3.org/2000/svg">
<path fill-rule="evenodd" clip-rule="evenodd" d="M11.6295 4.47808C12.0955 4.2204 12.4532 3.81267 12.622 3.32604C12.1859 3.56478 11.7027 3.73796 11.1889 3.83131C10.7772 3.42669 10.1907 3.17383 9.54119 3.17383C8.29507 3.17383 7.28441 4.10654 7.28441 5.25656C7.28441 5.4198 7.30443 5.5787 7.34314 5.73123C5.46757 5.6444 3.80456 4.81529 2.6914 3.55484C2.49717 3.86238 2.38576 4.2204 2.38576 4.60203C2.38576 5.32443 2.78447 5.96219 3.38969 6.33559C3.01992 6.32487 2.6717 6.23121 2.36758 6.0748C2.36741 6.08366 2.36741 6.09251 2.36741 6.10121C2.36741 7.11034 3.14565 7.95204 4.17785 8.14324C3.98868 8.19108 3.7889 8.2164 3.58341 8.2164C3.43765 8.2164 3.29645 8.20351 3.15877 8.17928C3.4459 9.00653 4.27917 9.60872 5.26695 9.62565C4.49443 10.1843 3.52147 10.5172 2.46385 10.5172C2.28208 10.5172 2.102 10.5074 1.92578 10.488C2.92399 11.0792 4.11053 11.4238 5.38493 11.4238C9.53597 11.4238 11.8061 8.25026 11.8061 5.49778C11.8061 5.40753 11.8039 5.3176 11.7995 5.22845C12.2408 4.93488 12.6233 4.56817 12.9258 4.1505C12.5212 4.31608 12.0859 4.42806 11.6295 4.47808Z" fill="#1DA1F2"/>
</svg>
