<svg width="14" height="14" viewBox="0 0 17 17" fill="none" xmlns="http://www.w3.org/2000/svg">
<path d="M14.8437 3.13209C14.1114 2.34128 13.0816 1.8916 12.0024 1.8916C10.9233 1.8916 9.89349 2.34128 9.16116 3.13209L8.6676 3.65117L8.17404 3.13209C7.44171 2.34128 6.41191 1.8916 5.33275 1.8916C4.2536 1.8916 3.2238 2.34128 2.49146 3.13209C0.950762 4.79689 0.950762 7.3635 2.49146 9.02837L8.18738 15.0178C8.31344 15.1501 8.48819 15.2249 8.67094 15.2249C8.85369 15.2249 9.02843 15.1501 9.15449 15.0178L14.8504 9.02837C16.3891 7.36177 16.3864 4.79516 14.8437 3.13209ZM13.8766 8.10999L8.6676 13.5737L3.45857 8.11665C2.39809 6.96767 2.39809 5.19938 3.45857 4.05047C3.94012 3.52586 4.61976 3.22718 5.33275 3.22718C6.04574 3.22718 6.72539 3.52586 7.20694 4.05047L8.18071 5.08199C8.30677 5.21422 8.48152 5.28909 8.66427 5.28909C8.84702 5.28909 9.02176 5.21422 9.14782 5.08199L10.1283 4.05047C10.6098 3.52586 11.2895 3.22718 12.0024 3.22718C12.7154 3.22718 13.3951 3.52586 13.8766 4.05047C14.9371 5.19938 14.9371 6.96767 13.8766 8.11665V8.10999Z" fill="#41413F"/>
</svg>
