<svg width="18" height="18" viewBox="0 0 20 20" fill="none" xmlns="http://www.w3.org/2000/svg">
<path d="M4.45427 2H19.5462C21.4215 2 22.9418 3.5203 22.9418 5.39568V14.4508C22.9418 16.1922 21.631 17.6275 19.9422 17.8236L19.9235 17.8254V20.1103C19.9235 21.603 18.2781 22.4943 17.0334 21.7078L16.9682 21.6648L11.4143 17.8465H4.45427C2.61238 17.8465 1.113 16.38 1.06004 14.5509L1.05859 14.4508V5.39568C1.05859 3.5203 2.57889 2 4.45427 2ZM21.0554 5.39568C21.0554 4.56217 20.3797 3.88649 19.5462 3.88649H4.45427C3.62077 3.88649 2.94508 4.56217 2.94508 5.39568V14.4508C2.94508 15.2843 3.62077 15.96 4.45427 15.96H12.0002L18.037 20.1103V15.96H19.5462C20.3797 15.96 21.0554 15.2843 21.0554 14.4508V5.39568Z" fill="#111820"/>
</svg>
