<svg width="19" height="19" viewBox="0 0 19 19" fill="none" xmlns="http://www.w3.org/2000/svg">
<path fill-rule="evenodd" clip-rule="evenodd" d="M11.0685 2.19727C10.6472 2.19727 10.3057 2.53877 10.3057 2.96003V8.29942C10.3057 8.72068 10.6472 9.06218 11.0685 9.06218H16.4079C16.8291 9.06218 17.1706 8.72068 17.1706 8.29942V2.96003C17.1706 2.53877 16.8291 2.19727 16.4079 2.19727H11.0685ZM11.8312 7.53665V3.7228H15.6451V7.53665H11.8312ZM2.67698 2.19733C2.25571 2.19733 1.91421 2.53883 1.91421 2.96009V8.29948C1.91421 8.72074 2.25571 9.06224 2.67698 9.06224H8.01636C8.43762 9.06224 8.77913 8.72074 8.77913 8.29948V2.96009C8.77913 2.53883 8.43762 2.19733 8.01636 2.19733H2.67698ZM3.43974 7.53671V3.72286H7.25359V7.53671H3.43974ZM10.3057 11.3508C10.3057 10.9295 10.6472 10.588 11.0685 10.588H16.4079C16.8291 10.588 17.1706 10.9295 17.1706 11.3508V16.6902C17.1706 17.1114 16.8291 17.4529 16.4079 17.4529H11.0685C10.6472 17.4529 10.3057 17.1114 10.3057 16.6902V11.3508ZM11.8312 12.1136V15.9274H15.6451V12.1136H11.8312ZM2.67683 10.588C2.25557 10.588 1.91406 10.9295 1.91406 11.3508V16.6902C1.91406 17.1114 2.25557 17.4529 2.67683 17.4529H8.01621C8.43748 17.4529 8.77898 17.1114 8.77898 16.6902V11.3508C8.77898 10.9295 8.43748 10.588 8.01621 10.588H2.67683ZM3.4396 15.9274V12.1136H7.25344V15.9274H3.4396Z" fill="#41413F"/>
</svg>
