<svg width="18" height="18" viewBox="0 0 20 20" fill="none" xmlns="http://www.w3.org/2000/svg">
<path d="M21.2617 3.86073C20.1632 2.67451 18.6185 2 16.9998 2C15.381 2 13.8363 2.67451 12.7378 3.86073L11.9975 4.63935L11.2572 3.86073C10.1587 2.67451 8.61396 2 6.99522 2C5.37649 2 3.83179 2.67451 2.73329 3.86073C0.422237 6.35793 0.422237 10.2079 2.73329 12.7052L11.2772 21.6893C11.4663 21.8877 11.7284 22 12.0025 22C12.2766 22 12.5387 21.8877 12.7278 21.6893L21.2717 12.7052C23.5798 10.2053 23.5758 6.35533 21.2617 3.86073ZM19.811 11.3276L11.9975 19.5232L4.18395 11.3376C2.59322 9.6141 2.59322 6.96167 4.18395 5.2383C4.90627 4.45139 5.92574 4.00337 6.99522 4.00337C8.06471 4.00337 9.08417 4.45139 9.8065 5.2383L11.2672 6.78558C11.4563 6.98393 11.7184 7.09623 11.9925 7.09623C12.2666 7.09623 12.5287 6.98393 12.7178 6.78558L14.1885 5.2383C14.9108 4.45139 15.9303 4.00337 16.9998 4.00337C18.0693 4.00337 19.0887 4.45139 19.811 5.2383C21.4018 6.96167 21.4018 9.6141 19.811 11.3376V11.3276Z" fill="#111820"/>
</svg>
