<svg width="20" height="21" viewBox="0 0 20 21" fill="none" xmlns="http://www.w3.org/2000/svg">
<path d="M7.4987 9.27995H8.33203C8.55304 9.27995 8.76501 9.19215 8.92129 9.03587C9.07757 8.87959 9.16536 8.66763 9.16536 8.44661C9.16536 8.2256 9.07757 8.01364 8.92129 7.85736C8.76501 7.70108 8.55304 7.61328 8.33203 7.61328H7.4987C7.27768 7.61328 7.06572 7.70108 6.90944 7.85736C6.75316 8.01364 6.66536 8.2256 6.66536 8.44661C6.66536 8.66763 6.75316 8.87959 6.90944 9.03587C7.06572 9.19215 7.27768 9.27995 7.4987 9.27995ZM7.4987 10.9466C7.27768 10.9466 7.06572 11.0344 6.90944 11.1907C6.75316 11.347 6.66536 11.5589 6.66536 11.7799C6.66536 12.001 6.75316 12.2129 6.90944 12.3692C7.06572 12.5255 7.27768 12.6133 7.4987 12.6133H12.4987C12.7197 12.6133 12.9317 12.5255 13.088 12.3692C13.2442 12.2129 13.332 12.001 13.332 11.7799C13.332 11.5589 13.2442 11.347 13.088 11.1907C12.9317 11.0344 12.7197 10.9466 12.4987 10.9466H7.4987ZM16.6654 8.39661C16.6567 8.32006 16.6399 8.24464 16.6154 8.17162V8.09661C16.5753 8.01093 16.5218 7.93217 16.457 7.86328L11.457 2.86328C11.3881 2.79846 11.3094 2.74502 11.2237 2.70495C11.1988 2.70141 11.1736 2.70141 11.1487 2.70495C11.064 2.6564 10.9706 2.62523 10.8737 2.61328H5.83203C5.16899 2.61328 4.53311 2.87667 4.06426 3.34551C3.59542 3.81436 3.33203 4.45024 3.33203 5.11328V16.7799C3.33203 17.443 3.59542 18.0789 4.06426 18.5477C4.53311 19.0166 5.16899 19.2799 5.83203 19.2799H14.1654C14.8284 19.2799 15.4643 19.0166 15.9331 18.5477C16.402 18.0789 16.6654 17.443 16.6654 16.7799V8.44661C16.6654 8.44661 16.6654 8.44661 16.6654 8.39661ZM11.6654 5.45495L13.8237 7.61328H12.4987C12.2777 7.61328 12.0657 7.52548 11.9094 7.3692C11.7532 7.21292 11.6654 7.00096 11.6654 6.77995V5.45495ZM14.9987 16.7799C14.9987 17.001 14.9109 17.2129 14.7546 17.3692C14.5983 17.5255 14.3864 17.6133 14.1654 17.6133H5.83203C5.61102 17.6133 5.39906 17.5255 5.24278 17.3692C5.0865 17.2129 4.9987 17.001 4.9987 16.7799V5.11328C4.9987 4.89227 5.0865 4.68031 5.24278 4.52403C5.39906 4.36775 5.61102 4.27995 5.83203 4.27995H9.9987V6.77995C9.9987 7.44299 10.2621 8.07887 10.7309 8.54772C11.1998 9.01656 11.8357 9.27995 12.4987 9.27995H14.9987V16.7799ZM12.4987 14.2799H7.4987C7.27768 14.2799 7.06572 14.3677 6.90944 14.524C6.75316 14.6803 6.66536 14.8923 6.66536 15.1133C6.66536 15.3343 6.75316 15.5463 6.90944 15.7025C7.06572 15.8588 7.27768 15.9466 7.4987 15.9466H12.4987C12.7197 15.9466 12.9317 15.8588 13.088 15.7025C13.2442 15.5463 13.332 15.3343 13.332 15.1133C13.332 14.8923 13.2442 14.6803 13.088 14.524C12.9317 14.3677 12.7197 14.2799 12.4987 14.2799Z" fill="#41413F"/>
</svg>
