<svg width="18" height="18" viewBox="0 0 20 20" fill="none" xmlns="http://www.w3.org/2000/svg">
<path d="M9.29289 0.292893C9.68342 -0.0976311 10.3166 -0.0976311 10.7071 0.292893L13.7071 3.29289C14.0976 3.68342 14.0976 4.31658 13.7071 4.70711C13.3166 5.09763 12.6834 5.09763 12.2929 4.70711L11 3.41421V12C11 12.5523 10.5523 13 10 13C9.44772 13 9 12.5523 9 12V3.41421L7.70711 4.70711C7.31658 5.09763 6.68342 5.09763 6.29289 4.70711C5.90237 4.31658 5.90237 3.68342 6.29289 3.29289L9.29289 0.292893Z" fill="#111820"/>
<path d="M6 9H5V17H15V9H14C13.4477 9 13 8.55229 13 8C13 7.44772 13.4477 7 14 7H16C16.5523 7 17 7.44772 17 8V18C17 18.5523 16.5523 19 16 19H4C3.44772 19 3 18.5523 3 18V8C3 7.44772 3.44772 7 4 7H6C6.55228 7 7 7.44772 7 8C7 8.55229 6.55228 9 6 9Z" fill="#111820"/>
</svg>
