<svg width="15" height="14" viewBox="0 0 15 14" fill="none" xmlns="http://www.w3.org/2000/svg">
<path fill-rule="evenodd" clip-rule="evenodd" d="M12.9258 11.9742H10.5676V8.40016C10.5676 7.50275 10.2271 6.8899 9.37331 6.8899C8.72173 6.8899 8.33465 7.3025 8.16371 7.70201C8.10163 7.84478 8.08563 8.04305 8.08563 8.2433V11.9741H5.72728C5.72728 11.9741 5.75894 5.92077 5.72728 5.29418H8.0858V6.24078C8.08106 6.24823 8.07437 6.25552 8.07015 6.26264L8.0858 6.24078C8.3992 5.78661 8.95809 5.13732 10.2111 5.13732C11.7626 5.13732 12.9258 6.09204 12.9258 8.14342V11.9742ZM1.92578 3.2282C1.92578 3.86953 2.43825 4.38267 3.22929 4.38267H3.24459C4.06711 4.38267 4.57853 3.86953 4.57853 3.2282C4.56288 2.57294 4.06711 2.07422 3.26024 2.07422C2.45355 2.07422 1.92578 2.57294 1.92578 3.2282ZM4.42342 11.9742V5.29417H2.06595V11.9742H4.42342Z" fill="#0077B5"/>
</svg>
