<svg width="24" height="24" viewBox="0 0 24 24" fill="none" xmlns="http://www.w3.org/2000/svg">
<path d="M21.2617 3.86074C20.1632 2.67482 18.6185 2 16.9998 2C15.381 2 13.8363 2.67482 12.7378 3.86074L11.9975 4.63938L11.2572 3.86074C10.1587 2.67482 8.61396 2 6.99522 2C5.37649 2 3.83179 2.67482 2.73329 3.86074C0.422237 6.35837 0.422237 10.2076 2.73329 12.7053L11.2772 21.6895C11.4663 21.8882 11.7284 22 12.0025 22C12.2766 22 12.5387 21.8882 12.7278 21.6895L21.2717 12.7053C23.5798 10.2056 23.5758 6.35538 21.2617 3.86074Z" fill="#111820"/>
</svg>
