<svg width="24" height="24" viewBox="0 0 24 24" fill="none" xmlns="http://www.w3.org/2000/svg">
<path d="M13 15V4.41421L14.2929 5.70711C14.6834 6.09763 15.3166 6.09763 15.7071 5.70711C16.0976 5.31658 16.0976 4.68342 15.7071 4.29289L12.7071 1.29289C12.3166 0.902369 11.6834 0.902369 11.2929 1.29289L8.29289 4.29289C7.90237 4.68342 7.90237 5.31658 8.29289 5.70711C8.68342 6.09763 9.31658 6.09763 9.70711 5.70711L11 4.41421V15C11 15.5523 11.4477 16 12 16C12.5523 16 13 15.5523 13 15Z" fill="#111820"/>
<path d="M4 8C3.44772 8 3 8.44772 3 9V21C3 21.5523 3.44772 22 4 22H20C20.5523 22 21 21.5523 21 21V9C21 8.44772 20.5523 8 20 8H16C15.4477 8 15 8.44772 15 9C15 9.55229 15.4477 10 16 10H19V20H5V10H8C8.55228 10 9 9.55229 9 9C9 8.44772 8.55228 8 8 8H4Z" fill="#111820"/>
</svg>
