<svg width="16" height="16" viewBox="0 0 16 16" fill="none" xmlns="http://www.w3.org/2000/svg">
<path fill-rule="evenodd" clip-rule="evenodd" d="M8 0C3.58172 0 0 3.58172 0 8C0 12.4183 3.58172 16 8 16C12.4183 16 16 12.4183 16 8C16 3.58172 12.4183 0 8 0ZM9.85216 5.1716C10.1125 4.91125 10.5346 4.91125 10.795 5.1716C11.0553 5.43195 11.0553 5.85406 10.795 6.11441L8.90932 8.00006L10.7949 9.88567C11.0553 10.146 11.0553 10.5681 10.7949 10.8285C10.5346 11.0888 10.1125 11.0888 9.85212 10.8285L7.96651 8.94287L6.08093 10.8285C5.82058 11.0888 5.39847 11.0888 5.13812 10.8285C4.87777 10.5681 4.87777 10.146 5.13812 9.88564L7.0237 8.00006L5.13807 6.11443C4.87772 5.85408 4.87772 5.43197 5.13807 5.17162C5.39842 4.91127 5.82053 4.91127 6.08088 5.17162L7.96651 7.05725L9.85216 5.1716Z" fill="#E62048"/>
</svg>
