<svg width="16" height="16" viewBox="0 0 16 16" fill="none" xmlns="http://www.w3.org/2000/svg">
<path fill-rule="evenodd" clip-rule="evenodd" d="M0 8C0 3.58191 3.58191 0 8 0C12.4167 0.00417391 15.9958 3.5833 16 8C16 12.4181 12.4181 16 8 16C3.58191 16 0 12.4181 0 8ZM8.10473 4.2476C6.84766 4.2476 6.01014 4.94753 5.80936 6.13842C5.75564 6.45708 6.02467 6.72132 6.34783 6.72132C6.66517 6.72132 6.90636 6.46098 7.00468 6.15925C7.16862 5.65618 7.55581 5.44371 8.10473 5.44371C8.68636 5.44371 9.0431 5.76909 9.0431 6.28661C9.0431 6.69027 8.85697 6.90763 8.27534 7.17674C7.4533 7.54935 7.20514 8.07722 7.20514 8.89222C7.20514 9.17951 7.43804 9.41241 7.72533 9.41241H7.84785C8.12678 9.41241 8.35289 9.18629 8.35289 8.90736C8.35289 8.51102 8.46146 8.31527 8.98881 8.07722C9.70228 7.74601 10.2374 7.14569 10.2374 6.20381C10.2374 4.88932 9.27575 4.2476 8.10473 4.2476ZM7.81052 11.7897C8.22256 11.7897 8.54786 11.4644 8.54786 11.0596C8.54786 10.6475 8.22256 10.3222 7.81052 10.3222C7.4057 10.3222 7.0804 10.6475 7.0804 11.0596C7.0804 11.4644 7.4057 11.7897 7.81052 11.7897Z" fill="#F7B100"/>
</svg>
