<svg width="16" height="17" viewBox="0 0 16 17" fill="none" xmlns="http://www.w3.org/2000/svg">
<path d="M0 8.94629C0 4.52829 3.582 0.946289 8 0.946289C10.122 0.946289 12.1567 1.78896 13.6567 3.28962C15.1573 4.78962 16 6.82429 16 8.94629C16 13.3643 12.418 16.9463 8 16.9463C3.582 16.9463 0 13.3643 0 8.94629ZM7.14 12.0863L12.4733 6.75296H12.4667C12.6933 6.48829 12.678 6.09429 12.432 5.84762C12.1853 5.60162 11.7913 5.58629 11.5267 5.81296L6.66667 10.673L4.47333 8.47962C4.20867 8.25296 3.81467 8.26829 3.568 8.51429C3.322 8.76096 3.30667 9.15496 3.53333 9.41962L6.2 12.0863C6.46 12.345 6.88 12.345 7.14 12.0863Z" fill="#28A443"/>
</svg>
