<svg width="52" height="53" viewBox="0 0 52 53" fill="none" xmlns="http://www.w3.org/2000/svg">
<path d="M48.8041 32.2007C46.9841 38.7765 43.3874 44.7674 38.1007 48.0282C32.8141 51.289 25.7616 51.9065 19.1749 50.3249C12.5882 48.7432 6.42408 44.9949 3.67241 39.6865C0.920744 34.3782 1.61408 27.4557 4.08408 22.0499C6.55408 16.644 10.8332 12.8632 15.8057 9.25571C20.7782 5.64821 26.6391 2.25738 32.5432 2.64738C38.4474 3.03738 44.6332 7.17571 47.6666 12.809C50.6999 18.4424 50.6349 25.6465 48.8041 32.2007Z" fill="#E5F2FF"/>
<path d="M38.7955 31.995L34.018 34.3133C33.4277 34.5984 32.8059 34.813 32.1655 34.9525C32.1655 34.9525 32.1655 35.05 32.1655 35.1042C32.1655 36.0466 31.7911 36.9504 31.1247 37.6167C30.4583 38.2831 29.5545 38.6575 28.6121 38.6575H24.918C24.6737 38.6575 24.4395 38.5605 24.2668 38.3878C24.0942 38.2151 23.9971 37.9809 23.9971 37.7367C23.9971 37.4924 24.0942 37.2582 24.2668 37.0855C24.4395 36.9128 24.6737 36.8158 24.918 36.8158H28.623C29.0687 36.8132 29.4961 36.638 29.8153 36.3269C30.1345 36.0157 30.3206 35.593 30.3346 35.1475C30.3341 34.816 30.2362 34.492 30.053 34.2158C29.9186 34.0038 29.7369 33.8258 29.5221 33.6958C29.2531 33.5257 28.9413 33.4355 28.623 33.4358H19.9563C17.8279 33.4472 15.7899 34.2978 14.2849 35.8028C12.7799 37.3078 11.9294 39.3458 11.918 41.4742V42.5575C11.918 42.7011 11.975 42.8389 12.0766 42.9405C12.1782 43.0421 12.316 43.0992 12.4596 43.0992H28.0705C29.5476 43.0978 30.994 42.677 32.2413 41.8858L41.168 36.2633C41.6973 35.9342 42.0805 35.4147 42.2386 34.8118C42.3967 34.2088 42.3179 33.5682 42.0182 33.0216C41.7186 32.475 41.2209 32.064 40.6275 31.873C40.0341 31.6821 39.3902 31.7257 38.828 31.995H38.7955Z" fill="#7CB3FF"/>
<path d="M30.1477 10.502C28.0758 10.502 26.0504 11.1164 24.3277 12.2674C22.6049 13.4185 21.2622 15.0546 20.4693 16.9689C19.6764 18.8831 19.469 20.9894 19.8732 23.0215C20.2774 25.0536 21.2751 26.9202 22.7402 28.3853C24.2053 29.8504 26.0719 30.8481 28.104 31.2523C30.1361 31.6565 32.2424 31.4491 34.1566 30.6562C36.0708 29.8633 37.707 28.5206 38.8581 26.7978C40.0091 25.0751 40.6235 23.0497 40.6235 20.9778C40.6207 18.2003 39.5161 15.5374 37.5521 13.5734C35.5881 11.6094 32.9252 10.5048 30.1477 10.502Z" fill="#BEDEFF"/>
<path d="M27.0589 28.0626C32.336 28.0626 36.6139 23.7847 36.6139 18.5076C36.6139 13.2306 32.336 8.95264 27.0589 8.95264C21.7818 8.95264 17.5039 13.2306 17.5039 18.5076C17.5039 23.7847 21.7818 28.0626 27.0589 28.0626Z" fill="white"/>
<path d="M27.0813 28.9834C25.0094 28.9834 22.984 28.369 21.2612 27.2179C19.5385 26.0668 18.1958 24.4307 17.4029 22.5165C16.61 20.6023 16.4026 18.496 16.8068 16.4638C17.211 14.4317 18.2087 12.5651 19.6738 11.1C21.1388 9.63497 23.0055 8.63725 25.0376 8.23303C27.0697 7.82882 29.176 8.03628 31.0902 8.82917C33.0044 9.62206 34.6405 10.9648 35.7916 12.6875C36.9427 14.4103 37.5571 16.4357 37.5571 18.5076C37.5543 21.2851 36.4496 23.948 34.4857 25.9119C32.5217 27.8759 29.8588 28.9805 27.0813 28.9834ZM27.0813 9.87341C25.3672 9.87341 23.6916 10.3817 22.2664 11.334C20.8411 12.2863 19.7303 13.6399 19.0743 15.2235C18.4184 16.8071 18.2468 18.5497 18.5812 20.2309C18.9156 21.912 19.741 23.4563 20.953 24.6683C22.1651 25.8804 23.7094 26.7058 25.3905 27.0402C27.0717 27.3746 28.8143 27.203 30.3979 26.547C31.9815 25.8911 33.3351 24.7802 34.2874 23.355C35.2397 21.9298 35.748 20.2542 35.748 18.5401C35.748 16.2415 34.8349 14.0371 33.2096 12.4118C31.5842 10.7865 29.3798 9.87341 27.0813 9.87341Z" fill="#659EFF"/>
<path d="M27.5561 17.5868H26.5595C26.2721 17.5868 25.9966 17.4727 25.7934 17.2695C25.5903 17.0664 25.4761 16.7908 25.4761 16.5035C25.4761 16.2162 25.5903 15.9406 25.7934 15.7375C25.9966 15.5343 26.2721 15.4202 26.5595 15.4202H27.7295C27.872 15.4193 28.0134 15.4467 28.1454 15.5006C28.2774 15.5545 28.3974 15.6339 28.4986 15.7343L28.9103 16.146C29.0858 16.302 29.3144 16.385 29.5491 16.3781C29.7838 16.3712 30.0071 16.2749 30.1731 16.1088C30.3392 15.9428 30.4355 15.7195 30.4424 15.4848C30.4493 15.25 30.3663 15.0215 30.2103 14.846L29.7986 14.4343C29.3128 13.9453 28.6662 13.6489 27.9786 13.6002V12.0835H26.137V13.6327C25.4109 13.742 24.7529 14.1213 24.2944 14.6949C23.836 15.2685 23.611 15.9939 23.6644 16.7262C23.7178 17.4585 24.0456 18.1437 24.5824 18.6447C25.1191 19.1457 25.8252 19.4256 26.5595 19.4285H27.5561C27.8435 19.4285 28.119 19.5426 28.3222 19.7458C28.5253 19.949 28.6395 20.2245 28.6395 20.5118C28.6395 20.7991 28.5253 21.0747 28.3222 21.2779C28.119 21.481 27.8435 21.5952 27.5561 21.5952H26.3861C26.1004 21.5911 25.8278 21.4743 25.6278 21.2702L25.2161 20.8585C25.0417 20.6858 24.8062 20.589 24.5607 20.589C24.3153 20.589 24.0797 20.6858 23.9053 20.8585C23.7333 21.0311 23.6367 21.2648 23.6367 21.5085C23.6367 21.7522 23.7333 21.9859 23.9053 22.1585L24.3278 22.5702C24.8091 23.0593 25.4524 23.3559 26.137 23.4043V24.9318H27.9786V23.3935C28.7227 23.3044 29.4039 22.932 29.8806 22.3538C30.3573 21.7756 30.593 21.036 30.5386 20.2885C30.4842 19.5411 30.144 18.8433 29.5886 18.3402C29.0332 17.8371 28.3053 17.5673 27.5561 17.5868Z" fill="#659EFF"/>
</svg>
