<svg width="52" height="53" viewBox="0 0 52 53" fill="none" xmlns="http://www.w3.org/2000/svg">
<path d="M41.9485 18.9636C46.5419 25.4636 50.8427 31.5086 50.0843 36.9578C49.326 42.407 43.4435 47.282 37.431 49.1562C31.4185 51.0303 25.2435 49.8495 18.9494 47.412C12.6552 44.9745 6.23102 41.2695 3.25185 34.8778C1.73757 31.3232 1.14233 27.4446 1.52097 23.5994C1.89962 19.7543 3.23997 16.0663 5.41852 12.8753C10.0335 6.37531 18.7544 2.38865 25.5685 3.91615C32.3827 5.44365 37.3335 12.4311 41.9485 18.9636Z" fill="#E5F2FF"/>
<path d="M24.4637 13.8959C23.7645 13.8973 23.093 14.169 22.5895 14.6542C22.0848 14.1677 21.411 13.8958 20.71 13.8958C20.0089 13.8958 19.3351 14.1677 18.8304 14.6542C18.4516 14.2855 17.9725 14.0367 17.4531 13.9389C16.9336 13.8412 16.3968 13.8988 15.9099 14.1047C15.4231 14.3105 15.0078 14.6554 14.716 15.0962C14.4242 15.5369 14.2689 16.054 14.2695 16.5826V23.9276C14.2674 25.0947 14.5854 26.2402 15.189 27.2391C15.7926 28.2381 16.6586 29.0524 17.6929 29.5934L17.7904 29.6476L18.007 29.7342V40.5676C18.0216 41.1121 18.2001 41.6397 18.5191 42.0812C18.8382 42.5228 19.2829 42.8579 19.7954 43.0428C20.3078 43.2276 20.8641 43.2536 21.3916 43.1174C21.919 42.9812 22.3932 42.6891 22.752 42.2792C23.1546 41.7909 23.3765 41.1787 23.3804 40.5459V29.7884L23.597 29.6909C24.6556 29.1604 25.545 28.3449 26.1652 27.3362C26.7853 26.3276 27.1115 25.1658 27.107 23.9817V16.5826C27.1071 15.8775 26.83 15.2006 26.3355 14.698C25.841 14.1953 25.1687 13.9073 24.4637 13.8959Z" fill="#BEDEFF"/>
<path d="M17.1284 31.8685C16.3971 31.8681 15.6689 31.7734 14.9618 31.5869C14.6693 31.511 14.3984 31.7602 14.3984 32.1177V40.6544C14.4023 41.2872 14.6242 41.8994 15.0268 42.3877C15.2809 42.6925 15.599 42.9377 15.9584 43.106C16.3179 43.2743 16.7099 43.3615 17.1068 43.3615C17.5036 43.3615 17.8957 43.2743 18.2551 43.106C18.6145 42.9377 18.9326 42.6925 19.1868 42.3877C19.5941 41.9021 19.8167 41.2882 19.8151 40.6544V32.1177C19.8151 31.7602 19.5551 31.511 19.2626 31.5869C18.566 31.7704 17.8489 31.8651 17.1284 31.8685Z" fill="#7CB3FF"/>
<path d="M22.8604 22.8008V15.4016C22.8604 14.9035 22.6633 14.4257 22.3121 14.0725C21.961 13.7193 21.4843 13.5195 20.9863 13.5166C20.4863 13.5166 20.0069 13.7152 19.6534 14.0687C19.2998 14.4222 19.1012 14.9017 19.1012 15.4016C19.1027 15.1546 19.0553 14.9097 18.9617 14.6811C18.8682 14.4524 18.7303 14.2445 18.5562 14.0694C18.382 13.8942 18.1749 13.7552 17.9468 13.6603C17.7187 13.5654 17.4741 13.5166 17.2271 13.5166C16.98 13.5166 16.7355 13.5654 16.5074 13.6603C16.2793 13.7552 16.0722 13.8942 15.898 14.0694C15.7238 14.2445 15.586 14.4524 15.4925 14.6811C15.3989 14.9097 15.3515 15.1546 15.3529 15.4016C15.3529 14.9035 15.1558 14.4257 14.8046 14.0725C14.4535 13.7193 13.9768 13.5195 13.4787 13.5166C12.9788 13.5166 12.4994 13.7152 12.1459 14.0687C11.7923 14.4222 11.5938 14.9017 11.5938 15.4016V22.7466C11.5953 23.7642 11.8746 24.762 12.4015 25.6326C12.9284 26.5031 13.6829 27.2133 14.5838 27.6866L14.6813 27.7408C15.4705 28.1466 16.3451 28.3583 17.2325 28.3583C18.1199 28.3583 18.9945 28.1466 19.7837 27.7408C20.7007 27.2793 21.4729 26.5741 22.0157 25.7027C22.5584 24.8313 22.8506 23.8273 22.8604 22.8008Z" fill="white"/>
<path d="M17.3349 29.3009C16.2817 29.3003 15.2445 29.0438 14.3124 28.5534H14.2149C13.1624 28.0031 12.2808 27.175 11.6658 26.1589C11.0508 25.1429 10.726 23.9777 10.7266 22.7901V15.4017C10.7281 14.8604 10.8863 14.331 11.1819 13.8775C11.4776 13.424 11.8981 13.0657 12.3928 12.8458C12.8875 12.626 13.4353 12.5539 13.97 12.6383C14.5048 12.7228 15.0037 12.9601 15.4066 13.3217C15.9225 12.8618 16.5896 12.6077 17.2807 12.6077C17.9719 12.6077 18.6389 12.8618 19.1549 13.3217C19.674 12.8599 20.3451 12.6054 21.0399 12.6067C21.4069 12.6067 21.7704 12.679 22.1095 12.8195C22.4486 12.96 22.7567 13.1658 23.0163 13.4254C23.2758 13.6849 23.4817 13.993 23.6221 14.3321C23.7626 14.6712 23.8349 15.0347 23.8349 15.4017V22.8009C23.8353 24.0049 23.5012 25.1854 22.87 26.2107C22.2387 27.236 21.3351 28.0658 20.2599 28.6076C19.3508 29.0596 18.3501 29.2968 17.3349 29.3009ZM13.4782 14.4376C13.2225 14.4376 12.9773 14.5392 12.7965 14.72C12.6156 14.9008 12.5141 15.146 12.5141 15.4017V22.7467C12.5105 23.6014 12.742 24.4405 13.1834 25.1723C13.6248 25.9041 14.259 26.5004 15.0166 26.8959H15.1682C15.8789 27.2658 16.6727 27.4466 17.4734 27.421C18.2741 27.3954 19.0548 27.1642 19.7403 26.7496C20.4258 26.335 20.9932 25.751 21.3877 25.0538C21.7823 24.3566 21.9908 23.5695 21.9932 22.7684V15.4017C22.0075 15.2673 21.9934 15.1313 21.9518 15.0027C21.9101 14.874 21.8418 14.7556 21.7514 14.655C21.661 14.5545 21.5505 14.474 21.4269 14.419C21.3034 14.364 21.1697 14.3355 21.0345 14.3355C20.8993 14.3355 20.7655 14.364 20.642 14.419C20.5185 14.474 20.408 14.5545 20.3175 14.655C20.2271 14.7556 20.1589 14.874 20.1172 15.0027C20.0755 15.1313 20.0614 15.2673 20.0757 15.4017V21.9017C20.0757 22.0227 20.0519 22.1424 20.0056 22.2541C19.9594 22.3658 19.8915 22.4674 19.806 22.5529C19.7205 22.6384 19.619 22.7062 19.5073 22.7525C19.3956 22.7988 19.2758 22.8226 19.1549 22.8226C19.034 22.8226 18.9142 22.7988 18.8025 22.7525C18.6908 22.7062 18.5893 22.6384 18.5038 22.5529C18.4183 22.4674 18.3504 22.3658 18.3042 22.2541C18.2579 22.1424 18.2341 22.0227 18.2341 21.9017V15.4017C18.2341 15.1489 18.1336 14.9064 17.9548 14.7276C17.7761 14.5488 17.5336 14.4484 17.2807 14.4484C17.0279 14.4484 16.7854 14.5488 16.6066 14.7276C16.4278 14.9064 16.3274 15.1489 16.3274 15.4017V21.9017C16.3274 22.146 16.2304 22.3802 16.0577 22.5529C15.885 22.7256 15.6508 22.8226 15.4066 22.8226C15.1623 22.8226 14.9281 22.7256 14.7554 22.5529C14.5827 22.3802 14.4857 22.146 14.4857 21.9017V15.4017C14.4859 15.2714 14.4596 15.1424 14.4084 15.0225C14.3573 14.9026 14.2824 14.7943 14.1882 14.7042C14.094 14.6141 13.9825 14.544 13.8605 14.4981C13.7385 14.4523 13.6084 14.4317 13.4782 14.4376Z" fill="#659EFF"/>
<path d="M44.482 22.5599C44.482 18.1291 41.7195 14.5107 38.307 14.5107C34.8945 14.5107 32.132 18.1291 32.132 22.5599C32.0754 23.9575 32.3617 25.3477 32.966 26.6091C33.5703 27.8705 34.4741 28.9649 35.5987 29.7966V40.6299C35.6026 41.2628 35.8245 41.8749 36.227 42.3632C36.5834 42.7906 37.0627 43.0978 37.5998 43.2431C38.1369 43.3884 38.7057 43.3647 39.2289 43.1753C39.7521 42.9859 40.2042 42.64 40.5239 42.1846C40.8435 41.7291 41.0151 41.1863 41.0154 40.6299V29.7966C42.1413 28.9662 43.0462 27.8721 43.6507 26.6103C44.2551 25.3486 44.5406 23.9577 44.482 22.5599Z" fill="#BEDEFF"/>
<path d="M35.0012 31.7679C34.2751 31.7669 33.5504 31.7053 32.8345 31.5837C32.764 31.5787 32.6933 31.5891 32.6272 31.6142C32.5611 31.6392 32.5012 31.6784 32.4518 31.7289C32.4023 31.7794 32.3644 31.84 32.3407 31.9066C32.317 31.9732 32.3081 32.0442 32.3145 32.1146V40.5429C32.3184 41.1757 32.5403 41.7879 32.9429 42.2762C33.1971 42.581 33.5151 42.8263 33.8745 42.9945C34.234 43.1628 34.626 43.25 35.0229 43.25C35.4198 43.25 35.8118 43.1628 36.1712 42.9945C36.5306 42.8263 36.8487 42.581 37.1029 42.2762C37.5102 41.7907 37.7328 41.1767 37.7312 40.5429V32.1146C37.7377 32.0442 37.7287 31.9732 37.7051 31.9066C37.6814 31.84 37.6435 31.7794 37.594 31.7289C37.5445 31.6784 37.4847 31.6392 37.4186 31.6142C37.3525 31.5891 37.2817 31.5787 37.2112 31.5837C36.4812 31.7086 35.7418 31.7702 35.0012 31.7679Z" fill="#7CB3FF"/>
<path d="M40.2892 21.1406C40.3511 22.4302 40.0855 23.7144 39.5172 24.8737C38.949 26.033 38.0964 27.0296 37.0392 27.7706C35.6222 28.1689 34.1228 28.1689 32.7058 27.7706C31.6441 27.0339 30.7882 26.0382 30.2194 24.8778C29.6506 23.7175 29.3878 22.431 29.4558 21.1406C29.4558 17.1431 31.85 13.8931 34.8725 13.8931C37.895 13.8931 40.2892 17.1431 40.2892 21.1406Z" fill="white"/>
<path d="M34.9272 28.9838C34.0342 29.0303 33.1413 28.8901 32.3055 28.5722C31.1232 27.7376 30.1688 26.6203 29.5292 25.3222C28.8895 24.0241 28.5852 22.5865 28.6438 21.1405C28.6438 16.6338 31.4605 12.9722 34.9272 12.9722C38.3938 12.9722 41.1672 16.6338 41.1672 21.1405C41.2316 22.5885 40.9287 24.0292 40.2866 25.3286C39.6445 26.628 38.684 27.7438 37.4947 28.5722C36.6759 28.8833 35.8021 29.0234 34.9272 28.9838ZM34.9272 14.8138C32.468 14.8138 30.4855 17.6522 30.4855 21.1405C30.4191 22.2674 30.6373 23.3929 31.1201 24.4133C31.6028 25.4338 32.3346 26.3163 33.248 26.9797C34.3596 27.207 35.5056 27.207 36.6172 26.9797C37.5262 26.3154 38.2544 25.434 38.735 24.4158C39.2157 23.3977 39.4336 22.2754 39.3688 21.1513C39.3688 17.6522 37.3755 14.8138 34.9272 14.8138Z" fill="#659EFF"/>
</svg>
