<svg width="17" height="17" viewBox="0 0 17 17" fill="none" xmlns="http://www.w3.org/2000/svg">
<path d="M3.51471 10.5933C3.51471 11.5605 2.72458 12.3506 1.75735 12.3506C0.790128 12.3506 0 11.5605 0 10.5933C0 9.62606 0.790128 8.83594 1.75735 8.83594H3.51471V10.5933Z" fill="#E01E5A"/>
<path d="M4.39844 10.5933C4.39844 9.62606 5.18857 8.83594 6.15579 8.83594C7.12302 8.83594 7.91314 9.62606 7.91314 10.5933V14.9935C7.91314 15.9607 7.12302 16.7508 6.15579 16.7508C5.18857 16.7508 4.39844 15.9607 4.39844 14.9935V10.5933Z" fill="#E01E5A"/>
<path d="M6.15579 3.53815C5.18857 3.53815 4.39844 2.74802 4.39844 1.78079C4.39844 0.813566 5.18857 0.0234375 6.15579 0.0234375C7.12302 0.0234375 7.91314 0.813566 7.91314 1.78079V3.53815H6.15579Z" fill="#36C5F0"/>
<path d="M6.15755 4.42188C7.12478 4.42188 7.9149 5.212 7.9149 6.17923C7.9149 7.14645 7.12478 7.93658 6.15755 7.93658H1.75735C0.790128 7.93658 0 7.14645 0 6.17923C0 5.212 0.790128 4.42188 1.75735 4.42188H6.15755Z" fill="#36C5F0"/>
<path d="M13.2109 6.17923C13.2109 5.212 14.0011 4.42188 14.9683 4.42188C15.9355 4.42188 16.7256 5.212 16.7256 6.17923C16.7256 7.14645 15.9355 7.93658 14.9683 7.93658H13.2109V6.17923Z" fill="#2EB67D"/>
<path d="M12.3272 6.18099C12.3272 7.14821 11.5371 7.93834 10.5699 7.93834C9.60263 7.93834 8.8125 7.14821 8.8125 6.18099V1.78079C8.8125 0.813566 9.60263 0.0234375 10.5699 0.0234375C11.5371 0.0234375 12.3272 0.813566 12.3272 1.78079V6.18099Z" fill="#2EB67D"/>
<path d="M10.5699 13.2344C11.5371 13.2344 12.3272 14.0245 12.3272 14.9917C12.3272 15.959 11.5371 16.7491 10.5699 16.7491C9.60263 16.7491 8.8125 15.959 8.8125 14.9917V13.2344H10.5699Z" fill="#ECB22E"/>
<path d="M10.5699 12.3506C9.60263 12.3506 8.8125 11.5605 8.8125 10.5933C8.8125 9.62606 9.60263 8.83594 10.5699 8.83594H14.97C15.9373 8.83594 16.7274 9.62606 16.7274 10.5933C16.7274 11.5605 15.9373 12.3506 14.97 12.3506H10.5699Z" fill="#ECB22E"/>
</svg>
