<svg width="16" height="16" viewBox="0 0 16 16" fill="none" xmlns="http://www.w3.org/2000/svg">
<path d="M11.188 3.33267H14.668C15.0353 3.33267 15.3346 3.63134 15.3346 3.99934C15.3346 4.36734 15.0353 4.666 14.668 4.666H13.6613L12.734 14.166C12.6493 14.8366 12.0773 15.338 11.4006 15.3326H4.6013C3.9213 15.3333 3.3493 14.822 3.27464 14.146L2.34064 4.666H1.33464C0.966635 4.666 0.667969 4.36734 0.667969 3.99934C0.667969 3.63134 0.966635 3.33267 1.33464 3.33267H4.81397L5.1013 2.17934C5.32464 1.29001 6.1233 0.666016 7.04064 0.666016H8.9613C9.87863 0.666016 10.6773 1.29001 10.9006 2.17934L11.188 3.33267ZM4.59397 13.9993H11.3946L12.314 4.666H3.68797L4.59397 13.9993ZM6.39464 2.50601L6.18797 3.33267H9.81397L9.6473 2.50601C9.57264 2.20134 9.2953 1.99001 8.98064 1.99935H7.0613C6.7473 1.99001 6.46997 2.20134 6.39464 2.50601ZM6.0013 7.33266V11.3327C6.0013 11.7007 6.29997 11.9993 6.66797 11.9993C7.0353 11.9993 7.33463 11.7007 7.33463 11.3327V7.33266C7.33463 6.96466 7.0353 6.666 6.66797 6.666C6.29997 6.666 6.0013 6.96466 6.0013 7.33266ZM8.66797 11.3327V7.33266C8.66797 6.96466 8.96663 6.666 9.33463 6.666C9.70197 6.666 10.0013 6.96466 10.0013 7.33266V11.3327C10.0013 11.7007 9.70197 11.9993 9.33463 11.9993C8.96663 11.9993 8.66797 11.7007 8.66797 11.3327Z" fill="#E62048"/>
</svg>
