<svg width="21" height="21" viewBox="0 0 21 21" fill="none" xmlns="http://www.w3.org/2000/svg">
<path d="M4.95947 16.6445H12.1881C13.8759 16.6445 14.8858 15.6623 14.8858 13.9814V13.0268L17.5006 15.2403C17.7773 15.4686 18.0816 15.6277 18.3652 15.6277C18.974 15.6277 19.3752 15.1781 19.3752 14.5347V7.38224C19.3752 6.73893 18.974 6.28931 18.3652 6.28931C18.0816 6.28931 17.7773 6.4484 17.5006 6.67668L14.8858 8.89022V7.94255C14.8858 6.25472 13.8759 5.27246 12.1881 5.27246H4.95947C3.34774 5.27246 2.26172 6.25472 2.26172 7.94255V13.9814C2.26172 15.6623 3.27165 16.6445 4.95947 16.6445ZM5.15316 15.6069C4.01872 15.6069 3.37541 15.019 3.37541 13.8153V8.10164C3.37541 6.90495 4.01872 6.31698 5.15316 6.31698H11.9944C13.1219 6.31698 13.7721 6.90495 13.7721 8.10164V13.8153C13.7721 15.019 13.1219 15.6069 11.9944 15.6069H5.15316ZM18.0194 14.2996L14.8858 11.7125V10.2045L18.0194 7.61743C18.0816 7.56901 18.1231 7.54134 18.1854 7.54134C18.2684 7.54134 18.303 7.6036 18.303 7.70044V14.2166C18.303 14.3134 18.2684 14.3826 18.1854 14.3826C18.1231 14.3826 18.0816 14.3411 18.0194 14.2996Z" fill="#3665F3"/>
</svg>
