<?xml version="1.0" standalone="no"?>
<!DOCTYPE svg PUBLIC "-//W3C//DTD SVG 1.1//EN" "http://www.w3.org/Graphics/SVG/1.1/DTD/svg11.dtd" >
<svg xmlns="http://www.w3.org/2000/svg" xmlns:xlink="http://www.w3.org/1999/xlink" version="1.1">
<metadata>
Created by Christoph Koeberlin (http://christoph.koe.berlin)
Copyright (c) 2016 Swiss Typefaces Sarl. All rights reserved.
</metadata>
<defs>
<font id="Font" horiz-adv-x="602" >
  <font-face 
    font-family="Font"
    font-weight="500"
    font-stretch="normal"
    units-per-em="1000"
    panose-1="2 0 6 4 0 0 0 0 0 0"
    ascent="800"
    descent="-200"
    x-height="538"
    cap-height="745"
    bbox="-161 -301 1117 965"
    underline-thickness="90"
    underline-position="-98"
    unicode-range="U+000D-FB02"
  />
<missing-glyph horiz-adv-x="513" 
 />
    <glyph glyph-name=".notdef" horiz-adv-x="513" 
 />
    <glyph glyph-name="glyph1" horiz-adv-x="0" 
 />
    <glyph glyph-name="uni000D" unicode="&#xd;" horiz-adv-x="239" 
 />
    <glyph glyph-name="space" unicode=" " horiz-adv-x="239" 
 />
    <glyph glyph-name="exclam" unicode="!" horiz-adv-x="330" 
d="M226 745v-502h-122v502h122zM165 161q36 0 61.5 -25t25.5 -62t-25.5 -62t-61.5 -25q-37 0 -62 25t-25 62t25 62t62 25z" />
    <glyph glyph-name="quotedbl" unicode="&#x22;" horiz-adv-x="358" 
d="M29 745h130l-18 -255h-95zM200 745h130l-18 -255h-95z" />
    <glyph glyph-name="numbersign" unicode="#" horiz-adv-x="727" 
d="M555 453l-21 -155h137l-10 -96h-140l-27 -202h-112l27 202h-141l-27 -202h-111l27 202h-137l12 96h138l21 155h-135l10 97h139l26 195h111l-26 -195h141l26 195h111l-26 -195h139l-12 -97h-140zM443 453h-141l-21 -155h141z" />
    <glyph glyph-name="dollar" unicode="$" horiz-adv-x="633" 
d="M341 -12v-116h-56v117q-73 6 -128.5 39.5t-86 88.5t-31.5 124h122q3 -70 37 -109t87 -46v248l-37 9q-85 20 -140.5 70.5t-55.5 138.5q0 64 33.5 108.5t86.5 68t113 27.5v108h56v-108q105 -10 169.5 -74t68.5 -163h-120q-3 60 -35.5 95.5t-82.5 42.5v-223l10 -3
q106 -25 173 -73.5t67 -146.5q0 -68 -34 -117t-90.5 -75.5t-125.5 -30.5zM285 448v211q-48 -2 -82.5 -27t-34.5 -74q0 -42 30 -69.5t78 -38.5zM475 202q0 47 -33.5 74t-100.5 44v-235q56 2 95 31t39 86z" />
    <glyph glyph-name="percent" unicode="%" horiz-adv-x="980" 
d="M71 589q0 76 47 122t121 46t120.5 -46t46.5 -122v-100q0 -76 -46.5 -121.5t-120.5 -45.5q-75 0 -121.5 45.5t-46.5 121.5v100zM772 745l-455 -745h-107l455 745h107zM239 404q34 0 54 23t20 62v100q0 39 -20 62.5t-54 23.5t-54.5 -23.5t-20.5 -62.5v-100q0 -39 20.5 -62
t54.5 -23zM574 254q0 76 47 122t121 46t120.5 -46t46.5 -122v-100q0 -76 -46.5 -121.5t-120.5 -45.5q-75 0 -121.5 45.5t-46.5 121.5v100zM742 69q34 0 53.5 23t19.5 62v100q0 39 -19.5 62.5t-53.5 23.5t-54.5 -23.5t-20.5 -62.5v-100q0 -39 20.5 -62t54.5 -23z" />
    <glyph glyph-name="ampersand" unicode="&#x26;" horiz-adv-x="795" 
d="M775 335h-174v-98q0 -121 -77.5 -185.5t-204.5 -64.5q-77 0 -139 27t-97 77.5t-35 119.5q0 62 34.5 111.5t94.5 71.5q-46 23 -74.5 67.5t-28.5 97.5q0 60 31.5 105t87.5 69t128 24q119 0 190.5 -58t79.5 -160h-128q-5 60 -43 88.5t-94 28.5q-58 0 -94 -30t-36 -78
q0 -49 37 -80t101 -31h441v-102zM479 335h-143q-77 0 -121 -33.5t-44 -91.5q0 -56 44 -89.5t105 -33.5q70 0 114.5 35.5t44.5 107.5v105z" />
    <glyph glyph-name="quotesingle" unicode="'" horiz-adv-x="189" 
d="M29 745h130l-18 -255h-95z" />
    <glyph glyph-name="parenleft" unicode="(" horiz-adv-x="288" 
d="M290 745q-54 -90 -88.5 -214t-34.5 -256q0 -133 34.5 -257t88.5 -213h-112q-53 79 -94.5 206t-41.5 264t41.5 264t94.5 206h112z" />
    <glyph glyph-name="parenright" unicode=")" horiz-adv-x="288" 
d="M110 -195h-112q54 89 88.5 213t34.5 257q0 132 -34.5 256t-88.5 214h112q53 -79 94.5 -206t41.5 -264t-41.5 -264t-94.5 -206z" />
    <glyph glyph-name="asterisk" unicode="*" horiz-adv-x="383" 
d="M331 676l29 -79l-106 -36l64 -88l-66 -49l-67 90l-62 -90l-70 48l63 88l-104 37l29 79l102 -38v107h84v-107z" />
    <glyph glyph-name="plus" unicode="+" horiz-adv-x="690" 
d="M401 114h-111v214h-222v107h222v217h111v-217h221v-107h-221v-214z" />
    <glyph glyph-name="comma" unicode="," horiz-adv-x="271" 
d="M106 -8q-26 9 -41.5 31t-15.5 51q0 37 25 62t62 25q36 0 61.5 -25t25.5 -62q0 -23 -10.5 -45.5t-47.5 -83.5l-64 -108h-83z" />
    <glyph glyph-name="hyphen" unicode="-" horiz-adv-x="424" 
d="M373 322v-107h-322v107h322z" />
    <glyph glyph-name="period" unicode="." horiz-adv-x="271" 
d="M136 161q36 0 61.5 -25t25.5 -62t-25.5 -62t-61.5 -25q-37 0 -62 25t-25 62t25 62t62 25z" />
    <glyph glyph-name="slash" unicode="/" horiz-adv-x="537" 
d="M520 745l-375 -745h-129l376 745h128z" />
    <glyph glyph-name="zero" unicode="0" horiz-adv-x="677" 
d="M338 -13q-82 0 -146 34.5t-99.5 99t-35.5 150.5v202q0 86 35.5 150t99.5 99t146 35t145.5 -35t99.5 -99t36 -150v-202q0 -86 -36 -150.5t-99.5 -99t-145.5 -34.5zM180 472v-201q0 -84 42.5 -132.5t115.5 -48.5q72 0 115 48.5t43 132.5v201q0 84 -43 133t-115 49
q-73 0 -115.5 -48.5t-42.5 -133.5z" />
    <glyph glyph-name="one" unicode="1" horiz-adv-x="360" 
d="M151 636h-129v109h251v-745h-122v636z" />
    <glyph glyph-name="two" unicode="2" 
d="M258 330l42 32q58 43 88 87t30 98q0 53 -33.5 81t-82.5 28q-62 0 -97 -35t-36 -107h-122q0 73 32 128t90 85t134 30q64 0 118 -22t87.5 -69.5t33.5 -118.5q0 -86 -50 -151t-140 -129q-52 -37 -79.5 -59t-49 -48.5t-26.5 -55.5h352v-104h-496v45q0 62 28.5 112t69.5 87
t107 86z" />
    <glyph glyph-name="three" unicode="3" horiz-adv-x="624" 
d="M153 228q4 -68 46.5 -103t105.5 -35q61 0 102.5 32t41.5 88q0 58 -44 92t-121 34h-43v102h45q64 0 101.5 31.5t37.5 79.5t-34 76.5t-88 28.5q-59 0 -95 -34t-40 -101h-124q8 109 76.5 173.5t183.5 64.5q110 0 177 -52.5t67 -143.5q0 -53 -28.5 -98t-75.5 -69
q60 -22 94.5 -71t34.5 -112q0 -68 -37 -119t-99 -78t-136 -27q-76 0 -136 28.5t-95.5 83t-40.5 129.5h124z" />
    <glyph glyph-name="four" unicode="4" horiz-adv-x="674" 
d="M26 177v97l357 471h141l-350 -462h211v172h122v-172h142v-106h-142v-177h-122v177h-359z" />
    <glyph glyph-name="five" unicode="5" horiz-adv-x="632" 
d="M167 224q6 -63 46.5 -98.5t99.5 -35.5q60 0 102.5 38.5t42.5 108.5q0 48 -21 82t-54 51t-70 17q-48 0 -81 -18.5t-49 -49.5h-123l64 426h420v-109h-319l-31 -194q55 48 150 48q62 0 116.5 -29.5t88 -86.5t33.5 -136q0 -78 -36.5 -134.5t-98 -86.5t-133.5 -30
q-74 0 -133.5 28t-96 81.5t-41.5 127.5h124z" />
    <glyph glyph-name="six" unicode="6" horiz-adv-x="641" 
d="M135 437l248 308h144l-206 -257q6 1 17 1t16 -1q70 -6 124 -39t83.5 -87.5t29.5 -123.5q0 -74 -34 -131t-95.5 -88.5t-141.5 -31.5t-141.5 31.5t-95.5 88.5t-34 131q0 49 19 93.5t67 105.5zM469 238q0 65 -42 107t-107 42q-64 0 -106.5 -42t-42.5 -107q0 -64 42 -106
t107 -42t107 42t42 106z" />
    <glyph glyph-name="seven" unicode="7" horiz-adv-x="595" 
d="M569 745v-109l-395 -636h-132l395 636h-412v109h544z" />
    <glyph glyph-name="eight" unicode="8" horiz-adv-x="638" 
d="M177 396q-43 24 -70.5 67t-27.5 96q0 60 31.5 105t86.5 69t122 24t122 -24t86.5 -69t31.5 -105q0 -53 -27.5 -96t-70.5 -67q56 -24 88 -73.5t32 -109.5q0 -69 -33.5 -120t-93 -78.5t-135.5 -27.5t-135.5 27.5t-93 78.5t-33.5 120q0 60 32 109.5t88 73.5zM319 655
q-51 0 -85 -29.5t-34 -78.5t34 -79t85 -30t85 30t34 79t-34 78.5t-85 29.5zM319 340q-59 0 -99 -35t-40 -91t39.5 -90.5t99.5 -34.5t99.5 34.5t39.5 90.5t-40 91t-99 35z" />
    <glyph glyph-name="nine" unicode="9" horiz-adv-x="641" 
d="M506 307l-248 -308h-144l206 257l-16 -1l-17 1q-70 6 -124 39t-83.5 87.5t-29.5 123.5q0 74 34 131t95.5 88.5t141.5 31.5t141.5 -31.5t95.5 -88.5t34 -131q0 -49 -19 -93.5t-67 -105.5zM172 506q0 -64 42.5 -106.5t106.5 -42.5q65 0 107 42.5t42 106.5t-42 106t-107 42
t-107 -42t-42 -106z" />
    <glyph glyph-name="colon" unicode=":" horiz-adv-x="325" 
d="M171 161q36 0 61.5 -25t25.5 -62t-25.5 -62t-61.5 -25q-37 0 -62 25t-25 62t25 62t62 25zM171 551q36 0 61.5 -25t25.5 -62t-25.5 -62t-61.5 -25q-37 0 -62 25t-25 62t25 62t62 25z" />
    <glyph glyph-name="semicolon" unicode=";" horiz-adv-x="325" 
d="M171 551q36 0 61.5 -25t25.5 -62t-25.5 -62t-61.5 -25q-37 0 -62 25t-25 62t25 62t62 25zM141 -8q-26 9 -41.5 31t-15.5 51q0 37 25 62t62 25q36 0 61.5 -25t25.5 -62q0 -23 -10.5 -45.5t-47.5 -83.5l-64 -108h-83z" />
    <glyph glyph-name="equal" unicode="=" horiz-adv-x="690" 
d="M595 446h-500v107h500v-107zM595 212h-500v108h500v-108z" />
    <glyph glyph-name="question" unicode="?" horiz-adv-x="612" 
d="M421 391q-35 -14 -53 -29t-24.5 -37t-6.5 -59v-23h-119v25q0 54 11.5 90t39.5 61.5t79 45.5q56 22 82.5 43.5t26.5 57.5q0 43 -38.5 66.5t-102.5 23.5q-79 0 -121 -34t-43 -99h-122q0 111 78.5 172.5t209.5 61.5q73 0 133 -21t95.5 -63t35.5 -101q0 -64 -45 -109
t-116 -72zM283 161q36 0 61.5 -25t25.5 -62t-25.5 -62t-61.5 -25q-37 0 -62 25t-25 62t25 62t62 25z" />
    <glyph glyph-name="at" unicode="@" horiz-adv-x="847" 
d="M444 731q101 0 182 -35.5t128 -108t47 -177.5q0 -78 -26 -136t-67.5 -88t-87.5 -30q-43 0 -71 25t-33 71q-49 -93 -155 -93q-64 0 -106 45t-42 134q0 60 25.5 114t72.5 87t109 33q43 0 73.5 -21.5t43.5 -58.5l3.5 31.5t4.5 31.5h67l-30 -222q-3 -24 -3 -43
q0 -34 11.5 -50t37.5 -16q27 0 50 22t36.5 63t13.5 97q0 125 -78 192t-208 67q-93 0 -165.5 -41t-113 -113.5t-40.5 -161.5q0 -86 35.5 -152.5t100 -103.5t148.5 -37q99 0 193 43l27 -64q-47 -23 -105.5 -35.5t-114.5 -12.5q-105 0 -187 46.5t-127.5 129.5t-45.5 189t52 193
t143 136.5t202 49.5zM381 228q59 0 94 50t35 121q0 49 -23 76t-66 27q-57 0 -91.5 -48.5t-34.5 -116.5q0 -54 22.5 -81.5t63.5 -27.5z" />
    <glyph glyph-name="A" unicode="A" horiz-adv-x="734" 
d="M506 202h-286l-74 -202h-127l283 745h129l284 -745h-134zM466 311l-103 279l-103 -279h206z" />
    <glyph glyph-name="B" unicode="B" horiz-adv-x="665" 
d="M345 745q71 0 124 -27t81.5 -72.5t28.5 -99.5q0 -99 -78 -150q57 -24 92.5 -70t35.5 -113q0 -65 -34 -113.5t-94.5 -74t-139.5 -25.5h-284v745h268zM446 536q0 45 -33.5 74.5t-88.5 29.5h-120v-208h121q55 0 88 29t33 75zM496 217q0 51 -37.5 82t-103.5 31h-151v-225h148
q69 0 106.5 30.5t37.5 81.5z" />
    <glyph glyph-name="C" unicode="C" horiz-adv-x="815" 
d="M417 757q91 0 166 -35t126 -98.5t70 -146.5h-135q-24 81 -82 124t-144 43q-74 0 -130.5 -35.5t-87 -97.5t-30.5 -139q0 -78 30.5 -140t87 -97.5t130.5 -35.5q86 0 144.5 43.5t81.5 124.5h135q-19 -84 -69.5 -147t-126 -98t-166.5 -35q-110 0 -197 50.5t-135.5 138.5
t-48.5 196t48.5 196t135.5 138.5t197 50.5z" />
    <glyph glyph-name="D" unicode="D" horiz-adv-x="756" 
d="M317 745q129 0 221.5 -48t140 -132.5t47.5 -191.5t-48 -191.5t-140.5 -133t-222.5 -48.5h-238v745h240zM204 105h117q85 0 146 34.5t93 95.5t32 138t-32 137.5t-93 95t-146 34.5h-117v-535z" />
    <glyph glyph-name="E" unicode="E" horiz-adv-x="586" 
d="M534 745v-109h-330v-200h273v-109h-273v-218h330v-109h-457v745h457z" />
    <glyph glyph-name="F" unicode="F" horiz-adv-x="544" 
d="M531 745v-109h-327v-200h274v-109h-274v-327h-127v745h454z" />
    <glyph glyph-name="G" unicode="G" horiz-adv-x="850" 
d="M416 -13q-109 0 -196 50.5t-135.5 138.5t-48.5 196q0 107 48.5 195t135 139t194.5 51q91 0 167 -33.5t126.5 -94.5t68.5 -142h-134q-22 75 -80.5 116t-144.5 41q-75 0 -131 -35.5t-86 -97.5t-30 -139q0 -78 30 -140t86 -97.5t132 -35.5q103 0 164.5 48.5t67.5 139.5h-282
v111h405v-398h-116v99q-39 -55 -101 -83.5t-140 -28.5z" />
    <glyph glyph-name="H" unicode="H" horiz-adv-x="750" 
d="M204 745v-309h343v309h126v-745h-126v327h-343v-327h-127v745h127z" />
    <glyph glyph-name="I" unicode="I" horiz-adv-x="281" 
d="M204 745v-745h-127v745h127z" />
    <glyph glyph-name="J" unicode="J" horiz-adv-x="566" 
d="M147 207q1 -55 31.5 -84t78.5 -29q47 0 78 28.5t31 86.5v427h-233v109h360v-518q0 -112 -64.5 -176t-175.5 -64q-74 0 -126 29.5t-78.5 79.5t-28.5 111h127z" />
    <glyph glyph-name="K" unicode="K" horiz-adv-x="695" 
d="M527 0l-323 314v-314h-127v745h127v-344l294 344h147l-323 -374l375 -371h-170z" />
    <glyph glyph-name="L" unicode="L" horiz-adv-x="524" 
d="M204 745v-636h303v-109h-430v745h127z" />
    <glyph glyph-name="M" unicode="M" horiz-adv-x="904" 
d="M264 745l189 -602l186 602h188v-745h-119v613l-192 -613h-127l-193 613v-613h-119v745h187z" />
    <glyph glyph-name="N" unicode="N" horiz-adv-x="754" 
d="M197 546v-546h-120v745h118l362 -546v546h120v-745h-118z" />
    <glyph glyph-name="O" unicode="O" horiz-adv-x="840" 
d="M420 757q111 0 198.5 -50t136.5 -138t49 -197t-49 -197t-136.5 -138t-198.5 -50t-198.5 50t-136.5 138t-49 197t49 197t136.5 138t198.5 50zM420 644q-73 0 -130 -35t-88.5 -97t-31.5 -140t31.5 -140.5t88.5 -97.5t130 -35t130 35t88.5 97.5t31.5 140.5t-31.5 140
t-88.5 97t-130 35z" />
    <glyph glyph-name="P" unicode="P" horiz-adv-x="644" 
d="M372 745q85 0 144.5 -28.5t89.5 -78.5t30 -114t-30 -114t-89.5 -78.5t-144.5 -28.5h-168v-303h-127v745h295zM503 524q0 53 -37.5 84.5t-105.5 31.5h-156v-232h156q68 0 105.5 31.5t37.5 84.5z" />
    <glyph glyph-name="Q" unicode="Q" horiz-adv-x="847" 
d="M682 83l104 -75v-145l-211 153q-70 -29 -155 -29q-111 0 -198.5 50t-136.5 138t-49 197t49 197t136.5 138t198.5 50t198.5 -50t136.5 -138t49 -197q0 -87 -32 -161.5t-90 -127.5zM420 99q73 0 130 35t88.5 97.5t31.5 140.5t-31.5 140t-88.5 97t-130 35t-130 -35
t-88.5 -97t-31.5 -140t31.5 -140.5t88.5 -97.5t130 -35z" />
    <glyph glyph-name="R" unicode="R" horiz-adv-x="714" 
d="M546 0l-282 318h-60v-318h-127v745h258q127 0 194 -58.5t67 -155.5q0 -78 -45 -132.5t-131 -72.5l290 -326h-164zM204 422h119q67 0 103.5 28.5t36.5 80.5t-36.5 80.5t-103.5 28.5h-119v-218z" />
    <glyph glyph-name="S" unicode="S" horiz-adv-x="645" 
d="M163 233q13 -75 57.5 -107t113.5 -32q62 0 104 27.5t42 79.5q0 46 -35.5 74t-102.5 43l-76 16q-100 21 -159 73t-59 140q0 66 36.5 113.5t97.5 72t132 24.5q69 0 128.5 -28t97.5 -79t46 -118h-126q-11 59 -52.5 87.5t-100.5 28.5q-60 0 -97.5 -26t-37.5 -70
q0 -43 31 -67.5t88 -36.5l74 -16q112 -24 175.5 -76t63.5 -144q0 -71 -36.5 -122t-99 -77t-138.5 -26q-124 0 -202.5 66t-91.5 180h127z" />
    <glyph glyph-name="T" unicode="T" horiz-adv-x="591" 
d="M12 636v109h566v-109h-220v-636h-127v636h-219z" />
    <glyph glyph-name="U" unicode="U" horiz-adv-x="731" 
d="M71 745h127v-467q0 -89 43 -136t125 -47q81 0 124.5 47.5t43.5 135.5v467h126v-474q0 -86 -36.5 -150.5t-103 -99t-154.5 -34.5t-155 34t-103.5 98.5t-36.5 151.5v474z" />
    <glyph glyph-name="V" unicode="V" horiz-adv-x="735" 
d="M156 745l215 -578l210 578h135l-282 -745h-132l-283 745h137z" />
    <glyph glyph-name="W" unicode="W" horiz-adv-x="991" 
d="M168 745l119 -571l135 571h147l143 -573l113 573h129l-159 -745h-149l-151 594l-150 -594h-150l-159 745h132z" />
    <glyph glyph-name="X" unicode="X" horiz-adv-x="735" 
d="M559 0l-194 279l-198 -279h-144l271 382l-253 363h152l177 -255l181 255h144l-253 -357l270 -388h-153z" />
    <glyph glyph-name="Y" unicode="Y" horiz-adv-x="753" 
d="M376 447l224 298h146l-310 -408v-337h-127v339l-302 406h149z" />
    <glyph glyph-name="Z" unicode="Z" horiz-adv-x="661" 
d="M449 636h-386v109h540v-101l-407 -535h418v-109h-574v101z" />
    <glyph glyph-name="bracketleft" unicode="[" horiz-adv-x="343" 
d="M316 745v-91h-129v-758h129v-91h-239v940h239z" />
    <glyph glyph-name="bracketright" unicode="]" horiz-adv-x="343" 
d="M266 -195h-239v91h129v758h-129v91h239v-940z" />
    <glyph glyph-name="underscore" unicode="_" horiz-adv-x="505" 
d="M471 -29v-108h-438v108h438z" />
    <glyph glyph-name="grave" unicode="`" horiz-adv-x="295" 
d="M157 745l142 -116h-150l-147 116h155z" />
    <glyph glyph-name="a" unicode="a" horiz-adv-x="577" 
d="M233 -13q-57 0 -99.5 22.5t-65 60t-22.5 80.5q0 78 63 117t184 59q59 10 80 22.5t21 40.5q0 35 -27 54.5t-73 19.5q-56 0 -90.5 -28.5t-37.5 -77.5h-107q1 54 30 99t81.5 71t121.5 26q104 0 163 -46t59 -158v-349h-111v65q-24 -36 -67 -57t-103 -21zM272 241
q-57 -16 -78.5 -35t-21.5 -50q0 -36 26 -57t68 -21q62 0 97.5 30t35.5 93v79q-27 -12 -63 -22t-64 -17z" />
    <glyph glyph-name="b" unicode="b" horiz-adv-x="654" 
d="M194 0h-122v745h122v-279q26 41 74 63t99 22q70 0 129 -35.5t94 -100t35 -146.5t-35 -146.5t-94 -100t-129 -35.5q-51 0 -99 22t-74 63v-72zM187 269q0 -55 20.5 -96.5t56 -64t80.5 -22.5q68 0 111.5 50t43.5 133t-43.5 133t-111.5 50q-45 0 -80.5 -22.5t-56 -64
t-20.5 -96.5z" />
    <glyph glyph-name="c" unicode="c" horiz-adv-x="608" 
d="M310 551q104 0 176.5 -58.5t92.5 -157.5h-126q-13 55 -50 84t-93 29q-71 0 -113.5 -50.5t-42.5 -128.5t42.5 -128.5t113.5 -50.5q56 0 93 29t50 84h126q-20 -99 -92.5 -157.5t-176.5 -58.5q-81 0 -145 36.5t-99.5 101t-35.5 144.5t35.5 144.5t99.5 101t145 36.5z" />
    <glyph glyph-name="d" unicode="d" horiz-adv-x="654" 
d="M287 551q51 0 99 -22t74 -63v279h122v-745h-122v72q-26 -41 -74 -63t-99 -22q-70 0 -128.5 35.5t-93.5 100t-35 146.5t35 146.5t93.5 100t128.5 35.5zM467 269q0 83 -44 133t-113 50q-68 0 -111.5 -50t-43.5 -133t43.5 -133t111.5 -50q69 0 113 50t44 133z" />
    <glyph glyph-name="e" unicode="e" horiz-adv-x="611" 
d="M581 237h-427q8 -65 52 -107t107 -42q51 0 84.5 21t52.5 63h125q-26 -86 -97.5 -135.5t-168.5 -49.5q-81 0 -144.5 37t-99 101t-35.5 144q0 79 35.5 143.5t99 101.5t144.5 37q84 0 146.5 -40t95.5 -111t30 -163zM456 324q-8 62 -50 96.5t-99 34.5t-98.5 -36t-51.5 -95
h299z" />
    <glyph glyph-name="f" unicode="f" horiz-adv-x="348" 
d="M9 447v91h84v15q0 98 49 149.5t140 51.5q32 0 57 -5v-99q-21 3 -38 3q-46 0 -66 -23t-20 -77v-15h122v-91h-122v-447h-122v447h-84z" />
    <glyph glyph-name="g" unicode="g" horiz-adv-x="659" 
d="M185 -42q12 -34 45.5 -51t81.5 -17q67 0 110 32t43 110v49q-25 -40 -73 -61t-100 -21q-70 0 -128.5 34.5t-93.5 97t-35 144.5t35 144.5t93.5 97t128.5 34.5q52 0 100 -21t73 -61v69h122v-483q0 -263 -282 -263q-88 0 -155.5 42.5t-84.5 123.5h120zM316 452
q-68 0 -111.5 -47.5t-43.5 -129.5t43.5 -129.5t111.5 -47.5q69 0 112.5 47.5t43.5 129.5t-43.5 129.5t-112.5 47.5z" />
    <glyph glyph-name="h" unicode="h" horiz-adv-x="592" 
d="M194 745v-274q46 80 153 80q92 0 137 -55t45 -156v-340h-122v318q0 68 -27 101t-77 33t-79.5 -33.5t-29.5 -100.5v-318h-122v745h122z" />
    <glyph glyph-name="i" unicode="i" horiz-adv-x="266" 
d="M194 538v-538h-122v538h122zM208 698q0 -31 -22 -53t-53 -22q-30 0 -52.5 22t-22.5 53t22.5 53t52.5 22q31 0 53 -22t22 -53z" />
    <glyph glyph-name="j" unicode="j" horiz-adv-x="270" 
d="M211 698q0 -31 -22 -53t-53 -22q-30 0 -52.5 22t-22.5 53t22.5 53t52.5 22q31 0 53 -22t22 -53zM-37 -97q20 -4 39 -4q40 0 56.5 21t16.5 75v543h122v-539q0 -110 -42.5 -155t-127.5 -45q-33 0 -64 4v100z" />
    <glyph glyph-name="k" unicode="k" horiz-adv-x="575" 
d="M428 0l-234 235v-235h-122v745h122v-440l216 233h141l-241 -257l270 -281h-152z" />
    <glyph glyph-name="l" unicode="l" horiz-adv-x="266" 
d="M194 745v-745h-122v745h122z" />
    <glyph glyph-name="m" unicode="m" horiz-adv-x="924" 
d="M72 0v538h122v-67q46 80 153 80q117 0 159 -93q26 45 73 69t101 24q91 0 136 -55t45 -156v-340h-122v318q0 68 -26.5 101t-75.5 33q-50 0 -79.5 -33.5t-29.5 -100.5v-318h-122v318q0 68 -27 101t-76 33q-50 0 -79.5 -33.5t-29.5 -100.5v-318h-122z" />
    <glyph glyph-name="n" unicode="n" horiz-adv-x="592" 
d="M194 538v-67q46 80 153 80q92 0 137 -55t45 -156v-340h-122v318q0 68 -27 101t-77 33t-79.5 -33.5t-29.5 -100.5v-318h-122v538h122z" />
    <glyph glyph-name="o" unicode="o" horiz-adv-x="628" 
d="M30 269q0 81 36.5 145.5t101 100.5t146.5 36t146.5 -36t101 -100.5t36.5 -145.5t-36.5 -145.5t-101 -100.5t-146.5 -36t-146.5 36t-101 100.5t-36.5 145.5zM154 269q0 -78 44 -128.5t116 -50.5t116 50.5t44 128.5t-44 128.5t-116 50.5t-116 -50.5t-44 -128.5z" />
    <glyph glyph-name="p" unicode="p" horiz-adv-x="654" 
d="M194 538v-72q26 41 74 63t99 22q70 0 129 -35.5t94 -100t35 -146.5t-35 -146.5t-94 -100t-129 -35.5q-51 0 -99 22t-74 63v-267h-122v733h122zM344 452q-45 0 -80.5 -22.5t-56 -64t-20.5 -96.5t20.5 -96.5t56 -64t80.5 -22.5q68 0 111.5 50t43.5 133t-43.5 133t-111.5 50
z" />
    <glyph glyph-name="q" unicode="q" horiz-adv-x="654" 
d="M287 -13q-70 0 -128.5 35.5t-93.5 100t-35 146.5t35 146.5t93.5 100t128.5 35.5q51 0 99 -22t74 -63v72h122v-733h-122v267q-26 -41 -74 -63t-99 -22zM310 452q-68 0 -111.5 -50t-43.5 -133t43.5 -133t111.5 -50q69 0 113 50t44 133t-44 133t-113 50z" />
    <glyph glyph-name="r" unicode="r" horiz-adv-x="382" 
d="M192 538v-99q22 49 61.5 74.5t91.5 25.5q9 0 27 -2v-116q-2 1 -47 1q-68 0 -99.5 -32t-31.5 -108v-282h-122v538h120z" />
    <glyph glyph-name="s" unicode="s" horiz-adv-x="544" 
d="M155 174q9 -46 41.5 -70t85.5 -24q43 0 74 17.5t31 49.5q0 31 -24 48t-72 26l-71 14q-78 14 -124.5 55t-46.5 106q0 46 28 82t76 56t107 20q91 0 153.5 -41t74.5 -130h-112q-10 41 -40.5 60.5t-76.5 19.5q-41 0 -69.5 -17t-28.5 -45q0 -53 82 -69l66 -12
q90 -17 142 -53.5t52 -106.5q0 -54 -30 -93t-81 -59.5t-113 -20.5q-98 0 -162 46t-78 141h116z" />
    <glyph glyph-name="t" unicode="t" horiz-adv-x="381" 
d="M97 447h-87v91h87v112l122 81v-193h124v-91h-124v-236q0 -60 18 -90.5t66 -30.5q9 0 39 4v-100q-26 -6 -70 -6q-87 0 -131 50t-44 159v250z" />
    <glyph glyph-name="u" unicode="u" 
d="M63 221v317h122v-311q0 -69 29 -103q28 -34 87 -34t87 34q29 34 29 103v311h122v-317q0 -65 -16 -109.5t-49 -72.5q-61 -52 -173 -52t-173 52q-33 28 -49 72.5t-16 109.5z" />
    <glyph glyph-name="v" unicode="v" horiz-adv-x="550" 
d="M139 538l140 -396l139 396h123l-201 -538h-127l-203 538h129z" />
    <glyph glyph-name="w" unicode="w" horiz-adv-x="758" 
d="M134 538l83 -386l97 386h129l98 -386l82 386h123l-134 -538h-125l-109 417l-109 -417h-124l-133 538h122z" />
    <glyph glyph-name="x" unicode="x" horiz-adv-x="560" 
d="M409 0l-133 186l-137 -186h-126l201 272l-190 266h137l123 -171l126 171h126l-190 -258l201 -280h-138z" />
    <glyph glyph-name="y" unicode="y" horiz-adv-x="559" 
d="M10 538h134l137 -383l144 383h124l-291 -733h-125l81 206z" />
    <glyph glyph-name="z" unicode="z" horiz-adv-x="526" 
d="M332 441h-276v97h422v-97l-293 -344h300v-97h-446v97z" />
    <glyph glyph-name="braceleft" unicode="{" horiz-adv-x="391" 
d="M124 113q0 51 -21.5 81.5t-68.5 31.5v99q47 1 68.5 31.5t21.5 81.5v131q0 95 48 135.5t148 40.5h43v-91h-27q-49 0 -69.5 -21t-20.5 -63v-149q0 -121 -106 -144v-3q106 -23 106 -144v-151q0 -41 20.5 -62t69.5 -21h27v-91h-43q-100 0 -148 40.5t-48 135.5v132z" />
    <glyph glyph-name="bar" unicode="|" horiz-adv-x="253" 
d="M178 745v-835h-103v835h103z" />
    <glyph glyph-name="braceright" unicode="}" horiz-adv-x="391" 
d="M28 -195v91h27q49 0 69.5 21t20.5 62v151q0 121 106 144v3q-106 23 -106 144v149q0 42 -20.5 63t-69.5 21h-27v91h43q100 0 148 -40.5t48 -135.5v-131q0 -51 21.5 -81.5t68.5 -31.5v-99q-47 -1 -68.5 -31.5t-21.5 -81.5v-132q0 -95 -48 -135.5t-148 -40.5h-43z" />
    <glyph glyph-name="uni00A0" unicode="&#xa0;" horiz-adv-x="239" 
 />
    <glyph glyph-name="exclamdown" unicode="&#xa1;" horiz-adv-x="330" 
d="M165 551q37 0 62 -25t25 -62t-25 -62t-62 -25t-62 25t-25 62t25 62t62 25zM226 318v-513h-122v513h122z" />
    <glyph glyph-name="sterling" unicode="&#xa3;" horiz-adv-x="665" 
d="M219 558q0 -33 13 -64.5t39 -75.5q8 -12 11 -18h203v-95h-165q2 -14 2 -22q0 -51 -28 -100t-68 -77l1 -2h376v-104h-537v105q58 21 96.5 68t38.5 107q0 13 -3 25h-144v95h101q-30 54 -45 90.5t-15 81.5q0 58 35.5 100t93.5 63.5t125 21.5q81 0 139 -32t89 -89.5
t30 -133.5h-121q0 80 -38 117.5t-100 37.5q-55 0 -92 -25t-37 -74z" />
    <glyph glyph-name="yen" unicode="&#xa5;" horiz-adv-x="752" 
d="M486 407h136v-99h-189v-74h189v-100h-189v-134h-122v134h-189v100h189v74h-189v99h138l-251 338h147l220 -298l224 298h143z" />
    <glyph glyph-name="dieresis" unicode="&#xa8;" horiz-adv-x="399" 
d="M80 756q28 0 47 -19t19 -46q0 -28 -19 -47t-47 -19q-27 0 -46.5 19t-19.5 47q0 27 19.5 46t46.5 19zM319 756q27 0 46.5 -19t19.5 -46q0 -28 -19.5 -47t-46.5 -19q-28 0 -47 19t-19 47q0 27 19 46t47 19z" />
    <glyph glyph-name="copyright" unicode="&#xa9;" horiz-adv-x="897" 
d="M832 369q0 -111 -51 -198t-138.5 -135.5t-193.5 -48.5t-193.5 48.5t-139 135.5t-51.5 198q0 112 51.5 200t139 137t193.5 49t193.5 -49t138.5 -137t51 -200zM751 369q0 92 -39 163.5t-108 110.5t-155 39q-85 0 -154 -39.5t-109 -110.5t-40 -163q0 -90 40 -160.5t109 -110
t154 -39.5q86 0 155 39t108 110t39 161zM450 581q75 0 127.5 -40.5t69.5 -110.5h-88q-24 80 -108 80q-54 0 -86.5 -38.5t-32.5 -98.5q0 -59 32.5 -97t86.5 -38q85 0 108 79h88q-17 -69 -69.5 -110t-127.5 -41q-59 0 -106 27t-73.5 74.5t-26.5 105.5q0 59 26.5 106.5t73 74.5
t106.5 27z" />
    <glyph glyph-name="guillemotleft" unicode="&#xab;" horiz-adv-x="569" 
d="M197 502h113l-131 -229l131 -229h-113l-158 229zM417 502h113l-131 -229l131 -229h-113l-158 229z" />
    <glyph glyph-name="uni00AD" unicode="&#xad;" horiz-adv-x="424" 
d="M373 322v-107h-322v107h322z" />
    <glyph glyph-name="macron" unicode="&#xaf;" horiz-adv-x="362" 
d="M28 733h306v-85h-306v85z" />
    <glyph glyph-name="degree" unicode="&#xb0;" horiz-adv-x="353" 
d="M335 599q0 -42 -21.5 -78.5t-58 -58t-79.5 -21.5q-42 0 -78 21.5t-57.5 58t-21.5 78.5q0 43 21 79.5t57.5 57.5t78.5 21q43 0 79.5 -21t58 -57.5t21.5 -79.5zM254 599q0 35 -22 58.5t-56 23.5q-33 0 -54 -23.5t-21 -58.5q0 -34 21 -57.5t54 -23.5q34 0 56 23.5t22 57.5z
" />
    <glyph glyph-name="acute" unicode="&#xb4;" horiz-adv-x="295" 
d="M299 745l-147 -116h-150l142 116h155z" />
    <glyph glyph-name="periodcentered" unicode="&#xb7;" horiz-adv-x="271" 
d="M136 358q36 0 61.5 -25t25.5 -62t-25.5 -62t-61.5 -25q-37 0 -62 25t-25 62t25 62t62 25z" />
    <glyph glyph-name="cedilla" unicode="&#xb8;" horiz-adv-x="261" 
d="M100 -148q25 0 41 7t16 22q0 14 -11 21.5t-30 7.5q-26 0 -39 -9l-28 16l53 86h50l-33 -53q12 2 37 2q32 0 53.5 -18.5t21.5 -48.5q0 -38 -33.5 -59.5t-79.5 -21.5q-26 0 -47.5 3.5t-43.5 13.5l16 44q25 -13 57 -13z" />
    <glyph glyph-name="guillemotright" unicode="&#xbb;" horiz-adv-x="569" 
d="M169 273l-130 229h113l158 -229l-159 -229h-112zM389 273l-130 229h113l158 -229l-159 -229h-112z" />
    <glyph glyph-name="questiondown" unicode="&#xbf;" horiz-adv-x="580" 
d="M315 551q36 0 61.5 -25t25.5 -62t-25.5 -62t-61.5 -25q-37 0 -62 25t-25 62t25 62t62 25zM175 157q35 14 53 29.5t24.5 37.5t6.5 58v24h119v-26q0 -80 -27.5 -123.5t-102.5 -72.5q-56 -22 -82.5 -44t-26.5 -58q0 -42 38.5 -66t102.5 -24q79 0 121 34t43 100h122
q0 -111 -78.5 -172.5t-209.5 -61.5q-73 0 -133 21t-95.5 62.5t-35.5 100.5q0 65 45 109.5t116 71.5z" />
    <glyph glyph-name="Agrave" unicode="&#xc0;" horiz-adv-x="734" 
d="M506 202h-286l-74 -202h-127l283 745h129l284 -745h-134zM466 311l-103 279l-103 -279h206zM433 803h-148l-149 113h157z" />
    <glyph glyph-name="Aacute" unicode="&#xc1;" horiz-adv-x="734" 
d="M506 202h-286l-74 -202h-127l283 745h129l284 -745h-134zM466 311l-103 279l-103 -279h206zM293 803l140 113h156l-148 -113h-148z" />
    <glyph glyph-name="Acircumflex" unicode="&#xc2;" horiz-adv-x="734" 
d="M437 803l-70 55l-72 -55h-132l139 113h132l136 -113h-133zM506 202h-286l-74 -202h-127l283 745h129l284 -745h-134zM466 311l-103 279l-103 -279h206z" />
    <glyph glyph-name="Atilde" unicode="&#xc3;" horiz-adv-x="734" 
d="M506 202h-286l-74 -202h-127l283 745h129l284 -745h-134zM466 311l-103 279l-103 -279h206zM561 920q-11 -66 -48.5 -93.5t-79.5 -27.5q-23 0 -40 6.5t-38 18.5q-15 9 -25 13.5t-22 4.5q-40 0 -48 -43h-86q11 67 49.5 94t80.5 27q22 0 38.5 -6t34.5 -18q17 -9 27 -13.5
t23 -4.5q39 0 50 42h84z" />
    <glyph glyph-name="Adieresis" unicode="&#xc4;" horiz-adv-x="734" 
d="M506 202h-286l-74 -202h-127l283 745h129l284 -745h-134zM466 311l-103 279l-103 -279h206zM247 927q28 0 47 -19t19 -47q0 -27 -19 -46.5t-47 -19.5q-27 0 -46.5 19.5t-19.5 46.5q0 28 19.5 47t46.5 19zM486 927q27 0 46.5 -19t19.5 -47q0 -27 -19.5 -46.5t-46.5 -19.5
q-28 0 -47 19.5t-19 46.5q0 28 19 47t47 19z" />
    <glyph glyph-name="Aring" unicode="&#xc5;" horiz-adv-x="734" 
d="M506 202h-286l-74 -202h-127l283 745h129l284 -745h-134zM466 311l-103 279l-103 -279h206zM366 795q-38 0 -64 24.5t-26 60.5q0 37 26.5 61t63.5 24q38 0 64.5 -24t26.5 -61t-26 -61t-65 -24zM366 837q19 0 32 12t13 31t-13.5 31.5t-31.5 12.5q-17 0 -30.5 -12.5
t-13.5 -31.5t13.5 -31t30.5 -12z" />
    <glyph glyph-name="AE" unicode="&#xc6;" horiz-adv-x="974" 
d="M589 636v-200h280v-109h-280v-218h330v-109h-457v207h-224l-130 -207h-134l488 745h457v-109h-330zM462 317v245l-154 -245h154z" />
    <glyph glyph-name="Ccedilla" unicode="&#xc7;" horiz-adv-x="815" 
d="M417 757q91 0 166 -35t126 -98.5t70 -146.5h-135q-24 81 -82 124t-144 43q-74 0 -130.5 -35.5t-87 -97.5t-30.5 -139q0 -78 30.5 -140t87 -97.5t130.5 -35.5q86 0 144.5 43.5t81.5 124.5h135q-19 -84 -69.5 -147t-126 -98t-166.5 -35q-110 0 -197 50.5t-135.5 138.5
t-48.5 196t48.5 196t135.5 138.5t197 50.5zM359 -148q24 0 40.5 7.5t16.5 22.5q0 13 -11.5 20.5t-29.5 7.5q-26 0 -39 -9l-28 17l53 86h50l-33 -54q18 3 37 3q32 -1 53.5 -19.5t21.5 -48.5q0 -38 -33 -59t-80 -21q-54 0 -91 16l16 44q28 -13 57 -13z" />
    <glyph glyph-name="Egrave" unicode="&#xc8;" horiz-adv-x="586" 
d="M534 745v-109h-330v-200h273v-109h-273v-218h330v-109h-457v745h457zM398 803h-148l-149 113h157z" />
    <glyph glyph-name="Eacute" unicode="&#xc9;" horiz-adv-x="586" 
d="M534 745v-109h-330v-200h273v-109h-273v-218h330v-109h-457v745h457zM211 803l140 113h156l-148 -113h-148z" />
    <glyph glyph-name="Ecircumflex" unicode="&#xca;" horiz-adv-x="586" 
d="M534 745v-109h-330v-200h273v-109h-273v-218h330v-109h-457v745h457zM383 803l-70 55l-72 -55h-132l139 113h132l136 -113h-133z" />
    <glyph glyph-name="Edieresis" unicode="&#xcb;" horiz-adv-x="586" 
d="M534 745v-109h-330v-200h273v-109h-273v-218h330v-109h-457v745h457zM188 927q28 0 47 -19t19 -47q0 -27 -19 -46.5t-47 -19.5q-27 0 -46.5 19.5t-19.5 46.5q0 28 19.5 47t46.5 19zM427 927q27 0 46.5 -19t19.5 -47q0 -27 -19.5 -46.5t-46.5 -19.5q-28 0 -47 19.5
t-19 46.5q0 28 19 47t47 19z" />
    <glyph glyph-name="Igrave" unicode="&#xcc;" horiz-adv-x="281" 
d="M204 745v-745h-127v745h127zM209 803h-148l-149 113h157z" />
    <glyph glyph-name="Iacute" unicode="&#xcd;" horiz-adv-x="281" 
d="M204 745v-745h-127v745h127zM54 803l140 113h156l-148 -113h-148z" />
    <glyph glyph-name="Icircumflex" unicode="&#xce;" horiz-adv-x="281" 
d="M204 745v-745h-127v745h127zM211 803l-70 55l-72 -55h-132l139 113h132l136 -113h-133z" />
    <glyph glyph-name="Idieresis" unicode="&#xcf;" horiz-adv-x="281" 
d="M204 745v-745h-127v745h127zM22 927q28 0 47 -19t19 -47q0 -27 -19 -46.5t-47 -19.5q-27 0 -46.5 19.5t-19.5 46.5q0 28 19.5 47t46.5 19zM261 927q27 0 46.5 -19t19.5 -47q0 -27 -19.5 -46.5t-46.5 -19.5q-28 0 -47 19.5t-19 46.5q0 28 19 47t47 19z" />
    <glyph glyph-name="Eth" unicode="&#xd0;" horiz-adv-x="795" 
d="M765 373q0 -107 -48 -191.5t-140.5 -133t-222.5 -48.5h-238v317h-94v105h94v323h240q129 0 221.5 -48t140 -132.5t47.5 -191.5zM631 373q0 77 -32 137.5t-93 95t-146 34.5h-117v-218h136v-105h-136v-212h117q85 0 146 34.5t93 95.5t32 138z" />
    <glyph glyph-name="Ntilde" unicode="&#xd1;" horiz-adv-x="754" 
d="M197 546v-546h-120v745h118l362 -546v546h120v-745h-118zM581 920q-11 -66 -48.5 -93.5t-79.5 -27.5q-23 0 -40 6.5t-38 18.5q-15 9 -25 13.5t-22 4.5q-40 0 -48 -43h-86q11 67 49.5 94t80.5 27q22 0 38.5 -6t34.5 -18q17 -9 27 -13.5t23 -4.5q39 0 50 42h84z" />
    <glyph glyph-name="Ograve" unicode="&#xd2;" horiz-adv-x="840" 
d="M420 757q111 0 198.5 -50t136.5 -138t49 -197t-49 -197t-136.5 -138t-198.5 -50t-198.5 50t-136.5 138t-49 197t49 197t136.5 138t198.5 50zM420 644q-73 0 -130 -35t-88.5 -97t-31.5 -140t31.5 -140.5t88.5 -97.5t130 -35t130 35t88.5 97.5t31.5 140.5t-31.5 140
t-88.5 97t-130 35zM505 803h-148l-149 113h157z" />
    <glyph glyph-name="Oacute" unicode="&#xd3;" horiz-adv-x="840" 
d="M420 757q111 0 198.5 -50t136.5 -138t49 -197t-49 -197t-136.5 -138t-198.5 -50t-198.5 50t-136.5 138t-49 197t49 197t136.5 138t198.5 50zM420 644q-73 0 -130 -35t-88.5 -97t-31.5 -140t31.5 -140.5t88.5 -97.5t130 -35t130 35t88.5 97.5t31.5 140.5t-31.5 140
t-88.5 97t-130 35zM352 803l140 113h156l-148 -113h-148z" />
    <glyph glyph-name="Ocircumflex" unicode="&#xd4;" horiz-adv-x="840" 
d="M490 803l-70 55l-72 -55h-132l139 113h132l136 -113h-133zM420 757q111 0 198.5 -50t136.5 -138t49 -197t-49 -197t-136.5 -138t-198.5 -50t-198.5 50t-136.5 138t-49 197t49 197t136.5 138t198.5 50zM420 644q-73 0 -130 -35t-88.5 -97t-31.5 -140t31.5 -140.5
t88.5 -97.5t130 -35t130 35t88.5 97.5t31.5 140.5t-31.5 140t-88.5 97t-130 35z" />
    <glyph glyph-name="Otilde" unicode="&#xd5;" horiz-adv-x="840" 
d="M613 920q-11 -66 -48.5 -93.5t-79.5 -27.5q-23 0 -40 6.5t-38 18.5q-15 9 -25 13.5t-22 4.5q-40 0 -48 -43h-86q11 67 49.5 94t80.5 27q22 0 38.5 -6t34.5 -18q17 -9 27 -13.5t23 -4.5q39 0 50 42h84zM420 757q111 0 198.5 -50t136.5 -138t49 -197t-49 -197t-136.5 -138
t-198.5 -50t-198.5 50t-136.5 138t-49 197t49 197t136.5 138t198.5 50zM420 644q-73 0 -130 -35t-88.5 -97t-31.5 -140t31.5 -140.5t88.5 -97.5t130 -35t130 35t88.5 97.5t31.5 140.5t-31.5 140t-88.5 97t-130 35z" />
    <glyph glyph-name="Odieresis" unicode="&#xd6;" horiz-adv-x="840" 
d="M301 927q28 0 47 -19t19 -47q0 -27 -19 -46.5t-47 -19.5q-27 0 -46.5 19.5t-19.5 46.5q0 28 19.5 47t46.5 19zM540 927q27 0 46.5 -19t19.5 -47q0 -27 -19.5 -46.5t-46.5 -19.5q-28 0 -47 19.5t-19 46.5q0 28 19 47t47 19zM420 757q111 0 198.5 -50t136.5 -138t49 -197
t-49 -197t-136.5 -138t-198.5 -50t-198.5 50t-136.5 138t-49 197t49 197t136.5 138t198.5 50zM420 644q-73 0 -130 -35t-88.5 -97t-31.5 -140t31.5 -140.5t88.5 -97.5t130 -35t130 35t88.5 97.5t31.5 140.5t-31.5 140t-88.5 97t-130 35z" />
    <glyph glyph-name="multiply" unicode="&#xd7;" horiz-adv-x="690" 
d="M579 218l-72 -73l-167 166l-164 -165l-67 66l164 166l-163 164l74 72l163 -163l165 165l66 -67l-164 -165z" />
    <glyph glyph-name="Oslash" unicode="&#xd8;" horiz-adv-x="840" 
d="M804 372q0 -109 -49 -197t-136.5 -138t-198.5 -50q-132 0 -231 71l-81 -96l-53 45l82 97q-48 52 -74.5 120.5t-26.5 147.5q0 109 49 197t136.5 138t198.5 50q124 0 217 -62l73 86l54 -44l-72 -85q53 -52 82.5 -124.5t29.5 -155.5zM219 201l340 402q-60 41 -139 41
q-73 0 -130 -35t-88.5 -97t-31.5 -140q0 -98 49 -171zM670 372q0 108 -60 184l-343 -406q65 -51 153 -51q73 0 130 35t88.5 97.5t31.5 140.5z" />
    <glyph glyph-name="Ugrave" unicode="&#xd9;" horiz-adv-x="731" 
d="M71 745h127v-467q0 -89 43 -136t125 -47q81 0 124.5 47.5t43.5 135.5v467h126v-474q0 -86 -36.5 -150.5t-103 -99t-154.5 -34.5t-155 34t-103.5 98.5t-36.5 151.5v474zM460 803h-148l-149 113h157z" />
    <glyph glyph-name="Uacute" unicode="&#xda;" horiz-adv-x="731" 
d="M71 745h127v-467q0 -89 43 -136t125 -47q81 0 124.5 47.5t43.5 135.5v467h126v-474q0 -86 -36.5 -150.5t-103 -99t-154.5 -34.5t-155 34t-103.5 98.5t-36.5 151.5v474zM264 803l140 113h156l-148 -113h-148z" />
    <glyph glyph-name="Ucircumflex" unicode="&#xdb;" horiz-adv-x="731" 
d="M436 803l-70 55l-72 -55h-132l139 113h132l136 -113h-133zM71 745h127v-467q0 -89 43 -136t125 -47q81 0 124.5 47.5t43.5 135.5v467h126v-474q0 -86 -36.5 -150.5t-103 -99t-154.5 -34.5t-155 34t-103.5 98.5t-36.5 151.5v474z" />
    <glyph glyph-name="Udieresis" unicode="&#xdc;" horiz-adv-x="731" 
d="M246 927q28 0 47 -19t19 -47q0 -27 -19 -46.5t-47 -19.5q-27 0 -46.5 19.5t-19.5 46.5q0 28 19.5 47t46.5 19zM485 927q27 0 46.5 -19t19.5 -47q0 -27 -19.5 -46.5t-46.5 -19.5q-28 0 -47 19.5t-19 46.5q0 28 19 47t47 19zM71 745h127v-467q0 -89 43 -136t125 -47
q81 0 124.5 47.5t43.5 135.5v467h126v-474q0 -86 -36.5 -150.5t-103 -99t-154.5 -34.5t-155 34t-103.5 98.5t-36.5 151.5v474z" />
    <glyph glyph-name="Yacute" unicode="&#xdd;" horiz-adv-x="753" 
d="M376 447l224 298h146l-310 -408v-337h-127v339l-302 406h149zM301 803l140 113h156l-148 -113h-148z" />
    <glyph glyph-name="Thorn" unicode="&#xde;" horiz-adv-x="660" 
d="M204 745v-150h168q85 0 144.5 -28.5t89.5 -78.5t30 -114q0 -63 -30 -113t-89.5 -79t-144.5 -29h-168v-153h-127v745h127zM504 374q0 53 -37.5 85t-105.5 32h-157v-233h157q68 0 105.5 31.5t37.5 84.5z" />
    <glyph glyph-name="germandbls" unicode="&#xdf;" horiz-adv-x="659" 
d="M72 475q0 75 14 120.5t42 74.5q65 72 206 72q106 0 172 -47t66 -137q0 -56 -24.5 -93.5t-59.5 -52.5q56 -18 93 -69t37 -128q0 -110 -72 -169t-190 -59q-63 0 -115 12l19 101q20 -7 45.5 -11t47.5 -4q62 0 101.5 33.5t39.5 95.5q0 136 -184 136h-17v101h13q72 0 108.5 24
t36.5 75q0 46 -31 71.5t-88 25.5q-77 0 -109 -43q-15 -20 -22 -49t-7 -80v-475h-122v475z" />
    <glyph glyph-name="agrave" unicode="&#xe0;" horiz-adv-x="577" 
d="M233 -13q-57 0 -99.5 22.5t-65 60t-22.5 80.5q0 78 63 117t184 59q59 10 80 22.5t21 40.5q0 35 -27 54.5t-73 19.5q-56 0 -90.5 -28.5t-37.5 -77.5h-107q1 54 30 99t81.5 71t121.5 26q104 0 163 -46t59 -158v-349h-111v65q-24 -36 -67 -57t-103 -21zM272 241
q-57 -16 -78.5 -35t-21.5 -50q0 -36 26 -57t68 -21q62 0 97.5 30t35.5 93v79q-27 -12 -63 -22t-64 -17zM233 745l142 -116h-150l-147 116h155z" />
    <glyph glyph-name="aacute" unicode="&#xe1;" horiz-adv-x="577" 
d="M233 -13q-57 0 -99.5 22.5t-65 60t-22.5 80.5q0 78 63 117t184 59q59 10 80 22.5t21 40.5q0 35 -27 54.5t-73 19.5q-56 0 -90.5 -28.5t-37.5 -77.5h-107q1 54 30 99t81.5 71t121.5 26q104 0 163 -46t59 -158v-349h-111v65q-24 -36 -67 -57t-103 -21zM272 241
q-57 -16 -78.5 -35t-21.5 -50q0 -36 26 -57t68 -21q62 0 97.5 30t35.5 93v79q-27 -12 -63 -22t-64 -17zM516 745l-147 -116h-150l142 116h155z" />
    <glyph glyph-name="acircumflex" unicode="&#xe2;" horiz-adv-x="577" 
d="M233 -13q-57 0 -99.5 22.5t-65 60t-22.5 80.5q0 78 63 117t184 59q59 10 80 22.5t21 40.5q0 35 -27 54.5t-73 19.5q-56 0 -90.5 -28.5t-37.5 -77.5h-107q1 54 30 99t81.5 71t121.5 26q104 0 163 -46t59 -158v-349h-111v65q-24 -36 -67 -57t-103 -21zM272 241
q-57 -16 -78.5 -35t-21.5 -50q0 -36 26 -57t68 -21q62 0 97.5 30t35.5 93v79q-27 -12 -63 -22t-64 -17zM360 629l-68 51l-68 -51h-129l142 116h109l143 -116h-129z" />
    <glyph glyph-name="atilde" unicode="&#xe3;" horiz-adv-x="577" 
d="M233 -13q-57 0 -99.5 22.5t-65 60t-22.5 80.5q0 78 63 117t184 59q59 10 80 22.5t21 40.5q0 35 -27 54.5t-73 19.5q-56 0 -90.5 -28.5t-37.5 -77.5h-107q1 54 30 99t81.5 71t121.5 26q104 0 163 -46t59 -158v-349h-111v65q-24 -36 -67 -57t-103 -21zM272 241
q-57 -16 -78.5 -35t-21.5 -50q0 -36 26 -57t68 -21q62 0 97.5 30t35.5 93v79q-27 -12 -63 -22t-64 -17zM486 745q-18 -121 -126 -121q-22 0 -39 6.5t-41 19.5q-16 9 -27.5 14t-22.5 5q-41 0 -49 -45h-87q19 121 127 121q23 0 39.5 -6.5t37.5 -19.5q17 -10 28 -14.5t24 -4.5
q41 0 50 45h86z" />
    <glyph glyph-name="adieresis" unicode="&#xe4;" horiz-adv-x="577" 
d="M233 -13q-57 0 -99.5 22.5t-65 60t-22.5 80.5q0 78 63 117t184 59q59 10 80 22.5t21 40.5q0 35 -27 54.5t-73 19.5q-56 0 -90.5 -28.5t-37.5 -77.5h-107q1 54 30 99t81.5 71t121.5 26q104 0 163 -46t59 -158v-349h-111v65q-24 -36 -67 -57t-103 -21zM272 241
q-57 -16 -78.5 -35t-21.5 -50q0 -36 26 -57t68 -21q62 0 97.5 30t35.5 93v79q-27 -12 -63 -22t-64 -17zM166 756q28 0 47 -19t19 -46q0 -28 -19 -47t-47 -19q-27 0 -46.5 19t-19.5 47q0 27 19.5 46t46.5 19zM405 756q27 0 46.5 -19t19.5 -46q0 -28 -19.5 -47t-46.5 -19
q-28 0 -47 19t-19 47q0 27 19 46t47 19z" />
    <glyph glyph-name="aring" unicode="&#xe5;" horiz-adv-x="577" 
d="M233 -13q-57 0 -99.5 22.5t-65 60t-22.5 80.5q0 78 63 117t184 59q59 10 80 22.5t21 40.5q0 35 -27 54.5t-73 19.5q-56 0 -90.5 -28.5t-37.5 -77.5h-107q1 54 30 99t81.5 71t121.5 26q104 0 163 -46t59 -158v-349h-111v65q-24 -36 -67 -57t-103 -21zM272 241
q-57 -16 -78.5 -35t-21.5 -50q0 -36 26 -57t68 -21q62 0 97.5 30t35.5 93v79q-27 -12 -63 -22t-64 -17zM291 612q-39 0 -66.5 25.5t-27.5 62.5q0 38 27.5 63t66.5 25t66.5 -25t27.5 -63q0 -37 -27.5 -62.5t-66.5 -25.5zM291 659q18 0 30.5 11.5t12.5 29.5t-12.5 30.5
t-30.5 12.5q-17 0 -29.5 -12t-12.5 -31q0 -18 12 -29.5t30 -11.5z" />
    <glyph glyph-name="ae" unicode="&#xe6;" horiz-adv-x="970" 
d="M457 96q-68 -109 -212 -109q-62 0 -107.5 22.5t-68.5 59t-23 79.5q0 78 60.5 117t186.5 61q60 11 81 22.5t21 41.5q0 33 -27 53t-74 20q-55 0 -90 -28.5t-38 -77.5h-107q1 54 30 99t81.5 71t121.5 26q67 0 113.5 -19.5t70.5 -64.5q35 39 84.5 60.5t108.5 21.5
q83 0 145.5 -40t95.5 -111t31 -163h-427q8 -66 52 -108t107 -42q99 0 137 85h124q-25 -85 -96.5 -135t-168.5 -50q-70 0 -124 28.5t-88 80.5zM816 324q-8 62 -50 96.5t-99 34.5t-98.5 -36t-51.5 -95h299zM293 246q-10 -1 -21 -5q-58 -16 -79.5 -35t-21.5 -51q0 -35 26.5 -56
t68.5 -21q62 0 97.5 30t35.5 93v79q-27 -12 -63 -22t-43 -12z" />
    <glyph glyph-name="ccedilla" unicode="&#xe7;" horiz-adv-x="608" 
d="M310 551q104 0 176.5 -58.5t92.5 -157.5h-126q-13 55 -50 84t-93 29q-71 0 -113.5 -50.5t-42.5 -128.5t42.5 -128.5t113.5 -50.5q56 0 93 29t50 84h126q-20 -99 -92.5 -157.5t-176.5 -58.5q-81 0 -145 36.5t-99.5 101t-35.5 144.5t35.5 144.5t99.5 101t145 36.5z
M263 -148q25 0 41 7t16 22q0 14 -11 21.5t-30 7.5q-26 0 -39 -9l-28 16l53 86h50l-33 -53q12 2 37 2q32 0 53.5 -18.5t21.5 -48.5q0 -38 -33.5 -59.5t-79.5 -21.5q-26 0 -47.5 3.5t-43.5 13.5l16 44q25 -13 57 -13z" />
    <glyph glyph-name="egrave" unicode="&#xe8;" horiz-adv-x="611" 
d="M581 237h-427q8 -65 52 -107t107 -42q51 0 84.5 21t52.5 63h125q-26 -86 -97.5 -135.5t-168.5 -49.5q-81 0 -144.5 37t-99 101t-35.5 144q0 79 35.5 143.5t99 101.5t144.5 37q84 0 146.5 -40t95.5 -111t30 -163zM456 324q-8 62 -50 96.5t-99 34.5t-98.5 -36t-51.5 -95
h299zM253 745l142 -116h-150l-147 116h155z" />
    <glyph glyph-name="eacute" unicode="&#xe9;" horiz-adv-x="611" 
d="M581 237h-427q8 -65 52 -107t107 -42q51 0 84.5 21t52.5 63h125q-26 -86 -97.5 -135.5t-168.5 -49.5q-81 0 -144.5 37t-99 101t-35.5 144q0 79 35.5 143.5t99 101.5t144.5 37q84 0 146.5 -40t95.5 -111t30 -163zM456 324q-8 62 -50 96.5t-99 34.5t-98.5 -36t-51.5 -95
h299zM549 745l-147 -116h-150l142 116h155z" />
    <glyph glyph-name="ecircumflex" unicode="&#xea;" horiz-adv-x="611" 
d="M374 629l-68 51l-68 -51h-129l142 116h109l143 -116h-129zM581 237h-427q8 -65 52 -107t107 -42q51 0 84.5 21t52.5 63h125q-26 -86 -97.5 -135.5t-168.5 -49.5q-81 0 -144.5 37t-99 101t-35.5 144q0 79 35.5 143.5t99 101.5t144.5 37q84 0 146.5 -40t95.5 -111t30 -163z
M456 324q-8 62 -50 96.5t-99 34.5t-98.5 -36t-51.5 -95h299z" />
    <glyph glyph-name="edieresis" unicode="&#xeb;" horiz-adv-x="611" 
d="M186 756q28 0 47 -19t19 -46q0 -28 -19 -47t-47 -19q-27 0 -46.5 19t-19.5 47q0 27 19.5 46t46.5 19zM425 756q27 0 46.5 -19t19.5 -46q0 -28 -19.5 -47t-46.5 -19q-28 0 -47 19t-19 47q0 27 19 46t47 19zM581 237h-427q8 -65 52 -107t107 -42q51 0 84.5 21t52.5 63h125
q-26 -86 -97.5 -135.5t-168.5 -49.5q-81 0 -144.5 37t-99 101t-35.5 144q0 79 35.5 143.5t99 101.5t144.5 37q84 0 146.5 -40t95.5 -111t30 -163zM456 324q-8 62 -50 96.5t-99 34.5t-98.5 -36t-51.5 -95h299z" />
    <glyph glyph-name="igrave" unicode="&#xec;" horiz-adv-x="266" 
d="M194 538v-538h-122v538h122zM70 745l142 -116h-150l-147 116h155z" />
    <glyph glyph-name="iacute" unicode="&#xed;" horiz-adv-x="266" 
d="M194 538v-538h-122v538h122zM359 745l-147 -116h-150l142 116h155z" />
    <glyph glyph-name="icircumflex" unicode="&#xee;" horiz-adv-x="266" 
d="M194 538v-538h-122v538h122zM202 629l-68 51l-68 -51h-129l142 116h109l143 -116h-129z" />
    <glyph glyph-name="idieresis" unicode="&#xef;" horiz-adv-x="266" 
d="M194 538v-538h-122v538h122zM15 756q28 0 47 -19t19 -46q0 -28 -19 -47t-47 -19q-27 0 -46.5 19t-19.5 47q0 27 19.5 46t46.5 19zM254 756q27 0 46.5 -19t19.5 -46q0 -28 -19.5 -47t-46.5 -19q-28 0 -47 19t-19 47q0 27 19 46t47 19z" />
    <glyph glyph-name="eth" unicode="&#xf0;" horiz-adv-x="598" 
d="M565 309q0 -104 -34.5 -176.5t-96.5 -109t-145 -36.5q-73 0 -132 34.5t-93.5 99t-34.5 148.5q0 83 34 147t91 99t123 35q104 0 160 -77l1 1q-36 85 -131 154l-74 -46l-54 26l80 50q-29 17 -66 34l48 86q61 -28 109 -62l74 46l56 -28l-85 -53q80 -68 125 -161.5t45 -210.5
zM448 269q0 57 -20 98.5t-54.5 63t-75.5 21.5q-42 0 -75.5 -22t-53 -63.5t-19.5 -97.5q0 -84 41.5 -133.5t106.5 -49.5q41 0 75.5 21.5t54.5 63t20 98.5z" />
    <glyph glyph-name="ntilde" unicode="&#xf1;" horiz-adv-x="592" 
d="M194 538v-67q46 80 153 80q92 0 137 -55t45 -156v-340h-122v318q0 68 -27 101t-77 33t-79.5 -33.5t-29.5 -100.5v-318h-122v538h122zM511 745q-18 -121 -126 -121q-22 0 -39 6.5t-41 19.5q-16 9 -27.5 14t-22.5 5q-41 0 -49 -45h-87q19 121 127 121q23 0 39.5 -6.5
t37.5 -19.5q17 -10 28 -14.5t24 -4.5q41 0 50 45h86z" />
    <glyph glyph-name="ograve" unicode="&#xf2;" horiz-adv-x="628" 
d="M30 269q0 81 36.5 145.5t101 100.5t146.5 36t146.5 -36t101 -100.5t36.5 -145.5t-36.5 -145.5t-101 -100.5t-146.5 -36t-146.5 36t-101 100.5t-36.5 145.5zM154 269q0 -78 44 -128.5t116 -50.5t116 50.5t44 128.5t-44 128.5t-116 50.5t-116 -50.5t-44 -128.5zM249 745
l142 -116h-150l-147 116h155z" />
    <glyph glyph-name="oacute" unicode="&#xf3;" horiz-adv-x="628" 
d="M30 269q0 81 36.5 145.5t101 100.5t146.5 36t146.5 -36t101 -100.5t36.5 -145.5t-36.5 -145.5t-101 -100.5t-146.5 -36t-146.5 36t-101 100.5t-36.5 145.5zM154 269q0 -78 44 -128.5t116 -50.5t116 50.5t44 128.5t-44 128.5t-116 50.5t-116 -50.5t-44 -128.5zM545 745
l-147 -116h-150l142 116h155z" />
    <glyph glyph-name="ocircumflex" unicode="&#xf4;" horiz-adv-x="628" 
d="M382 629l-68 51l-68 -51h-129l142 116h109l143 -116h-129zM30 269q0 81 36.5 145.5t101 100.5t146.5 36t146.5 -36t101 -100.5t36.5 -145.5t-36.5 -145.5t-101 -100.5t-146.5 -36t-146.5 36t-101 100.5t-36.5 145.5zM154 269q0 -78 44 -128.5t116 -50.5t116 50.5
t44 128.5t-44 128.5t-116 50.5t-116 -50.5t-44 -128.5z" />
    <glyph glyph-name="otilde" unicode="&#xf5;" horiz-adv-x="628" 
d="M30 269q0 81 36.5 145.5t101 100.5t146.5 36t146.5 -36t101 -100.5t36.5 -145.5t-36.5 -145.5t-101 -100.5t-146.5 -36t-146.5 36t-101 100.5t-36.5 145.5zM154 269q0 -78 44 -128.5t116 -50.5t116 50.5t44 128.5t-44 128.5t-116 50.5t-116 -50.5t-44 -128.5zM508 745
q-18 -121 -126 -121q-22 0 -39 6.5t-41 19.5q-16 9 -27.5 14t-22.5 5q-41 0 -49 -45h-87q19 121 127 121q23 0 39.5 -6.5t37.5 -19.5q17 -10 28 -14.5t24 -4.5q41 0 50 45h86z" />
    <glyph glyph-name="odieresis" unicode="&#xf6;" horiz-adv-x="628" 
d="M194 756q28 0 47 -19t19 -46q0 -28 -19 -47t-47 -19q-27 0 -46.5 19t-19.5 47q0 27 19.5 46t46.5 19zM433 756q27 0 46.5 -19t19.5 -46q0 -28 -19.5 -47t-46.5 -19q-28 0 -47 19t-19 47q0 27 19 46t47 19zM30 269q0 81 36.5 145.5t101 100.5t146.5 36t146.5 -36
t101 -100.5t36.5 -145.5t-36.5 -145.5t-101 -100.5t-146.5 -36t-146.5 36t-101 100.5t-36.5 145.5zM154 269q0 -78 44 -128.5t116 -50.5t116 50.5t44 128.5t-44 128.5t-116 50.5t-116 -50.5t-44 -128.5z" />
    <glyph glyph-name="oslash" unicode="&#xf8;" horiz-adv-x="628" 
d="M598 269q0 -81 -36.5 -145.5t-101 -100.5t-146.5 -36q-93 0 -164 47l-71 -82l-47 41l70 81q-34 38 -53 88t-19 107q0 81 36.5 145.5t101 100.5t146.5 36q93 0 161 -45l68 78l48 -40l-67 -78q35 -37 54.5 -88t19.5 -109zM180 165l223 257q-38 26 -89 26q-72 0 -116 -50.5
t-44 -128.5q0 -60 26 -104zM474 269q0 62 -28 107l-223 -258q39 -28 91 -28q72 0 116 50.5t44 128.5z" />
    <glyph glyph-name="ugrave" unicode="&#xf9;" 
d="M63 221v317h122v-311q0 -69 29 -103q28 -34 87 -34t87 34q29 34 29 103v311h122v-317q0 -65 -16 -109.5t-49 -72.5q-61 -52 -173 -52t-173 52q-33 28 -49 72.5t-16 109.5zM255 745l142 -116h-150l-147 116h155z" />
    <glyph glyph-name="uacute" unicode="&#xfa;" 
d="M63 221v317h122v-311q0 -69 29 -103q28 -34 87 -34t87 34q29 34 29 103v311h122v-317q0 -65 -16 -109.5t-49 -72.5q-61 -52 -173 -52t-173 52q-33 28 -49 72.5t-16 109.5zM519 745l-147 -116h-150l142 116h155z" />
    <glyph glyph-name="ucircumflex" unicode="&#xfb;" 
d="M368 629l-68 51l-68 -51h-129l142 116h109l143 -116h-129zM63 221v317h122v-311q0 -69 29 -103q28 -34 87 -34t87 34q29 34 29 103v311h122v-317q0 -65 -16 -109.5t-49 -72.5q-61 -52 -173 -52t-173 52q-33 28 -49 72.5t-16 109.5z" />
    <glyph glyph-name="udieresis" unicode="&#xfc;" 
d="M181 756q28 0 47 -19t19 -46q0 -28 -19 -47t-47 -19q-27 0 -46.5 19t-19.5 47q0 27 19.5 46t46.5 19zM420 756q27 0 46.5 -19t19.5 -46q0 -28 -19.5 -47t-46.5 -19q-28 0 -47 19t-19 47q0 27 19 46t47 19zM63 221v317h122v-311q0 -69 29 -103q28 -34 87 -34t87 34
q29 34 29 103v311h122v-317q0 -65 -16 -109.5t-49 -72.5q-61 -52 -173 -52t-173 52q-33 28 -49 72.5t-16 109.5z" />
    <glyph glyph-name="yacute" unicode="&#xfd;" horiz-adv-x="559" 
d="M10 538h134l137 -383l144 383h124l-291 -733h-125l81 206zM494 745l-147 -116h-150l142 116h155z" />
    <glyph glyph-name="thorn" unicode="&#xfe;" horiz-adv-x="654" 
d="M72 -195v940h122v-279q26 41 74 63t99 22q70 0 129 -35.5t94 -100t35 -146.5t-35 -146.5t-94 -100t-129 -35.5q-51 0 -99 22t-74 63v-267h-122zM344 452q-45 0 -80.5 -22.5t-56 -64t-20.5 -96.5t20.5 -96.5t56 -64t80.5 -22.5t80.5 22.5t56 64t20.5 96.5t-20.5 96.5
t-56 64t-80.5 22.5z" />
    <glyph glyph-name="ydieresis" unicode="&#xff;" horiz-adv-x="559" 
d="M10 538h134l137 -383l144 383h124l-291 -733h-125l81 206zM165 756q28 0 47 -19t19 -46q0 -28 -19 -47t-47 -19q-27 0 -46.5 19t-19.5 47q0 27 19.5 46t46.5 19zM404 756q27 0 46.5 -19t19.5 -46q0 -28 -19.5 -47t-46.5 -19q-28 0 -47 19t-19 47q0 27 19 46t47 19z" />
    <glyph glyph-name="Abreve" unicode="&#x102;" horiz-adv-x="734" 
d="M506 202h-286l-74 -202h-127l283 745h129l284 -745h-134zM466 311l-103 279l-103 -279h206zM365 799q-74 0 -117.5 29.5t-47.5 87.5h89q4 -27 22.5 -39t54.5 -12q71 0 78 51h89q-6 -59 -48.5 -88t-119.5 -29z" />
    <glyph glyph-name="Amacron" unicode="&#x100;" horiz-adv-x="734" 
d="M506 202h-286l-74 -202h-127l283 745h129l284 -745h-134zM466 311l-103 279l-103 -279h206zM211 904h311v-87h-311v87z" />
    <glyph glyph-name="Aogonek" unicode="&#x104;" horiz-adv-x="734" 
d="M669 -113q20 0 46 8v-75q-33 -8 -70 -8q-56 0 -94 23t-38 69q0 57 68 96l-75 202h-286l-74 -202h-127l283 745h129l284 -745q-47 -22 -70 -39t-23 -36t13 -28.5t34 -9.5zM466 311l-103 279l-103 -279h206z" />
    <glyph glyph-name="Cacute" unicode="&#x106;" horiz-adv-x="815" 
d="M417 757q91 0 166 -35t126 -98.5t70 -146.5h-135q-24 81 -82 124t-144 43q-74 0 -130.5 -35.5t-87 -97.5t-30.5 -139q0 -78 30.5 -140t87 -97.5t130.5 -35.5q86 0 144.5 43.5t81.5 124.5h135q-19 -84 -69.5 -147t-126 -98t-166.5 -35q-110 0 -197 50.5t-135.5 138.5
t-48.5 196t48.5 196t135.5 138.5t197 50.5zM334 803l140 113h156l-148 -113h-148z" />
    <glyph glyph-name="Ccaron" unicode="&#x10c;" horiz-adv-x="815" 
d="M339 916l72 -55l70 55h133l-137 -113h-132l-138 113h132zM417 757q91 0 166 -35t126 -98.5t70 -146.5h-135q-24 81 -82 124t-144 43q-74 0 -130.5 -35.5t-87 -97.5t-30.5 -139q0 -78 30.5 -140t87 -97.5t130.5 -35.5q86 0 144.5 43.5t81.5 124.5h135q-19 -84 -69.5 -147
t-126 -98t-166.5 -35q-110 0 -197 50.5t-135.5 138.5t-48.5 196t48.5 196t135.5 138.5t197 50.5z" />
    <glyph glyph-name="Ccircumflex" unicode="&#x108;" horiz-adv-x="815" 
d="M417 757q91 0 166 -35t126 -98.5t70 -146.5h-135q-24 81 -82 124t-144 43q-74 0 -130.5 -35.5t-87 -97.5t-30.5 -139q0 -78 30.5 -140t87 -97.5t130.5 -35.5q86 0 144.5 43.5t81.5 124.5h135q-19 -84 -69.5 -147t-126 -98t-166.5 -35q-110 0 -197 50.5t-135.5 138.5
t-48.5 196t48.5 196t135.5 138.5t197 50.5zM488 803l-70 55l-72 -55h-132l139 113h132l136 -113h-133z" />
    <glyph glyph-name="Cdotaccent" unicode="&#x10a;" horiz-adv-x="815" 
d="M417 757q91 0 166 -35t126 -98.5t70 -146.5h-135q-24 81 -82 124t-144 43q-74 0 -130.5 -35.5t-87 -97.5t-30.5 -139q0 -78 30.5 -140t87 -97.5t130.5 -35.5q86 0 144.5 43.5t81.5 124.5h135q-19 -84 -69.5 -147t-126 -98t-166.5 -35q-110 0 -197 50.5t-135.5 138.5
t-48.5 196t48.5 196t135.5 138.5t197 50.5zM409 927q28 0 47 -19t19 -47q0 -27 -19 -46.5t-47 -19.5t-47 19.5t-19 46.5q0 28 19 47t47 19z" />
    <glyph glyph-name="Dcaron" unicode="&#x10e;" horiz-adv-x="756" 
d="M317 745q129 0 221.5 -48t140 -132.5t47.5 -191.5t-48 -191.5t-140.5 -133t-222.5 -48.5h-238v745h240zM204 105h117q85 0 146 34.5t93 95.5t32 138t-32 137.5t-93 95t-146 34.5h-117v-535zM276 916l72 -55l70 55h133l-137 -113h-132l-138 113h132z" />
    <glyph glyph-name="Dcroat" unicode="&#x110;" horiz-adv-x="795" 
d="M765 373q0 -107 -48 -191.5t-140.5 -133t-222.5 -48.5h-238v317h-94v105h94v323h240q129 0 221.5 -48t140 -132.5t47.5 -191.5zM631 373q0 77 -32 137.5t-93 95t-146 34.5h-117v-218h136v-105h-136v-212h117q85 0 146 34.5t93 95.5t32 138z" />
    <glyph glyph-name="Ebreve" unicode="&#x114;" horiz-adv-x="586" 
d="M534 745v-109h-330v-200h273v-109h-273v-218h330v-109h-457v745h457zM310 799q-74 0 -117.5 29.5t-47.5 87.5h89q4 -27 22.5 -39t54.5 -12q71 0 78 51h89q-6 -59 -48.5 -88t-119.5 -29z" />
    <glyph glyph-name="Ecaron" unicode="&#x11a;" horiz-adv-x="586" 
d="M534 745v-109h-330v-200h273v-109h-273v-218h330v-109h-457v745h457zM240 916l72 -55l70 55h133l-137 -113h-132l-138 113h132z" />
    <glyph glyph-name="Emacron" unicode="&#x112;" horiz-adv-x="586" 
d="M534 745v-109h-330v-200h273v-109h-273v-218h330v-109h-457v745h457zM153 904h311v-87h-311v87z" />
    <glyph glyph-name="Eogonek" unicode="&#x118;" horiz-adv-x="586" 
d="M441 -75q0 -19 13 -28.5t34 -9.5q20 0 46 8v-75q-32 -8 -71 -8q-55 0 -93 23t-38 69q0 31 20.5 55t54.5 41h127q-47 -22 -70 -39t-23 -36zM534 745v-109h-330v-200h273v-109h-273v-218h330v-109h-457v745h457z" />
    <glyph glyph-name="Edotaccent" unicode="&#x116;" horiz-adv-x="586" 
d="M534 745v-109h-330v-200h273v-109h-273v-218h330v-109h-457v745h457zM309 927q28 0 47 -19t19 -47q0 -27 -19 -46.5t-47 -19.5t-47 19.5t-19 46.5q0 28 19 47t47 19z" />
    <glyph glyph-name="Gbreve" unicode="&#x11e;" horiz-adv-x="850" 
d="M416 -13q-109 0 -196 50.5t-135.5 138.5t-48.5 196q0 107 48.5 195t135 139t194.5 51q91 0 167 -33.5t126.5 -94.5t68.5 -142h-134q-22 75 -80.5 116t-144.5 41q-75 0 -131 -35.5t-86 -97.5t-30 -139q0 -78 30 -140t86 -97.5t132 -35.5q103 0 164.5 48.5t67.5 139.5h-282
v111h405v-398h-116v99q-39 -55 -101 -83.5t-140 -28.5zM414 799q-74 0 -117.5 29.5t-47.5 87.5h89q4 -27 22.5 -39t54.5 -12q71 0 78 51h89q-6 -59 -48.5 -88t-119.5 -29z" />
    <glyph glyph-name="Gcircumflex" unicode="&#x11c;" horiz-adv-x="850" 
d="M416 -13q-109 0 -196 50.5t-135.5 138.5t-48.5 196q0 107 48.5 195t135 139t194.5 51q91 0 167 -33.5t126.5 -94.5t68.5 -142h-134q-22 75 -80.5 116t-144.5 41q-75 0 -131 -35.5t-86 -97.5t-30 -139q0 -78 30 -140t86 -97.5t132 -35.5q103 0 164.5 48.5t67.5 139.5h-282
v111h405v-398h-116v99q-39 -55 -101 -83.5t-140 -28.5zM485 803l-70 55l-72 -55h-132l139 113h132l136 -113h-133z" />
    <glyph glyph-name="uni0122" unicode="&#x122;" horiz-adv-x="850" 
d="M416 -13q-109 0 -196 50.5t-135.5 138.5t-48.5 196q0 107 48.5 195t135 139t194.5 51q91 0 167 -33.5t126.5 -94.5t68.5 -142h-134q-22 75 -80.5 116t-144.5 41q-75 0 -131 -35.5t-86 -97.5t-30 -139q0 -78 30 -140t86 -97.5t132 -35.5q103 0 164.5 48.5t67.5 139.5h-282
v111h405v-398h-116v99q-39 -55 -101 -83.5t-140 -28.5zM394 -190q-19 6 -29.5 21.5t-10.5 37.5q0 26 18 44t44 18q25 0 43.5 -18.5t18.5 -43.5q0 -17 -7.5 -33.5t-33.5 -59.5l-44 -77h-61z" />
    <glyph glyph-name="Gdotaccent" unicode="&#x120;" horiz-adv-x="850" 
d="M416 -13q-109 0 -196 50.5t-135.5 138.5t-48.5 196q0 107 48.5 195t135 139t194.5 51q91 0 167 -33.5t126.5 -94.5t68.5 -142h-134q-22 75 -80.5 116t-144.5 41q-75 0 -131 -35.5t-86 -97.5t-30 -139q0 -78 30 -140t86 -97.5t132 -35.5q103 0 164.5 48.5t67.5 139.5h-282
v111h405v-398h-116v99q-39 -55 -101 -83.5t-140 -28.5zM415 927q28 0 47 -19t19 -47q0 -27 -19 -46.5t-47 -19.5t-47 19.5t-19 46.5q0 28 19 47t47 19z" />
    <glyph glyph-name="Hbar" unicode="&#x126;" horiz-adv-x="800" 
d="M778 526h-81v-526h-126v327h-343v-327h-127v526h-79v92h79v127h127v-127h343v127h126v-127h81v-92zM571 526h-343v-90h343v90z" />
    <glyph glyph-name="Hcircumflex" unicode="&#x124;" horiz-adv-x="750" 
d="M204 745v-309h343v309h126v-745h-126v327h-343v-327h-127v745h127zM447 803l-70 55l-72 -55h-132l139 113h132l136 -113h-133z" />
    <glyph glyph-name="Ibreve" unicode="&#x12c;" horiz-adv-x="281" 
d="M204 745v-745h-127v745h127zM140 799q-74 0 -117.5 29.5t-47.5 87.5h89q4 -27 22.5 -39t54.5 -12q71 0 78 51h89q-6 -59 -48.5 -88t-119.5 -29z" />
    <glyph glyph-name="Idotaccent" unicode="&#x130;" horiz-adv-x="281" 
d="M204 745v-745h-127v745h127zM141 927q28 0 47 -19t19 -47q0 -27 -19 -46.5t-47 -19.5t-47 19.5t-19 46.5q0 28 19 47t47 19z" />
    <glyph glyph-name="Imacron" unicode="&#x12a;" horiz-adv-x="281" 
d="M204 745v-745h-127v745h127zM-14 904h311v-87h-311v87z" />
    <glyph glyph-name="Iogonek" unicode="&#x12e;" horiz-adv-x="281" 
d="M204 745v-745h-127v745h127zM112 -75q0 -19 13 -28.5t34 -9.5q20 0 46 8v-75q-32 -8 -71 -8q-55 0 -93 23t-38 69q0 31 20.5 55t54.5 41h127q-47 -22 -70 -39t-23 -36z" />
    <glyph glyph-name="Itilde" unicode="&#x128;" horiz-adv-x="281" 
d="M204 745v-745h-127v745h127zM334 920q-11 -66 -48.5 -93.5t-79.5 -27.5q-23 0 -40 6.5t-38 18.5q-15 9 -25 13.5t-22 4.5q-40 0 -48 -43h-86q11 67 49.5 94t80.5 27q22 0 38.5 -6t34.5 -18q17 -9 27 -13.5t23 -4.5q39 0 50 42h84z" />
    <glyph glyph-name="uni1ECA" unicode="&#x1eca;" horiz-adv-x="281" 
d="M204 745v-745h-127v745h127zM140 -54q28 0 47 -19t19 -47q0 -27 -19 -46.5t-47 -19.5q-27 0 -46.5 19.5t-19.5 46.5q0 28 19.5 47t46.5 19z" />
    <glyph glyph-name="Jcircumflex" unicode="&#x134;" horiz-adv-x="566" 
d="M147 207q1 -55 31.5 -84t78.5 -29q47 0 78 28.5t31 86.5v427h-233v109h360v-518q0 -112 -64.5 -176t-175.5 -64q-74 0 -126 29.5t-78.5 79.5t-28.5 111h127zM385 803l-70 55l-72 -55h-132l139 113h132l136 -113h-133z" />
    <glyph glyph-name="uni0136" unicode="&#x136;" horiz-adv-x="695" 
d="M527 0l-323 314v-314h-127v745h127v-344l294 344h147l-323 -374l375 -371h-170zM331 -190q-19 6 -29.5 21.5t-10.5 37.5q0 26 18 44t44 18q25 0 43.5 -18.5t18.5 -43.5q0 -17 -7.5 -33.5t-33.5 -59.5l-44 -77h-61z" />
    <glyph glyph-name="Lacute" unicode="&#x139;" horiz-adv-x="524" 
d="M204 745v-636h303v-109h-430v745h127zM46 803l140 113h156l-148 -113h-148z" />
    <glyph glyph-name="Lcaron" unicode="&#x13d;" horiz-adv-x="524" 
d="M204 745v-636h303v-109h-430v745h127zM316 575l30 170h117l-66 -170h-81z" />
    <glyph glyph-name="uni013B" unicode="&#x13b;" horiz-adv-x="524" 
d="M204 745v-636h303v-109h-430v745h127zM276 -190q-19 6 -29.5 21.5t-10.5 37.5q0 26 18 44t44 18q25 0 43.5 -18.5t18.5 -43.5q0 -17 -7.5 -33.5t-33.5 -59.5l-44 -77h-61z" />
    <glyph glyph-name="Ldot" unicode="&#x13f;" horiz-adv-x="524" 
d="M204 745v-636h303v-109h-430v745h127zM377 500q28 0 47 -19t19 -47q0 -27 -19 -46.5t-47 -19.5t-47 19.5t-19 46.5q0 28 19 47t47 19z" />
    <glyph glyph-name="Lslash" unicode="&#x141;" horiz-adv-x="556" 
d="M539 109v-109h-430v270l-103 -65v113l103 65v362h127v-282l174 110v-115l-174 -109v-240h303z" />
    <glyph glyph-name="Nacute" unicode="&#x143;" horiz-adv-x="754" 
d="M197 546v-546h-120v745h118l362 -546v546h120v-745h-118zM276 803l140 113h156l-148 -113h-148z" />
    <glyph glyph-name="Ncaron" unicode="&#x147;" horiz-adv-x="754" 
d="M197 546v-546h-120v745h118l362 -546v546h120v-745h-118zM312 916l72 -55l70 55h133l-137 -113h-132l-138 113h132z" />
    <glyph glyph-name="uni0145" unicode="&#x145;" horiz-adv-x="754" 
d="M197 546v-546h-120v745h118l362 -546v546h120v-745h-118zM350 -190q-19 6 -29.5 21.5t-10.5 37.5q0 26 18 44t44 18q25 0 43.5 -18.5t18.5 -43.5q0 -17 -7.5 -33.5t-33.5 -59.5l-44 -77h-61z" />
    <glyph glyph-name="OE" unicode="&#x152;" horiz-adv-x="1172" 
d="M420 -13q-111 0 -198.5 50t-136.5 138t-49 197t49 197t136.5 138t198.5 50q73 0 134 -25t106 -70v83h457v-109h-330v-200h279v-109h-279v-218h330v-109h-457v82q-45 -45 -106 -70t-134 -25zM420 99q73 0 130 35t88.5 97.5t31.5 140.5t-31.5 140t-88.5 97t-130 35
t-130 -35t-88.5 -97t-31.5 -140t31.5 -140.5t88.5 -97.5t130 -35z" />
    <glyph glyph-name="Obreve" unicode="&#x14e;" horiz-adv-x="840" 
d="M419 799q-74 0 -117.5 29.5t-47.5 87.5h89q4 -27 22.5 -39t54.5 -12q71 0 78 51h89q-6 -59 -48.5 -88t-119.5 -29zM420 757q111 0 198.5 -50t136.5 -138t49 -197t-49 -197t-136.5 -138t-198.5 -50t-198.5 50t-136.5 138t-49 197t49 197t136.5 138t198.5 50zM420 644
q-73 0 -130 -35t-88.5 -97t-31.5 -140t31.5 -140.5t88.5 -97.5t130 -35t130 35t88.5 97.5t31.5 140.5t-31.5 140t-88.5 97t-130 35z" />
    <glyph glyph-name="Ohungarumlaut" unicode="&#x150;" horiz-adv-x="840" 
d="M420 757q111 0 198.5 -50t136.5 -138t49 -197t-49 -197t-136.5 -138t-198.5 -50t-198.5 50t-136.5 138t-49 197t49 197t136.5 138t198.5 50zM420 644q-73 0 -130 -35t-88.5 -97t-31.5 -140t31.5 -140.5t88.5 -97.5t130 -35t130 35t88.5 97.5t31.5 140.5t-31.5 140
t-88.5 97t-130 35zM259 803l140 113h156l-148 -113h-148zM469 803l140 113h156l-148 -113h-148z" />
    <glyph glyph-name="Omacron" unicode="&#x14c;" horiz-adv-x="840" 
d="M264 904h311v-87h-311v87zM420 757q111 0 198.5 -50t136.5 -138t49 -197t-49 -197t-136.5 -138t-198.5 -50t-198.5 50t-136.5 138t-49 197t49 197t136.5 138t198.5 50zM420 644q-73 0 -130 -35t-88.5 -97t-31.5 -140t31.5 -140.5t88.5 -97.5t130 -35t130 35t88.5 97.5
t31.5 140.5t-31.5 140t-88.5 97t-130 35z" />
    <glyph glyph-name="uni1ECC" unicode="&#x1ecc;" horiz-adv-x="840" 
d="M420 -54q28 0 47 -19t19 -47q0 -27 -19 -46.5t-47 -19.5q-27 0 -46.5 19.5t-19.5 46.5q0 28 19.5 47t46.5 19zM420 757q111 0 198.5 -50t136.5 -138t49 -197t-49 -197t-136.5 -138t-198.5 -50t-198.5 50t-136.5 138t-49 197t49 197t136.5 138t198.5 50zM420 644
q-73 0 -130 -35t-88.5 -97t-31.5 -140t31.5 -140.5t88.5 -97.5t130 -35t130 35t88.5 97.5t31.5 140.5t-31.5 140t-88.5 97t-130 35z" />
    <glyph glyph-name="Racute" unicode="&#x154;" horiz-adv-x="714" 
d="M546 0l-282 318h-60v-318h-127v745h258q127 0 194 -58.5t67 -155.5q0 -78 -45 -132.5t-131 -72.5l290 -326h-164zM204 422h119q67 0 103.5 28.5t36.5 80.5t-36.5 80.5t-103.5 28.5h-119v-218zM218 803l140 113h156l-148 -113h-148z" />
    <glyph glyph-name="Rcaron" unicode="&#x158;" horiz-adv-x="714" 
d="M546 0l-282 318h-60v-318h-127v745h258q127 0 194 -58.5t67 -155.5q0 -78 -45 -132.5t-131 -72.5l290 -326h-164zM204 422h119q67 0 103.5 28.5t36.5 80.5t-36.5 80.5t-103.5 28.5h-119v-218zM243 916l72 -55l70 55h133l-137 -113h-132l-138 113h132z" />
    <glyph glyph-name="uni0156" unicode="&#x156;" horiz-adv-x="714" 
d="M546 0l-282 318h-60v-318h-127v745h258q127 0 194 -58.5t67 -155.5q0 -78 -45 -132.5t-131 -72.5l290 -326h-164zM204 422h119q67 0 103.5 28.5t36.5 80.5t-36.5 80.5t-103.5 28.5h-119v-218zM335 -190q-19 6 -29.5 21.5t-10.5 37.5q0 26 18 44t44 18q25 0 43.5 -18.5
t18.5 -43.5q0 -17 -7.5 -33.5t-33.5 -59.5l-44 -77h-61z" />
    <glyph glyph-name="Sacute" unicode="&#x15a;" horiz-adv-x="645" 
d="M163 233q13 -75 57.5 -107t113.5 -32q62 0 104 27.5t42 79.5q0 46 -35.5 74t-102.5 43l-76 16q-100 21 -159 73t-59 140q0 66 36.5 113.5t97.5 72t132 24.5q69 0 128.5 -28t97.5 -79t46 -118h-126q-11 59 -52.5 87.5t-100.5 28.5q-60 0 -97.5 -26t-37.5 -70
q0 -43 31 -67.5t88 -36.5l74 -16q112 -24 175.5 -76t63.5 -144q0 -71 -36.5 -122t-99 -77t-138.5 -26q-124 0 -202.5 66t-91.5 180h127zM231 803l140 113h156l-148 -113h-148z" />
    <glyph glyph-name="Scaron" unicode="&#x160;" horiz-adv-x="645" 
d="M163 233q13 -75 57.5 -107t113.5 -32q62 0 104 27.5t42 79.5q0 46 -35.5 74t-102.5 43l-76 16q-100 21 -159 73t-59 140q0 66 36.5 113.5t97.5 72t132 24.5q69 0 128.5 -28t97.5 -79t46 -118h-126q-11 59 -52.5 87.5t-100.5 28.5q-60 0 -97.5 -26t-37.5 -70
q0 -43 31 -67.5t88 -36.5l74 -16q112 -24 175.5 -76t63.5 -144q0 -71 -36.5 -122t-99 -77t-138.5 -26q-124 0 -202.5 66t-91.5 180h127zM252 916l72 -55l70 55h133l-137 -113h-132l-138 113h132z" />
    <glyph glyph-name="Scedilla" unicode="&#x15e;" horiz-adv-x="645" 
d="M163 233q13 -75 57.5 -107t113.5 -32q62 0 104 27.5t42 79.5q0 46 -35.5 74t-102.5 43l-76 16q-100 21 -159 73t-59 140q0 66 36.5 113.5t97.5 72t132 24.5q69 0 128.5 -28t97.5 -79t46 -118h-126q-11 59 -52.5 87.5t-100.5 28.5q-60 0 -97.5 -26t-37.5 -70
q0 -43 31 -67.5t88 -36.5l74 -16q112 -24 175.5 -76t63.5 -144q0 -71 -36.5 -122t-99 -77t-138.5 -26q-124 0 -202.5 66t-91.5 180h127zM288 -148q24 0 40.5 7.5t16.5 22.5q0 13 -11.5 20.5t-29.5 7.5q-26 0 -39 -9l-28 17l53 86h50l-33 -54q18 3 37 3q32 -1 53.5 -19.5
t21.5 -48.5q0 -38 -33 -59t-80 -21q-54 0 -91 16l16 44q28 -13 57 -13z" />
    <glyph glyph-name="Scircumflex" unicode="&#x15c;" horiz-adv-x="645" 
d="M163 233q13 -75 57.5 -107t113.5 -32q62 0 104 27.5t42 79.5q0 46 -35.5 74t-102.5 43l-76 16q-100 21 -159 73t-59 140q0 66 36.5 113.5t97.5 72t132 24.5q69 0 128.5 -28t97.5 -79t46 -118h-126q-11 59 -52.5 87.5t-100.5 28.5q-60 0 -97.5 -26t-37.5 -70
q0 -43 31 -67.5t88 -36.5l74 -16q112 -24 175.5 -76t63.5 -144q0 -71 -36.5 -122t-99 -77t-138.5 -26q-124 0 -202.5 66t-91.5 180h127zM386 803l-70 55l-72 -55h-132l139 113h132l136 -113h-133z" />
    <glyph glyph-name="uni0218" unicode="&#x218;" horiz-adv-x="645" 
d="M163 233q13 -75 57.5 -107t113.5 -32q62 0 104 27.5t42 79.5q0 46 -35.5 74t-102.5 43l-76 16q-100 21 -159 73t-59 140q0 66 36.5 113.5t97.5 72t132 24.5q69 0 128.5 -28t97.5 -79t46 -118h-126q-11 59 -52.5 87.5t-100.5 28.5q-60 0 -97.5 -26t-37.5 -70
q0 -43 31 -67.5t88 -36.5l74 -16q112 -24 175.5 -76t63.5 -144q0 -71 -36.5 -122t-99 -77t-138.5 -26q-124 0 -202.5 66t-91.5 180h127zM306 -190q-19 6 -29.5 21.5t-10.5 37.5q0 26 18 44t44 18q25 0 43.5 -18.5t18.5 -43.5q0 -17 -7.5 -33.5t-33.5 -59.5l-44 -77h-61z" />
    <glyph glyph-name="Tcaron" unicode="&#x164;" horiz-adv-x="591" 
d="M12 636v109h566v-109h-220v-636h-127v636h-219zM224 916l72 -55l70 55h133l-137 -113h-132l-138 113h132z" />
    <glyph glyph-name="uni0162" unicode="&#x162;" horiz-adv-x="591" 
d="M12 636v109h566v-109h-220v-636h-127v636h-219zM268 -190q-19 6 -29.5 21.5t-10.5 37.5q0 26 18 44t44 18q25 0 43.5 -18.5t18.5 -43.5q0 -17 -7.5 -33.5t-33.5 -59.5l-44 -77h-61z" />
    <glyph glyph-name="uni021A" unicode="&#x21a;" horiz-adv-x="591" 
d="M12 636v109h566v-109h-220v-636h-127v636h-219zM268 -190q-19 6 -29.5 21.5t-10.5 37.5q0 26 18 44t44 18q25 0 43.5 -18.5t18.5 -43.5q0 -17 -7.5 -33.5t-33.5 -59.5l-44 -77h-61z" />
    <glyph glyph-name="Ubreve" unicode="&#x16c;" horiz-adv-x="731" 
d="M364 799q-74 0 -117.5 29.5t-47.5 87.5h89q4 -27 22.5 -39t54.5 -12q71 0 78 51h89q-6 -59 -48.5 -88t-119.5 -29zM71 745h127v-467q0 -89 43 -136t125 -47q81 0 124.5 47.5t43.5 135.5v467h126v-474q0 -86 -36.5 -150.5t-103 -99t-154.5 -34.5t-155 34t-103.5 98.5
t-36.5 151.5v474z" />
    <glyph glyph-name="Uhungarumlaut" unicode="&#x170;" horiz-adv-x="731" 
d="M71 745h127v-467q0 -89 43 -136t125 -47q81 0 124.5 47.5t43.5 135.5v467h126v-474q0 -86 -36.5 -150.5t-103 -99t-154.5 -34.5t-155 34t-103.5 98.5t-36.5 151.5v474zM181 803l140 113h156l-148 -113h-148zM391 803l140 113h156l-148 -113h-148z" />
    <glyph glyph-name="Umacron" unicode="&#x16a;" horiz-adv-x="731" 
d="M210 904h311v-87h-311v87zM71 745h127v-467q0 -89 43 -136t125 -47q81 0 124.5 47.5t43.5 135.5v467h126v-474q0 -86 -36.5 -150.5t-103 -99t-154.5 -34.5t-155 34t-103.5 98.5t-36.5 151.5v474z" />
    <glyph glyph-name="Uogonek" unicode="&#x172;" horiz-adv-x="731" 
d="M71 745h127v-467q0 -89 43 -136t125 -47q81 0 124.5 47.5t43.5 135.5v467h126v-474q0 -86 -36.5 -150.5t-103 -99t-154.5 -34.5t-155 34t-103.5 98.5t-36.5 151.5v474zM355 -75q0 -19 13 -28.5t34 -9.5q20 0 46 8v-75q-32 -8 -71 -8q-55 0 -93 23t-38 69q0 31 20.5 55
t54.5 41h127q-47 -22 -70 -39t-23 -36z" />
    <glyph glyph-name="Uring" unicode="&#x16e;" horiz-adv-x="731" 
d="M71 745h127v-467q0 -89 43 -136t125 -47q81 0 124.5 47.5t43.5 135.5v467h126v-474q0 -86 -36.5 -150.5t-103 -99t-154.5 -34.5t-155 34t-103.5 98.5t-36.5 151.5v474zM365 795q-38 0 -64 24.5t-26 60.5q0 37 26.5 61t63.5 24q38 0 64.5 -24t26.5 -61t-26 -61t-65 -24z
M365 837q19 0 32 12t13 31t-13.5 31.5t-31.5 12.5q-17 0 -30.5 -12.5t-13.5 -31.5t13.5 -31t30.5 -12z" />
    <glyph glyph-name="Utilde" unicode="&#x168;" horiz-adv-x="731" 
d="M71 745h127v-467q0 -89 43 -136t125 -47q81 0 124.5 47.5t43.5 135.5v467h126v-474q0 -86 -36.5 -150.5t-103 -99t-154.5 -34.5t-155 34t-103.5 98.5t-36.5 151.5v474zM566 920q-11 -66 -48.5 -93.5t-79.5 -27.5q-23 0 -40 6.5t-38 18.5q-15 9 -25 13.5t-22 4.5
q-40 0 -48 -43h-86q11 67 49.5 94t80.5 27q22 0 38.5 -6t34.5 -18q17 -9 27 -13.5t23 -4.5q39 0 50 42h84z" />
    <glyph glyph-name="uni1EE4" unicode="&#x1ee4;" horiz-adv-x="731" 
d="M71 745h127v-467q0 -89 43 -136t125 -47q81 0 124.5 47.5t43.5 135.5v467h126v-474q0 -86 -36.5 -150.5t-103 -99t-154.5 -34.5t-155 34t-103.5 98.5t-36.5 151.5v474zM365 -54q28 0 47 -19t19 -47q0 -27 -19 -46.5t-47 -19.5q-27 0 -46.5 19.5t-19.5 46.5q0 28 19.5 47
t46.5 19z" />
    <glyph glyph-name="Wacute" unicode="&#x1e82;" horiz-adv-x="991" 
d="M168 745l119 -571l135 571h147l143 -573l113 573h129l-159 -745h-149l-151 594l-150 -594h-150l-159 745h132zM426 803l140 113h156l-148 -113h-148z" />
    <glyph glyph-name="Wcircumflex" unicode="&#x174;" horiz-adv-x="991" 
d="M566 803l-70 55l-72 -55h-132l139 113h132l136 -113h-133zM168 745l119 -571l135 571h147l143 -573l113 573h129l-159 -745h-149l-151 594l-150 -594h-150l-159 745h132z" />
    <glyph glyph-name="Wdieresis" unicode="&#x1e84;" horiz-adv-x="991" 
d="M375 927q28 0 47 -19t19 -47q0 -27 -19 -46.5t-47 -19.5q-27 0 -46.5 19.5t-19.5 46.5q0 28 19.5 47t46.5 19zM614 927q27 0 46.5 -19t19.5 -47q0 -27 -19.5 -46.5t-46.5 -19.5q-28 0 -47 19.5t-19 46.5q0 28 19 47t47 19zM168 745l119 -571l135 571h147l143 -573
l113 573h129l-159 -745h-149l-151 594l-150 -594h-150l-159 745h132z" />
    <glyph glyph-name="Wgrave" unicode="&#x1e80;" horiz-adv-x="991" 
d="M168 745l119 -571l135 571h147l143 -573l113 573h129l-159 -745h-149l-151 594l-150 -594h-150l-159 745h132zM561 803h-148l-149 113h157z" />
    <glyph glyph-name="Ycircumflex" unicode="&#x176;" horiz-adv-x="753" 
d="M447 803l-70 55l-72 -55h-132l139 113h132l136 -113h-133zM376 447l224 298h146l-310 -408v-337h-127v339l-302 406h149z" />
    <glyph glyph-name="Ydieresis" unicode="&#x178;" horiz-adv-x="753" 
d="M257 927q28 0 47 -19t19 -47q0 -27 -19 -46.5t-47 -19.5q-27 0 -46.5 19.5t-19.5 46.5q0 28 19.5 47t46.5 19zM496 927q27 0 46.5 -19t19.5 -47q0 -27 -19.5 -46.5t-46.5 -19.5q-28 0 -47 19.5t-19 46.5q0 28 19 47t47 19zM376 447l224 298h146l-310 -408v-337h-127v339
l-302 406h149z" />
    <glyph glyph-name="Ygrave" unicode="&#x1ef2;" horiz-adv-x="753" 
d="M376 447l224 298h146l-310 -408v-337h-127v339l-302 406h149zM470 803h-148l-149 113h157z" />
    <glyph glyph-name="uni0232" unicode="&#x232;" horiz-adv-x="753" 
d="M221 904h311v-87h-311v87zM376 447l224 298h146l-310 -408v-337h-127v339l-302 406h149z" />
    <glyph glyph-name="Zacute" unicode="&#x179;" horiz-adv-x="661" 
d="M449 636h-386v109h540v-101l-407 -535h418v-109h-574v101zM227 803l140 113h156l-148 -113h-148z" />
    <glyph glyph-name="Zcaron" unicode="&#x17d;" horiz-adv-x="661" 
d="M449 636h-386v109h540v-101l-407 -535h418v-109h-574v101zM263 916l72 -55l70 55h133l-137 -113h-132l-138 113h132z" />
    <glyph glyph-name="Zdotaccent" unicode="&#x17b;" horiz-adv-x="661" 
d="M449 636h-386v109h540v-101l-407 -535h418v-109h-574v101zM332 927q28 0 47 -19t19 -47q0 -27 -19 -46.5t-47 -19.5t-47 19.5t-19 46.5q0 28 19 47t47 19z" />
    <glyph glyph-name="abreve" unicode="&#x103;" horiz-adv-x="577" 
d="M233 -13q-57 0 -99.5 22.5t-65 60t-22.5 80.5q0 78 63 117t184 59q59 10 80 22.5t21 40.5q0 35 -27 54.5t-73 19.5q-56 0 -90.5 -28.5t-37.5 -77.5h-107q1 54 30 99t81.5 71t121.5 26q104 0 163 -46t59 -158v-349h-111v65q-24 -36 -67 -57t-103 -21zM272 241
q-57 -16 -78.5 -35t-21.5 -50q0 -36 26 -57t68 -21q62 0 97.5 30t35.5 93v79q-27 -12 -63 -22t-64 -17zM125 745h89q7 -56 76 -56q35 0 54.5 15t22.5 41h88q-6 -56 -47 -89.5t-119 -33.5q-77 0 -118 33.5t-46 89.5z" />
    <glyph glyph-name="amacron" unicode="&#x101;" horiz-adv-x="577" 
d="M233 -13q-57 0 -99.5 22.5t-65 60t-22.5 80.5q0 78 63 117t184 59q59 10 80 22.5t21 40.5q0 35 -27 54.5t-73 19.5q-56 0 -90.5 -28.5t-37.5 -77.5h-107q1 54 30 99t81.5 71t121.5 26q104 0 163 -46t59 -158v-349h-111v65q-24 -36 -67 -57t-103 -21zM272 241
q-57 -16 -78.5 -35t-21.5 -50q0 -36 26 -57t68 -21q62 0 97.5 30t35.5 93v79q-27 -12 -63 -22t-64 -17zM137 733h306v-85h-306v85z" />
    <glyph glyph-name="aogonek" unicode="&#x105;" horiz-adv-x="577" 
d="M425 -75q0 -19 14.5 -28.5t35.5 -9.5q24 0 39 6v-74q-28 -7 -64 -7q-54 0 -89 22t-35 69q0 31 21 56t56 41v65q-24 -36 -67 -57t-103 -21q-57 0 -99.5 22.5t-65 60t-22.5 80.5q0 78 63 117t184 59q59 10 80 22.5t21 40.5q0 35 -27 54.5t-73 19.5q-56 0 -90.5 -28.5
t-37.5 -77.5h-107q1 54 30 99t81.5 71t121.5 26q104 0 163 -46t59 -158v-349q-47 -23 -68 -38.5t-21 -36.5zM399 280q-27 -12 -63 -22t-43 -12q-10 -1 -21 -5q-57 -16 -78.5 -35t-21.5 -50q0 -36 26 -57t68 -21q62 0 97.5 30t35.5 93v79z" />
    <glyph glyph-name="cacute" unicode="&#x107;" horiz-adv-x="608" 
d="M310 551q104 0 176.5 -58.5t92.5 -157.5h-126q-13 55 -50 84t-93 29q-71 0 -113.5 -50.5t-42.5 -128.5t42.5 -128.5t113.5 -50.5q56 0 93 29t50 84h126q-20 -99 -92.5 -157.5t-176.5 -58.5q-81 0 -145 36.5t-99.5 101t-35.5 144.5t35.5 144.5t99.5 101t145 36.5zM533 745
l-147 -116h-150l142 116h155z" />
    <glyph glyph-name="ccaron" unicode="&#x10d;" horiz-adv-x="608" 
d="M310 551q104 0 176.5 -58.5t92.5 -157.5h-126q-13 55 -50 84t-93 29q-71 0 -113.5 -50.5t-42.5 -128.5t42.5 -128.5t113.5 -50.5q56 0 93 29t50 84h126q-20 -99 -92.5 -157.5t-176.5 -58.5q-81 0 -145 36.5t-99.5 101t-35.5 144.5t35.5 144.5t99.5 101t145 36.5zM251 745
l68 -51l68 51h129l-143 -116h-109l-142 116h129z" />
    <glyph glyph-name="ccircumflex" unicode="&#x109;" horiz-adv-x="608" 
d="M310 551q104 0 176.5 -58.5t92.5 -157.5h-126q-13 55 -50 84t-93 29q-71 0 -113.5 -50.5t-42.5 -128.5t42.5 -128.5t113.5 -50.5q56 0 93 29t50 84h126q-20 -99 -92.5 -157.5t-176.5 -58.5q-81 0 -145 36.5t-99.5 101t-35.5 144.5t35.5 144.5t99.5 101t145 36.5zM383 629
l-68 51l-68 -51h-129l142 116h109l143 -116h-129z" />
    <glyph glyph-name="cdotaccent" unicode="&#x10b;" horiz-adv-x="608" 
d="M310 551q104 0 176.5 -58.5t92.5 -157.5h-126q-13 55 -50 84t-93 29q-71 0 -113.5 -50.5t-42.5 -128.5t42.5 -128.5t113.5 -50.5q56 0 93 29t50 84h126q-20 -99 -92.5 -157.5t-176.5 -58.5q-81 0 -145 36.5t-99.5 101t-35.5 144.5t35.5 144.5t99.5 101t145 36.5zM307 756
q28 0 47 -19t19 -46q0 -28 -19 -47t-47 -19q-27 0 -46.5 19t-19.5 47q0 27 19.5 46t46.5 19z" />
    <glyph glyph-name="dcaron" unicode="&#x10f;" horiz-adv-x="764" 
d="M287 551q51 0 99 -22t74 -63v279h122v-745h-122v72q-26 -41 -74 -63t-99 -22q-70 0 -128.5 35.5t-93.5 100t-35 146.5t35 146.5t93.5 100t128.5 35.5zM467 269q0 83 -44 133t-113 50q-68 0 -111.5 -50t-43.5 -133t43.5 -133t111.5 -50q69 0 113 50t44 133zM618 575
l30 170h117l-66 -170h-81z" />
    <glyph glyph-name="dcroat" unicode="&#x111;" horiz-adv-x="665" 
d="M679 599h-97v-599h-122v72q-26 -41 -74 -63t-99 -22q-70 0 -128.5 35.5t-93.5 100t-35 146.5t35 146.5t93.5 100t128.5 35.5q51 0 99 -22t74 -63v133h-128v76h128v70h122v-70h97v-76zM467 269q0 83 -44 133t-113 50q-68 0 -111.5 -50t-43.5 -133t43.5 -133t111.5 -50
q69 0 113 50t44 133z" />
    <glyph glyph-name="ebreve" unicode="&#x115;" horiz-adv-x="611" 
d="M139 745h89q7 -56 76 -56q35 0 54.5 15t22.5 41h88q-6 -56 -47 -89.5t-119 -33.5q-77 0 -118 33.5t-46 89.5zM581 237h-427q8 -65 52 -107t107 -42q51 0 84.5 21t52.5 63h125q-26 -86 -97.5 -135.5t-168.5 -49.5q-81 0 -144.5 37t-99 101t-35.5 144q0 79 35.5 143.5
t99 101.5t144.5 37q84 0 146.5 -40t95.5 -111t30 -163zM456 324q-8 62 -50 96.5t-99 34.5t-98.5 -36t-51.5 -95h299z" />
    <glyph glyph-name="ecaron" unicode="&#x11b;" horiz-adv-x="611" 
d="M238 745l68 -51l68 51h129l-143 -116h-109l-142 116h129zM581 237h-427q8 -65 52 -107t107 -42q51 0 84.5 21t52.5 63h125q-26 -86 -97.5 -135.5t-168.5 -49.5q-81 0 -144.5 37t-99 101t-35.5 144q0 79 35.5 143.5t99 101.5t144.5 37q84 0 146.5 -40t95.5 -111t30 -163z
M456 324q-8 62 -50 96.5t-99 34.5t-98.5 -36t-51.5 -95h299z" />
    <glyph glyph-name="emacron" unicode="&#x113;" horiz-adv-x="611" 
d="M152 733h306v-85h-306v85zM581 237h-427q8 -65 52 -107t107 -42q51 0 84.5 21t52.5 63h125q-26 -86 -97.5 -135.5t-168.5 -49.5q-81 0 -144.5 37t-99 101t-35.5 144q0 79 35.5 143.5t99 101.5t144.5 37q84 0 146.5 -40t95.5 -111t30 -163zM456 324q-8 62 -50 96.5
t-99 34.5t-98.5 -36t-51.5 -95h299z" />
    <glyph glyph-name="eogonek" unicode="&#x119;" horiz-adv-x="611" 
d="M253 -97q0 22 13 44.5t41 39.5q-80 0 -143 37t-98.5 101t-35.5 144q0 79 35.5 143.5t99 101.5t144.5 37q84 0 146.5 -40t95.5 -111t30 -163h-427q8 -65 52 -107t107 -42q51 0 84.5 21t52.5 63h125q-26 -85 -104 -135q-47 -31 -78.5 -59.5t-31.5 -52.5q0 -19 13.5 -28.5
t34.5 -9.5q22 0 41 6v-74q-28 -7 -66 -7q-55 0 -93 23t-38 68zM456 324q-8 62 -50 96.5t-99 34.5t-98.5 -36t-51.5 -95h299z" />
    <glyph glyph-name="edotaccent" unicode="&#x117;" horiz-adv-x="611" 
d="M306 756q28 0 47 -19t19 -46q0 -28 -19 -47t-47 -19q-27 0 -46.5 19t-19.5 47q0 27 19.5 46t46.5 19zM581 237h-427q8 -65 52 -107t107 -42q51 0 84.5 21t52.5 63h125q-26 -86 -97.5 -135.5t-168.5 -49.5q-81 0 -144.5 37t-99 101t-35.5 144q0 79 35.5 143.5t99 101.5
t144.5 37q84 0 146.5 -40t95.5 -111t30 -163zM456 324q-8 62 -50 96.5t-99 34.5t-98.5 -36t-51.5 -95h299z" />
    <glyph glyph-name="gbreve" unicode="&#x11f;" horiz-adv-x="659" 
d="M185 -42q12 -34 45.5 -51t81.5 -17q67 0 110 32t43 110v49q-25 -40 -73 -61t-100 -21q-70 0 -128.5 34.5t-93.5 97t-35 144.5t35 144.5t93.5 97t128.5 34.5q52 0 100 -21t73 -61v69h122v-483q0 -263 -282 -263q-88 0 -155.5 42.5t-84.5 123.5h120zM316 452
q-68 0 -111.5 -47.5t-43.5 -129.5t43.5 -129.5t111.5 -47.5q69 0 112.5 47.5t43.5 129.5t-43.5 129.5t-112.5 47.5zM153 745h89q7 -56 76 -56q35 0 54.5 15t22.5 41h88q-6 -56 -47 -89.5t-119 -33.5q-77 0 -118 33.5t-46 89.5z" />
    <glyph glyph-name="gcircumflex" unicode="&#x11d;" horiz-adv-x="659" 
d="M185 -42q12 -34 45.5 -51t81.5 -17q67 0 110 32t43 110v49q-25 -40 -73 -61t-100 -21q-70 0 -128.5 34.5t-93.5 97t-35 144.5t35 144.5t93.5 97t128.5 34.5q52 0 100 -21t73 -61v69h122v-483q0 -263 -282 -263q-88 0 -155.5 42.5t-84.5 123.5h120zM316 452
q-68 0 -111.5 -47.5t-43.5 -129.5t43.5 -129.5t111.5 -47.5q69 0 112.5 47.5t43.5 129.5t-43.5 129.5t-112.5 47.5zM388 629l-68 51l-68 -51h-129l142 116h109l143 -116h-129z" />
    <glyph glyph-name="uni0123" unicode="&#x123;" horiz-adv-x="659" 
d="M326 754q19 -6 29.5 -21.5t10.5 -37.5q0 -26 -18 -44t-44 -18q-25 0 -43.5 18.5t-18.5 43.5q0 17 7.5 33.5t33.5 59.5l44 77h61zM185 -42q12 -34 45.5 -51t81.5 -17q67 0 110 32t43 110v49q-25 -40 -73 -61t-100 -21q-70 0 -128.5 34.5t-93.5 97t-35 144.5t35 144.5
t93.5 97t128.5 34.5q52 0 100 -21t73 -61v69h122v-483q0 -263 -282 -263q-88 0 -155.5 42.5t-84.5 123.5h120zM316 452q-68 0 -111.5 -47.5t-43.5 -129.5t43.5 -129.5t111.5 -47.5q69 0 112.5 47.5t43.5 129.5t-43.5 129.5t-112.5 47.5z" />
    <glyph glyph-name="gdotaccent" unicode="&#x121;" horiz-adv-x="659" 
d="M185 -42q12 -34 45.5 -51t81.5 -17q67 0 110 32t43 110v49q-25 -40 -73 -61t-100 -21q-70 0 -128.5 34.5t-93.5 97t-35 144.5t35 144.5t93.5 97t128.5 34.5q52 0 100 -21t73 -61v69h122v-483q0 -263 -282 -263q-88 0 -155.5 42.5t-84.5 123.5h120zM316 452
q-68 0 -111.5 -47.5t-43.5 -129.5t43.5 -129.5t111.5 -47.5q69 0 112.5 47.5t43.5 129.5t-43.5 129.5t-112.5 47.5zM311 756q28 0 47 -19t19 -46q0 -28 -19 -47t-47 -19q-27 0 -46.5 19t-19.5 47q0 27 19.5 46t46.5 19z" />
    <glyph glyph-name="hbar" unicode="&#x127;" horiz-adv-x="611" 
d="M548 340v-340h-122v318q0 68 -27 101t-77 33t-79.5 -33.5t-29.5 -100.5v-318h-122v599h-105v76h105v70h122v-70h121v-76h-121v-128q46 80 153 80q92 0 137 -55t45 -156z" />
    <glyph glyph-name="hcircumflex" unicode="&#x125;" horiz-adv-x="592" 
d="M194 745v-274q46 80 153 80q92 0 137 -55t45 -156v-340h-122v318q0 68 -27 101t-77 33t-79.5 -33.5t-29.5 -100.5v-318h-122v745h122zM418 629l-53 59l-53 -59h-100l107 116h93l107 -116h-101z" />
    <glyph glyph-name="dotlessi" unicode="&#x131;" horiz-adv-x="266" 
d="M194 538v-538h-122v538h122z" />
    <glyph glyph-name="ibreve" unicode="&#x12d;" horiz-adv-x="266" 
d="M194 538v-538h-122v538h122zM-31 745h89q7 -56 76 -56q35 0 54.5 15t22.5 41h88q-6 -56 -47 -89.5t-119 -33.5q-77 0 -118 33.5t-46 89.5z" />
    <glyph glyph-name="imacron" unicode="&#x12b;" horiz-adv-x="266" 
d="M194 538v-538h-122v538h122zM-19 733h306v-85h-306v85z" />
    <glyph glyph-name="iogonek" unicode="&#x12f;" horiz-adv-x="267" 
d="M106 -75q0 -19 13.5 -28.5t34.5 -9.5t41 6v-74q-28 -7 -66 -7q-55 0 -93 23t-38 68q0 31 20.5 55.5t54.5 41.5h122q-47 -23 -68 -38.5t-21 -36.5zM194 538v-538h-122v538h122zM208 698q0 -31 -22 -53t-53 -22q-30 0 -52.5 22t-22.5 53t22.5 53t52.5 22q31 0 53 -22
t22 -53z" />
    <glyph glyph-name="itilde" unicode="&#x129;" horiz-adv-x="266" 
d="M194 538v-538h-122v538h122zM330 745q-18 -121 -126 -121q-22 0 -39 6.5t-41 19.5q-16 9 -27.5 14t-22.5 5q-41 0 -49 -45h-87q19 121 127 121q23 0 39.5 -6.5t37.5 -19.5q17 -10 28 -14.5t24 -4.5q41 0 50 45h86z" />
    <glyph glyph-name="uni1ECB" unicode="&#x1ecb;" horiz-adv-x="267" 
d="M133 -54q28 0 47 -19t19 -47q0 -27 -19 -46.5t-47 -19.5q-27 0 -46.5 19.5t-19.5 46.5q0 28 19.5 47t46.5 19zM194 538v-538h-122v538h122zM208 698q0 -31 -22 -53t-53 -22q-30 0 -52.5 22t-22.5 53t22.5 53t52.5 22q31 0 53 -22t22 -53z" />
    <glyph glyph-name="uni0237" unicode="&#x237;" horiz-adv-x="269" 
d="M-37 -97q20 -4 39 -4q40 0 56.5 21t16.5 75v543h122v-539q0 -110 -42.5 -155t-127.5 -45q-33 0 -64 4v100z" />
    <glyph glyph-name="jcircumflex" unicode="&#x135;" horiz-adv-x="268" 
d="M-37 -97q20 -4 39 -4q40 0 56.5 21t16.5 75v543h122v-539q0 -110 -42.5 -155t-127.5 -45q-33 0 -64 4v100zM201 629l-68 51l-68 -51h-129l142 116h109l143 -116h-129z" />
    <glyph glyph-name="uni0137" unicode="&#x137;" horiz-adv-x="575" 
d="M428 0l-234 235v-235h-122v745h122v-440l216 233h141l-241 -257l270 -281h-152zM275 -190q-19 6 -29.5 21.5t-10.5 37.5q0 26 18 44t44 18q25 0 43.5 -18.5t18.5 -43.5q0 -17 -7.5 -33.5t-33.5 -59.5l-44 -77h-61z" />
    <glyph glyph-name="lacute" unicode="&#x13a;" horiz-adv-x="266" 
d="M194 745v-745h-122v745h122zM47 803l140 113h156l-148 -113h-148z" />
    <glyph glyph-name="lcaron" unicode="&#x13e;" horiz-adv-x="380" 
d="M194 745v-745h-122v745h122zM234 575l30 170h117l-66 -170h-81z" />
    <glyph glyph-name="uni013C" unicode="&#x13c;" horiz-adv-x="266" 
d="M194 745v-745h-122v745h122zM115 -190q-19 6 -29.5 21.5t-10.5 37.5q0 26 18 44t44 18q25 0 43.5 -18.5t18.5 -43.5q0 -17 -7.5 -33.5t-33.5 -59.5l-44 -77h-61z" />
    <glyph glyph-name="ldot" unicode="&#x140;" horiz-adv-x="375" 
d="M194 745v-745h-122v745h122zM312 510q28 0 47 -19t19 -46q0 -28 -19 -47t-47 -19q-27 0 -46.5 19t-19.5 47q0 27 19.5 46t46.5 19z" />
    <glyph glyph-name="lslash" unicode="&#x142;" horiz-adv-x="308" 
d="M296 416l-81 -46v-370h-122v301l-81 -46v103l81 46v341h122v-272l81 46v-103z" />
    <glyph glyph-name="nacute" unicode="&#x144;" horiz-adv-x="592" 
d="M194 538v-67q46 80 153 80q92 0 137 -55t45 -156v-340h-122v318q0 68 -27 101t-77 33t-79.5 -33.5t-29.5 -100.5v-318h-122v538h122zM538 745l-147 -116h-150l142 116h155z" />
    <glyph glyph-name="ncaron" unicode="&#x148;" horiz-adv-x="592" 
d="M194 538v-67q46 80 153 80q92 0 137 -55t45 -156v-340h-122v318q0 68 -27 101t-77 33t-79.5 -33.5t-29.5 -100.5v-318h-122v538h122zM246 745l68 -51l68 51h129l-143 -116h-109l-142 116h129z" />
    <glyph glyph-name="uni0146" unicode="&#x146;" horiz-adv-x="592" 
d="M194 538v-67q46 80 153 80q92 0 137 -55t45 -156v-340h-122v318q0 68 -27 101t-77 33t-79.5 -33.5t-29.5 -100.5v-318h-122v538h122zM277 -190q-19 6 -29.5 21.5t-10.5 37.5q0 26 18 44t44 18q25 0 43.5 -18.5t18.5 -43.5q0 -17 -7.5 -33.5t-33.5 -59.5l-44 -77h-61z" />
    <glyph glyph-name="oe" unicode="&#x153;" horiz-adv-x="1047" 
d="M1018 237h-428q8 -65 52 -107t108 -42q51 0 84 21t52 63h125q-25 -85 -96.5 -135t-168.5 -50q-68 0 -123.5 27t-91.5 75q-37 -49 -92.5 -75.5t-124.5 -26.5q-82 0 -146.5 36t-101 100.5t-36.5 145.5t36.5 145.5t101.5 100.5t146 36q69 0 125 -27t92 -75q36 48 91.5 75
t123.5 27q83 0 145.5 -40t95.5 -111t31 -163zM892 324q-8 62 -49.5 96.5t-99.5 34.5q-57 0 -98.5 -36t-51.5 -95h299zM475 269q0 51 -20.5 91.5t-57 64t-83.5 23.5q-48 0 -84.5 -23.5t-56.5 -64t-20 -91.5q0 -78 44.5 -128.5t116.5 -50.5q47 0 83.5 23t57 64t20.5 92z" />
    <glyph glyph-name="obreve" unicode="&#x14f;" horiz-adv-x="628" 
d="M149 745h89q7 -56 76 -56q35 0 54.5 15t22.5 41h88q-6 -56 -47 -89.5t-119 -33.5q-77 0 -118 33.5t-46 89.5zM30 269q0 81 36.5 145.5t101 100.5t146.5 36t146.5 -36t101 -100.5t36.5 -145.5t-36.5 -145.5t-101 -100.5t-146.5 -36t-146.5 36t-101 100.5t-36.5 145.5z
M154 269q0 -78 44 -128.5t116 -50.5t116 50.5t44 128.5t-44 128.5t-116 50.5t-116 -50.5t-44 -128.5z" />
    <glyph glyph-name="ohungarumlaut" unicode="&#x151;" horiz-adv-x="628" 
d="M30 269q0 81 36.5 145.5t101 100.5t146.5 36t146.5 -36t101 -100.5t36.5 -145.5t-36.5 -145.5t-101 -100.5t-146.5 -36t-146.5 36t-101 100.5t-36.5 145.5zM154 269q0 -78 44 -128.5t116 -50.5t116 50.5t44 128.5t-44 128.5t-116 50.5t-116 -50.5t-44 -128.5zM431 745
l-147 -116h-150l142 116h155zM646 745l-146 -116h-150l142 116h154z" />
    <glyph glyph-name="omacron" unicode="&#x14d;" horiz-adv-x="628" 
d="M160 733h306v-85h-306v85zM30 269q0 81 36.5 145.5t101 100.5t146.5 36t146.5 -36t101 -100.5t36.5 -145.5t-36.5 -145.5t-101 -100.5t-146.5 -36t-146.5 36t-101 100.5t-36.5 145.5zM154 269q0 -78 44 -128.5t116 -50.5t116 50.5t44 128.5t-44 128.5t-116 50.5
t-116 -50.5t-44 -128.5z" />
    <glyph glyph-name="uni1ECD" unicode="&#x1ecd;" horiz-adv-x="628" 
d="M30 269q0 81 36.5 145.5t101 100.5t146.5 36t146.5 -36t101 -100.5t36.5 -145.5t-36.5 -145.5t-101 -100.5t-146.5 -36t-146.5 36t-101 100.5t-36.5 145.5zM154 269q0 -78 44 -128.5t116 -50.5t116 50.5t44 128.5t-44 128.5t-116 50.5t-116 -50.5t-44 -128.5zM311 -54
q28 0 47 -19t19 -47q0 -27 -19 -46.5t-47 -19.5q-27 0 -46.5 19.5t-19.5 46.5q0 28 19.5 47t46.5 19z" />
    <glyph glyph-name="racute" unicode="&#x155;" horiz-adv-x="382" 
d="M192 538v-99q22 49 61.5 74.5t91.5 25.5q9 0 27 -2v-116q-2 1 -47 1q-68 0 -99.5 -32t-31.5 -108v-282h-122v538h120zM439 745l-147 -116h-150l142 116h155z" />
    <glyph glyph-name="rcaron" unicode="&#x159;" horiz-adv-x="382" 
d="M192 538v-99q22 49 61.5 74.5t91.5 25.5q9 0 27 -2v-116q-2 1 -47 1q-68 0 -99.5 -32t-31.5 -108v-282h-122v538h120zM152 745l68 -51l68 51h129l-143 -116h-109l-142 116h129z" />
    <glyph glyph-name="uni0157" unicode="&#x157;" horiz-adv-x="382" 
d="M192 538v-99q22 49 61.5 74.5t91.5 25.5q9 0 27 -2v-116q-2 1 -47 1q-68 0 -99.5 -32t-31.5 -108v-282h-122v538h120zM113 -190q-19 6 -29.5 21.5t-10.5 37.5q0 26 18 44t44 18q25 0 43.5 -18.5t18.5 -43.5q0 -17 -7.5 -33.5t-33.5 -59.5l-44 -77h-61z" />
    <glyph glyph-name="sacute" unicode="&#x15b;" horiz-adv-x="544" 
d="M155 174q9 -46 41.5 -70t85.5 -24q43 0 74 17.5t31 49.5q0 31 -24 48t-72 26l-71 14q-78 14 -124.5 55t-46.5 106q0 46 28 82t76 56t107 20q91 0 153.5 -41t74.5 -130h-112q-10 41 -40.5 60.5t-76.5 19.5q-41 0 -69.5 -17t-28.5 -45q0 -53 82 -69l66 -12
q90 -17 142 -53.5t52 -106.5q0 -54 -30 -93t-81 -59.5t-113 -20.5q-98 0 -162 46t-78 141h116zM491 745l-147 -116h-150l142 116h155z" />
    <glyph glyph-name="scaron" unicode="&#x161;" horiz-adv-x="544" 
d="M155 174q9 -46 41.5 -70t85.5 -24q43 0 74 17.5t31 49.5q0 31 -24 48t-72 26l-71 14q-78 14 -124.5 55t-46.5 106q0 46 28 82t76 56t107 20q91 0 153.5 -41t74.5 -130h-112q-10 41 -40.5 60.5t-76.5 19.5q-41 0 -69.5 -17t-28.5 -45q0 -53 82 -69l66 -12
q90 -17 142 -53.5t52 -106.5q0 -54 -30 -93t-81 -59.5t-113 -20.5q-98 0 -162 46t-78 141h116zM204 745l68 -51l68 51h129l-143 -116h-109l-142 116h129z" />
    <glyph glyph-name="scedilla" unicode="&#x15f;" horiz-adv-x="544" 
d="M155 174q9 -46 41.5 -70t85.5 -24q43 0 74 17.5t31 49.5q0 31 -24 48t-72 26l-71 14q-78 14 -124.5 55t-46.5 106q0 46 28 82t76 56t107 20q91 0 153.5 -41t74.5 -130h-112q-10 41 -40.5 60.5t-76.5 19.5q-41 0 -69.5 -17t-28.5 -45q0 -53 82 -69l66 -12
q90 -17 142 -53.5t52 -106.5q0 -54 -30 -93t-81 -59.5t-113 -20.5q-98 0 -162 46t-78 141h116zM239 -148q25 0 41 7t16 22q0 14 -11 21.5t-30 7.5q-26 0 -39 -9l-28 16l53 86h50l-33 -53q12 2 37 2q32 0 53.5 -18.5t21.5 -48.5q0 -38 -33.5 -59.5t-79.5 -21.5
q-26 0 -47.5 3.5t-43.5 13.5l16 44q25 -13 57 -13z" />
    <glyph glyph-name="scircumflex" unicode="&#x15d;" horiz-adv-x="544" 
d="M155 174q9 -46 41.5 -70t85.5 -24q43 0 74 17.5t31 49.5q0 31 -24 48t-72 26l-71 14q-78 14 -124.5 55t-46.5 106q0 46 28 82t76 56t107 20q91 0 153.5 -41t74.5 -130h-112q-10 41 -40.5 60.5t-76.5 19.5q-41 0 -69.5 -17t-28.5 -45q0 -53 82 -69l66 -12
q90 -17 142 -53.5t52 -106.5q0 -54 -30 -93t-81 -59.5t-113 -20.5q-98 0 -162 46t-78 141h116zM328 629l-68 51l-68 -51h-129l142 116h109l143 -116h-129z" />
    <glyph glyph-name="uni0219" unicode="&#x219;" horiz-adv-x="544" 
d="M155 174q9 -46 41.5 -70t85.5 -24q43 0 74 17.5t31 49.5q0 31 -24 48t-72 26l-71 14q-78 14 -124.5 55t-46.5 106q0 46 28 82t76 56t107 20q91 0 153.5 -41t74.5 -130h-112q-10 41 -40.5 60.5t-76.5 19.5q-41 0 -69.5 -17t-28.5 -45q0 -53 82 -69l66 -12
q90 -17 142 -53.5t52 -106.5q0 -54 -30 -93t-81 -59.5t-113 -20.5q-98 0 -162 46t-78 141h116zM243 -190q-19 6 -29.5 21.5t-10.5 37.5q0 26 18 44t44 18q25 0 43.5 -18.5t18.5 -43.5q0 -17 -7.5 -33.5t-33.5 -59.5l-44 -77h-61z" />
    <glyph glyph-name="tcaron" unicode="&#x165;" horiz-adv-x="396" 
d="M315 591l30 154h117l-66 -154h-81zM97 447h-87v91h87v112l122 81v-193h124v-91h-124v-236q0 -60 18 -90.5t66 -30.5q9 0 39 4v-100q-26 -6 -70 -6q-87 0 -131 50t-44 159v250z" />
    <glyph glyph-name="uni0163" unicode="&#x163;" horiz-adv-x="381" 
d="M97 447h-87v91h87v112l122 81v-193h124v-91h-124v-236q0 -60 18 -90.5t66 -30.5q9 0 39 4v-100q-26 -6 -70 -6q-87 0 -131 50t-44 159v250zM154 -190q-19 6 -29.5 21.5t-10.5 37.5q0 26 18 44t44 18q25 0 43.5 -18.5t18.5 -43.5q0 -17 -7.5 -33.5t-33.5 -59.5l-44 -77
h-61z" />
    <glyph glyph-name="uni021B" unicode="&#x21b;" horiz-adv-x="381" 
d="M97 447h-87v91h87v112l122 81v-193h124v-91h-124v-236q0 -60 18 -90.5t66 -30.5q9 0 39 4v-100q-26 -6 -70 -6q-87 0 -131 50t-44 159v250zM154 -190q-19 6 -29.5 21.5t-10.5 37.5q0 26 18 44t44 18q25 0 43.5 -18.5t18.5 -43.5q0 -17 -7.5 -33.5t-33.5 -59.5l-44 -77
h-61z" />
    <glyph glyph-name="ubreve" unicode="&#x16d;" 
d="M63 221v317h122v-311q0 -69 29 -103q28 -34 87 -34t87 34q29 34 29 103v311h122v-317q0 -65 -16 -109.5t-49 -72.5q-61 -52 -173 -52t-173 52q-33 28 -49 72.5t-16 109.5zM136 745h89q7 -56 76 -56q35 0 54.5 15t22.5 41h88q-6 -56 -47 -89.5t-119 -33.5q-77 0 -118 33.5
t-46 89.5z" />
    <glyph glyph-name="uhungarumlaut" unicode="&#x171;" 
d="M63 221v317h122v-311q0 -69 29 -103q28 -34 87 -34t87 34q29 34 29 103v311h122v-317q0 -65 -16 -109.5t-49 -72.5q-61 -52 -173 -52t-173 52q-33 28 -49 72.5t-16 109.5zM406 745l-147 -116h-150l142 116h155zM621 745l-146 -116h-150l142 116h154z" />
    <glyph glyph-name="umacron" unicode="&#x16b;" 
d="M63 221v317h122v-311q0 -69 29 -103q28 -34 87 -34t87 34q29 34 29 103v311h122v-317q0 -65 -16 -109.5t-49 -72.5q-61 -52 -173 -52t-173 52q-33 28 -49 72.5t-16 109.5zM147 733h306v-85h-306v85z" />
    <glyph glyph-name="uogonek" unicode="&#x173;" 
d="M63 221v317h122v-311q0 -69 29 -103q28 -34 87 -34t87 34q29 34 29 103v311h122v-317q0 -65 -16 -109.5t-49 -72.5q-61 -52 -173 -52t-173 52q-33 28 -49 72.5t-16 109.5zM295 -75q0 -19 13.5 -28.5t34.5 -9.5t41 6v-74q-28 -7 -66 -7q-55 0 -93 23t-38 68
q0 31 20.5 55.5t54.5 41.5h122q-47 -23 -68 -38.5t-21 -36.5z" />
    <glyph glyph-name="uring" unicode="&#x16f;" 
d="M63 221v317h122v-311q0 -69 29 -103q28 -34 87 -34t87 34q29 34 29 103v311h122v-317q0 -65 -16 -109.5t-49 -72.5q-61 -52 -173 -52t-173 52q-33 28 -49 72.5t-16 109.5zM300 612q-39 0 -66.5 25.5t-27.5 62.5q0 38 27.5 63t66.5 25t66.5 -25t27.5 -63
q0 -37 -27.5 -62.5t-66.5 -25.5zM300 659q18 0 30.5 11.5t12.5 29.5t-12.5 30.5t-30.5 12.5q-17 0 -29.5 -12t-12.5 -31q0 -18 12 -29.5t30 -11.5z" />
    <glyph glyph-name="utilde" unicode="&#x169;" 
d="M63 221v317h122v-311q0 -69 29 -103q28 -34 87 -34t87 34q29 34 29 103v311h122v-317q0 -65 -16 -109.5t-49 -72.5q-61 -52 -173 -52t-173 52q-33 28 -49 72.5t-16 109.5zM504 745q-18 -121 -126 -121q-22 0 -39 6.5t-41 19.5q-16 9 -27.5 14t-22.5 5q-41 0 -49 -45h-87
q19 121 127 121q23 0 39.5 -6.5t37.5 -19.5q17 -10 28 -14.5t24 -4.5q41 0 50 45h86z" />
    <glyph glyph-name="uni1EE5" unicode="&#x1ee5;" 
d="M63 221v317h122v-311q0 -69 29 -103q28 -34 87 -34t87 34q29 34 29 103v311h122v-317q0 -65 -16 -109.5t-49 -72.5q-61 -52 -173 -52t-173 52q-33 28 -49 72.5t-16 109.5zM300 -54q28 0 47 -19t19 -47q0 -27 -19 -46.5t-47 -19.5q-27 0 -46.5 19.5t-19.5 46.5
q0 28 19.5 47t46.5 19z" />
    <glyph glyph-name="wacute" unicode="&#x1e83;" horiz-adv-x="758" 
d="M134 538l83 -386l97 386h129l98 -386l82 386h123l-134 -538h-125l-109 417l-109 -417h-124l-133 538h122zM602 745l-147 -116h-150l142 116h155z" />
    <glyph glyph-name="wcircumflex" unicode="&#x175;" horiz-adv-x="758" 
d="M134 538l83 -386l97 386h129l98 -386l82 386h123l-134 -538h-125l-109 417l-109 -417h-124l-133 538h122zM447 629l-68 51l-68 -51h-129l142 116h109l143 -116h-129z" />
    <glyph glyph-name="wdieresis" unicode="&#x1e85;" horiz-adv-x="758" 
d="M134 538l83 -386l97 386h129l98 -386l82 386h123l-134 -538h-125l-109 417l-109 -417h-124l-133 538h122zM260 756q28 0 47 -19t19 -46q0 -28 -19 -47t-47 -19q-27 0 -46.5 19t-19.5 47q0 27 19.5 46t46.5 19zM499 756q27 0 46.5 -19t19.5 -46q0 -28 -19.5 -47t-46.5 -19
q-28 0 -47 19t-19 47q0 27 19 46t47 19z" />
    <glyph glyph-name="wgrave" unicode="&#x1e81;" horiz-adv-x="758" 
d="M134 538l83 -386l97 386h129l98 -386l82 386h123l-134 -538h-125l-109 417l-109 -417h-124l-133 538h122zM314 745l142 -116h-150l-147 116h155z" />
    <glyph glyph-name="ycircumflex" unicode="&#x177;" horiz-adv-x="559" 
d="M10 538h134l137 -383l144 383h124l-291 -733h-125l81 206zM341 629l-68 51l-68 -51h-129l142 116h109l143 -116h-129z" />
    <glyph glyph-name="ygrave" unicode="&#x1ef3;" horiz-adv-x="559" 
d="M10 538h134l137 -383l144 383h124l-291 -733h-125l81 206zM221 745l142 -116h-150l-147 116h155z" />
    <glyph glyph-name="uni0233" unicode="&#x233;" horiz-adv-x="559" 
d="M10 538h134l137 -383l144 383h124l-291 -733h-125l81 206zM121 733h306v-85h-306v85z" />
    <glyph glyph-name="zacute" unicode="&#x17a;" horiz-adv-x="526" 
d="M332 441h-276v97h422v-97l-293 -344h300v-97h-446v97zM483 745l-147 -116h-150l142 116h155z" />
    <glyph glyph-name="zcaron" unicode="&#x17e;" horiz-adv-x="526" 
d="M332 441h-276v97h422v-97l-293 -344h300v-97h-446v97zM208 745l68 -51l68 51h129l-143 -116h-109l-142 116h129z" />
    <glyph glyph-name="zdotaccent" unicode="&#x17c;" horiz-adv-x="526" 
d="M332 441h-276v97h422v-97l-293 -344h300v-97h-446v97zM267 756q28 0 47 -19t19 -46q0 -28 -19 -47t-47 -19q-27 0 -46.5 19t-19.5 47q0 27 19.5 46t46.5 19z" />
    <glyph glyph-name="ellipsis" unicode="&#x2026;" horiz-adv-x="787" 
d="M136 161q36 0 61.5 -25t25.5 -62t-25.5 -62t-61.5 -25q-37 0 -62 25t-25 62t25 62t62 25zM394 161q36 0 61.5 -25t25.5 -62t-25.5 -62t-61.5 -25q-37 0 -62 25t-25 62t25 62t62 25zM652 161q36 0 61.5 -25t25.5 -62t-25.5 -62t-61.5 -25q-37 0 -62 25t-25 62t25 62t62 25
z" />
    <glyph glyph-name="endash" unicode="&#x2013;" horiz-adv-x="539" 
d="M489 322v-107h-438v107h438z" />
    <glyph glyph-name="emdash" unicode="&#x2014;" horiz-adv-x="757" 
d="M707 322v-107h-656v107h656z" />
    <glyph glyph-name="guilsinglleft" unicode="&#x2039;" horiz-adv-x="349" 
d="M197 502h113l-131 -229l131 -229h-113l-158 229z" />
    <glyph glyph-name="guilsinglright" unicode="&#x203a;" horiz-adv-x="349" 
d="M169 273l-130 229h113l158 -229l-159 -229h-112z" />
    <glyph glyph-name="quoteleft" unicode="&#x2018;" horiz-adv-x="294" 
d="M165 592q26 -9 41.5 -31t15.5 -51q0 -37 -25 -62t-62 -25q-36 0 -61.5 25t-25.5 62q0 23 10.5 45.5t47.5 83.5l64 108h83z" />
    <glyph glyph-name="quoteright" unicode="&#x2019;" horiz-adv-x="294" 
d="M129 588q-26 9 -41.5 31t-15.5 51q0 37 25 62t62 25q36 0 61.5 -25t25.5 -62q0 -23 -10.5 -45.5t-47.5 -83.5l-64 -108h-83z" />
    <glyph glyph-name="quotedblleft" unicode="&#x201c;" horiz-adv-x="513" 
d="M165 592q26 -9 41.5 -31t15.5 -51q0 -37 -25 -62t-62 -25q-36 0 -61.5 25t-25.5 62q0 23 10.5 45.5t47.5 83.5l64 108h83zM384 592q26 -9 41.5 -31t15.5 -51q0 -37 -25 -62t-62 -25q-36 0 -61.5 25t-25.5 62q0 23 10.5 45.5t47.5 83.5l64 108h83z" />
    <glyph glyph-name="quotedblright" unicode="&#x201d;" horiz-adv-x="513" 
d="M129 588q-26 9 -41.5 31t-15.5 51q0 37 25 62t62 25q36 0 61.5 -25t25.5 -62q0 -23 -10.5 -45.5t-47.5 -83.5l-64 -108h-83zM348 588q-26 9 -41.5 31t-15.5 51q0 37 25 62t62 25q36 0 61.5 -25t25.5 -62q0 -23 -10.5 -45.5t-47.5 -83.5l-64 -108h-83z" />
    <glyph glyph-name="quotesinglbase" unicode="&#x201a;" horiz-adv-x="271" 
d="M106 -8q-26 9 -41.5 31t-15.5 51q0 37 25 62t62 25q36 0 61.5 -25t25.5 -62q0 -23 -10.5 -45.5t-47.5 -83.5l-64 -108h-83z" />
    <glyph glyph-name="quotedblbase" unicode="&#x201e;" horiz-adv-x="493" 
d="M106 -8q-26 9 -41.5 31t-15.5 51q0 37 25 62t62 25q36 0 61.5 -25t25.5 -62q0 -23 -10.5 -45.5t-47.5 -83.5l-64 -108h-83zM328 -8q-26 9 -41.5 31t-15.5 51q0 37 25 62t62 25q36 0 61.5 -25t25.5 -62q0 -23 -10.5 -45.5t-47.5 -83.5l-64 -108h-83z" />
    <glyph glyph-name="bullet" unicode="&#x2022;" horiz-adv-x="390" 
d="M195 377q44 0 74.5 -30.5t30.5 -74.5t-30.5 -74.5t-74.5 -30.5q-43 0 -74 31t-31 74q0 44 31 74.5t74 30.5z" />
    <glyph glyph-name="minus" unicode="&#x2212;" horiz-adv-x="690" 
d="M80 435h529v-107h-529v107z" />
    <glyph glyph-name="Euro" unicode="&#x20ac;" horiz-adv-x="772" 
d="M611 234h111q-17 -118 -96 -182.5t-196 -64.5t-193.5 68.5t-102.5 191.5h-136l52 77h74q-2 30 -2 47v24h-124l52 76h80q21 135 99.5 210.5t200.5 75.5q117 0 196 -65t96 -183h-111q-15 77 -63.5 111.5t-117.5 34.5q-81 0 -126.5 -50.5t-61.5 -133.5h288l-52 -76h-245v-24
q0 -15 2 -47h208l-52 -77h-144q19 -74 63.5 -117t119.5 -43q68 0 117 35t64 112z" />
    <glyph glyph-name="uniFB01" unicode="&#xfb01;" horiz-adv-x="586" 
d="M9 447v91h84v15q0 98 49 149.5t140 51.5q32 0 57 -5v-99q-21 3 -38 3q-46 0 -66 -23t-20 -77v-15h122v-91h-122v-447h-122v447h-84zM512 538v-538h-122v538h122zM526 698q0 -31 -22 -53t-53 -22q-30 0 -52.5 22t-22.5 53t22.5 53t52.5 22q31 0 53 -22t22 -53z" />
    <glyph glyph-name="uniFB02" unicode="&#xfb02;" horiz-adv-x="586" 
d="M9 447v91h84v15q0 98 49 149.5t140 51.5q32 0 57 -5v-99q-21 3 -38 3q-46 0 -66 -23t-20 -77v-15h122v-91h-122v-447h-122v447h-84zM512 745v-745h-122v745h122z" />
    <glyph glyph-name="glyph327" horiz-adv-x="266" 
d="M208 698q0 -31 -22 -53t-53 -22q-30 0 -52.5 22t-22.5 53t22.5 53t52.5 22q31 0 53 -22t22 -53z" />
    <glyph glyph-name="breve" unicode="&#x2d8;" horiz-adv-x="387" 
d="M28 745h89q7 -56 76 -56q35 0 54.5 15t22.5 41h88q-6 -56 -47 -89.5t-119 -33.5q-77 0 -118 33.5t-46 89.5z" />
    <glyph glyph-name="caron" unicode="&#x2c7;" horiz-adv-x="436" 
d="M150 745l68 -51l68 51h129l-143 -116h-109l-142 116h129z" />
    <glyph glyph-name="circumflex" unicode="&#x2c6;" horiz-adv-x="436" 
d="M286 629l-68 51l-68 -51h-129l142 116h109l143 -116h-129z" />
    <glyph glyph-name="dotaccent" unicode="&#x2d9;" horiz-adv-x="160" 
d="M80 756q28 0 47 -19t19 -46q0 -28 -19 -47t-47 -19q-27 0 -46.5 19t-19.5 47q0 27 19.5 46t46.5 19z" />
    <glyph glyph-name="glyph332" horiz-adv-x="160" 
d="M80 -54q28 0 47 -19t19 -47q0 -27 -19 -46.5t-47 -19.5q-27 0 -46.5 19.5t-19.5 46.5q0 28 19.5 47t46.5 19z" />
    <glyph glyph-name="hungarumlaut" unicode="&#x2dd;" horiz-adv-x="482" 
d="M299 745l-147 -116h-150l142 116h155zM514 745l-146 -116h-150l142 116h154z" />
    <glyph glyph-name="ogonek" unicode="&#x2db;" horiz-adv-x="264" 
d="M136 -75q0 -19 13.5 -28.5t34.5 -9.5t41 6v-74q-28 -7 -66 -7q-55 0 -93 23t-38 68q0 31 20.5 55.5t54.5 41.5h122q-47 -23 -68 -38.5t-21 -36.5z" />
    <glyph glyph-name="ring" unicode="&#x2da;" horiz-adv-x="244" 
d="M122 612q-39 0 -66.5 25.5t-27.5 62.5q0 38 27.5 63t66.5 25t66.5 -25t27.5 -63q0 -37 -27.5 -62.5t-66.5 -25.5zM122 659q18 0 30.5 11.5t12.5 29.5t-12.5 30.5t-30.5 12.5q-17 0 -29.5 -12t-12.5 -31q0 -18 12 -29.5t30 -11.5z" />
    <glyph glyph-name="tilde" unicode="&#x2dc;" horiz-adv-x="449" 
d="M420 745q-18 -121 -126 -121q-22 0 -39 6.5t-41 19.5q-16 9 -27.5 14t-22.5 5q-41 0 -49 -45h-87q19 121 127 121q23 0 39.5 -6.5t37.5 -19.5q17 -10 28 -14.5t24 -4.5q41 0 50 45h86z" />
    <glyph glyph-name="glyph337" horiz-adv-x="437" 
d="M186 575l30 170h117l-66 -170h-81z" />
    <glyph glyph-name="glyph338" horiz-adv-x="0" 
d="M-99 -190q-19 6 -29.5 21.5t-10.5 37.5q0 26 18 44t44 18q25 0 43.5 -18.5t18.5 -43.5q0 -17 -7.5 -33.5t-33.5 -59.5l-44 -77h-61z" />
    <glyph glyph-name="glyph339" horiz-adv-x="317" 
d="M-7 803l140 113h156l-148 -113h-148z" />
    <glyph glyph-name="glyph340" horiz-adv-x="390" 
d="M193 799q-74 0 -117.5 29.5t-47.5 87.5h89q4 -27 22.5 -39t54.5 -12q71 0 78 51h89q-6 -59 -48.5 -88t-119.5 -29z" />
    <glyph glyph-name="glyph341" horiz-adv-x="443" 
d="M150 916l72 -55l70 55h133l-137 -113h-132l-138 113h132z" />
    <glyph glyph-name="glyph342" horiz-adv-x="261" 
d="M100 -148q24 0 40.5 7.5t16.5 22.5q0 13 -11.5 20.5t-29.5 7.5q-26 0 -39 -9l-28 17l53 86h50l-33 -54q18 3 37 3q32 -1 53.5 -19.5t21.5 -48.5q0 -38 -33 -59t-80 -21q-54 0 -91 16l16 44q28 -13 57 -13z" />
    <glyph glyph-name="glyph343" horiz-adv-x="443" 
d="M292 803l-70 55l-72 -55h-132l139 113h132l136 -113h-133z" />
    <glyph glyph-name="glyph344" horiz-adv-x="399" 
d="M80 927q28 0 47 -19t19 -47q0 -27 -19 -46.5t-47 -19.5q-27 0 -46.5 19.5t-19.5 46.5q0 28 19.5 47t46.5 19zM319 927q27 0 46.5 -19t19.5 -47q0 -27 -19.5 -46.5t-46.5 -19.5q-28 0 -47 19.5t-19 46.5q0 28 19 47t47 19z" />
    <glyph glyph-name="glyph345" horiz-adv-x="183" 
d="M92 927q28 0 47 -19t19 -47q0 -27 -19 -46.5t-47 -19.5t-47 19.5t-19 46.5q0 28 19 47t47 19z" />
    <glyph glyph-name="glyph346" horiz-adv-x="317" 
d="M305 803h-148l-149 113h157z" />
    <glyph glyph-name="glyph347" horiz-adv-x="502" 
d="M4 803l140 113h156l-148 -113h-148zM214 803l140 113h156l-148 -113h-148z" />
    <glyph glyph-name="glyph348" horiz-adv-x="367" 
d="M28 904h311v-87h-311v87z" />
    <glyph glyph-name="glyph349" horiz-adv-x="258" 
d="M137 -75q0 -19 13 -28.5t34 -9.5q20 0 46 8v-75q-32 -8 -71 -8q-55 0 -93 23t-38 69q0 31 20.5 55t54.5 41h127q-47 -22 -70 -39t-23 -36z" />
    <glyph glyph-name="glyph350" horiz-adv-x="238" 
d="M118 795q-38 0 -64 24.5t-26 60.5q0 37 26.5 61t63.5 24q38 0 64.5 -24t26.5 -61t-26 -61t-65 -24zM118 837q19 0 32 12t13 31t-13.5 31.5t-31.5 12.5q-17 0 -30.5 -12.5t-13.5 -31.5t13.5 -31t30.5 -12z" />
    <glyph glyph-name="glyph351" horiz-adv-x="444" 
d="M415 920q-11 -66 -48.5 -93.5t-79.5 -27.5q-23 0 -40 6.5t-38 18.5q-15 9 -25 13.5t-22 4.5q-40 0 -48 -43h-86q11 67 49.5 94t80.5 27q22 0 38.5 -6t34.5 -18q17 -9 27 -13.5t23 -4.5q39 0 50 42h84z" />
    </font>
</defs>
</svg>
