<svg width="32" height="32" viewBox="0 0 32 32" fill="none" xmlns="http://www.w3.org/2000/svg">
<g clip-path="url(#clip0_11571_372119)">
<g clip-path="url(#clip1_11571_372119)">
<path d="M20.3332 22C21.2536 22 21.9998 21.2538 21.9998 20.3333C21.9998 19.4128 21.2536 18.6666 20.3332 18.6666C19.4127 18.6666 18.6665 19.4128 18.6665 20.3333C18.6665 21.2538 19.4127 22 20.3332 22Z" stroke="#111820" stroke-width="1.5" stroke-linecap="round" stroke-linejoin="round"/>
<path d="M11.6667 22C12.5871 22 13.3333 21.2538 13.3333 20.3333C13.3333 19.4128 12.5871 18.6666 11.6667 18.6666C10.7462 18.6666 10 19.4128 10 20.3333C10 21.2538 10.7462 22 11.6667 22Z" stroke="#111820" stroke-width="1.5" stroke-linecap="round" stroke-linejoin="round"/>
<path d="M18.6665 13.3334H21.3332L23.3332 15.3334V18.6667H18.6665V13.3334Z" stroke="#111820" stroke-width="1.5" stroke-linecap="round" stroke-linejoin="round"/>
<path d="M18.6665 10H8.6665V18.6667H18.6665V10Z" stroke="#111820" stroke-width="1.5" stroke-linecap="round" stroke-linejoin="round"/>
</g>
</g>
<defs>
<clipPath id="clip0_11571_372119">
<rect width="32" height="32" fill="white"/>
</clipPath>
<clipPath id="clip1_11571_372119">
<rect width="16" height="16" fill="white" transform="translate(8 8)"/>
</clipPath>
</defs>
</svg>
