<svg width="32" height="32" viewBox="0 0 32 32" fill="none" xmlns="http://www.w3.org/2000/svg">
<g clip-path="url(#clip0_11571_372135)">
<path d="M21.3335 12.6666H10.6668C9.93045 12.6666 9.3335 13.2636 9.3335 14V20.6666C9.3335 21.403 9.93045 22 10.6668 22H21.3335C22.0699 22 22.6668 21.403 22.6668 20.6666V14C22.6668 13.2636 22.0699 12.6666 21.3335 12.6666Z" stroke="#111820" stroke-width="1.5" stroke-linecap="round" stroke-linejoin="round"/>
<path d="M18.6668 22V11.3333C18.6668 10.9797 18.5264 10.6406 18.2763 10.3905C18.0263 10.1405 17.6871 10 17.3335 10H14.6668C14.3132 10 13.9741 10.1405 13.724 10.3905C13.474 10.6406 13.3335 10.9797 13.3335 11.3333V22" stroke="#111820" stroke-width="1.5" stroke-linecap="round" stroke-linejoin="round"/>
</g>
<defs>
<clipPath id="clip0_11571_372135">
<rect width="32" height="32" fill="white"/>
</clipPath>
</defs>
</svg>
