<svg width="32" height="32" viewBox="0 0 32 32" fill="none" xmlns="http://www.w3.org/2000/svg">
<g clip-path="url(#clip0_11571_372173)">
<path d="M20.6667 15.3334H11.3333C10.597 15.3334 10 15.9303 10 16.6667V21.3334C10 22.0698 10.597 22.6667 11.3333 22.6667H20.6667C21.403 22.6667 22 22.0698 22 21.3334V16.6667C22 15.9303 21.403 15.3334 20.6667 15.3334Z" stroke="#111820" stroke-width="1.5" stroke-linecap="round" stroke-linejoin="round"/>
<path d="M12.6665 15.3334V12.6667C12.6665 11.7827 13.0177 10.9348 13.6428 10.3097C14.2679 9.68456 15.1158 9.33337 15.9998 9.33337C16.8839 9.33337 17.7317 9.68456 18.3569 10.3097C18.982 10.9348 19.3332 11.7827 19.3332 12.6667V15.3334" stroke="#111820" stroke-width="1.5" stroke-linecap="round" stroke-linejoin="round"/>
</g>
<defs>
<clipPath id="clip0_11571_372173">
<rect width="32" height="32" fill="white"/>
</clipPath>
</defs>
</svg>
