<svg width="32" height="32" viewBox="0 0 32 32" fill="none" xmlns="http://www.w3.org/2000/svg">
<g clip-path="url(#clip0_11571_372187)">
<path d="M17.6 12.8H18.4C18.6122 12.8 18.8157 12.7157 18.9657 12.5657C19.1157 12.4157 19.2 12.2122 19.2 12C19.2 11.7878 19.1157 11.5843 18.9657 11.4343C18.8157 11.2843 18.6122 11.2 18.4 11.2H17.6C17.3878 11.2 17.1843 11.2843 17.0343 11.4343C16.8843 11.5843 16.8 11.7878 16.8 12C16.8 12.2122 16.8843 12.4157 17.0343 12.5657C17.1843 12.7157 17.3878 12.8 17.6 12.8ZM17.6 16H18.4C18.6122 16 18.8157 15.9157 18.9657 15.7657C19.1157 15.6157 19.2 15.4122 19.2 15.2C19.2 14.9878 19.1157 14.7843 18.9657 14.6343C18.8157 14.4843 18.6122 14.4 18.4 14.4H17.6C17.3878 14.4 17.1843 14.4843 17.0343 14.6343C16.8843 14.7843 16.8 14.9878 16.8 15.2C16.8 15.4122 16.8843 15.6157 17.0343 15.7657C17.1843 15.9157 17.3878 16 17.6 16ZM13.6 12.8H14.4C14.6122 12.8 14.8157 12.7157 14.9657 12.5657C15.1157 12.4157 15.2 12.2122 15.2 12C15.2 11.7878 15.1157 11.5843 14.9657 11.4343C14.8157 11.2843 14.6122 11.2 14.4 11.2H13.6C13.3878 11.2 13.1843 11.2843 13.0343 11.4343C12.8843 11.5843 12.8 11.7878 12.8 12C12.8 12.2122 12.8843 12.4157 13.0343 12.5657C13.1843 12.7157 13.3878 12.8 13.6 12.8ZM13.6 16H14.4C14.6122 16 14.8157 15.9157 14.9657 15.7657C15.1157 15.6157 15.2 15.4122 15.2 15.2C15.2 14.9878 15.1157 14.7843 14.9657 14.6343C14.8157 14.4843 14.6122 14.4 14.4 14.4H13.6C13.3878 14.4 13.1843 14.4843 13.0343 14.6343C12.8843 14.7843 12.8 14.9878 12.8 15.2C12.8 15.4122 12.8843 15.6157 13.0343 15.7657C13.1843 15.9157 13.3878 16 13.6 16ZM23.2 22.4H22.4V8.8C22.4 8.58783 22.3157 8.38434 22.1657 8.23431C22.0157 8.08429 21.8122 8 21.6 8H10.4C10.1878 8 9.98434 8.08429 9.83431 8.23431C9.68429 8.38434 9.6 8.58783 9.6 8.8V22.4H8.8C8.58783 22.4 8.38434 22.4843 8.23431 22.6343C8.08429 22.7843 8 22.9878 8 23.2C8 23.4122 8.08429 23.6157 8.23431 23.7657C8.38434 23.9157 8.58783 24 8.8 24H23.2C23.4122 24 23.6157 23.9157 23.7657 23.7657C23.9157 23.6157 24 23.4122 24 23.2C24 22.9878 23.9157 22.7843 23.7657 22.6343C23.6157 22.4843 23.4122 22.4 23.2 22.4ZM16.8 22.4H15.2V19.2H16.8V22.4ZM20.8 22.4H18.4V18.4C18.4 18.1878 18.3157 17.9843 18.1657 17.8343C18.0157 17.6843 17.8122 17.6 17.6 17.6H14.4C14.1878 17.6 13.9843 17.6843 13.8343 17.8343C13.6843 17.9843 13.6 18.1878 13.6 18.4V22.4H11.2V9.6H20.8V22.4Z" fill="#111820"/>
</g>
<defs>
<clipPath id="clip0_11571_372187">
<rect width="32" height="32" fill="white"/>
</clipPath>
</defs>
</svg>
