<svg width="16" height="16" viewBox="0 0 16 16" fill="none" xmlns="http://www.w3.org/2000/svg">
<path d="M10.8037 1.44384C11.8397 0.40764 13.5197 0.40764 14.5557 1.44384C15.5923 2.48003 15.5923 4.16003 14.5557 5.19622L5.31704 14.4351C5.22437 14.5277 5.10638 14.5908 4.97771 14.6165L1.46039 15.3201C0.995724 15.4129 0.587059 15.0037 0.679725 14.5395L1.38306 11.0217C1.40906 10.8933 1.47172 10.7753 1.56439 10.6827L10.8037 1.44384ZM11.7417 6.13428L9.86569 4.25809L2.36039 11.7629L1.89172 14.1081L4.23705 13.639L11.7417 6.13428ZM13.6177 2.38197C13.0997 1.86383 12.2597 1.86383 11.7417 2.38197L10.8037 3.32003L12.6797 5.19622L13.6177 4.25809C14.1357 3.74003 14.1357 2.90003 13.6177 2.38197Z" fill="#3665F3"/>
</svg>
