<svg width="32" height="32" viewBox="0 0 32 32" fill="none" xmlns="http://www.w3.org/2000/svg">
<g clip-path="url(#clip0_11571_372200)">
<path d="M14.6665 16.6667C14.9528 17.0495 15.3181 17.3662 15.7375 17.5954C16.157 17.8245 16.6208 17.9608 17.0976 17.9949C17.5744 18.0291 18.0529 17.9603 18.5007 17.7932C18.9486 17.6262 19.3552 17.3648 19.6932 17.0267L21.6932 15.0267C22.3004 14.3981 22.6363 13.556 22.6288 12.6821C22.6212 11.8081 22.2706 10.972 21.6526 10.354C21.0345 9.73597 20.1985 9.38541 19.3245 9.37781C18.4505 9.37022 17.6085 9.7062 16.9798 10.3134L15.8332 11.4534" stroke="#111820" stroke-width="2" stroke-linecap="round" stroke-linejoin="round"/>
<path d="M17.3335 15.3333C17.0472 14.9506 16.6819 14.6339 16.2624 14.4047C15.843 14.1755 15.3791 14.0392 14.9024 14.0051C14.4256 13.971 13.9471 14.0397 13.4992 14.2068C13.0514 14.3739 12.6447 14.6353 12.3068 14.9733L10.3068 16.9733C9.69961 17.602 9.36363 18.444 9.37122 19.318C9.37881 20.192 9.72938 21.028 10.3474 21.646C10.9654 22.2641 11.8015 22.6146 12.6755 22.6222C13.5495 22.6298 14.3915 22.2938 15.0201 21.6867L16.1601 20.5467" stroke="#111820" stroke-width="2" stroke-linecap="round" stroke-linejoin="round"/>
</g>
<defs>
<clipPath id="clip0_11571_372200">
<path d="M0 16C0 7.16344 7.16344 0 16 0C24.8366 0 32 7.16344 32 16C32 24.8366 24.8366 32 16 32C7.16344 32 0 24.8366 0 16Z" fill="white"/>
</clipPath>
</defs>
</svg>
