<svg width="32" height="32" viewBox="0 0 32 32" fill="none" xmlns="http://www.w3.org/2000/svg">
<g clip-path="url(#clip0_11571_372149)">
<mask id="path-1-outside-1_11571_372149" maskUnits="userSpaceOnUse" x="6" y="8" width="20" height="16" fill="black">
<rect fill="white" x="6" y="8" width="20" height="16"/>
<path d="M21.5571 21.599C21.97 21.599 22.3048 21.2642 22.3048 20.8513C22.3048 20.4383 21.97 20.1036 21.5571 20.1036C21.1441 20.1036 20.8094 20.4383 20.8094 20.8513C20.8094 21.2642 21.1441 21.599 21.5571 21.599Z"/>
<path fill-rule="evenodd" clip-rule="evenodd" d="M8.95801 11.131C8.95801 9.95408 9.91208 9 11.089 9H20.0616C21.2385 9 22.1926 9.95408 22.1926 11.131V14.234H22.6786C23.8555 14.234 24.8096 15.1881 24.8096 16.365V21.599C24.8096 22.7759 23.8555 23.73 22.6786 23.73H20.4354C19.4799 23.73 18.6712 23.1011 18.4008 22.2346H8.01097C7.22636 22.2346 6.74173 21.3786 7.14541 20.7058L8.95801 17.6848V11.131ZM20.9215 11.131V14.234H20.4354C19.2585 14.234 18.3045 15.1881 18.3045 16.365V17.2249H10.2291V11.131C10.2291 10.6561 10.6141 10.2711 11.089 10.2711H20.0616C20.5365 10.2711 20.9215 10.6561 20.9215 11.131ZM9.95367 18.496H18.3045V20.9635H8.47319L9.95367 18.496ZM20.4354 15.5051C19.9605 15.5051 19.5756 15.8901 19.5756 16.365V21.599C19.5756 22.0739 19.9605 22.4589 20.4354 22.4589H22.6786C23.1535 22.4589 23.5385 22.0739 23.5385 21.599V16.365C23.5385 15.8901 23.1535 15.5051 22.6786 15.5051H20.4354Z"/>
</mask>
<path d="M21.5571 21.599C21.97 21.599 22.3048 21.2642 22.3048 20.8513C22.3048 20.4383 21.97 20.1036 21.5571 20.1036C21.1441 20.1036 20.8094 20.4383 20.8094 20.8513C20.8094 21.2642 21.1441 21.599 21.5571 21.599Z" fill="#111820"/>
<path fill-rule="evenodd" clip-rule="evenodd" d="M8.95801 11.131C8.95801 9.95408 9.91208 9 11.089 9H20.0616C21.2385 9 22.1926 9.95408 22.1926 11.131V14.234H22.6786C23.8555 14.234 24.8096 15.1881 24.8096 16.365V21.599C24.8096 22.7759 23.8555 23.73 22.6786 23.73H20.4354C19.4799 23.73 18.6712 23.1011 18.4008 22.2346H8.01097C7.22636 22.2346 6.74173 21.3786 7.14541 20.7058L8.95801 17.6848V11.131ZM20.9215 11.131V14.234H20.4354C19.2585 14.234 18.3045 15.1881 18.3045 16.365V17.2249H10.2291V11.131C10.2291 10.6561 10.6141 10.2711 11.089 10.2711H20.0616C20.5365 10.2711 20.9215 10.6561 20.9215 11.131ZM9.95367 18.496H18.3045V20.9635H8.47319L9.95367 18.496ZM20.4354 15.5051C19.9605 15.5051 19.5756 15.8901 19.5756 16.365V21.599C19.5756 22.0739 19.9605 22.4589 20.4354 22.4589H22.6786C23.1535 22.4589 23.5385 22.0739 23.5385 21.599V16.365C23.5385 15.8901 23.1535 15.5051 22.6786 15.5051H20.4354Z" fill="#111820"/>
<path d="M22.1926 14.234H21.9926V14.434H22.1926V14.234ZM18.4008 22.2346L18.5918 22.175L18.5479 22.0346H18.4008V22.2346ZM7.14541 20.7058L6.97391 20.6029H6.97391L7.14541 20.7058ZM8.95801 17.6848L9.12951 17.7877L9.15801 17.7402V17.6848H8.95801ZM20.9215 14.234V14.434H21.1215V14.234H20.9215ZM18.3045 17.2249V17.4249H18.5045V17.2249H18.3045ZM10.2291 17.2249H10.0291V17.4249H10.2291V17.2249ZM18.3045 18.496H18.5045V18.296H18.3045V18.496ZM9.95367 18.496V18.296H9.84043L9.78217 18.3931L9.95367 18.496ZM18.3045 20.9635V21.1635H18.5045V20.9635H18.3045ZM8.47319 20.9635L8.30169 20.8606L8.11995 21.1635H8.47319V20.9635ZM11.089 8.8C9.80163 8.8 8.75801 9.84362 8.75801 11.131H9.15801C9.15801 10.0645 10.0225 9.2 11.089 9.2V8.8ZM20.0616 8.8H11.089V9.2H20.0616V8.8ZM22.3926 11.131C22.3926 9.84362 21.349 8.8 20.0616 8.8V9.2C21.128 9.2 21.9926 10.0645 21.9926 11.131H22.3926ZM22.3926 14.234V11.131H21.9926V14.234H22.3926ZM22.6786 14.034H22.1926V14.434H22.6786V14.034ZM25.0096 16.365C25.0096 15.0776 23.966 14.034 22.6786 14.034V14.434C23.745 14.434 24.6096 15.2985 24.6096 16.365H25.0096ZM25.0096 21.599V16.365H24.6096V21.599H25.0096ZM22.6786 23.93C23.966 23.93 25.0096 22.8864 25.0096 21.599H24.6096C24.6096 22.6655 23.745 23.53 22.6786 23.53V23.93ZM20.4354 23.93H22.6786V23.53H20.4354V23.93ZM18.2099 22.2941C18.5056 23.2418 19.3899 23.93 20.4354 23.93V23.53C19.5699 23.53 18.8368 22.9603 18.5918 22.175L18.2099 22.2941ZM8.01097 22.4346H18.4008V22.0346H8.01097V22.4346ZM6.97391 20.6029C6.49025 21.409 7.0709 22.4346 8.01097 22.4346V22.0346C7.38182 22.0346 6.99321 21.3482 7.31691 20.8087L6.97391 20.6029ZM8.78651 17.5819L6.97391 20.6029L7.31691 20.8087L9.12951 17.7877L8.78651 17.5819ZM8.75801 11.131V17.6848H9.15801V11.131H8.75801ZM21.1215 14.234V11.131H20.7215V14.234H21.1215ZM20.4354 14.434H20.9215V14.034H20.4354V14.434ZM18.5045 16.365C18.5045 15.2985 19.369 14.434 20.4354 14.434V14.034C19.1481 14.034 18.1045 15.0776 18.1045 16.365H18.5045ZM18.5045 17.2249V16.365H18.1045V17.2249H18.5045ZM10.2291 17.4249H18.3045V17.0249H10.2291V17.4249ZM10.0291 11.131V17.2249H10.4291V11.131H10.0291ZM11.089 10.0711C10.5036 10.0711 10.0291 10.5456 10.0291 11.131H10.4291C10.4291 10.7666 10.7246 10.4711 11.089 10.4711V10.0711ZM20.0616 10.0711H11.089V10.4711H20.0616V10.0711ZM21.1215 11.131C21.1215 10.5456 20.6469 10.0711 20.0616 10.0711V10.4711C20.426 10.4711 20.7215 10.7666 20.7215 11.131H21.1215ZM18.3045 18.296H9.95367V18.696H18.3045V18.296ZM18.5045 20.9635V18.496H18.1045V20.9635H18.5045ZM8.47319 21.1635H18.3045V20.7635H8.47319V21.1635ZM9.78217 18.3931L8.30169 20.8606L8.64469 21.0664L10.1252 18.5989L9.78217 18.3931ZM19.7756 16.365C19.7756 16.0006 20.071 15.7051 20.4354 15.7051V15.3051C19.8501 15.3051 19.3756 15.7796 19.3756 16.365H19.7756ZM19.7756 21.599V16.365H19.3756V21.599H19.7756ZM20.4354 22.2589C20.071 22.2589 19.7756 21.9634 19.7756 21.599H19.3756C19.3756 22.1844 19.8501 22.6589 20.4354 22.6589V22.2589ZM22.6786 22.2589H20.4354V22.6589H22.6786V22.2589ZM23.3385 21.599C23.3385 21.9634 23.043 22.2589 22.6786 22.2589V22.6589C23.2639 22.6589 23.7385 22.1844 23.7385 21.599H23.3385ZM23.3385 16.365V21.599H23.7385V16.365H23.3385ZM22.6786 15.7051C23.043 15.7051 23.3385 16.0006 23.3385 16.365H23.7385C23.7385 15.7796 23.2639 15.3051 22.6786 15.3051V15.7051ZM20.4354 15.7051H22.6786V15.3051H20.4354V15.7051ZM22.1048 20.8513C22.1048 21.1538 21.8596 21.399 21.5571 21.399V21.799C22.0805 21.799 22.5048 21.3747 22.5048 20.8513H22.1048ZM21.5571 20.3036C21.8596 20.3036 22.1048 20.5488 22.1048 20.8513H22.5048C22.5048 20.3279 22.0805 19.9036 21.5571 19.9036V20.3036ZM21.0094 20.8513C21.0094 20.5488 21.2546 20.3036 21.5571 20.3036V19.9036C21.0337 19.9036 20.6094 20.3279 20.6094 20.8513H21.0094ZM21.5571 21.399C21.2546 21.399 21.0094 21.1538 21.0094 20.8513H20.6094C20.6094 21.3747 21.0337 21.799 21.5571 21.799V21.399Z" fill="#111820" mask="url(#path-1-outside-1_11571_372149)"/>
</g>
<defs>
<clipPath id="clip0_11571_372149">
<rect width="32" height="32" fill="white"/>
</clipPath>
</defs>
</svg>
