<svg width="32" height="32" viewBox="0 0 32 32" fill="none" xmlns="http://www.w3.org/2000/svg">
<g clip-path="url(#clip0_11571_372161)">
<path d="M24.5714 17.4581C24.5682 17.4111 24.5607 17.3644 24.5488 17.3188L22.7051 12.4091C23.0406 12.192 23.3166 11.8945 23.5078 11.5437C23.699 11.1928 23.7995 10.7996 23.8 10.4C23.8 10.1878 23.7157 9.98434 23.5657 9.83431C23.4157 9.68429 23.2122 9.6 23 9.6C22.7878 9.6 22.5843 9.68429 22.4343 9.83431C22.2843 9.98434 22.2 10.1878 22.2 10.4C22.1999 10.5783 22.1403 10.7514 22.0307 10.892C21.921 11.0325 21.7676 11.1325 21.5947 11.1759C21.4218 11.2193 21.2393 11.2038 21.0762 11.1317C20.9132 11.0597 20.7788 10.9352 20.6945 10.7781C20.4892 10.4137 20.1891 10.1118 19.8259 9.90433C19.4627 9.69689 19.0502 9.59172 18.632 9.6H16.6V8.8C16.6 8.58783 16.5157 8.38434 16.3657 8.23431C16.2157 8.08429 16.0122 8 15.8 8C15.5878 8 15.3843 8.08429 15.2343 8.23431C15.0843 8.38434 15 8.58783 15 8.8V9.6H12.968C12.5498 9.59172 12.1373 9.69689 11.7741 9.90433C11.4109 10.1118 11.1108 10.4137 10.9055 10.7781C10.8212 10.9352 10.6868 11.0597 10.5238 11.1317C10.3607 11.2038 10.1782 11.2193 10.0053 11.1759C9.83243 11.1325 9.67898 11.0325 9.56932 10.892C9.45965 10.7514 9.40006 10.5783 9.4 10.4C9.4 10.1878 9.31571 9.98434 9.16569 9.83431C9.01566 9.68429 8.81217 9.6 8.6 9.6C8.38783 9.6 8.18434 9.68429 8.03431 9.83431C7.88429 9.98434 7.8 10.1878 7.8 10.4C7.80052 10.7996 7.90097 11.1928 8.0922 11.5437C8.28343 11.8945 8.55938 12.192 8.89492 12.4091L7.0512 17.3188C7.03936 17.3644 7.03181 17.4111 7.02865 17.4581C7.0146 17.5044 7.00501 17.5519 7 17.6C7 17.6074 7.00215 17.6143 7.0022 17.6217C7.00244 17.6322 7.0046 17.6419 7.00532 17.6524C7.01778 18.4915 7.35984 19.292 7.9576 19.8809C8.55537 20.4699 9.36084 20.8 10.2 20.8C11.0392 20.8 11.8446 20.4699 12.4424 19.8809C13.0402 19.292 13.3822 18.4915 13.3947 17.6524C13.3954 17.6419 13.3976 17.6322 13.3978 17.6217C13.3978 17.6143 13.4 17.6074 13.4 17.6C13.395 17.5519 13.3854 17.5044 13.3714 17.4581C13.3682 17.4111 13.3607 17.3644 13.3488 17.3188L11.5029 12.4034C11.8419 12.187 12.1209 11.8887 12.3141 11.5359C12.3839 11.4274 12.4811 11.3391 12.5959 11.2801C12.7107 11.2212 12.8391 11.1935 12.968 11.2H15V22.4H12.6C12.3878 22.4 12.1843 22.4843 12.0343 22.6343C11.8843 22.7843 11.8 22.9878 11.8 23.2C11.8 23.4122 11.8843 23.6157 12.0343 23.7657C12.1843 23.9157 12.3878 24 12.6 24H19C19.2122 24 19.4157 23.9157 19.5657 23.7657C19.7157 23.6157 19.8 23.4122 19.8 23.2C19.8 22.9878 19.7157 22.7843 19.5657 22.6343C19.4157 22.4843 19.2122 22.4 19 22.4H16.6V11.2H18.632C18.7609 11.1935 18.8893 11.2212 19.0041 11.2801C19.1189 11.3391 19.2161 11.4274 19.2859 11.5359C19.4791 11.8887 19.758 12.187 20.097 12.4034L18.2512 17.3188C18.2394 17.3644 18.2318 17.4111 18.2286 17.4581C18.2146 17.5044 18.205 17.5519 18.2 17.6C18.2 17.6074 18.2022 17.6143 18.2022 17.6217C18.2024 17.6322 18.2046 17.6419 18.2053 17.6524C18.2178 18.4915 18.5598 19.292 19.1576 19.8809C19.7554 20.4699 20.5608 20.8 21.4 20.8C22.2392 20.8 23.0446 20.4699 23.6424 19.8809C24.2402 19.292 24.5822 18.4915 24.5947 17.6524C24.5954 17.6419 24.5976 17.6322 24.5978 17.6217C24.5978 17.6143 24.6 17.6074 24.6 17.6C24.595 17.5519 24.5854 17.5044 24.5714 17.4581ZM10.2 13.4844L11.4451 16.8H8.95488L10.2 13.4844ZM11.5781 18.4C11.4369 18.6409 11.2358 18.8412 10.9943 18.9814C10.7529 19.1215 10.4792 19.1969 10.2 19.2C9.91923 19.1999 9.64342 19.1259 9.40029 18.9855C9.15715 18.8451 8.95524 18.6431 8.81484 18.4H11.5781ZM21.4 13.4844L22.6451 16.8H20.1549L21.4 13.4844ZM21.4 19.2C21.1192 19.1999 20.8434 19.1259 20.6003 18.9855C20.3572 18.8451 20.1552 18.6431 20.0148 18.4H22.7781C22.6369 18.6409 22.4358 18.8412 22.1943 18.9814C21.9529 19.1215 21.6792 19.1969 21.4 19.2Z" fill="#111820"/>
</g>
<defs>
<clipPath id="clip0_11571_372161">
<rect width="32" height="32" fill="white"/>
</clipPath>
</defs>
</svg>
