<svg width="32" height="32" viewBox="0 0 32 32" fill="none" xmlns="http://www.w3.org/2000/svg">
<g clip-path="url(#clip0_11571_372103)">
<g clip-path="url(#clip1_11571_372103)">
<path d="M23.3335 22V20.6667C23.3331 20.0758 23.1364 19.5019 22.7744 19.0349C22.4124 18.5679 21.9056 18.2344 21.3335 18.0867" stroke="#111820" stroke-width="1.5" stroke-linecap="round" stroke-linejoin="round"/>
<path d="M19.3332 22V20.6667C19.3332 19.9594 19.0522 19.2811 18.5521 18.781C18.052 18.281 17.3737 18 16.6665 18H11.3332C10.6259 18 9.94765 18.281 9.44755 18.781C8.94746 19.2811 8.6665 19.9594 8.6665 20.6667V22" stroke="#111820" stroke-width="1.5" stroke-linecap="round" stroke-linejoin="round"/>
<path d="M18.6665 10.0867C19.2401 10.2335 19.7485 10.5671 20.1116 11.0349C20.4747 11.5026 20.6717 12.0779 20.6717 12.67C20.6717 13.2621 20.4747 13.8374 20.1116 14.3051C19.7485 14.7729 19.2401 15.1065 18.6665 15.2533" stroke="#111820" stroke-width="1.5" stroke-linecap="round" stroke-linejoin="round"/>
<path d="M14.0002 15.3333C15.4729 15.3333 16.6668 14.1394 16.6668 12.6667C16.6668 11.1939 15.4729 10 14.0002 10C12.5274 10 11.3335 11.1939 11.3335 12.6667C11.3335 14.1394 12.5274 15.3333 14.0002 15.3333Z" stroke="#111820" stroke-width="1.5" stroke-linecap="round" stroke-linejoin="round"/>
</g>
</g>
<defs>
<clipPath id="clip0_11571_372103">
<rect width="32" height="32" fill="white"/>
</clipPath>
<clipPath id="clip1_11571_372103">
<rect width="16" height="16" fill="white" transform="translate(8 8)"/>
</clipPath>
</defs>
</svg>
