<svg width="32" height="32" viewBox="0 0 32 32" fill="none" xmlns="http://www.w3.org/2000/svg">
<circle cx="16" cy="16" r="16" fill="white"/>
<mask id="mask0_11666_371304" style="mask-type:alpha" maskUnits="userSpaceOnUse" x="6" y="6" width="20" height="20">
<circle cx="16" cy="16" r="10" fill="#C4C4C4"/>
</mask>
<g mask="url(#mask0_11666_371304)">
<path d="M15.8184 27.4587C21.3412 27.4587 25.8184 22.9816 25.8184 17.4587H15.8184C15.8184 22.9816 15.8184 22.7316 15.8184 27.4587Z" fill="#93C9FF"/>
<path d="M27.8184 18.0023C27.8184 11.1741 22.283 5.63867 15.4547 5.63867V18.0023C22.283 18.0023 21.9738 18.0023 27.8184 18.0023Z" fill="#659EFF"/>
<path fill-rule="evenodd" clip-rule="evenodd" d="M15.8167 5.71448C15.6294 5.70419 15.4407 5.69897 15.2509 5.69897C9.6068 5.69897 5.01955 10.3077 4.91887 16.0318H4.54346C4.64387 21.7561 9.23123 26.3651 14.8755 26.3651C15.1929 26.3651 15.5069 26.3505 15.817 26.322V16.0318H15.8167V5.71448Z" fill="#3665F3"/>
</g>
</svg>
